<svg width="13" height="24" viewBox="0 0 13 24" fill="none" xmlns="http://www.w3.org/2000/svg">
<path d="M0 1C0 0.447716 0.447715 0 1 0H12C12.5523 0 13 0.447715 13 1V23C13 23.5523 12.5523 24 12 24H1C0.447715 24 0 23.5523 0 23V1Z" fill="white"/>
<path d="M1 2C1 1.44772 1.44772 1 2 1H3.038C3.46627 1 3.84962 1.26566 4 1.66667C4.07519 1.86717 4.26686 2 4.481 2H8.519C8.73314 2 8.92481 1.86717 9 1.66667C9.15038 1.26566 9.53373 1 9.962 1H11C11.5523 1 12 1.44772 12 2V22C12 22.5523 11.5523 23 11 23H2C1.44771 23 1 22.5523 1 22V2Z" fill="#292929"/>
<circle cx="3.14285" cy="7.85714" r="0.857143" fill="white"/>
<circle cx="3.14285" cy="11.2859" r="0.857143" fill="white"/>
<circle cx="3.14285" cy="14.7146" r="0.857143" fill="white"/>
<circle cx="6.57144" cy="7.85714" r="0.857143" fill="white"/>
<circle cx="6.57144" cy="11.2859" r="0.857143" fill="white"/>
<circle cx="6.57144" cy="14.7146" r="0.857143" fill="white"/>
<circle cx="6.57144" cy="18.1433" r="0.857143" fill="white"/>
<circle cx="10" cy="7.85714" r="0.857143" fill="white"/>
<circle cx="10" cy="11.2859" r="0.857143" fill="white"/>
<circle cx="10" cy="14.7146" r="0.857143" fill="white"/>
</svg>
