<svg width="105" height="100" viewBox="0 0 105 100" fill="none" xmlns="http://www.w3.org/2000/svg">
<path fill-rule="evenodd" clip-rule="evenodd" d="M48.0268 61.8389C48.4396 61.8438 49.332 61.7209 49.5601 61.7631C49.6109 62.2065 48.9912 62.6088 48.685 62.8746C48.3404 63.1726 47.9375 63.5526 47.2769 63.2484C46.8356 63.046 42.905 60.212 42.4563 59.8829C41.6816 59.3154 40.4111 58.6274 40.39 57.819C41.0184 57.85 43.8966 60.0084 44.4718 60.3834C45.6605 61.1583 46.4724 61.819 48.0268 61.8389ZM49.213 64.5213C49.0754 63.6433 49.5514 63.2782 50.1749 62.9292C52.3912 61.6861 57.187 57.9295 58.8951 56.1151C59.3289 55.6544 59.8396 55.0695 60.3565 55.8332C60.8101 56.5014 60.0751 57.1148 59.764 57.4886C59.345 57.9903 58.9335 58.4411 58.5306 58.8472C56.4618 60.9373 55.3054 61.9767 52.7184 63.3875C52.2016 63.6694 51.5793 64.0022 51.029 64.2829C50.4749 64.5635 49.8402 64.9808 49.213 64.5213ZM56.4817 80.2519C56.2053 80.4506 54.0795 80.591 53.7274 80.4829C53.4696 80.6382 52.1755 80.5786 51.8359 80.5736C50.0782 80.5512 48.121 80.3488 46.4451 80.0061C45.4733 79.9191 42.0274 78.9679 41.5267 78.6549C41.0122 78.5556 39.4306 77.916 39.2162 77.7248C38.6001 77.5583 36.0058 76.1414 35.6661 75.8272C35.1728 75.6633 34.8864 75.3851 34.5865 75.1727C34.2543 74.9393 31.9153 73.3062 31.8583 73.0206C31.1728 72.6741 30.4254 71.811 29.9568 71.3217C29.5713 70.9194 28.6813 70.0612 28.3491 69.5459C28.0392 69.3223 27.619 68.7908 27.4492 68.5201L24.4297 63.6706C24.369 63.5601 24.3863 63.5253 24.338 63.4086C24.2686 63.2409 24.1359 63.0932 24.0194 62.8659L23.8893 62.5654C23.7455 62.2114 23.7108 61.3185 23.7926 60.9261L24.0008 60.4952C24.0306 60.4058 24.0207 60.4331 23.9574 60.2754C23.857 60.0282 23.8806 60.2642 23.8533 59.8904C24.1979 60.0146 23.8794 59.8742 24.095 60.0655L24.7346 61.0068C24.8264 61.1844 24.9007 61.2701 24.9887 61.3993L25.518 62.1605C26.1626 63.1714 26.0771 62.9342 26.6175 63.6557L27.1517 64.4083C27.2893 64.5846 27.3401 64.5821 27.4666 64.7448C27.5918 64.905 27.6104 64.9895 27.7281 65.1335C28.3305 65.8724 28.3008 65.4701 28.3999 66.0289C28.6726 66.4574 31.7095 69.2379 31.8483 69.4887C31.9735 69.5235 32.1942 69.7321 32.3404 69.87C32.8945 70.3928 35.826 72.3984 35.9115 72.5363C36.0293 72.5487 37.7919 73.5434 38.1787 73.7396L40.6032 74.8573C40.9465 74.8548 41.2862 75.0721 41.6618 75.1491C42.398 75.3863 42.9744 75.5217 43.8111 75.6794C44.2226 75.7576 46.0423 75.8967 46.1997 76.006C46.6955 75.9253 47.2335 75.9837 47.7417 75.9626C48.2053 75.9439 48.6924 75.8868 49.1696 75.821C50.0634 75.698 50.8765 75.3789 51.7355 75.2373C51.9412 75.097 53.1064 74.6971 53.4795 74.517C53.7659 74.3779 54.0559 74.2215 54.3261 74.0662C54.5542 73.9358 54.8653 73.7024 55.1814 73.5881C55.2124 73.5447 55.1752 73.5658 55.2979 73.4614C55.3748 73.3956 55.3785 73.4018 55.4603 73.3435C55.5929 73.2491 55.6785 73.182 55.7913 73.0939C56.0714 72.8753 56.2362 72.7598 56.473 72.5524C57.4733 71.6794 58.4538 70.3506 59.1368 69.2466C59.7541 68.2518 61.1386 66.7678 62.041 66.1804C63.4528 65.2614 63.3115 65.6501 64.7333 64.0519C65.0903 63.6495 65.4782 63.2397 65.8513 62.7976C66.1587 62.435 66.5591 61.9494 66.9645 61.5359C67.8854 60.5958 69.5935 60.4703 69.5216 62.4337C69.42 65.2031 66.0596 67.0398 66.0534 68.6244C67.3251 68.6343 69.1175 67.8818 70.0484 67.4335C71.2173 66.8721 72.3031 66.1705 73.2216 65.3546C74.6149 64.1164 75.5755 62.5778 76.6242 60.9919C76.8064 60.7162 76.9452 60.4877 77.1237 60.1909C77.6604 59.2993 78.1129 58.5703 78.4587 57.5669C78.688 56.9012 78.8058 56.2319 79.0599 55.5824C79.3189 54.923 79.521 54.4808 80.0093 53.9481C81.2142 52.6342 82.4438 54.0263 81.9319 56.0791C81.7571 56.7808 81.6133 57.5246 81.4943 58.2449C81.327 59.2558 81.4869 59.1366 81.1076 60.4554C80.7308 61.7706 79.3214 64.7548 78.5988 65.7743C77.8054 66.8945 77.1175 67.739 76.2585 68.6877C72.3664 72.9821 70.4054 75.4807 64.7023 77.988C62.9979 78.7381 58.1749 80.3712 56.4817 80.2519ZM50.6558 65.2093C52.09 64.4443 52.2561 67.5601 59.1244 60.0891C59.8235 59.3278 61.1089 57.8823 61.6456 57.0701C62.3967 55.9338 62.2245 55.4383 62.543 55.2086L62.6087 55.5737C62.5492 56.0965 62.0336 57.0962 62.0212 57.8264C62.0038 58.7057 61.6034 59.2533 60.9899 59.9388C60.0912 60.9435 58.9 61.9233 57.6382 62.9218C56.5846 63.7551 54.6509 64.9584 53.9208 65.6017C53.5365 65.9407 52.7916 67.041 52.0689 66.8696C51.7714 66.7989 51.4417 66.3816 51.2136 66.1506C50.993 65.9258 50.6001 65.629 50.6558 65.2093ZM66.7512 55.6966C66.6174 55.1589 67.014 54.9975 67.3115 54.6088C68.1965 53.4526 68.3602 51.5935 67.9486 50.3281C67.552 49.111 67.1851 49.0216 67.2 47.6034L67.402 45.2079C67.4665 44.9111 67.4751 44.813 67.7169 44.6962C68.0763 44.9309 68.1854 45.6636 68.3391 46.0412C68.5424 46.5404 68.6031 46.8682 68.7407 47.509C69.1535 49.4327 69.6443 52.2765 68.7952 54.0909C68.4792 54.7677 67.5904 55.7637 66.7512 55.6966ZM65.3667 52.1387C65.5328 50.1766 65.5526 49.4377 65.094 47.4134C64.8312 46.2548 63.8978 44.1535 64.0255 43.4022C64.8126 43.1104 65.1808 44.089 65.4088 44.6006C65.6877 45.2277 65.8873 45.7419 66.1426 46.446C67.2731 49.5718 66.5232 57.2316 63.6251 58.5442C62.6397 58.9913 62.2059 58.4474 63.1715 57.7383C63.7602 57.3073 63.9734 56.9807 64.292 56.2729C64.7382 55.2794 65.2588 53.4215 65.3667 52.1387ZM46.6968 47.8543C47.3562 47.6717 48.2264 48.2256 48.9577 48.279C50.7166 48.4057 53.6791 47.1762 54.336 45.6636C54.6149 45.0216 54.4327 44.0219 54.0795 43.5587C53.5055 42.8074 52.716 43.9201 52.0714 43.771C50.843 43.4879 52.3205 41.2265 54.3311 41.7791C58.7463 42.9924 55.0922 49.229 50.1129 49.6736C49.2081 49.7543 48.4631 49.6401 47.8483 49.2936C47.5037 49.1011 46.6521 48.351 46.6968 47.8543ZM49.9617 46.9552C49.2155 47.3774 48.3305 46.7366 47.9152 46.2759C47.3797 45.6798 47.1318 45.1557 46.843 44.4094C46.0237 42.297 47.376 39.1811 48.9515 37.9455C49.4969 37.517 50.2059 37.2749 50.7054 36.7471C51.7541 35.6393 52.6329 34.8036 54.491 34.6645C57.9629 34.4062 60.6304 37.019 62.1674 38.8359C64.7606 41.8996 63.3475 41.6077 62.7525 42.2696C62.429 42.631 62.724 43.0371 62.8678 43.396C63.3611 44.6354 63.5818 45.5221 63.7355 46.8894C64.0391 49.5842 63.8197 52.2579 62.129 54.1704C61.0085 55.4371 60.6093 54.4697 60.9217 53.8997C61.8315 52.2356 62.4054 51.8121 62.6186 49.6314C62.7946 47.822 62.6124 45.8822 62.1637 44.3187C61.7485 42.867 60.913 41.722 59.7466 40.7533C58.403 39.6381 57.7026 39.3587 55.759 38.8533C55.5235 38.7912 54.786 38.6186 54.6496 38.4372C54.3001 37.9765 55.8359 36.9197 57.5551 37.7691C59.0326 38.4981 60.5337 40.0231 61.2737 39.9871C61.2316 38.9166 60.1061 38.1293 59.4367 37.6785C57.5861 36.4316 55.2917 35.7735 53.2105 36.8886C52.5598 37.2364 51.4008 38.2895 51.7491 39.3326C52.3429 39.5698 54.1662 38.6645 55.9041 39.7834C56.4866 40.1572 58.1513 41.9232 57.7708 42.8148L57.5477 42.821C57.3679 42.7738 56.3528 41.6276 55.4838 41.0688C53.3965 39.7288 50.4959 41.2414 50.6422 43.2097C50.7848 45.1135 52.2387 45.0824 52.6118 45.2402C52.6589 46.0486 50.6992 46.4212 49.7361 45.034C48.7544 43.6183 49.4708 42.3466 48.9465 41.5059C48.411 41.4798 48.1012 42.2709 47.9599 42.7018C46.9719 45.6972 50.0906 45.8636 49.9617 46.9552ZM56.8659 45.3221C57.6084 45.5084 57.1523 47.7239 56.8944 48.4317C56.5536 49.3656 55.9549 50.0847 55.3698 50.6398C54.2307 51.7214 51.9809 52.6764 49.7584 52.4715C46.9447 52.2132 45.0779 50.9862 44.2574 48.6354C43.6487 46.8943 43.8372 45.2911 43.9747 43.5736C44.1755 41.0737 44.8226 36.572 47.1009 35.4518C48.0689 34.9737 50.0435 35.2991 48.6664 36.2901C47.2422 37.3171 45.9605 38.4782 45.606 40.7136C45.4424 41.7481 45.2601 43.201 45.4919 44.233C45.6122 44.7695 45.606 45.2687 45.8142 45.8027C45.9444 46.1393 46.4489 46.7441 46.3026 47.0297C46.0287 47.2905 45.2081 46.79 45.2192 47.5202C45.2316 48.3547 46.5096 49.7556 47.4368 50.2871C48.5486 50.9229 50.3013 51.2309 51.8594 50.9378C56.566 50.0549 56.2474 46.0598 56.8659 45.3221ZM29.1511 40.8527C28.902 40.803 28.8871 40.7434 28.8028 40.5199C28.7483 40.3733 28.6974 40.1721 28.6602 40.0094C28.4235 38.9601 28.4917 37.4549 28.7743 36.5161C29.8155 33.065 31.5335 32.6365 31.055 33.8337C30.941 34.1181 30.7513 34.4136 30.6138 34.6868C30.3249 35.2593 30.1006 35.7747 29.8725 36.4726C29.1461 38.6856 29.4511 40.1597 29.1511 40.8527ZM67.2756 43.4904C66.3001 44.2156 64.5858 39.9685 64.2734 39.4618C63.3041 37.8859 62.2988 36.7297 60.8535 35.7561C59.676 34.965 57.6047 33.7157 55.8557 33.6697C55.2607 33.6536 54.6558 33.6511 54.0609 33.6424C53.4956 33.635 52.825 33.6524 52.9849 32.9296C53.1386 32.2379 54.8554 32.0653 55.6437 32.064C57.4485 32.0628 59.0066 32.5272 60.3813 33.358C62.8281 34.8346 64.4978 36.9073 65.8823 39.3662C66.2976 40.1038 67.8879 42.6869 67.2756 43.4904ZM48.2722 34.1081C48.2152 33.5468 49.1176 33.0923 49.544 32.8501C50.041 32.5682 50.6868 32.1423 51.3326 32.136C52.5288 32.1261 51.5954 33.0712 51.3041 33.3903C51.0835 33.6313 50.8876 33.7989 50.6893 34.0721C50.4798 34.3602 50.465 34.6744 50.0968 34.6794L49.9307 34.1181C49.156 33.9628 48.887 34.2509 48.2722 34.1081ZM45.5762 53.7941C45.4907 53.4526 44.7234 52.9186 44.3367 52.5969C43.0302 51.514 41.8824 50.0871 41.2329 48.428C39.5508 44.1262 41.1932 35.9573 43.8086 32.9346C44.5945 32.0255 46.7476 30.0137 48.1706 30.0224C48.8722 30.0274 49.6221 30.2571 49.7721 30.8284C49.5874 31.0594 48.4693 31.7138 48.2177 31.8852C44.6081 34.3466 44.0194 35.3003 42.7612 39.3773C42.3918 40.5782 42.1055 42.5304 42.103 43.9312C42.0981 47.2793 43.0029 49.8562 44.8709 51.5588C45.7436 52.3548 46.9286 52.9968 48.3305 53.2713C49.0754 53.4166 49.9096 53.4712 50.7265 53.3706C51.7008 53.2502 52.3168 53.0018 52.7717 52.9385C52.6106 53.6463 51.2471 54.1704 50.3832 54.2586C49.7721 54.3206 49.1758 54.3033 48.5648 54.2548C47.7454 54.1903 47.7801 54.1108 47.3537 54.0313C46.5902 53.8885 46.8009 55.0062 46.8071 55.0186C47.7119 56.0444 50.7786 55.37 51.8607 54.9627C55.2632 53.6811 56.5288 51.8518 57.7807 48.741C58.1327 47.8667 58.2294 47.3116 58.2369 46.1629C58.2393 45.7357 58.098 43.6059 58.7339 43.6257C59.1207 43.7648 59.1368 44.048 59.3029 44.4528C59.7417 45.5258 59.381 46.9142 59.0959 47.8294C58.9099 48.4255 58.5629 49.1036 58.2604 49.7158L57.5787 51.0583C57.3989 51.4842 57.5117 51.3601 57.5328 51.4731L57.5836 51.5972C57.9939 52.0282 59.3896 50.9378 59.8954 49.4824C60.0801 48.9508 60.2895 48.2864 60.4023 47.7388C60.4742 47.3923 60.5412 47.1042 60.5548 46.7428C60.5647 46.4547 60.4854 45.9505 60.6341 45.768C60.8659 45.5109 60.9961 45.799 61.151 46.179C61.8873 47.9958 60.6577 50.6671 59.8136 52.2914C58.31 55.1862 53.5613 60.0506 50.2245 60.6728C48.6875 60.9584 47.6314 60.6132 46.5406 60.0345C46.0485 59.7737 44.4718 58.877 44.2908 58.3045C44.2425 58.1493 44.2524 58.2027 44.271 58.0549C44.3627 57.2887 45.3196 58.6945 45.8737 58.0425C45.7572 57.6712 45.2329 57.3794 44.9118 57.1297C43.7256 56.2095 43.1232 55.8854 41.896 54.7541C41.5899 54.4709 40.3739 53.2067 40.1371 52.8528C39.6661 52.1524 39.5508 51.2706 40.0925 50.5342C40.2636 50.302 40.1136 50.4374 40.3379 50.3045C40.597 50.4423 40.7433 50.6274 40.954 50.8732C41.7361 51.7823 44.2474 55.0037 45.5762 53.7941ZM55.49 30.6272C55.3711 29.7554 56.0949 29.512 56.8511 29.3605C58.7029 28.9904 61.8848 29.4636 63.4888 30.0286C66.0497 30.9314 67.9784 32.1398 69.7361 33.9169C72.2647 36.4739 74.2765 41.1445 73.8079 44.9781C73.715 45.7394 73.4014 48.6652 72.4531 48.6826C72.0565 48.1474 72.4035 47.0036 72.137 46.3417C71.1243 46.2585 71.9065 48.8565 71.2607 51.0024C71.1157 51.4842 71.0859 52.0679 70.5194 52.0642C70.4537 51.3638 70.538 50.4957 70.5318 49.763C70.5083 47.1054 69.7745 44.6888 68.9663 42.1864C67.6598 38.1404 65.591 35.5959 62.1501 33.019C60.5102 31.7908 59.3624 31.119 57.363 30.9997C56.6304 30.9563 56.0478 30.9563 55.49 30.6272ZM29.7436 43.7152C29.7411 41.6499 31.5248 34.2124 32.5859 32.1336C32.9503 31.4207 34.0163 29.6126 34.8468 29.7095C34.9521 30.1987 34.3113 31.268 34.0969 31.6294C33.1499 33.2252 32.3082 35.6269 31.862 37.476C31.686 38.2112 31.5025 38.9961 31.3922 39.7499C31.1579 41.3469 30.8518 42.9278 30.8257 44.5807C30.8158 45.234 30.7761 46.3976 30.6361 46.9713C29.9085 46.9527 29.7448 44.5099 29.7436 43.7152ZM72.0763 34.883C71.4962 33.9628 69.353 31.8777 68.3453 31.2022C67.3239 30.5179 65.4014 29.9467 65.1931 29.4598C65.6047 28.5632 68.4246 29.9317 68.8585 30.1938C69.8873 30.8197 70.714 31.5114 71.5545 32.3832C72.9626 33.8448 75.0958 36.8874 74.3769 39.0756C74.2914 39.3376 74.0063 39.8815 73.7584 39.3289C73.6555 39.1016 73.6183 38.6074 73.5452 38.2994C73.4212 37.7815 73.2105 36.911 72.9527 36.4441L72.0763 34.883ZM31.4492 47.4594C31.4492 45.9965 31.7814 44.4379 32.0169 42.9365C32.3937 40.5285 32.7929 38.2646 33.5217 36.0082C34.2468 33.7616 36.1644 28.1248 38.9025 27.9609C38.8802 28.5347 37.8242 29.4425 37.5068 29.7927C36.4222 30.9873 35.7492 32.3968 35.1529 33.8945C34.8431 34.6719 34.6472 35.4779 34.377 36.3087L33.7213 38.8769C33.1003 41.6785 32.747 44.695 32.7433 47.6034C32.7433 48.284 32.7247 49.0601 32.8524 49.6873C32.9218 50.03 33.4697 52.1611 32.6317 51.2955C32.3144 50.9664 32.0442 50.4113 31.8645 49.9766C31.5409 49.1967 31.4492 48.3734 31.4492 47.4594ZM39.1195 57.2539C38.1229 57.2092 36.5834 55.4433 36.0776 54.759C34.7749 53.0006 34.2605 50.5578 34.2121 48.2504C34.1638 45.9207 34.4415 42.7366 34.8331 40.5857C35.3847 37.5617 35.3996 34.7055 37.2812 31.9423C38.4762 30.1863 41.7944 27.1674 43.9425 27.7274C43.9115 28.2143 43.3451 28.4216 42.9199 28.6626C42.4538 28.9271 42.1749 29.1357 41.7312 29.4127C39.738 30.6582 38.32 32.6104 37.4387 34.8272C37.2478 35.3065 37.2341 35.8418 37.0742 36.341C36.9441 36.7471 36.8957 37.5717 36.8263 38.0485C36.7346 38.6744 36.6962 39.1302 36.6949 39.8269C36.6925 42.3653 36.5449 41.5059 36.3392 43.283C36.064 45.6674 36.1062 46.631 36.1123 48.8987C36.1136 49.5445 35.9859 50.1617 36.2933 50.5603C36.7135 50.5764 36.7383 50.4485 36.9057 50.071L37.5775 47.7214C38.3658 43.9238 38.1997 44.3932 38.5604 40.644C38.6856 39.3376 38.7055 38.1057 38.7848 36.803C38.9397 34.2485 39.8719 32.9954 41.43 31.4183C42.0435 30.7973 42.791 30.1342 43.5719 29.5356C44.2338 29.0289 45.3196 28.0627 46.398 28.5632C46.4464 29.0997 46.3299 29.2736 46.0274 29.5455C45.8043 29.7455 45.5874 29.9206 45.3444 30.0833C43.8186 31.1028 42.5493 32.1596 41.4424 33.6648C41.0804 34.1566 40.7482 34.6459 40.4904 35.2221C40.007 36.3087 39.7355 40.6155 39.6748 41.9157C39.5744 44.0765 38.4402 48.3783 38.434 50.6981C38.429 52.5435 39.495 54.9552 40.7185 55.9338C40.9565 56.1251 41.9345 56.7621 41.9605 57.0739C41.1796 57.0664 39.831 56.017 39.3798 55.6209C38.6869 55.0124 37.2912 52.7509 37.2056 54.0114C37.1957 54.1555 37.223 54.2362 37.2428 54.343C37.6357 56.4939 38.9806 56.4182 39.1195 57.2539ZM19.7852 48.1449V53.8016C19.8013 53.8214 19.8199 53.8264 19.8273 53.8636C19.8409 53.9406 19.9401 53.9096 20.0132 54.5231L20.4148 56.8106C21.3011 61.4017 23.1431 65.9234 25.9271 69.5993C29.2589 74.0017 32.6652 77.1249 37.7808 79.6832C39.4504 80.5177 41.1176 81.1548 43.0017 81.7298C44.4197 82.1619 47.0909 82.7257 48.6738 82.8586C48.7445 82.8648 48.8176 82.8648 48.8858 82.8772L49.0717 82.9294C49.0866 82.9331 49.1114 82.9418 49.1287 82.9517H54.6038L57.8836 82.532C58.9099 82.3656 59.9338 82.1023 60.9378 81.8353C62.7798 81.3473 64.6899 80.5413 66.3286 79.7626C69.1138 78.4401 72.9142 75.8086 75.0388 73.5161C76.7729 71.6471 78.6359 69.5173 79.956 67.2186C80.1866 66.8162 80.3948 66.4275 80.6229 66.009C80.8225 65.6452 81.0815 65.1956 81.2526 64.7759L82.3744 62.1419C82.9805 60.8119 83.7354 57.7979 83.9895 56.2791C84.0874 55.6966 84.1717 55.1875 84.2374 54.6522C84.2919 54.2076 84.2213 53.2762 84.4593 52.9943V48.3982L84.375 47.9648C84.256 46.1492 83.728 43.3538 83.2681 41.7207C82.9892 40.7322 82.5925 39.7462 82.2678 38.8744C80.6068 34.4186 77.6381 30.1863 74.4946 27.2059C69.3704 22.3477 61.9629 18.2669 52.266 18.2496C43.6686 18.2347 35.7355 21.4536 29.9147 27.0817C25.9209 30.9439 22.6485 35.9175 21.0706 41.6214C20.6987 42.9651 20.6243 43.55 20.3219 44.7546C20.0108 45.9915 20.1979 45.3395 20.0591 46.4174C19.981 47.0135 19.9822 48.1051 19.7852 48.1449Z" fill="white"/>
<path fill-rule="evenodd" clip-rule="evenodd" d="M69.3618 35.5934C67.9512 33.8498 64.0429 30.3068 61.7969 30.9451C61.8489 31.4108 62.1948 31.5176 62.5679 31.7412C64.5635 32.9333 66.4389 34.9427 67.9041 36.762C68.8089 37.8834 69.3705 39.201 70.0336 40.6006C70.3745 41.3209 70.6608 41.8959 70.9757 42.6037C71.2558 43.2333 71.6946 44.2504 72.3342 44.2231C73.2837 43.0036 72.2834 40.4441 71.7714 39.2892C71.1789 37.9567 70.2357 36.6751 69.3618 35.5934Z" fill="white"/>
<path fill-rule="evenodd" clip-rule="evenodd" d="M46.2019 76.006C45.8201 76.0917 45.3627 76.0408 44.9648 75.9998C45.6478 76.1886 46.8155 76.1799 47.6373 76.2171L46.0866 76.4047C45.7606 76.5313 46.1635 76.586 45.5239 76.4071L45.6131 76.663C45.6206 76.6779 45.6305 76.6965 45.6379 76.7102C45.6615 76.7549 45.716 76.843 45.7222 76.8542C45.8176 77.0504 45.8226 76.9325 45.7879 77.1063C45.7482 77.3063 45.5487 77.341 45.5264 77.3497L45.8102 77.4677L45.8114 78.07H45.5264V78.6201C45.7024 78.6984 45.6156 78.5816 45.6701 78.789C45.3206 78.9045 45.2128 79.0958 45.0913 79.1467C45.1111 79.1566 45.2685 79.2299 45.2722 79.2336C45.4148 79.3404 45.3801 79.4199 45.571 79.5106C45.6354 79.5416 45.6999 79.549 45.7966 79.5751L46.161 79.785C46.187 79.7999 46.2118 79.8235 46.2329 79.8384C46.2527 79.8545 46.2837 79.8781 46.3048 79.893L46.4473 80.0061C48.1232 80.3488 50.0804 80.5512 51.8381 80.5736C52.1777 80.5785 53.4718 80.6382 53.7296 80.4829L51.3026 80.3985L52.8124 80.3029C52.2508 80.5115 51.527 80.1737 51.0287 80.1613L51.1501 80.1054C51.4588 79.9539 51.3832 80.2408 51.3757 79.934C51.3708 79.6956 51.2939 79.9204 51.0311 79.713C51.0287 79.3268 50.9667 79.2634 50.9531 78.9865C50.927 78.4773 51.0435 78.7282 51.0944 78.3382C51.1452 77.9446 51.0993 77.2429 51.103 76.8132C51.3832 76.6928 51.1898 76.8766 51.4625 76.6679C51.6088 76.5549 51.6757 76.5673 51.6757 76.473C51.5914 76.2531 51.7315 76.4146 51.4377 76.309C50.9878 76.1463 51.1092 76.3053 50.746 75.9079L51.1055 75.8073C51.1737 75.7924 51.3869 75.7328 51.4352 75.6956C51.6286 75.544 51.5071 75.5639 51.5468 75.4745C51.7017 75.1255 51.4575 75.5776 51.7377 75.2373C50.8787 75.3789 50.0655 75.698 49.1718 75.821C48.6946 75.8868 48.2075 75.9439 47.7439 75.9626C47.2357 75.9837 46.6977 75.9253 46.2019 76.006Z" fill="white" fill-opacity="0.17"/>
<path fill-rule="evenodd" clip-rule="evenodd" d="M51.7377 75.2371C51.4576 75.5773 51.7018 75.1253 51.5468 75.4743C51.5072 75.5637 51.6286 75.5438 51.4353 75.6953C51.3869 75.7326 51.1737 75.7922 51.1056 75.8071L50.7461 75.9077C51.1093 76.3051 50.9878 76.1461 51.4378 76.3088C51.7315 76.4144 51.5915 76.2529 51.6757 76.4727C51.6757 76.5671 51.6088 76.5547 51.4625 76.6677C51.1898 76.8763 51.3832 76.6925 51.1031 76.813C51.0994 77.2427 51.1452 77.9443 51.0944 78.338C51.0436 78.728 50.9271 78.4771 50.9531 78.9863C50.9667 79.2632 51.0287 79.3265 51.0312 79.7127C51.294 79.9201 51.3708 79.6954 51.3758 79.9338C51.3832 80.2405 51.4588 79.9537 51.1502 80.1052L51.0287 80.1611C51.527 80.1735 52.2509 80.5113 52.8124 80.3026L51.3026 80.3982L53.7297 80.4827C54.0817 80.5907 56.2075 80.4504 56.4839 80.2517L55.8096 80.0965C55.8208 80.0915 55.8456 80.0828 55.8604 80.0729C55.8604 80.0716 55.8046 79.9537 55.4588 80.022L55.1849 80.1164C55.113 80.1375 55.0262 80.1573 54.9419 80.1698C54.6568 80.2132 54.7783 80.2331 54.5217 80.1275C54.3308 80.0493 54.2924 80.0046 54.0829 79.976L54.5775 79.8717C54.4734 79.5538 54.435 79.7984 54.1561 79.6407V78.343C54.1994 77.7928 54.4387 77.9754 54.4387 76.4007C54.5763 76.3113 54.4511 76.3423 54.7176 76.3361C54.7176 75.5401 54.8452 75.4258 54.5069 75.1762C54.6816 74.9465 54.6692 75.1253 54.6011 74.8968C54.9928 74.8968 55.2121 74.9428 55.0956 74.2846L54.9506 74.0213C55.3101 73.8524 55.1675 73.6997 55.1836 73.5879C54.8676 73.7021 54.5564 73.9356 54.3284 74.066C54.0581 74.2212 53.7681 74.3777 53.4818 74.5168C53.1087 74.6969 51.9435 75.0967 51.7377 75.2371Z" fill="white" fill-opacity="0.08"/>
<path fill-rule="evenodd" clip-rule="evenodd" d="M31.8579 73.0203C31.9149 73.3059 34.2539 74.939 34.5861 75.1724C34.8861 75.3848 35.1724 75.663 35.6657 75.8269C35.3497 75.4096 35.2517 75.6381 35.0646 75.0458C34.9815 74.7837 35.0435 74.7887 34.5564 74.6831C34.6518 74.6037 34.5625 74.585 35.0038 74.5068C34.9146 74.241 34.9716 73.9927 35.0608 73.7207C35.1612 73.4127 35.129 73.3742 35.2431 73.2438C35.3422 73.1308 35.2678 73.1966 35.4191 73.1283L35.3435 72.952C35.3422 72.9458 35.341 72.9272 35.3397 72.9209L35.2468 72.5273C35.6533 72.6229 35.367 72.5596 35.636 72.6862L35.46 72.3634L35.9112 72.536C35.8256 72.3981 32.8941 70.3925 32.3401 69.8697C32.1938 69.7319 31.9732 69.5232 31.848 69.4884L31.4736 69.296C30.9555 68.8675 31.3596 69.0687 30.9332 69.065C30.7063 69.0625 30.5055 69.5642 30.5861 69.8275C30.6568 70.0585 30.7039 69.9852 30.7175 70.3478C30.8886 70.2559 30.7423 70.2981 31.0014 70.2721C30.9952 70.2907 30.9778 70.3118 30.9728 70.3217C30.8117 70.662 31.0014 70.6111 30.9989 70.7129C30.9914 70.9836 30.3667 70.7589 30.4832 71.1538C30.834 72.3497 31.5034 72.3112 31.8579 73.0203Z" fill="white" fill-opacity="0.66"/>
<path fill-rule="evenodd" clip-rule="evenodd" d="M41.529 78.6547C42.0298 78.9676 45.4757 79.9189 46.4475 80.0058L46.3049 79.8928C46.2839 79.8779 46.2529 79.8543 46.2331 79.8382C46.212 79.8233 46.1872 79.7997 46.1612 79.7848L45.7967 79.5749C45.7001 79.5488 45.6356 79.5414 45.5711 79.5103C45.3802 79.4197 45.415 79.3402 45.2724 79.2334C45.2687 79.2297 45.1113 79.1564 45.0914 79.1465C45.2129 79.0956 45.3208 78.9043 45.6703 78.7888C45.6158 78.5814 45.7025 78.6982 45.5265 78.6199V78.0698H45.8116L45.8104 77.4675L45.5265 77.3495C45.5488 77.3408 45.7484 77.306 45.7881 77.1061C45.8228 76.9322 45.8178 77.0502 45.7224 76.854C45.7162 76.8428 45.6616 76.7547 45.6381 76.7099C45.6306 76.6963 45.6207 76.6777 45.6133 76.6628L45.524 76.4069C46.1636 76.5858 45.7608 76.5311 46.0868 76.4044L47.6375 76.2169C46.8156 76.1797 45.648 76.1884 44.965 75.9996C45.3629 76.0406 45.8203 76.0915 46.2021 76.0058C46.0446 75.8965 44.225 75.7574 43.8135 75.6792C42.9768 75.5215 42.4004 75.3861 41.6641 75.1489L41.798 75.4532C41.8996 75.6395 41.9095 75.5898 42.0347 75.6804L41.8265 75.822C41.7868 75.8444 41.6827 75.8891 41.6468 75.9102C41.6468 76.2542 41.7149 76.6739 41.5612 76.9707C41.4435 77.198 41.5005 77.1409 41.3567 77.203L41.3555 77.4712C41.5439 77.5544 41.4274 77.4327 41.4918 77.6389C41.5042 77.6798 41.4993 77.8512 41.4906 77.8959C41.4038 78.3293 41.3716 77.7891 41.3592 78.3256C41.6455 78.3281 41.5947 78.3281 41.7261 78.4163C41.467 78.6249 41.5724 78.4572 41.529 78.6547Z" fill="white" fill-opacity="0.28"/>
<path fill-rule="evenodd" clip-rule="evenodd" d="M28.35 69.5456C28.2706 69.1594 27.7736 68.7173 27.5802 68.4813C27.6112 68.1982 27.6694 68.346 27.6769 68.0492L27.4959 67.992C27.4885 67.9895 27.4686 67.9833 27.455 67.9771L27.5418 66.3217L27.8231 66.1777C27.8219 65.9281 27.7946 65.8573 27.755 65.6648C28.4119 65.6722 27.8107 65.825 28.4008 66.0287C28.3016 65.4698 28.3314 65.8722 27.7289 65.1333C27.6112 64.9892 27.5926 64.9048 27.4674 64.7446C27.341 64.5819 27.2901 64.5844 27.1526 64.408L26.6183 63.6555C26.0779 62.9339 26.1634 63.1711 25.5188 62.1603L24.9896 61.399C24.9016 61.2698 24.8272 61.1842 24.7355 61.0066L24.0959 60.0652C23.8802 59.874 24.1987 60.0143 23.8541 59.8901C23.8814 60.2639 23.8579 60.028 23.9583 60.2751C24.0215 60.4328 24.0314 60.4055 24.0016 60.4949L23.7934 60.9258C23.7116 61.3183 23.7463 62.2112 23.8901 62.5651L24.0202 62.8656C24.1368 63.0929 24.2694 63.2407 24.3388 63.4083C24.3871 63.5251 24.3698 63.5598 24.4305 63.6704L27.45 68.5198C27.6199 68.7905 28.0401 69.3221 28.35 69.5456Z" fill="white" fill-opacity="0.92"/>
<path fill-rule="evenodd" clip-rule="evenodd" d="M35.668 75.8273C36.0076 76.1415 38.602 77.5585 39.218 77.7249L39.0432 77.4976C38.9094 77.0555 38.8771 77.8503 39.1449 77.3834C38.9565 77.3424 38.8871 77.33 38.7767 77.094C38.773 77.0828 38.7656 77.0617 38.7619 77.0518C38.6974 76.8643 38.7581 76.9351 38.7581 76.9338L38.1533 76.8953C38.0082 76.8593 37.9748 76.791 37.8868 76.6892L37.9946 76.6407C38.0529 76.6209 38.09 76.6084 38.152 76.5935C38.3107 76.5563 38.3466 76.6482 38.5065 76.3762C38.7048 76.0384 38.597 75.2896 38.597 74.6724C38.2313 74.4687 38.3578 74.8611 38.3144 74.3632L39.2998 74.5544C39.5353 74.8251 39.9221 74.7245 40.1873 74.7693C40.4464 74.814 40.2964 74.8574 40.6051 74.8574L38.1805 73.7397C37.7938 73.5435 36.0312 72.5488 35.9134 72.5364L35.4622 72.3638L35.6382 72.6867C35.3693 72.56 35.6556 72.6233 35.249 72.5277L35.342 72.9214C35.3432 72.9276 35.3445 72.9462 35.3457 72.9524L35.4213 73.1288C35.2701 73.1971 35.3445 73.1312 35.2453 73.2442C35.1313 73.3746 35.1635 73.4131 35.0631 73.7211C34.9738 73.9931 34.9168 74.2415 35.0061 74.5072C34.5648 74.5855 34.654 74.6041 34.5586 74.6836C35.0457 74.7891 34.9838 74.7842 35.0668 75.0462C35.254 75.6386 35.3519 75.41 35.668 75.8273Z" fill="white" fill-opacity="0.47"/>
<path fill-rule="evenodd" clip-rule="evenodd" d="M47.2828 57.8014C47.2716 58.1963 47.315 58.2522 47.667 58.4062C48.3277 58.6956 49.2635 58.8384 49.9788 58.9179C52.4987 59.201 56.8049 55.3699 56.0785 54.1777C55.662 54.1193 55.3174 54.4807 55.0435 54.703C54.2787 55.3264 53.1582 56.2752 52.381 56.7123C49.6701 58.2386 48.3277 57.3034 47.2828 57.8014Z" fill="white"/>
<path fill-rule="evenodd" clip-rule="evenodd" d="M28.352 69.5459C28.6842 70.0612 29.5742 70.9193 29.9597 71.3217C30.4282 71.811 31.1756 72.6741 31.8611 73.0206C31.5066 72.3115 30.8373 72.35 30.4865 71.1541C30.3699 70.7591 30.9947 70.9839 31.0021 70.7132C31.0046 70.6114 30.8149 70.6623 30.9761 70.322C30.981 70.3121 30.9984 70.291 31.0046 70.2723C30.7455 70.2984 30.8918 70.2562 30.7207 70.3481C30.7071 69.9855 30.66 70.0587 30.5893 69.8278C30.5088 69.5645 30.7096 69.0628 30.9364 69.0653C31.3628 69.069 30.9587 68.8678 31.4769 69.2962L31.8512 69.4887C31.7124 69.2379 28.6755 66.4573 28.4028 66.0289C27.8128 65.8252 28.414 65.6725 27.757 65.665C27.7967 65.8575 27.8239 65.9283 27.8252 66.1779L27.5438 66.322L27.457 67.9774C27.4707 67.9836 27.4905 67.9898 27.4979 67.9923L27.6789 68.0494C27.6715 68.3462 27.6132 68.1984 27.5822 68.4816C27.7756 68.7175 28.2726 69.1596 28.352 69.5459Z" fill="white" fill-opacity="0.82"/>
<path fill-rule="evenodd" clip-rule="evenodd" d="M39.218 77.7245C39.4324 77.9158 41.0141 78.5553 41.5285 78.6547C41.5719 78.4572 41.4665 78.6249 41.7256 78.4162C41.5942 78.3281 41.645 78.328 41.3587 78.3256C41.3711 77.7891 41.4033 78.3293 41.4901 77.8959C41.4987 77.8512 41.5037 77.6798 41.4913 77.6388C41.4268 77.4327 41.5434 77.5544 41.3549 77.4712L41.3562 77.2029C41.5 77.1408 41.443 77.198 41.5607 76.9707C41.7144 76.6739 41.6462 76.2541 41.6462 75.9102C41.6822 75.889 41.7863 75.8443 41.826 75.822L42.0342 75.6804C41.909 75.5897 41.8991 75.6394 41.7975 75.4532L41.6636 75.1489C41.288 75.0719 40.9484 74.8546 40.605 74.8571C40.2964 74.8571 40.4464 74.8136 40.1873 74.7689C39.922 74.7242 39.5353 74.8248 39.2998 74.554L38.3144 74.3628C38.3577 74.8608 38.2313 74.4683 38.597 74.672C38.597 75.2892 38.7048 76.0381 38.5065 76.3759C38.3466 76.6478 38.3106 76.5559 38.152 76.5932C38.09 76.6081 38.0528 76.6205 37.9946 76.6404L37.8867 76.6888C37.9747 76.7906 38.0082 76.8589 38.1532 76.8949L38.7581 76.9334C38.7581 76.9347 38.6974 76.8639 38.7618 77.0514C38.7656 77.0614 38.773 77.0825 38.7767 77.0936C38.887 77.3296 38.9564 77.342 39.1448 77.383C38.8771 77.8499 38.9093 77.0551 39.0432 77.4972L39.218 77.7245Z" fill="white" fill-opacity="0.42"/>
<path d="M17.9216 77.4813L17.7617 77.2764L18.3604 74.5654L21.1233 74.6288L21.2845 74.8337L18.9232 75.2832L17.9216 77.4813ZM19.1859 79.092L19.0248 78.8871L19.6074 76.155L22.3877 76.2407L22.5488 76.4456L20.1925 76.9014L19.1859 79.092ZM24.1676 77.6142L25.3998 76.3202L25.5212 76.4357C25.4245 76.607 25.4382 76.7536 25.5659 76.8753C25.6142 76.9225 25.7443 76.9895 25.9588 77.0827C26.2897 77.2292 26.5909 77.4316 26.8624 77.6912C27.2306 78.0426 27.4202 78.4363 27.4326 78.871C27.445 79.3069 27.3086 79.672 27.026 79.9688C26.7694 80.2382 26.4658 80.3898 26.1137 80.4196C25.7629 80.4518 25.4047 80.3798 25.0403 80.2047C25.2894 80.5475 25.4035 80.9175 25.3799 81.3174C25.3551 81.7136 25.2014 82.0625 24.9163 82.3618C24.5668 82.7294 24.1367 82.8946 23.6322 82.8561C23.1264 82.8176 22.6616 82.5965 22.2389 82.1929C21.6105 81.5931 21.4072 80.8306 21.6278 79.9054L21.8101 79.9427C21.7481 80.2308 21.7605 80.5413 21.8472 80.8741C21.9328 81.2069 22.0976 81.4913 22.3406 81.7235C22.6294 82.0005 22.9467 82.1159 23.2925 82.075C23.6371 82.034 23.9445 81.8725 24.2123 81.5906C24.4887 81.3 24.6213 80.9573 24.6089 80.5636C24.5965 80.1699 24.3548 79.749 23.8863 79.3006L24.0908 79.0846C24.4255 79.4037 24.7106 79.6099 24.9461 79.7005C25.1828 79.7912 25.4307 79.8086 25.6861 79.7502C25.9427 79.6931 26.1707 79.5589 26.3691 79.3503C26.6009 79.1069 26.7161 78.8399 26.7149 78.5456C26.7149 78.2513 26.5897 77.9843 26.3381 77.7433C26.0245 77.4441 25.691 77.3037 25.3378 77.3224C24.9833 77.3422 24.635 77.4763 24.2891 77.7297L24.1676 77.6142ZM29.3167 80.0011L33.6055 82.7555L33.515 82.8958C33.1853 82.6996 32.9473 82.6189 32.7998 82.6524C32.6498 82.6884 32.4676 82.876 32.2482 83.2187L30.405 86.0986C30.0493 86.6562 29.8596 87.0213 29.8385 87.1939C29.8187 87.3665 29.9811 87.564 30.3294 87.7875L29.2857 89.4181L29.1531 89.3336C29.3179 88.9077 29.3886 88.5239 29.3675 88.1862C29.3464 87.8459 29.2522 87.5702 29.0874 87.3529C28.9213 87.138 28.6882 86.9319 28.3883 86.7394L27.0682 85.8924C26.4905 85.5211 25.9662 85.4056 25.494 85.5447C25.0229 85.6826 24.6436 85.9185 24.3548 86.2513L24.2222 86.1656L25.2659 84.5351C25.6972 84.7623 26.1856 84.7276 26.7347 84.4345C27.2839 84.1402 27.8193 83.6931 28.3437 83.0896C28.8692 82.4873 29.2683 81.9731 29.5423 81.5447C29.7059 81.2901 29.7952 81.0827 29.8075 80.9213C29.8212 80.7598 29.7939 80.6356 29.7257 80.5487C29.6576 80.4618 29.4902 80.3264 29.2262 80.1414L29.3167 80.0011ZM30.3827 81.0951C29.3502 82.5667 28.5507 83.5528 27.9817 84.0483C27.414 84.545 26.8661 84.8704 26.343 85.0269L28.2581 86.2575C28.599 86.4774 28.8234 86.5779 28.9275 86.5606C29.0341 86.5444 29.1927 86.3718 29.4035 86.0427L31.9321 82.0899L30.3827 81.0951ZM34.9541 87.0461L34.2116 88.6916C34.053 89.0455 33.991 89.2815 34.0307 89.4019C34.0802 89.5708 34.2116 89.7037 34.4223 89.7993L34.638 89.8962L34.5686 90.0489L32.1627 88.9598L32.2321 88.8071L32.444 88.9027C32.6808 89.0095 32.8866 89.0095 33.0576 88.9015C33.1518 88.8419 33.2721 88.6506 33.4158 88.3314L35.0595 84.6903C35.2181 84.3364 35.2801 84.1004 35.2442 83.9812C35.1896 83.8111 35.0582 83.6782 34.845 83.5813L34.6331 83.4857L34.7025 83.333L36.7601 84.2644C37.2634 84.4929 37.6352 84.7238 37.8794 84.9586C38.1224 85.1933 38.2872 85.4789 38.3752 85.8154C38.4632 86.152 38.4298 86.4885 38.2785 86.8251C38.0715 87.2846 37.7517 87.5888 37.3191 87.7403C36.8878 87.8893 36.3969 87.8409 35.8441 87.5913C35.709 87.5292 35.5677 87.4535 35.4202 87.3628C35.2702 87.2734 35.1153 87.1678 34.9541 87.0461ZM35.062 86.8089C35.1946 86.9033 35.3148 86.9828 35.4214 87.0474C35.5268 87.1119 35.621 87.1629 35.7003 87.1989C35.9866 87.328 36.2829 87.328 36.5903 87.2001C36.8989 87.0722 37.132 86.8325 37.2919 86.4798C37.401 86.2364 37.4543 85.9881 37.4493 85.7347C37.4443 85.4826 37.3724 85.2628 37.2386 85.0778C37.1035 84.8915 36.9213 84.7462 36.6907 84.6419C36.5494 84.5786 36.3585 84.5239 36.1143 84.4767L35.062 86.8089ZM42.0009 90.4327L39.704 89.7782L39.0446 90.5966C38.881 90.7978 38.7806 90.9567 38.7483 91.071C38.7235 91.1604 38.7434 91.2523 38.8103 91.3467C38.876 91.4373 39.0495 91.5354 39.3284 91.6373L39.2838 91.7987L37.4146 91.2672L37.4605 91.1058C37.7195 91.1331 37.8955 91.1219 37.9885 91.0722C38.1769 90.9741 38.4211 90.7357 38.7235 90.3582L42.1942 86.0626L42.3418 86.1048L43.0024 91.6323C43.0557 92.0769 43.1338 92.3762 43.2355 92.5339C43.3371 92.6904 43.5069 92.8096 43.7449 92.894L43.699 93.0555L41.3625 92.3898L41.4084 92.2284C41.6464 92.2843 41.8174 92.2905 41.9203 92.247C42.022 92.2036 42.0864 92.1328 42.1137 92.0359C42.1496 91.908 42.1496 91.6882 42.1124 91.3777L42.0009 90.4327ZM41.9587 90.0713L41.6389 87.3901L39.9346 89.4951L41.9587 90.0713ZM50.1409 90.5295C50.5599 90.6537 50.8673 90.8214 51.0631 91.0387C51.3346 91.3405 51.4548 91.6919 51.4251 92.0943C51.4015 92.401 51.2838 92.6867 51.0693 92.9524C50.8549 93.2182 50.5748 93.402 50.2289 93.505C49.8831 93.6081 49.365 93.6342 48.6746 93.582L45.7815 93.3622L45.7939 93.1946L46.0219 93.212C46.2773 93.2318 46.4657 93.1635 46.5897 93.0095C46.6665 92.909 46.7186 92.6854 46.7446 92.3414L47.0458 88.3575C47.0756 87.9763 47.0495 87.7341 46.9702 87.6286C46.8636 87.4857 46.695 87.4063 46.4632 87.3889L46.2351 87.3715L46.2475 87.2038L48.8952 87.405C49.3898 87.4435 49.7827 87.5093 50.0752 87.6037C50.5202 87.749 50.8499 87.9663 51.0669 88.2619C51.2838 88.5575 51.3792 88.8841 51.352 89.2442C51.3284 89.5522 51.2144 89.8204 51.0086 90.0514C50.8041 90.2799 50.5153 90.4401 50.1409 90.5295ZM47.7908 90.0974C47.8998 90.1272 48.0275 90.1533 48.1688 90.1744C48.3114 90.1967 48.4688 90.2129 48.6398 90.2253C49.0811 90.2588 49.4158 90.2365 49.6439 90.1595C49.8719 90.0812 50.0529 89.9484 50.1856 89.7608C50.3169 89.5746 50.3913 89.3659 50.4087 89.1337C50.4359 88.7748 50.312 88.4581 50.0393 88.1824C49.7666 87.908 49.3501 87.7478 48.7911 87.7056C48.4899 87.6832 48.2147 87.6944 47.9693 87.7428L47.7908 90.0974ZM47.5676 93.048C47.911 93.1561 48.2556 93.2231 48.5977 93.2492C49.1456 93.2902 49.5745 93.1983 49.8806 92.9748C50.1868 92.75 50.3529 92.4557 50.3802 92.0943C50.3988 91.8559 50.3492 91.6199 50.2314 91.3902C50.1161 91.1579 49.9153 90.9692 49.6327 90.8201C49.3513 90.6711 48.9931 90.5792 48.5618 90.5469C48.3746 90.532 48.2147 90.5233 48.0821 90.5196C47.9482 90.5159 47.8416 90.5184 47.7585 90.5258L47.5676 93.048ZM55.135 90.3917L57.9661 90.0316L57.743 88.2669C57.7033 87.9552 57.6575 87.7527 57.6067 87.6596C57.5658 87.5901 57.4951 87.5329 57.391 87.492C57.2534 87.4361 57.1121 87.4174 56.9671 87.4361L56.7501 87.4634L56.7291 87.297L59.3482 86.9642L59.3693 87.1306L59.1524 87.1579C59.0086 87.1753 58.8759 87.2274 58.7557 87.3131C58.6652 87.3727 58.6082 87.4535 58.5859 87.5553C58.5636 87.6571 58.5723 87.8571 58.6094 88.1564L59.1127 92.1204C59.1511 92.4296 59.197 92.632 59.2491 92.7252C59.2887 92.7972 59.3581 92.8543 59.4585 92.8953C59.5998 92.9512 59.7436 92.9698 59.8874 92.9512L60.1043 92.9239L60.1254 93.089L57.5063 93.4231L57.4852 93.2567L57.7021 93.2293C57.9525 93.1971 58.1248 93.1002 58.2215 92.9388C58.2847 92.8332 58.2921 92.5972 58.245 92.2309L58.0083 90.3644L55.1772 90.7245L55.4139 92.591C55.4536 92.9003 55.4994 93.1027 55.5503 93.1958C55.5887 93.2679 55.6606 93.325 55.7635 93.366C55.9023 93.4218 56.0424 93.4405 56.1862 93.4218L56.4068 93.3945L56.4279 93.5609L53.8087 93.8937L53.7877 93.7273L54.0033 93.7C54.2574 93.6677 54.431 93.5709 54.5276 93.4094C54.5871 93.3039 54.5933 93.0679 54.5475 92.7016L54.0442 88.7375C54.0046 88.4258 53.9587 88.2247 53.9079 88.1303C53.8682 88.0607 53.7988 88.0036 53.6972 87.9614C53.5559 87.9055 53.4133 87.8881 53.2695 87.9067L53.0526 87.9341L53.0315 87.7676L55.6507 87.4348L55.6717 87.6012L55.4511 87.6286C55.3073 87.6472 55.1759 87.6981 55.0557 87.7838C54.9677 87.8434 54.9131 87.9241 54.8896 88.026C54.866 88.1278 54.8735 88.3277 54.9119 88.627L55.135 90.3917ZM65.2918 86.4302C65.1914 86.075 65.0712 85.8664 64.9299 85.8055C64.7886 85.7434 64.5431 85.762 64.1936 85.8614L64.1477 85.6999L66.7061 84.9722L66.752 85.1337C66.3913 85.2492 66.1756 85.3733 66.1037 85.5087C66.0318 85.6416 66.0516 85.9061 66.1632 86.2985L67.2329 90.0701C67.3445 90.4637 67.4659 90.6984 67.5961 90.7742C67.7275 90.8512 67.9766 90.8425 68.3435 90.7518L68.3894 90.9133L65.8322 91.641L65.7864 91.4796C66.1582 91.3604 66.3789 91.2337 66.452 91.0983C66.5227 90.9617 66.5028 90.6997 66.3925 90.3097L65.4244 86.8959L63.6916 91.2138C63.7659 91.4671 63.8304 91.6323 63.8862 91.7106C63.9407 91.7863 64.0312 91.8347 64.1576 91.8521C64.2828 91.8695 64.4898 91.8422 64.7761 91.7664L64.822 91.9279L62.2723 92.6531L62.2277 92.4917C62.5871 92.3762 62.8028 92.252 62.8747 92.1179C62.9466 91.9838 62.9268 91.7205 62.8152 91.3268L61.7455 87.5553C61.6339 87.1629 61.5124 86.9282 61.3823 86.8524C61.2509 86.7754 61.0018 86.7829 60.6349 86.8748L60.589 86.7133L63.1375 85.9881L63.1833 86.1495C62.8164 86.2662 62.5995 86.3904 62.5264 86.5258C62.4557 86.6599 62.4756 86.9232 62.5859 87.3169L63.5564 90.7394L65.2918 86.4302ZM75.9419 86.8996L76.8232 88.6233L76.6832 88.6966C76.3968 88.3203 76.0336 88.0446 75.5961 87.867C75.1585 87.6907 74.6503 87.7503 74.0727 88.0471L70.3677 89.9484L70.2909 89.7993C70.6218 89.6155 70.809 89.4516 70.8524 89.3051C70.897 89.1598 70.8263 88.9052 70.6404 88.5426L68.8567 85.0517C68.6708 84.6891 68.5059 84.4817 68.3621 84.4333C68.2183 84.3836 67.9766 84.4395 67.6345 84.6009L67.5577 84.4519L69.9078 83.246L69.9834 83.3951C69.6525 83.5788 69.4653 83.744 69.4219 83.8893C69.3773 84.0346 69.448 84.2892 69.6339 84.6531L71.5068 88.3178C71.6382 88.5736 71.7312 88.7189 71.7857 88.7512C71.8403 88.7847 72.0138 88.7264 72.3101 88.5749L73.7145 87.8546C74.0578 87.6782 74.2289 87.5565 74.2301 87.4907C74.2301 87.4249 74.1533 87.2399 73.9996 86.9406L72.1663 83.3541C71.9803 82.9902 71.8155 82.7841 71.6705 82.7356C71.5267 82.686 71.2788 82.7456 70.9267 82.912L70.8511 82.763L73.2174 81.5484L73.2943 81.6974C72.9633 81.8812 72.7749 82.0452 72.7315 82.1917C72.6869 82.337 72.7588 82.5916 72.9447 82.9542L74.7358 86.46C74.928 86.8362 75.0916 87.0461 75.2255 87.0933C75.3593 87.1418 75.5986 87.0759 75.9419 86.8996ZM79.7299 81.5844L77.8533 83.0622L78.126 84.0781C78.1929 84.3302 78.2623 84.504 78.3342 84.5972C78.3925 84.6704 78.4792 84.7077 78.5945 84.7089C78.7061 84.7089 78.8871 84.6257 79.1337 84.4593L79.2366 84.591L77.7095 85.7943L77.6054 85.6614C77.7801 85.4677 77.8744 85.3187 77.8892 85.2144C77.9202 85.0033 77.8719 84.6642 77.7442 84.1985L76.315 78.861L76.4352 78.7654L81.288 81.4776C81.6785 81.6962 81.9661 81.8092 82.1532 81.8191C82.3392 81.8291 82.535 81.762 82.7433 81.618L82.8461 81.7496L80.936 83.2535L80.8331 83.1219C81.0178 82.9604 81.1232 82.8263 81.1492 82.717C81.174 82.609 81.1542 82.5158 81.0922 82.4363C81.0091 82.3308 80.8319 82.2029 80.5592 82.0501L79.7299 81.5844ZM79.4139 81.4081L77.0612 80.0917L77.7591 82.7096L79.4139 81.4081ZM82.4792 75.7564L82.6503 75.5602L85.4207 75.6347L85.883 78.3643L85.7119 78.5617L84.8232 76.3251L82.4792 75.7564ZM81.1405 77.305L81.3116 77.1088L84.0993 77.1622L84.5431 79.9141L84.3732 80.1103L83.4783 77.88L81.1405 77.305Z" fill="white"/>
<path d="M16.0519 63.5923L17.5679 62.8968L17.6236 63.0198C17.2902 63.2533 17.0398 63.5575 16.8712 63.9276C16.7027 64.2989 16.7361 64.7398 16.9692 65.2489L18.4653 68.5175L18.3339 68.5784C18.1889 68.2853 18.055 68.1176 17.9298 68.0742C17.8071 68.0307 17.5852 68.0829 17.2667 68.2294L14.1988 69.6389C13.879 69.7854 13.6955 69.9208 13.6484 70.0425C13.6001 70.1642 13.6398 70.3753 13.7662 70.6771L13.6348 70.738L12.6866 68.664L12.8167 68.6044C12.963 68.8963 13.0968 69.0652 13.2208 69.1074C13.3435 69.1509 13.5654 69.0999 13.8852 68.9534L17.1055 67.4731C17.3311 67.3688 17.4588 67.2943 17.4898 67.2496C17.5195 67.2036 17.4761 67.0509 17.3571 66.7901L16.7894 65.5507C16.6506 65.2477 16.5527 65.0962 16.4957 65.0925C16.4399 65.09 16.2787 65.1496 16.0147 65.2713L12.8626 66.7193C12.5428 66.8658 12.3593 67.0012 12.3122 67.1241C12.2639 67.2458 12.306 67.4619 12.4362 67.7724L12.3048 67.832L11.3491 65.7444L11.4805 65.6848C11.6255 65.9767 11.7606 66.1443 11.8846 66.1878C12.0073 66.2312 12.2292 66.1803 12.5477 66.0325L15.6292 64.6168C15.9589 64.4653 16.1461 64.3324 16.192 64.2194C16.2378 64.1052 16.1907 63.8953 16.0519 63.5923ZM10.6079 62.4622L12.6246 61.8748L12.2973 60.7497C12.2131 60.4578 12.1127 60.2765 11.9974 60.2045C11.8449 60.1064 11.6206 60.094 11.3268 60.1623L11.2859 60.0244L13.0646 59.5053L13.1043 59.6444C12.8651 59.7525 12.7151 59.8344 12.6556 59.8903C12.5812 59.9599 12.5329 60.0555 12.513 60.1722C12.4932 60.2902 12.513 60.4553 12.575 60.6689L12.9022 61.7941L14.5843 61.3035C14.8099 61.239 14.945 61.188 14.9884 61.1545C15.0305 61.1197 15.0603 61.0738 15.0739 61.0154C15.0888 60.9571 15.0752 60.8565 15.0342 60.7161L14.7839 59.8506C14.6996 59.5637 14.619 59.36 14.5409 59.2408C14.4628 59.1216 14.3475 59.0198 14.1951 58.9341C13.9943 58.8235 13.7129 58.7329 13.3534 58.6609L13.3076 58.5069L14.7132 58.5752L15.8573 62.5144L15.7185 62.5541L15.6664 62.374C15.6305 62.2523 15.5685 62.1468 15.4792 62.0561C15.416 61.9866 15.3392 61.9481 15.2499 61.9443C15.1607 61.9381 14.9921 61.9717 14.7442 62.0437L11.426 63.0099C11.1037 63.1042 10.914 63.1949 10.8582 63.2818C10.7851 63.4023 10.7789 63.5675 10.8396 63.7798L10.893 63.9599L10.7541 64.0009L9.61003 60.0604L10.7182 59.6792L10.7616 59.8257C10.5062 59.9574 10.3364 60.0691 10.2533 60.1623C10.1715 60.2567 10.122 60.3746 10.1034 60.515C10.0959 60.6255 10.1282 60.8093 10.2013 61.0614L10.6079 62.4622ZM11.3962 55.9548L11.069 53.5121L9.55177 53.7158C9.28403 53.7518 9.11049 53.7928 9.03116 53.8375C8.97043 53.8722 8.92209 53.9343 8.88738 54.0238C8.84028 54.143 8.8254 54.2659 8.84151 54.3901L8.86755 54.5776L8.72376 54.5962L8.42131 52.3361L8.56386 52.3174L8.58865 52.5037C8.606 52.6291 8.65063 52.7434 8.725 52.8465C8.77706 52.9247 8.84771 52.9731 8.93448 52.9905C9.02249 53.0104 9.19478 53.0017 9.45137 52.9669L12.8601 52.5087C13.1266 52.4739 13.3001 52.4329 13.3807 52.3882C13.4414 52.3522 13.4898 52.2926 13.5257 52.2057C13.5728 52.0827 13.5865 51.9585 13.5704 51.8344L13.5456 51.6468L13.6881 51.6282L13.9906 53.8884L13.848 53.9083L13.8232 53.7207C13.7935 53.5047 13.7092 53.3569 13.5704 53.2737C13.4786 53.2203 13.2753 53.2153 12.9605 53.2575L11.3553 53.4736L11.6825 55.9163L13.2877 55.7015C13.553 55.6655 13.7278 55.6245 13.8083 55.5798C13.8691 55.545 13.9174 55.4842 13.9521 55.3935C14.0005 55.2743 14.0153 55.1538 13.998 55.0284L13.9732 54.8384L14.1157 54.8198L14.4182 57.08L14.2756 57.0998L14.2509 56.9123C14.2211 56.6938 14.1368 56.5435 13.9968 56.4615C13.905 56.4106 13.703 56.4069 13.3881 56.4491L9.97941 56.9074C9.71167 56.9434 9.53814 56.9843 9.45757 57.0291C9.39807 57.0638 9.34973 57.1247 9.31378 57.2116C9.26668 57.3333 9.25304 57.4575 9.26916 57.5817L9.29395 57.7692L9.1514 57.7878L8.84895 55.5276L8.9915 55.509L9.01753 55.699C9.03364 55.8232 9.07827 55.9362 9.15264 56.0393C9.2047 56.115 9.27411 56.1622 9.36212 56.1809C9.45013 56.2007 9.62242 56.1933 9.87901 56.1598L11.3962 55.9548ZM8.70764 45.702L9.9571 45.7319L9.94718 45.8796C9.72654 45.8945 9.56664 45.9219 9.46996 45.9653C9.31378 46.0361 9.19478 46.1355 9.11421 46.2659C9.03364 46.395 8.9853 46.5689 8.97043 46.7874L8.91961 47.5363L12.9655 47.8144C13.2915 47.8368 13.4985 47.8157 13.584 47.7511C13.7005 47.6592 13.765 47.5114 13.7798 47.3053L13.7922 47.1227L13.936 47.1327L13.7811 49.3916L13.6373 49.3817L13.6509 49.1917C13.6658 48.9644 13.6088 48.7992 13.4799 48.6937C13.3993 48.6304 13.2109 48.5881 12.9134 48.567L8.86755 48.2888L8.82416 48.9259C8.80681 49.1743 8.81301 49.3519 8.84151 49.4587C8.88242 49.5978 8.96919 49.7195 9.10306 49.8263C9.23693 49.9318 9.42286 50.0026 9.66209 50.0386L9.65217 50.1864L8.41016 50.0448L8.70764 45.702ZM11.9416 43.032L13.4737 43.2953C13.8021 43.3512 14.0129 43.3512 14.1034 43.2928C14.2335 43.2146 14.3153 43.0755 14.35 42.8781L14.3835 42.6781L14.526 42.7017L14.1418 44.9495L13.9992 44.9259L14.0339 44.7272C14.0711 44.5061 14.0265 44.3335 13.8988 44.2143C13.8282 44.1497 13.6435 44.0901 13.346 44.0392L9.9571 43.458C9.62738 43.4009 9.4179 43.4009 9.32617 43.4568C9.19602 43.5387 9.11421 43.6778 9.07951 43.8778L9.04604 44.0752L8.90349 44.0516L9.23321 42.128C9.31254 41.6585 9.42534 41.2972 9.56788 41.0413C9.70919 40.788 9.91248 40.5881 10.1728 40.4415C10.4343 40.2937 10.7207 40.249 11.0343 40.3024C11.4619 40.3757 11.7854 40.5769 12.0048 40.9047C12.2242 41.2326 12.2899 41.6548 12.2019 42.1702C12.1796 42.2969 12.1474 42.431 12.104 42.5738C12.0618 42.7191 12.0073 42.8718 11.9416 43.032ZM11.721 42.9948C11.7705 42.8632 11.8102 42.7452 11.8412 42.6421C11.8709 42.5403 11.8933 42.4496 11.9057 42.3763C11.9515 42.1081 11.8871 41.861 11.7135 41.6312C11.54 41.4015 11.2896 41.2587 10.9624 41.2028C10.7355 41.163 10.5161 41.173 10.3066 41.2326C10.0984 41.2922 9.93107 41.399 9.80588 41.5505C9.68068 41.7045 9.59887 41.8895 9.56169 42.1044C9.53937 42.236 9.53566 42.4074 9.54929 42.6222L11.721 42.9948ZM12.3854 32.7085L11.7916 34.2434L13.1811 34.7824C14.5831 35.3263 15.4458 35.8007 15.7718 36.2043C16.0953 36.6079 16.1759 37.0214 16.0122 37.4449C15.9428 37.6262 15.8437 37.7492 15.7172 37.8113C15.5896 37.8746 15.4681 37.8833 15.3503 37.8373C15.2598 37.8026 15.1929 37.7405 15.152 37.6511C15.1099 37.5616 15.1086 37.4722 15.1433 37.3816C15.1718 37.3071 15.2425 37.2338 15.354 37.1655C15.4768 37.0873 15.5561 37.0041 15.5896 36.9159C15.6714 36.7035 15.5623 36.4626 15.2623 36.1906C14.9611 35.9212 14.3203 35.5945 13.3386 35.2133L12.2998 34.8109C11.9738 34.6843 11.7507 34.6458 11.6292 34.6979C11.509 34.7488 11.3838 34.9277 11.2549 35.2319L11.121 35.1798L12.6642 31.1884L12.7981 31.2406C12.6903 31.5486 12.6643 31.7622 12.72 31.8814C12.7733 32.0006 12.9655 32.1235 13.2927 32.2502L16.4399 33.4722C16.7671 33.5989 16.9915 33.6374 17.1117 33.5865C17.2332 33.5355 17.3571 33.3592 17.4848 33.0587L17.6187 33.1108L16.7969 35.2381L16.663 35.186C16.7696 34.878 16.7969 34.6644 16.7411 34.5452C16.6866 34.426 16.4957 34.303 16.1672 34.1751L12.3854 32.7085ZM14.7157 28.2005L16.4895 29.3281L17.1167 28.3371C17.279 28.0813 17.3485 27.8863 17.3262 27.751C17.2976 27.5709 17.1588 27.3945 16.9121 27.2194L16.9902 27.0977L18.5533 28.0912L18.4764 28.2129C18.2385 28.1049 18.0773 28.0465 17.9955 28.0378C17.8939 28.0279 17.7922 28.0552 17.6906 28.1173C17.5889 28.1806 17.4786 28.3048 17.3596 28.4923L16.7324 29.4821L18.2137 30.4234C18.412 30.5489 18.5384 30.6172 18.5917 30.6271C18.6463 30.6358 18.7008 30.6283 18.7529 30.5998C18.8074 30.5725 18.8731 30.4955 18.9512 30.3725L19.4321 29.6113C19.5933 29.3579 19.6912 29.1617 19.7296 29.0251C19.7668 28.8885 19.7668 28.7333 19.7296 28.5619C19.68 28.3384 19.5623 28.0676 19.3776 27.7485L19.4631 27.6131L20.3419 28.7146L18.1492 32.1794L18.0265 32.1012L18.1281 31.9422C18.1951 31.8367 18.2323 31.7187 18.2422 31.592C18.2521 31.4989 18.2298 31.4157 18.174 31.3461C18.1195 31.2754 17.9831 31.171 17.7649 31.0319L14.8471 29.1778C14.5632 28.9978 14.3699 28.9146 14.2682 28.9307C14.1294 28.9556 14.0017 29.0599 13.884 29.2462L13.7823 29.4051L13.6608 29.3281L15.8548 25.8621L16.8725 26.4433L16.7907 26.5712C16.5242 26.4669 16.3283 26.4135 16.2031 26.4135C16.0779 26.4135 15.9577 26.4544 15.8412 26.5339C15.7519 26.601 15.6367 26.7463 15.4954 26.9686L14.7157 28.2005ZM21.3125 23.0604L20.0903 22.0086C19.8622 21.8136 19.7036 21.7018 19.6168 21.6745C19.5288 21.646 19.4321 21.6596 19.3255 21.7155C19.2189 21.7726 19.0962 21.8794 18.9561 22.0384L18.8458 21.9453L20.3283 20.2141L20.4386 20.3085C20.2986 20.4761 20.2106 20.6152 20.1734 20.7257C20.1362 20.8388 20.1399 20.9369 20.1845 21.0238C20.2291 21.1095 20.3605 21.2473 20.5812 21.4361L23.1173 23.618C23.3491 23.8167 23.5114 23.9285 23.6057 23.9521C23.6974 23.9757 23.7916 23.9608 23.8883 23.9074C23.9825 23.8552 24.1039 23.7484 24.2515 23.5882L24.3605 23.6826L22.878 25.4125L22.769 25.3181C22.914 25.1418 23.002 25.0002 23.0355 24.8972C23.0689 24.7916 23.0652 24.6972 23.028 24.6128C22.9896 24.5296 22.857 24.388 22.6264 24.1905L21.5443 23.2591C21.3373 23.9521 21.0993 24.4563 20.8303 24.7705C20.627 25.0077 20.4163 25.1592 20.1957 25.2275C19.975 25.2958 19.7953 25.3008 19.6528 25.2424C19.5127 25.184 19.2772 25.0139 18.9475 24.7307L18.2632 24.1421C18.0389 23.9496 17.8815 23.8391 17.7897 23.8093C17.698 23.7795 17.5989 23.7944 17.4923 23.8515C17.3869 23.9086 17.2654 24.0154 17.1278 24.1719L17.0187 24.0775L18.5124 22.3352L18.6215 22.4283C18.4764 22.5985 18.3847 22.7438 18.3463 22.8655C18.3066 22.9872 18.3141 23.0927 18.3698 23.1784C18.4231 23.2654 18.5533 23.397 18.7541 23.5696L19.3144 24.0514C19.5772 24.2775 19.7755 24.4215 19.9106 24.4873C20.0457 24.5519 20.1833 24.5643 20.3196 24.5221C20.456 24.4811 20.5849 24.3905 20.7064 24.2501C20.9605 23.9521 21.1625 23.5559 21.3125 23.0604ZM22.9326 18.1365L24.3147 19.7211L25.1947 18.9486C25.4241 18.7487 25.5455 18.5811 25.5616 18.4457C25.5852 18.2656 25.5034 18.057 25.3162 17.8185L25.4253 17.7242L26.6438 19.12L26.5347 19.2156C26.3376 19.0443 26.1988 18.9424 26.1244 18.9114C26.0289 18.8729 25.9236 18.8704 25.8083 18.9015C25.693 18.9325 25.5517 19.0207 25.3856 19.1672L24.5043 19.9384L25.6571 21.261C25.812 21.4373 25.9149 21.5379 25.9633 21.564C26.0128 21.5876 26.0674 21.595 26.1256 21.5826C26.1851 21.5715 26.2694 21.5168 26.3797 21.4212L27.0565 20.8276C27.2821 20.6314 27.4321 20.4712 27.5077 20.3495C27.5809 20.2302 27.6255 20.0812 27.6379 19.9061C27.654 19.6776 27.6168 19.3845 27.53 19.0269L27.6515 18.9213L28.182 20.2265L25.0993 22.9263L25.0039 22.8183L25.1464 22.6929C25.2406 22.6109 25.31 22.5091 25.3546 22.3898C25.3906 22.3029 25.3931 22.2172 25.3596 22.1353C25.3274 22.0508 25.2257 21.913 25.0547 21.7168L22.7814 19.1113C22.5595 18.8567 22.3983 18.7226 22.2967 18.709C22.1566 18.6928 22.0042 18.7574 21.8381 18.9027L21.6968 19.0269L21.6013 18.9176L24.6853 16.2165L25.4972 17.0623L25.3832 17.1628C25.1563 16.9865 24.984 16.8797 24.8638 16.8449C24.7448 16.8089 24.6171 16.8139 24.482 16.8574C24.3791 16.8971 24.2267 17.0026 24.0283 17.1765L22.9326 18.1365ZM29.108 16.075L31.173 14.7338L30.3401 13.4472C30.1938 13.2199 30.0822 13.0809 30.0079 13.0262C29.9508 12.9877 29.874 12.9703 29.7786 12.9765C29.6496 12.9852 29.5331 13.0237 29.4278 13.092L29.2703 13.1951L29.191 13.0734L31.1024 11.8328L31.1805 11.9545L31.0231 12.0576C30.9164 12.1259 30.8334 12.2153 30.7714 12.327C30.7231 12.4078 30.7094 12.4922 30.7305 12.5779C30.7503 12.6661 30.8322 12.8188 30.9735 13.0361L32.8427 15.9284C32.989 16.1545 33.0993 16.2935 33.1736 16.3469C33.2319 16.3879 33.3075 16.4066 33.4017 16.4016C33.5319 16.3917 33.6496 16.3519 33.755 16.2836L33.9124 16.1805L33.9917 16.3022L32.0804 17.5416L32.0023 17.4212L32.1609 17.3181C32.3432 17.1989 32.4411 17.0598 32.456 16.8983C32.4646 16.7915 32.3828 16.6053 32.2105 16.3383L31.3292 14.9772L29.2641 16.3171L30.1442 17.6795C30.2905 17.9042 30.402 18.0446 30.4764 18.098C30.5334 18.1402 30.6103 18.1576 30.7057 18.1501C30.8346 18.1427 30.9499 18.1042 31.0553 18.0359L31.2152 17.9316L31.2933 18.0533L29.3831 19.2926L29.305 19.1709L29.4625 19.0691C29.6472 18.9486 29.7463 18.8083 29.7612 18.6469C29.7686 18.5426 29.6856 18.3563 29.5121 18.0893L27.6428 15.1982C27.4966 14.971 27.385 14.8306 27.3106 14.7772C27.2536 14.7375 27.178 14.7201 27.0838 14.7251C26.9536 14.735 26.8359 14.7747 26.7305 14.8431L26.5719 14.9449L26.4938 14.8244L28.4039 13.5838L28.4832 13.7055L28.3221 13.8098C28.2167 13.8781 28.1349 13.9663 28.0729 14.0781C28.0271 14.1575 28.0134 14.2407 28.0345 14.3289C28.0544 14.4159 28.1337 14.5698 28.275 14.7872L29.108 16.075ZM36.9914 10.2395C36.8724 9.94391 36.751 9.77626 36.6245 9.73652C36.4969 9.69678 36.2874 9.73528 35.9973 9.85201L35.944 9.71789L38.0723 8.86225L38.1256 8.99637C37.8269 9.12801 37.6533 9.25468 37.6038 9.37638C37.5542 9.49684 37.5951 9.72162 37.7265 10.0482L38.9821 13.1864C39.1123 13.513 39.2375 13.7043 39.3565 13.7564C39.4767 13.8111 39.6887 13.7825 39.9961 13.6707L40.0494 13.8049L37.9211 14.6593L37.8678 14.5251C38.1764 14.3898 38.3537 14.2606 38.4045 14.1377C38.4528 14.0147 38.4119 13.7912 38.2818 13.4671L37.1464 10.6269L36.0469 14.4866C36.1349 14.6965 36.2043 14.8319 36.2601 14.894C36.3134 14.9548 36.3952 14.9883 36.5043 14.9921C36.6134 14.9958 36.7881 14.9523 37.0274 14.8629L37.0807 14.997L34.9611 15.849L34.9065 15.7148C35.2052 15.5832 35.3788 15.4565 35.4284 15.3348C35.4779 15.2131 35.437 14.9896 35.3069 14.663L34.0512 11.5248C33.9198 11.1982 33.7947 11.0069 33.6757 10.9548C33.5554 10.9001 33.3435 10.9287 33.0361 11.0405L32.9828 10.9064L35.1036 10.0544L35.1569 10.1886C34.8532 10.3227 34.6784 10.4493 34.6276 10.5723C34.578 10.6928 34.6189 10.9175 34.7503 11.2441L35.8895 14.0917L36.9914 10.2395ZM40.8439 13.5826L42.2272 13.2522L43.4085 10.4121C43.5362 10.3873 43.6391 10.3661 43.7184 10.3475C43.7506 10.3388 43.7853 10.3289 43.8225 10.3202C43.8597 10.309 43.8981 10.2991 43.9366 10.2867L44.2948 11.7943C44.3716 12.1209 44.384 12.3308 44.332 12.4251C44.2613 12.5605 44.1312 12.6512 43.939 12.6971L43.737 12.7443L43.7705 12.8859L45.9855 12.3581L45.952 12.2178L45.7574 12.2637C45.5393 12.3159 45.367 12.2811 45.2393 12.1606C45.1674 12.0961 45.0968 11.9147 45.0273 11.6204L44.2316 8.26864C44.1547 7.94327 44.1423 7.73216 44.1944 7.63778C44.2675 7.50241 44.4014 7.41176 44.596 7.36457L44.7894 7.31862L44.7559 7.17829L42.8743 7.6266C42.3239 7.757 41.9297 7.8936 41.688 8.03517C41.4463 8.17799 41.2604 8.37917 41.1315 8.63747C41.0001 8.89454 40.9703 9.17272 41.041 9.47201C41.1166 9.79116 41.2864 10.042 41.548 10.2271C41.812 10.4121 42.1702 10.5015 42.6288 10.4953L41.9112 12.2327C41.7475 12.6325 41.5926 12.9095 41.4438 13.0635C41.2963 13.2187 41.0844 13.3429 40.8104 13.4422L40.8439 13.5826ZM43.8795 10.0445C43.8312 10.0557 43.7891 10.0656 43.7543 10.0755C43.7196 10.0855 43.6911 10.0929 43.6688 10.0991C43.1817 10.2146 42.7887 10.196 42.4913 10.0408C42.1925 9.88555 42.0041 9.64214 41.926 9.31181C41.8492 8.98892 41.8864 8.70205 42.0376 8.4512C42.1888 8.20158 42.4305 8.03766 42.759 7.95942C42.9053 7.92465 43.1085 7.90105 43.3676 7.88863L43.8795 10.0445ZM53.0658 7.61915C53.072 7.30123 53.0248 7.10005 52.9232 7.01312C52.8216 6.92743 52.6146 6.88024 52.301 6.87527L52.3047 6.72998L54.5966 6.7722L54.5941 6.91626C54.2681 6.92122 54.0586 6.96966 53.9657 7.0628C53.8739 7.15469 53.8244 7.37699 53.8169 7.72968L53.7562 11.11C53.75 11.4615 53.7921 11.6862 53.8814 11.7819C53.9706 11.8775 54.1776 11.9346 54.5036 11.9508L54.5011 12.0948L52.208 12.0538L52.2105 11.9098C52.5476 11.9048 52.7608 11.8551 52.855 11.762C52.948 11.6664 52.9976 11.4453 53.0038 11.0964L53.0583 8.03766L50.5483 11.1647C50.547 11.3919 50.5594 11.5447 50.5867 11.6229C50.6115 11.6999 50.6747 11.762 50.7738 11.8079C50.873 11.8539 51.0503 11.8825 51.3056 11.8924L51.3031 12.0377L49.0187 11.9967L49.0211 11.8514C49.3471 11.8464 49.5566 11.798 49.6496 11.7049C49.7426 11.613 49.7909 11.3907 49.7983 11.038L49.8591 7.65765C49.8653 7.3062 49.8231 7.08142 49.7339 6.98704C49.6446 6.89018 49.4376 6.83429 49.1116 6.81691L49.1141 6.67285L51.3986 6.71383L51.3961 6.85913C51.0639 6.86286 50.8544 6.91129 50.7602 7.00567C50.6672 7.09757 50.6177 7.31986 50.6115 7.67131L50.5569 10.7387L53.0658 7.61915ZM59.5411 10.2916L59.2027 11.8104C59.1296 12.137 59.1197 12.3469 59.1742 12.4413C59.2449 12.5754 59.3787 12.6648 59.5746 12.7083L59.7729 12.753L59.7407 12.8946L57.5194 12.3966L57.5504 12.255L57.7463 12.2985C57.9656 12.3482 58.1392 12.3121 58.2644 12.1904C58.3326 12.1234 58.4007 11.9408 58.4664 11.6453L59.2176 8.28354C59.2907 7.95694 59.3019 7.74706 59.2498 7.65268C59.1754 7.51856 59.0403 7.42914 58.8432 7.38568L58.6474 7.34097L58.6784 7.20064L60.5798 7.6266C61.0447 7.72967 61.3979 7.86007 61.6458 8.0153C61.8913 8.17054 62.0809 8.38414 62.2135 8.65238C62.3474 8.92062 62.3784 9.20997 62.309 9.52044C62.2148 9.94515 61.9979 10.2593 61.6595 10.4618C61.3211 10.6642 60.8984 10.7089 60.3877 10.5946C60.2625 10.5673 60.1311 10.5276 59.9898 10.4767C59.8473 10.427 59.6985 10.3649 59.5411 10.2916ZM59.5907 10.0718C59.7184 10.1277 59.8336 10.1749 59.9365 10.2097C60.0357 10.2457 60.1249 10.273 60.1981 10.2891C60.4621 10.3488 60.7125 10.2954 60.9492 10.1339C61.1872 9.97123 61.3434 9.72783 61.4153 9.40246C61.4661 9.17768 61.4661 8.95912 61.4178 8.74676C61.3694 8.5344 61.2715 8.36178 61.1252 8.2289C60.979 8.09602 60.7992 8.00413 60.5873 7.95693C60.4559 7.92713 60.2861 7.91595 60.0716 7.91844L59.5907 10.0718ZM65.8677 9.36272L65.1091 11.3249L66.2011 11.7483C66.4838 11.8576 66.6883 11.8887 66.8159 11.8402C66.9858 11.7781 67.132 11.608 67.256 11.3311L67.3911 11.3832L66.7217 13.1131L66.5879 13.061C66.6474 12.8064 66.6722 12.6363 66.666 12.5543C66.6548 12.4525 66.6089 12.3568 66.5284 12.2699C66.4466 12.183 66.304 12.0985 66.097 12.0178L65.005 11.5943L64.3728 13.2324C64.2873 13.4522 64.2452 13.5888 64.2464 13.6434C64.2476 13.6993 64.2662 13.7502 64.3046 13.7974C64.3418 13.8446 64.4298 13.8943 64.5662 13.9477L65.4041 14.273C65.683 14.3811 65.8937 14.4394 66.0363 14.4506C66.1763 14.4606 66.3288 14.4308 66.4887 14.3612C66.6982 14.2681 66.9411 14.0992 67.2163 13.857L67.3663 13.9141L66.459 14.9921L62.6399 13.5105L62.692 13.3752L62.868 13.4435C62.9845 13.4882 63.1073 13.5031 63.2337 13.4869C63.3267 13.4795 63.4035 13.441 63.4605 13.3739C63.52 13.3056 63.5956 13.1516 63.6886 12.9095L64.9368 9.68188C65.0583 9.36769 65.1017 9.16154 65.067 9.06468C65.0161 8.93304 64.8885 8.82748 64.6839 8.748L64.5079 8.6797L64.56 8.54558L68.379 10.0271L68.0084 11.1411L67.8671 11.0864C67.9179 10.8033 67.9315 10.5996 67.9067 10.4767C67.8832 10.355 67.82 10.2444 67.7196 10.1451C67.6365 10.0706 67.4717 9.98489 67.2262 9.89051L65.8677 9.36272ZM71.8423 15.7248L70.0524 14.7052L69.3322 15.2553C69.1537 15.3907 69.0384 15.5025 68.9876 15.5919C68.948 15.6614 68.9467 15.7434 68.9827 15.8353C69.0198 15.9247 69.145 16.0427 69.3582 16.1855L69.2863 16.3109L67.8299 15.4814L67.9005 15.3559C68.1125 15.4317 68.2625 15.459 68.3505 15.4367C68.529 15.3932 68.7819 15.2429 69.1128 14.9896L72.8971 12.1047L73.0124 12.1693L72.436 16.9343C72.3889 17.3181 72.3926 17.5851 72.4459 17.7378C72.4992 17.8906 72.617 18.0247 72.7992 18.1439L72.7285 18.2693L70.9064 17.2336L70.9783 17.107C71.1667 17.2026 71.308 17.2436 71.4035 17.2274C71.4977 17.2125 71.5659 17.1666 71.608 17.0908C71.665 16.9902 71.7096 16.8064 71.7419 16.5382L71.8423 15.7248ZM71.8795 15.4131L72.1608 13.1032L70.3028 14.5152L71.8795 15.4131ZM79.7852 16.9964L79.1097 17.9564L78.9969 17.867C79.1655 17.5155 79.2113 17.2436 79.1382 17.0548C79.0638 16.8673 78.8531 16.6363 78.5023 16.3631L77.7983 15.8142L76.5091 17.4746L76.6752 17.6037C77.1884 18.0036 77.5392 18.3302 77.7301 18.5848C77.9197 18.8356 78.0189 19.1138 78.0276 19.4168C78.0362 19.7186 77.9396 19.9993 77.7388 20.2576C77.4958 20.5705 77.1673 20.7543 76.7533 20.8114C76.3406 20.8673 75.8509 20.6761 75.287 20.2365L73.5156 18.8543L73.6049 18.7413C73.8689 18.9325 74.0648 19.0194 74.1949 19.0008C74.3238 18.9822 74.4974 18.8344 74.7131 18.5562L76.7856 15.8887C76.9517 15.6751 77.0483 15.5199 77.0756 15.4218C77.1041 15.3237 77.0967 15.233 77.0521 15.1485C77.0087 15.0641 76.8984 14.9461 76.7236 14.7921L76.8116 14.6779L79.7852 16.9964ZM74.9077 19.5348C75.0663 19.7049 75.1965 19.8291 75.2969 19.9074C75.5497 20.1048 75.8435 20.1992 76.1807 20.1905C76.5166 20.1806 76.8017 20.0253 77.0347 19.726C77.2752 19.4168 77.3458 19.1039 77.2491 18.7872C77.15 18.4718 76.9368 18.1849 76.6071 17.9266C76.5153 17.8558 76.4149 17.7912 76.3071 17.7329L74.9077 19.5348ZM83.6278 22.0061C83.8571 21.7851 83.9662 21.6087 83.9563 21.4758C83.9451 21.3442 83.8323 21.1629 83.6154 20.9381L83.7195 20.8375L85.3086 22.4929L85.2045 22.5935C84.9702 22.365 84.788 22.2507 84.6579 22.2507C84.5265 22.2507 84.3343 22.3725 84.0815 22.6171L81.6495 24.9605C81.3954 25.2039 81.2665 25.3914 81.2615 25.5231C81.2566 25.6535 81.3632 25.841 81.5813 26.0831L81.4772 26.1837L79.8881 24.5283L79.9922 24.4277C80.2339 24.6637 80.4199 24.7804 80.5513 24.7804C80.6839 24.7792 80.8748 24.6587 81.1264 24.4166L83.3278 22.2955L79.3464 22.7227C79.1841 22.8829 79.0849 22.9984 79.0477 23.0729C79.0118 23.1449 79.0118 23.2343 79.049 23.3374C79.0874 23.4405 79.1915 23.5858 79.365 23.7733L79.2609 23.8739L77.678 22.2247L77.7809 22.1241C78.0152 22.3526 78.1974 22.4668 78.3288 22.4668C78.4589 22.4668 78.6511 22.3451 78.9039 22.1005L81.3371 19.7571C81.59 19.5137 81.7189 19.3262 81.7239 19.1945C81.7288 19.0629 81.6222 18.8766 81.4041 18.6345L81.5082 18.5339L83.0911 20.1831L82.987 20.2836C82.7502 20.0514 82.5668 19.9372 82.4354 19.9359C82.304 19.9347 82.1118 20.0576 81.859 20.301L79.6526 22.4271L83.6278 22.0061ZM88.2748 27.3536L87.3811 25.9726L86.1317 26.7835C84.8686 27.6032 83.9798 28.0254 83.4629 28.0527C82.9461 28.0788 82.5643 27.9025 82.3176 27.52C82.2122 27.3573 82.1713 27.2058 82.1949 27.0667C82.2185 26.9264 82.2829 26.822 82.3883 26.7537C82.4701 26.7003 82.5593 26.683 82.656 26.7016C82.7527 26.7202 82.8258 26.7711 82.8791 26.8518C82.9225 26.9189 82.9399 27.0195 82.9299 27.1499C82.9213 27.2964 82.9423 27.4082 82.9944 27.4877C83.1171 27.6789 83.3762 27.7311 83.7716 27.6466C84.167 27.5609 84.8054 27.2331 85.6904 26.6581L86.6238 26.0521C86.9175 25.8621 87.0799 25.7031 87.1084 25.574C87.1382 25.4461 87.0675 25.2399 86.8965 24.9568L87.0179 24.8785L89.3408 28.4712L89.2194 28.5495C89.0334 28.2812 88.876 28.1347 88.7471 28.1098C88.6194 28.0838 88.4075 28.167 88.1124 28.3582L85.2801 30.1974C84.9851 30.3887 84.8227 30.5476 84.7942 30.6755C84.7632 30.8034 84.8326 31.0071 85.0012 31.2865L84.8797 31.366L83.6427 29.4511L83.7642 29.3728C83.9501 29.6411 84.1063 29.7876 84.2364 29.8124C84.3641 29.8385 84.5761 29.7553 84.8711 29.5628L88.2748 27.3536ZM91.065 34.0522C91.3538 33.9193 91.515 33.7901 91.5485 33.661C91.5819 33.5318 91.5336 33.3244 91.4034 33.04L91.5348 32.9792L92.4905 35.0668L92.3591 35.1276C92.2141 34.8345 92.0802 34.6669 91.9563 34.6234C91.8323 34.5799 91.6117 34.6321 91.2919 34.7786L88.224 36.1882C87.9054 36.3347 87.7208 36.4688 87.6737 36.5905C87.6253 36.7135 87.665 36.9246 87.7914 37.2263L87.66 37.286L86.7043 35.1984L86.8357 35.1388C86.9857 35.4406 87.1233 35.6119 87.2473 35.6566C87.3725 35.6989 87.5931 35.6479 87.9104 35.5014L90.6857 34.226L86.7861 33.3145C86.5804 33.4126 86.4478 33.4896 86.3895 33.5467C86.3312 33.6038 86.3027 33.687 86.304 33.7976C86.3052 33.9069 86.3573 34.0795 86.4577 34.3142L86.3275 34.3738L85.3743 32.2937L85.5057 32.2328C85.652 32.5259 85.7858 32.6936 85.9098 32.737C86.0325 32.7805 86.2544 32.7283 86.5742 32.5818L89.6408 31.1723C89.9606 31.0257 90.1441 30.8916 90.1912 30.7699C90.2395 30.647 90.1998 30.4359 90.0734 30.1341L90.2048 30.0745L91.158 32.1546L91.0266 32.2142C90.8791 31.9174 90.744 31.7485 90.6188 31.7038C90.4961 31.6603 90.2742 31.7112 89.9556 31.859L87.1716 33.1381L91.065 34.0522ZM94.1837 41.4462L92.9826 41.7902L92.9479 41.6461C93.1537 41.5666 93.2987 41.4921 93.378 41.4226C93.5057 41.3083 93.5912 41.1779 93.6284 41.0302C93.6668 40.8811 93.6619 40.7011 93.611 40.4875L93.4375 39.7585L89.4921 40.6986C89.1735 40.7743 88.9826 40.8551 88.9194 40.9432C88.8363 41.0649 88.8177 41.2264 88.8661 41.4263L88.9082 41.6051L88.7682 41.6387L88.2451 39.4356L88.3852 39.4021L88.4298 39.5884C88.4818 39.8094 88.5847 39.9497 88.7397 40.0118C88.8351 40.0479 89.0285 40.033 89.3185 39.9634L93.264 39.0246L93.1165 38.4024C93.0594 38.1602 93 37.9926 92.9405 37.8994C92.8611 37.779 92.7421 37.6883 92.5822 37.6262C92.4236 37.5654 92.224 37.553 91.986 37.5915L91.9513 37.4462L93.1797 37.2114L94.1837 41.4462ZM91.3377 46.7676L91.1667 44.711L90.3077 44.4254C90.0957 44.3546 89.9371 44.3223 89.8354 44.331C89.7561 44.3372 89.6879 44.3819 89.6321 44.4652C89.5788 44.5459 89.5528 44.716 89.5553 44.9718L89.4115 44.9842L89.2727 43.3115L89.4165 43.299C89.4735 43.5176 89.5354 43.6567 89.6036 43.7163C89.74 43.8393 90.0065 43.9647 90.4019 44.0938L94.9163 45.5965L94.9274 45.7294L90.6746 47.9411C90.3337 48.1187 90.1155 48.2727 90.0189 48.4031C89.9234 48.5335 89.8788 48.7061 89.8838 48.9247L89.74 48.9359L89.5664 46.8446L89.7102 46.8334C89.7387 47.0433 89.7846 47.1823 89.8503 47.2519C89.9172 47.3214 89.9928 47.3512 90.0796 47.345C90.1949 47.3351 90.3709 47.268 90.6101 47.1426L91.3377 46.7676ZM91.6154 46.6223L93.678 45.5505L91.4642 44.8116L91.6154 46.6223ZM89.5652 55.4084L87.9017 55.2942L87.9117 55.1576C88.3157 55.1129 88.6814 54.9663 89.0062 54.7217C89.3309 54.4758 89.5119 54.0734 89.5503 53.5146L89.797 49.9269L89.9408 49.9355C89.9284 50.2622 89.9668 50.4745 90.0548 50.5714C90.1428 50.6695 90.3622 50.7303 90.7118 50.7539L94.0783 50.9862C94.4291 51.0098 94.6547 50.98 94.7551 50.8955C94.8555 50.8111 94.9212 50.6062 94.9547 50.2808L95.0985 50.2907L94.9423 52.5671L94.7985 52.5571C94.8109 52.2305 94.7725 52.0182 94.6845 51.9213C94.5977 51.8232 94.3783 51.7636 94.0275 51.7387L90.4924 51.4953C90.2445 51.4779 90.097 51.4829 90.0486 51.5077C90.0003 51.5338 89.9656 51.6891 89.9457 51.9747L89.8528 53.3345C89.8292 53.6673 89.8428 53.8486 89.8912 53.8785C89.9408 53.907 90.1094 53.9319 90.3994 53.9517L93.8589 54.1902C94.2097 54.215 94.4353 54.184 94.5345 54.0983C94.6361 54.0151 94.7018 53.8039 94.7365 53.4699L94.8803 53.4798L94.7229 55.7711L94.5791 55.7611C94.5903 55.4345 94.5531 55.2234 94.4638 55.1253C94.3771 55.0284 94.1577 54.9676 93.8069 54.944L90.4267 54.7105C90.0635 54.6857 89.8354 54.713 89.7412 54.7912C89.647 54.8695 89.5887 55.0756 89.5652 55.4084ZM92.6851 61.2911C92.9962 61.3607 93.202 61.3545 93.3074 61.2725C93.4115 61.1905 93.4982 60.9956 93.5664 60.6901L93.7077 60.7211L93.207 62.9627L93.0669 62.9316C93.1276 62.61 93.1214 62.3951 93.0495 62.2859C92.9776 62.1766 92.7706 62.0834 92.4273 62.0064L89.1338 61.2688C88.7917 61.1918 88.5636 61.1868 88.4521 61.2564C88.3405 61.3234 88.2438 61.5159 88.162 61.8326L88.022 61.8015L88.5215 59.56L88.6628 59.591C88.5996 59.9226 88.6058 60.1424 88.6777 60.2529C88.7521 60.3622 88.9578 60.4553 89.2987 60.5323L92.2785 61.1992L89.7239 58.1095C89.502 58.0623 89.3495 58.0437 89.2689 58.0536C89.1884 58.0635 89.114 58.1132 89.0495 58.2014C88.9838 58.2895 88.9206 58.4572 88.8599 58.7056L88.7198 58.6745L89.2181 56.4404L89.3582 56.4715C89.2974 56.7931 89.3036 57.0079 89.3755 57.1185C89.4474 57.2265 89.6557 57.3209 89.9978 57.3966L93.2912 58.1356C93.6346 58.2113 93.8614 58.2163 93.973 58.148C94.0858 58.0797 94.1812 57.8872 94.263 57.5705L94.4044 57.6028L93.9048 59.8357L93.7647 59.8046C93.8267 59.478 93.8218 59.2619 93.7486 59.1514C93.678 59.0421 93.4697 58.949 93.1264 58.872L90.1391 58.2026L92.6851 61.2911ZM90.0833 68.2368C90.3734 68.3672 90.5767 68.402 90.6957 68.3424C90.8147 68.2816 90.9386 68.1089 91.0663 67.8221L91.1977 67.8817L90.2655 69.9792L90.1329 69.9208C90.2556 69.6178 90.2928 69.4067 90.2432 69.285C90.1949 69.1633 90.0102 69.0304 89.6891 68.8876L86.6064 67.5128C86.2854 67.3688 86.0623 67.3204 85.9408 67.3651C85.8168 67.4085 85.6842 67.5787 85.5416 67.873L85.4103 67.8134L86.3424 65.7159L86.475 65.7742C86.3474 66.0872 86.3102 66.3033 86.3585 66.4262C86.4093 66.5492 86.594 66.6808 86.9126 66.8224L89.7028 68.0667L87.8075 64.5324C87.5993 64.4417 87.4543 64.3933 87.3712 64.3871C87.2919 64.3809 87.2088 64.4144 87.1283 64.4877C87.0464 64.5622 86.951 64.7137 86.8432 64.9459L86.7118 64.8863L87.6402 62.7963L87.7716 62.8546C87.6489 63.1576 87.6117 63.3688 87.6613 63.4917C87.7108 63.6122 87.8955 63.745 88.2166 63.8879L91.2993 65.2638C91.6203 65.4066 91.8422 65.4563 91.9649 65.4104C92.0889 65.3657 92.2215 65.1968 92.3628 64.9025L92.4955 64.9621L91.5658 67.0521L91.4344 66.9937C91.5596 66.6858 91.5968 66.4734 91.5472 66.3492C91.4989 66.2288 91.3142 66.0959 90.9931 65.9531L88.1955 64.705L90.0833 68.2368Z" fill="white"/>
</svg>
