<svg width="191" height="100" viewBox="0 0 191 100" fill="none" xmlns="http://www.w3.org/2000/svg">
<path d="M19.3494 82.1054V68.1333H16.0977V65.2872H25.6711V68.1333H22.755V82.1054H19.3494ZM28.783 81.8047V64.9795H36.6151V67.8256H32.1886V71.5599H36.6082V74.3991H32.1886V78.9585H36.734V81.8047H28.783ZM39.9718 82.1054L44.3074 73.3361L40.5102 65.2872H44.4753L46.3214 70.2942L48.6921 65.2872H51.9438L48.2935 73.3431L52.6151 82.1054H48.5382L46.3145 76.4061L44.0557 82.1054H39.9718ZM70.6571 82.1054H66.9928L65.5382 78.2802H61.1956L59.797 82.1054H56.1956L62.2865 65.2872H64.3634L70.6571 82.1054ZM64.8739 75.434L63.3774 69.9935L61.79 75.434H64.8739ZM74.2445 82.1054V65.2872H79.6921C81.755 65.2872 81.9718 65.3711 82.6012 65.5389C83.5592 65.7907 84.3704 66.3431 85.0207 67.1893C85.6711 68.0284 85.9928 69.1263 85.9928 70.462C85.9928 71.497 85.804 72.3641 85.4333 73.0634C85.0557 73.7697 84.5872 74.3221 84.0068 74.7277C83.4333 75.1263 82.8459 75.3991 82.2515 75.5249C81.4403 75.6858 81.3984 75.7627 79.8599 75.7627H77.6571V82.1054H74.2445ZM77.6571 68.1333V72.9235H79.5033C80.8389 72.9235 80.6012 72.8326 81.0557 72.6578C81.5033 72.483 81.8529 72.2033 82.1117 71.8256C82.3634 71.448 82.4963 71.0144 82.4963 70.5109C82.4963 69.9026 82.3145 69.3921 81.9578 68.9935C81.5942 68.5949 81.1466 68.3431 80.5942 68.2452C80.1886 68.1683 80.5103 68.1333 79.2865 68.1333H77.6571ZM89.1186 82.1054V65.2872H94.2166L97.2375 76.7557L100.217 65.2872H105.328V82.1054H102.182L102.168 68.8676L98.8529 82.1054H95.5802L92.2795 68.8676L92.2655 82.1054H89.1186ZM137.468 65.2872H141.293L144.419 73.7557L147.482 65.2872H151.028L145.622 78.0704C145.007 79.5319 144.468 80.441 143.713 82.1054L140.65 81.9655C141.252 80.8256 142.391 78.3851 142.895 77.3431L137.468 65.2872Z" fill="white"/>
<path d="M122.414 82.1053H118.743L117.295 78.2801H112.945L111.547 82.1053H107.945L114.036 65.2871H116.113L122.414 82.1053ZM116.631 75.434L115.127 69.9934L113.54 75.434H116.631Z" fill="white"/>
<path d="M127.791 82.1053V68.1333H124.539V65.2871H134.105V68.1333H131.196V82.1053H127.791Z" fill="white"/>
<path d="M153.68 82.1053V65.2871H159.127C161.19 65.2871 161.407 65.371 162.036 65.5389C162.994 65.7906 163.806 66.3431 164.449 67.1892C165.099 68.0284 165.428 69.1263 165.428 70.462C165.428 71.4969 165.239 72.3641 164.868 73.0634C164.491 73.7696 164.015 74.3221 163.442 74.7277C162.868 75.1263 162.281 75.399 161.687 75.5249C160.876 75.6857 160.827 75.7626 159.295 75.7626H157.085V82.1053H153.68ZM157.085 68.1333V72.9235H158.938C160.274 72.9235 160.036 72.8326 160.484 72.6577C160.938 72.4829 161.288 72.2032 161.54 71.8256C161.799 71.448 161.924 71.0144 161.924 70.5109C161.924 69.9025 161.75 69.392 161.393 68.9934C161.029 68.5948 160.582 68.3431 160.029 68.2452C159.624 68.1682 159.938 68.1333 158.722 68.1333H157.085Z" fill="white"/>
<path d="M181.833 82.1053H178.161L176.714 78.2801H172.364L170.965 82.1053H167.371L173.455 65.2871H175.532L181.833 82.1053ZM176.049 75.434L174.546 69.9934L172.958 75.434H176.049Z" fill="white"/>
<path d="M115.358 35.021H85.582V52.4126H115.358V35.021Z" fill="white"/>
<path d="M84.5745 32.0142H79.4766V55.14H84.5745V32.0142Z" fill="white"/>
<path d="M121.364 32.0142H116.266V55.14H121.364V32.0142Z" fill="white"/>
<path d="M105.16 30.105H93.5938V33.6574H105.16V30.105Z" fill="white"/>
<path d="M113.439 17.4897H85.6211V20.1331H113.439V17.4897Z" fill="white"/>
<path fill-rule="evenodd" clip-rule="evenodd" d="M96.7332 29.1892C96.7332 29.1892 96.1877 24.0913 99.4675 24.0913C102.74 24.0913 102.516 29.1472 102.516 29.1472L96.7332 29.1892Z" fill="white"/>
<path d="M90.132 18.8325L98.2858 26.6647L97.2788 27.7136L89.125 19.8815L90.132 18.8325Z" fill="white"/>
<path d="M108.748 18.8325L100.602 26.6647L101.609 27.7136L109.755 19.8815L108.748 18.8325Z" fill="white"/>
<path d="M59.875 39.4477C59.875 39.4407 60.9939 37.8742 62.9309 37.9302C63.7631 37.9581 65.0009 38.5875 66.1477 39.2868C67.5533 40.133 68.9869 41.119 70.3505 41.07C71.4554 41.0351 72.3855 40.4267 73.3086 39.8183C74.4694 39.0561 75.6372 38.2938 77.2946 38.2938V39.9442C76.1267 39.9442 75.1687 40.5735 74.2177 41.1959C73.0988 41.9302 71.9799 42.6644 70.3995 42.7204C68.5533 42.7763 66.868 41.6784 65.2736 40.7134C64.3226 40.14 63.2806 39.5875 62.882 39.5735C61.5393 39.5456 59.91 41.4477 59.903 41.4547L59.875 39.4477Z" fill="white"/>
<path d="M59.875 43.5458C59.875 43.5388 60.9939 41.9724 62.9309 42.0283C63.7631 42.0563 65.0009 42.6857 66.1477 43.385C67.5533 44.2311 68.9869 45.2171 70.3505 45.1682C71.4554 45.1332 72.3855 44.5248 73.3086 43.9164C74.4694 43.1542 75.6372 42.3919 77.2946 42.3919V44.0423C76.1267 44.0423 75.1687 44.6717 74.2177 45.294C73.0988 46.0283 71.9799 46.7626 70.3995 46.8115C68.5533 46.8745 66.868 45.7766 65.2736 44.8115C64.3226 44.2381 63.2806 43.6857 62.882 43.6717C61.5393 43.6437 59.91 45.5458 59.903 45.5528L59.875 43.5458Z" fill="white"/>
<path d="M59.875 47.7343C59.875 47.7273 60.9939 46.1609 62.9309 46.2168C63.7631 46.2448 65.0009 46.8741 66.1477 47.5734C67.5533 48.4196 68.9869 49.4056 70.3505 49.3566C71.4554 49.3217 72.3855 48.7133 73.3086 48.1049C74.4694 47.3427 75.6372 46.5804 77.2946 46.5804V48.2308C76.1267 48.2308 75.1687 48.8602 74.2177 49.4825C73.0988 50.2168 71.9799 50.9511 70.3995 51C68.5533 51.0629 66.868 49.9651 65.2736 49C64.3226 48.4196 63.2806 47.8741 62.882 47.8602C61.5393 47.8322 59.91 49.7343 59.903 49.7343L59.875 47.7343Z" fill="white"/>
<path d="M123.246 39.4477C123.253 39.4407 124.372 37.8742 126.302 37.9302C127.141 37.9581 128.372 38.5875 129.526 39.2868C130.924 40.133 132.358 41.119 133.722 41.07C134.826 41.0351 135.757 40.4267 136.687 39.8183C137.848 39.0561 139.008 38.2938 140.666 38.2938V39.9442C139.498 39.9442 138.547 40.5735 137.589 41.1959C136.47 41.9302 135.351 42.6644 133.771 42.7204C131.931 42.7763 130.239 41.6784 128.652 40.7134C127.694 40.14 126.659 39.5875 126.26 39.5735C124.91 39.5456 123.281 41.4477 123.281 41.4547L123.246 39.4477Z" fill="white"/>
<path d="M123.246 43.5458C123.253 43.5388 124.372 41.9724 126.302 42.0283C127.141 42.0563 128.372 42.6857 129.526 43.385C130.924 44.2311 132.358 45.2171 133.722 45.1682C134.826 45.1332 135.757 44.5248 136.687 43.9164C137.848 43.1542 139.008 42.3919 140.666 42.3919V44.0423C139.498 44.0423 138.547 44.6717 137.589 45.294C136.47 46.0283 135.351 46.7626 133.771 46.8115C131.931 46.8745 130.239 45.7766 128.652 44.8115C127.694 44.2381 126.659 43.6857 126.26 43.6717C124.91 43.6437 123.281 45.5458 123.281 45.5528L123.246 43.5458Z" fill="white"/>
<path d="M123.246 47.7343C123.253 47.7273 124.372 46.1609 126.302 46.2168C127.141 46.2448 128.372 46.8741 129.526 47.5734C130.924 48.4196 132.358 49.4056 133.722 49.3566C134.826 49.3217 135.757 48.7133 136.687 48.1049C137.848 47.3427 139.008 46.5804 140.666 46.5804V48.2308C139.498 48.2308 138.547 48.8602 137.589 49.4825C136.47 50.2168 135.351 50.9511 133.771 51C131.931 51.0629 130.239 49.9651 128.652 49C127.694 48.4196 126.659 47.8741 126.26 47.8602C124.91 47.8322 123.281 49.7343 123.281 49.7343L123.246 47.7343Z" fill="white"/>
</svg>
