<svg width="200" height="30" viewBox="0 0 200 30" fill="none" xmlns="http://www.w3.org/2000/svg">
<path d="M12.5313 17.7874C12.5378 17.8711 12.5668 17.942 12.6183 18C12.6578 18.0358 12.7142 18.0623 12.7829 18.0774C12.8517 18.0925 12.9309 18.0957 13.0144 18.0869L31.3429 16.2802C31.7487 16.2415 31.8743 16.3864 31.7198 16.7149L30.4251 19.4879C30.3813 19.5812 30.3595 19.6844 30.3618 19.7874C30.3641 19.8903 30.3904 19.9895 30.4382 20.0752C30.4859 20.1609 30.5534 20.2302 30.6341 20.2763C30.7148 20.3224 30.8059 20.3437 30.8985 20.3381L55.971 18.4637C56.0452 18.4581 56.1198 18.4648 56.19 18.4835C56.2603 18.5022 56.3246 18.5325 56.379 18.5724C56.4334 18.6123 56.4768 18.661 56.5063 18.7155C56.5359 18.7699 56.551 18.829 56.5507 18.8889L56.657 24.2222C56.6583 24.2838 56.6445 24.345 56.6164 24.4022C56.5883 24.4595 56.5466 24.5117 56.4935 24.5558C56.4404 24.5999 56.3771 24.6349 56.3073 24.6589C56.2375 24.6829 56.1626 24.6954 56.0869 24.6956C42.876 24.6312 29.6618 24.6087 16.4444 24.628C13.5909 24.6344 11.4106 24.219 9.90333 23.3816C7.09495 21.8228 5.52974 19.4331 5.20767 16.2125C4.93714 13.5587 5.49431 11.2496 6.87917 9.28499C7.92265 7.80351 9.31395 6.71173 11.0531 6.00963C12.1932 5.54586 13.8743 5.31076 16.0966 5.30432C29.4106 5.25279 42.7246 5.25601 56.0386 5.31398C56.1194 5.31423 56.1994 5.32624 56.274 5.3493C56.3485 5.37235 56.4161 5.406 56.4728 5.44827C56.5294 5.49054 56.574 5.54059 56.604 5.5955C56.634 5.65041 56.6487 5.70908 56.6473 5.76809L56.5797 8.94683C56.5767 9.13248 56.502 9.31289 56.3681 9.45734C56.2342 9.60179 56.0495 9.70136 55.8454 9.7391L37.9806 12.9178C37.6006 12.9887 37.5072 12.8631 37.7004 12.541L39.198 10.029C39.8357 8.9726 39.5942 8.62799 38.4734 8.99514L12.9468 17.3526C12.8208 17.3937 12.7103 17.4597 12.6344 17.5391C12.5586 17.6185 12.5221 17.7063 12.5313 17.7874Z" fill="white"/>
<path d="M77.8164 19.8067C79.4396 19.8261 81.1658 19.7939 82.9951 19.7101C83.0959 19.7061 83.1962 19.7254 83.2883 19.7664C83.3804 19.8074 83.4619 19.8691 83.5263 19.9466C83.5908 20.0241 83.6365 20.1155 83.66 20.2135C83.6835 20.3116 83.6841 20.4137 83.6618 20.5121C83.4428 21.4525 83.4782 22.541 83.7681 23.7778C83.7929 23.88 83.7939 23.9864 83.771 24.0892C83.7481 24.192 83.7019 24.2884 83.6359 24.3712C83.5699 24.4539 83.4857 24.5209 83.3898 24.5671C83.2939 24.6132 83.1887 24.6374 83.0821 24.6377C79.6296 24.6377 76.4154 24.57 73.4396 24.4348C70.1159 24.2866 67.6167 23.0885 65.942 20.8406C64.4219 18.7987 63.8389 16.3671 64.1932 13.5459C64.599 10.3059 66.2641 7.93879 69.1884 6.44442C70.6054 5.71656 72.6988 5.35263 75.4686 5.35263C77.9098 5.35263 80.3542 5.28822 82.8019 5.1594C82.947 5.151 83.0898 5.18707 83.2085 5.26208C83.3271 5.3371 83.4151 5.44695 83.4589 5.57486C83.6457 6.08371 83.723 6.62155 83.6908 7.18838C83.6586 7.71656 83.6715 8.24152 83.7294 8.76326C83.8518 9.88403 83.4203 10.3832 82.4348 10.2608C81.7455 10.1771 81.372 10.132 81.314 10.1256C76.7343 10.0161 73.9452 10.103 72.9468 10.3865C69.9323 11.2496 68.7246 13.1014 69.3236 15.942C69.7745 18.0612 71.0112 19.3043 73.0338 19.6715C73.3558 19.7359 74.9501 19.781 77.8164 19.8067Z" fill="white"/>
<path d="M91.1909 5.25225L86.8238 5.25987C86.6264 5.26022 86.4666 5.42055 86.4669 5.61799L86.4995 24.2653C86.4998 24.4627 86.6602 24.6225 86.8576 24.6222L91.2247 24.6145C91.4222 24.6142 91.5819 24.4539 91.5816 24.2564L91.5491 5.60912C91.5487 5.41168 91.3884 5.25191 91.1909 5.25225Z" fill="white"/>
<path d="M100.377 5.78742C100.583 5.45248 100.86 5.29467 101.208 5.31399C103.069 5.41705 104.927 5.33654 106.783 5.07245C107.704 4.93718 107.839 5.20127 107.188 5.86472L99.0241 14.1353C98.8689 14.2941 98.782 14.5074 98.782 14.7295C98.782 14.9515 98.8689 15.1648 99.0241 15.3237L107.71 24.1353C108.045 24.4766 107.977 24.6441 107.507 24.6377L102 24.599C101.835 24.5959 101.675 24.5635 101.53 24.5037C101.386 24.444 101.26 24.3581 101.159 24.2512L93.0434 15.6328C92.8576 15.4324 92.7496 15.169 92.7373 14.8861C92.725 14.6032 92.8091 14.3178 92.9758 14.0773C94.8695 11.3333 97.1497 8.8148 99.8163 6.52172C99.9645 6.39934 100.151 6.15457 100.377 5.78742Z" fill="white"/>
<path d="M138.464 10.686L138.348 23.8551C138.348 24.0017 138.302 24.1433 138.218 24.2571C138.134 24.3709 138.016 24.4505 137.884 24.4831C136.853 24.7536 135.568 24.6473 134.029 24.1642C133.827 24.099 133.651 23.9723 133.526 23.8023C133.401 23.6322 133.334 23.4275 133.333 23.2174L133.391 5.8454C133.391 5.71984 133.442 5.59942 133.533 5.51064C133.623 5.42185 133.746 5.37197 133.874 5.37197C136.979 5.32044 140.084 5.29468 143.188 5.29468C146.647 5.30112 149.037 5.66827 150.357 6.39613C152.85 7.78743 153.939 10.3253 153.623 14.0097C153.526 15.1369 153.088 16.1771 152.309 17.1304C151.671 17.9227 150.786 18.5475 149.652 19.0048C147.61 19.8229 145.446 20.1256 143.159 19.913C142.799 19.8808 142.206 19.9034 141.382 19.9807C140.222 20.0837 139.755 19.5362 139.981 18.3382C140.039 18.0354 140.042 17.7262 139.99 17.4106C139.894 16.8051 139.955 16.2383 140.174 15.7101C140.229 15.5805 140.325 15.4695 140.45 15.3906C140.576 15.3117 140.725 15.2683 140.879 15.2657C142.367 15.2206 143.855 15.2013 145.343 15.2077C146.438 15.2142 147.246 15.0338 147.768 14.6667C148.657 14.0354 148.947 13.1369 148.638 11.971C148.316 10.7472 147.536 10.1385 146.299 10.1449L138.947 10.1932C138.819 10.1932 138.696 10.2451 138.605 10.3376C138.515 10.43 138.464 10.5553 138.464 10.686Z" fill="white"/>
<path d="M162.319 18.4155L155.082 5.88411C155.053 5.83593 155.038 5.78096 155.037 5.72475C155.036 5.66854 155.05 5.61311 155.077 5.56406C155.105 5.51502 155.145 5.47411 155.193 5.44547C155.241 5.41684 155.297 5.4015 155.353 5.40102L159.903 5.29474C160.052 5.29208 160.2 5.33122 160.329 5.4079C160.459 5.48457 160.565 5.59583 160.638 5.72952L165.169 14.087C165.414 14.5379 165.668 14.5379 165.932 14.087L170.802 5.76817C170.876 5.64154 170.983 5.53591 171.113 5.46146C171.243 5.38701 171.392 5.34623 171.546 5.34305L175.971 5.24643C176.577 5.23355 176.718 5.4912 176.396 6.01938C173.697 10.393 171.085 14.7569 168.56 19.1112C167.24 21.4042 165.994 22.8889 164.821 23.5653C163.018 24.6088 160.947 24.8632 158.609 24.3286C158.477 24.298 158.36 24.2232 158.276 24.1162C158.191 24.0092 158.145 23.8764 158.145 23.7392L158.155 20.145C158.155 20.0589 158.176 19.9742 158.215 19.8976C158.255 19.8211 158.311 19.7548 158.381 19.704C158.45 19.6533 158.531 19.6196 158.616 19.6055C158.7 19.5915 158.787 19.5976 158.87 19.6232C160.1 19.9968 161.205 19.839 162.184 19.1498C162.292 19.0708 162.366 18.9519 162.391 18.8161C162.416 18.6804 162.391 18.5376 162.319 18.4155Z" fill="white"/>
<path d="M130.57 15.7101C130.57 18.0445 129.643 20.2833 127.992 21.934C126.341 23.5847 124.102 24.512 121.768 24.512H116.454C114.12 24.512 111.881 23.5847 110.23 21.934C108.579 20.2833 107.652 18.0445 107.652 15.7101V14.2415C107.652 11.9071 108.579 9.66828 110.23 8.0176C111.881 6.36692 114.12 5.43958 116.454 5.43958H121.768C124.102 5.43958 126.341 6.36692 127.992 8.0176C129.643 9.66828 130.57 11.9071 130.57 14.2415V15.7101ZM125.381 14.5109C125.379 13.3552 124.918 12.2477 124.099 11.4319C123.281 10.6162 122.172 10.159 121.016 10.161L117.383 10.1674C116.811 10.1684 116.244 10.2821 115.716 10.502C115.188 10.7219 114.708 11.0437 114.304 11.4491C113.9 11.8544 113.58 12.3353 113.362 12.8644C113.144 13.3935 113.032 13.9603 113.033 14.5325L113.034 15.2475C113.036 16.4032 113.497 17.5107 114.316 18.3264C115.135 19.1422 116.244 19.5994 117.399 19.5974L121.032 19.591C121.605 19.59 122.171 19.4763 122.699 19.2564C123.228 19.0365 123.707 18.7146 124.111 18.3093C124.515 17.904 124.835 17.423 125.053 16.894C125.271 16.3649 125.383 15.7981 125.382 15.2259L125.381 14.5109Z" fill="white"/>
<path d="M186.048 19.7295C188.747 19.8712 191.443 19.8486 194.135 19.6618C194.275 19.6506 194.413 19.6884 194.525 19.7683C194.637 19.8482 194.714 19.9648 194.744 20.0966C195.066 21.4493 195.082 22.8084 194.792 24.1739C194.766 24.3045 194.692 24.4219 194.585 24.5064C194.478 24.5909 194.343 24.6372 194.203 24.6377C192 24.6441 189.8 24.6474 187.604 24.6474C184.628 24.6409 182.461 24.3639 181.101 23.8164C178.628 22.8245 176.947 21.0821 176.058 18.5894C175.279 16.4251 175.246 14.1739 175.961 11.8358C177.327 7.33978 180.831 5.14332 186.473 5.24638C188.805 5.29147 191.375 5.31402 194.184 5.31402C194.264 5.31402 194.343 5.32826 194.417 5.35594C194.49 5.38362 194.557 5.42418 194.614 5.47532C194.671 5.52646 194.715 5.58717 194.746 5.65399C194.777 5.72081 194.792 5.79242 194.792 5.86474V9.6715C194.792 9.7928 194.73 9.90928 194.622 9.99598C194.514 10.0827 194.367 10.1327 194.213 10.1353L184.174 10.3768C182.628 10.4155 181.623 11.2206 181.159 12.7923C179.878 17.1723 181.507 19.4847 186.048 19.7295Z" fill="white"/>
</svg>
