<svg width="307" height="100" viewBox="0 0 307 100" fill="none" xmlns="http://www.w3.org/2000/svg">
<path d="M107.047 30.1136L107.388 21.0227H113.297V38.4091H105.343C106.365 36.25 106.82 33.4091 107.047 30.1136ZM99.5473 38.4091C97.9564 38.4091 96.9336 39.7727 96.9336 41.25V46.1364C96.9336 47.5 98.0701 48.6364 99.5473 48.6364C101.025 48.6364 102.161 47.6136 102.161 46.1364V43.2955H115.797V46.1364C115.797 47.5 116.934 48.6364 118.411 48.6364C120.002 48.6364 121.138 47.6136 121.138 46.1364V41.25C121.138 39.7727 120.229 38.4091 118.638 38.4091V18.9773C118.638 17.5 117.275 16.25 115.684 16.25H105.229C103.638 16.25 102.274 17.5 102.274 18.9773L101.706 30C101.479 33.9773 100.797 36.9318 99.5473 38.4091Z" fill="white"/>
<path d="M133.523 43.6363C140.114 43.6363 143.523 39.0909 143.523 33.5227V25.909C143.523 20.4545 140.683 15.7954 133.523 15.7954C126.364 15.7954 123.523 20.4545 123.523 25.909V33.5227C123.523 39.2045 126.933 43.6363 133.523 43.6363ZM133.523 20.7954C136.933 20.7954 138.183 22.8409 138.183 26.0227V33.6363C138.183 36.7045 136.705 38.8636 133.523 38.8636C130.342 38.8636 128.864 36.7045 128.864 33.6363V26.0227C128.978 22.8409 130.228 20.7954 133.523 20.7954Z" fill="white"/>
<path d="M172.045 18.4092C172.045 17.0455 170.909 15.9092 169.318 15.9092C168.295 15.9092 167.159 16.2501 166.704 17.3865L159.886 31.0228L153.068 17.5001C152.613 16.4774 151.591 16.0228 150.341 16.0228C148.75 16.0228 147.613 17.0455 147.613 18.5228V41.3637C147.613 42.6137 148.75 43.7501 150.227 43.7501C151.704 43.7501 152.954 42.6137 152.954 41.3637V28.0683L157.386 36.7046C157.841 37.7274 158.863 38.1819 159.886 38.1819C160.909 38.1819 161.931 37.7274 162.386 36.7046L166.818 28.0683V41.2501C166.818 42.5001 168.068 43.6365 169.545 43.6365C170.909 43.6365 172.159 42.5001 172.159 41.2501V18.4092H172.045Z" fill="white"/>
<path d="M181.591 37.9546H189.773L191.136 41.8183C191.477 42.841 192.727 43.6365 193.75 43.6365C195.341 43.6365 196.477 42.6137 196.477 41.1365C196.477 40.9092 196.477 40.4546 196.364 40.341L188.864 18.5228C188.295 16.9319 187.614 15.9092 185.682 15.9092C183.864 15.9092 183.068 17.0455 182.614 18.5228L175.114 40.341C175 40.5683 175 41.0228 175 41.1365C175 42.6137 176.25 43.6365 177.727 43.6365C178.636 43.6365 179.886 42.9546 180.227 41.8183L181.591 37.9546ZM188.409 33.6365H182.955L185 27.0455C185.341 25.9092 185.568 24.4319 185.682 23.2955C185.795 24.4319 186.023 25.9092 186.364 27.0455L188.409 33.6365Z" fill="white"/>
<path d="M225.339 18.409C225.339 17.0454 224.089 15.909 222.612 15.909C221.249 15.909 219.885 17.0454 219.885 18.409V38.409H214.999V18.2954C214.999 17.0454 213.749 15.7954 212.271 15.7954C210.794 15.7954 209.544 16.9318 209.544 18.2954V38.409H204.658V18.409C204.658 17.0454 203.408 15.909 201.93 15.909C200.453 15.909 199.203 17.0454 199.203 18.409V40.7954C199.203 42.159 200.339 43.2954 201.93 43.2954H222.385C223.862 43.2954 225.112 42.159 225.112 40.7954V18.409H225.339Z" fill="white"/>
<path d="M249.091 41.1363V18.2954C249.091 17.0454 247.841 15.7954 246.364 15.7954C244.886 15.7954 243.636 16.9318 243.636 18.2954V27.2727H235.455V18.2954C235.455 17.0454 234.205 15.7954 232.727 15.7954C231.25 15.7954 230 16.9318 230 18.2954V41.1363C230 42.5 231.136 43.6363 232.727 43.6363C234.205 43.6363 235.455 42.5 235.455 41.1363V32.159H243.636V41.1363C243.636 42.5 244.886 43.6363 246.364 43.6363C247.841 43.6363 249.091 42.5 249.091 41.1363Z" fill="white"/>
<path d="M256.817 43.6365C257.84 43.6365 258.863 43.0683 259.431 42.2728L268.295 26.7046V41.0228C268.295 42.3864 269.545 43.5228 271.022 43.5228C272.499 43.5228 273.636 42.3864 273.636 41.0228V18.5228C273.636 17.0455 272.499 15.9092 270.795 15.9092C269.772 15.9092 268.749 16.4774 268.181 17.3865C264.772 23.2955 262.84 26.8183 259.317 32.9546V18.4092C259.317 17.0455 258.067 15.9092 256.59 15.9092C255.113 15.9092 253.977 17.0455 253.977 18.4092V41.0228C253.977 42.5001 255.113 43.6365 256.817 43.6365Z" fill="white"/>
<path d="M288.183 10.9092C287.501 10.9092 286.592 10.4547 285.91 9.77286C285.569 9.20468 284.887 8.86377 284.205 8.86377C283.183 8.86377 282.16 9.54559 282.501 11.0229C283.183 13.2955 286.137 14.4319 288.183 14.4319C290.228 14.4319 293.296 13.1819 293.864 11.0229C294.205 9.54559 293.183 8.86377 292.16 8.86377C291.478 8.86377 290.796 9.20468 290.342 9.77286C289.773 10.4547 288.864 10.9092 288.183 10.9092ZM281.364 43.6366C279.66 43.6366 278.523 42.5001 278.523 41.0228V18.4092C278.523 17.0455 279.66 15.9092 281.137 15.9092C282.614 15.9092 283.864 17.0455 283.864 18.4092V32.9546C287.387 26.8183 289.319 23.2956 292.728 17.3866C293.296 16.5911 294.319 15.9092 295.342 15.9092C296.933 15.9092 298.183 17.0456 298.183 18.5229V41.1364C298.183 42.5001 297.046 43.6366 295.569 43.6366C294.092 43.6366 292.842 42.5001 292.842 41.1364V26.8183L283.978 42.3866C283.523 43.0684 282.387 43.6366 281.364 43.6366Z" fill="white"/>
<path d="M110.453 73.9774C110.453 71.1365 108.749 69.4319 105.908 68.4092C108.408 67.1592 109.772 65.4547 109.772 63.182C109.772 60.0001 107.158 56.3638 102.044 56.3638C98.8626 56.3638 94.3171 57.841 94.3171 60.1138C94.3171 61.2501 95.4535 62.1592 96.5898 62.1592C97.6126 62.1592 98.2944 61.4774 99.0898 61.1365C99.8853 60.7956 100.794 60.5683 101.817 60.5683C104.317 60.5683 105.113 62.0456 105.113 63.2956C105.113 65.4547 102.613 66.4774 100.34 66.591C99.3171 66.591 97.9535 66.7047 97.9535 68.6365C97.9535 70.682 99.3172 70.7956 100.681 70.9092C103.408 71.1365 105.681 71.7047 105.681 73.9774C105.681 75.7956 104.203 77.2729 101.703 77.2729C98.9762 77.2729 97.8398 75.6819 96.3626 75.6819C95.2262 75.6819 94.0898 76.591 94.0898 77.7274C94.0898 80.2274 98.9762 81.3638 102.044 81.3638C107.158 81.3638 110.453 77.841 110.453 73.9774Z" fill="white"/>
<path d="M118.183 76.2499H125.569L126.819 79.7726C127.16 80.7953 128.297 81.3635 129.206 81.3635C130.683 81.3635 131.706 80.4544 131.706 79.0908C131.706 78.8635 131.706 78.5226 131.592 78.2953L124.774 58.5226C124.319 57.159 123.637 56.1362 121.933 56.1362C120.228 56.1362 119.547 57.159 119.092 58.5226L112.274 78.2953C112.16 78.5226 112.16 78.8635 112.16 79.0908C112.16 80.4544 113.296 81.3635 114.66 81.3635C115.456 81.3635 116.592 80.7953 116.933 79.7726L118.183 76.2499ZM124.319 72.2726H119.433L121.251 66.3635C121.592 65.3408 121.706 64.0908 121.933 62.9544C122.047 63.9771 122.274 65.3408 122.501 66.3635L124.319 72.2726Z" fill="white"/>
<path d="M139.203 61.0226H146.362C147.726 61.0226 148.748 60.1135 148.748 58.8635C148.748 57.7272 147.726 56.5908 146.362 56.5908H136.93C135.453 56.5908 134.316 57.8408 134.316 58.9772V79.0908C134.316 80.2272 135.339 81.3635 136.703 81.3635C138.066 81.3635 139.089 80.3408 139.089 79.0908V61.0226H139.203Z" fill="white"/>
<path d="M159.774 81.3638C165.797 81.3638 168.751 77.2729 168.751 72.2729V65.4547C168.751 60.5683 166.251 56.3638 159.774 56.3638C153.297 56.3638 150.797 60.5683 150.797 65.4547V72.2729C150.797 77.2729 153.865 81.3638 159.774 81.3638ZM159.774 60.682C162.842 60.682 163.979 62.5001 163.979 65.341V72.1592C163.979 74.8865 162.615 76.932 159.774 76.932C156.933 76.932 155.57 75.0001 155.57 72.1592V65.341C155.683 62.5001 156.82 60.682 159.774 60.682Z" fill="white"/>
<path d="M176.82 79.0907C176.82 80.227 177.843 81.3634 179.206 81.3634C180.57 81.3634 181.593 80.3407 181.593 79.0907V60.9089H185.229C186.593 60.9089 187.729 59.8861 187.729 58.7498C187.729 57.4998 186.479 56.4771 185.229 56.4771H173.07C171.706 56.4771 170.684 57.7271 170.684 58.7498C170.684 59.8861 171.706 60.9089 173.07 60.9089H176.706V79.0907H176.82Z" fill="white"/>
<path d="M198.637 81.3638C204.66 81.3638 207.615 77.2729 207.615 72.2729V65.4547C207.615 60.5683 205.115 56.3638 198.637 56.3638C192.16 56.3638 189.66 60.5683 189.66 65.4547V72.2729C189.66 77.2729 192.615 81.3638 198.637 81.3638ZM198.637 60.682C201.706 60.682 202.842 62.5001 202.842 65.341V72.1592C202.842 74.8865 201.478 76.932 198.637 76.932C195.797 76.932 194.433 75.0001 194.433 72.1592V65.341C194.433 62.5001 195.569 60.682 198.637 60.682Z" fill="white"/>
<path d="M216.25 66.1363V60.909H220.454C222.272 60.909 222.841 62.0454 222.841 63.409C222.841 65.2272 221.363 66.1363 220.113 66.1363H216.25ZM220.341 70.5681C222.159 70.5681 223.522 71.7045 223.522 73.6363C223.522 75.4545 222.386 76.5908 220.113 76.5908H216.25V70.5681H220.341ZM219.886 81.0226C225.227 81.0226 228.522 77.8408 228.522 73.7499C228.522 70.6817 226.363 69.2045 224.204 68.2954C226.25 67.2726 227.841 65.7954 227.841 63.409C227.841 59.8863 225.227 56.5908 220 56.5908H214.091C212.613 56.5908 211.363 57.6135 211.363 59.0908V78.5226C211.363 79.8863 212.5 81.0226 214.091 81.0226H219.886Z" fill="white"/>
<path d="M233.977 81.0226H252.841V83.8635C252.841 85.1135 253.977 86.1362 255.227 86.1362C256.591 86.1362 257.614 85.1135 257.614 83.8635V78.8635C257.614 77.7271 256.477 76.5908 255.227 76.5908H254.886V58.5226C254.886 57.2726 253.75 56.2499 252.5 56.2499C251.25 56.2499 250.114 57.2726 250.114 58.5226V76.5908H245.682V58.409C245.682 57.2726 244.546 56.1362 243.296 56.1362C241.932 56.1362 240.909 57.159 240.909 58.409V76.5908H236.591V58.5226C236.591 57.2726 235.455 56.2499 234.205 56.2499C232.841 56.2499 231.818 57.2726 231.818 58.5226V78.7499C231.591 79.9999 232.727 81.0226 233.977 81.0226Z" fill="white"/>
<path d="M262.727 81.3636C263.636 81.3636 264.545 80.9091 265 80.1136L273.068 66.1364V79.0909C273.068 80.3409 274.204 81.3636 275.568 81.3636C276.931 81.3636 277.954 80.3409 277.954 79.0909V58.6364C277.954 57.2727 276.931 56.25 275.454 56.25C274.545 56.25 273.636 56.8182 273.068 57.5C270 62.8409 268.181 66.0227 265 71.5909V58.5227C265 57.2727 263.863 56.25 262.5 56.25C261.136 56.25 260.113 57.2727 260.113 58.5227V78.9773C260.227 80.2273 261.25 81.3636 262.727 81.3636Z" fill="white"/>
<path d="M287.273 58.5227C287.273 57.3864 286.136 56.25 284.886 56.25C283.523 56.25 282.5 57.2727 282.5 58.5227V79.0909C282.5 80.3409 283.523 81.3636 284.886 81.3636C286.25 81.3636 287.273 80.3409 287.273 79.0909V71.0227H287.614L294.545 80.3409C295.114 81.0227 295.795 81.3636 296.591 81.3636C298.068 81.3636 298.977 80 298.977 79.0909C298.977 78.75 298.864 78.4091 298.636 77.9545L291.818 68.8636L298.636 59.8864C298.977 59.4318 298.977 59.0909 298.977 58.75C298.977 57.7273 298.068 56.4773 296.591 56.4773C295.795 56.4773 295.114 56.8182 294.545 57.5L287.614 66.8182H287.159V58.5227H287.273Z" fill="white"/>
<path d="M44.5462 32.3862H17.2734C16.0234 32.3862 16.0234 32.3862 16.0234 31.1362C16.0234 30.568 16.0234 29.8862 16.0234 29.318C16.0234 28.9771 16.0234 28.6362 16.1371 28.4089C16.2507 28.068 16.478 27.8407 16.7053 27.6135C16.9325 27.3862 17.2734 27.1589 17.5007 27.0453C17.8416 26.9316 18.1825 26.9316 18.4098 26.9316C20.5689 26.9316 22.728 26.9316 24.8871 26.9316H70.228C70.6825 26.9316 71.1371 26.9316 71.478 27.0453C71.9325 27.1589 72.3871 27.3862 72.728 27.7271C73.0689 28.068 73.1825 28.5225 73.1825 29.0907C73.2962 29.8862 73.2962 30.7953 73.1825 31.5907C73.1825 32.2725 72.728 32.3862 72.1598 32.3862C65.4553 32.3862 58.8643 32.3862 52.1598 32.3862H44.5462Z" fill="white"/>
<path d="M71.7031 43.4091C71.7031 41.0227 71.7031 38.8638 71.7031 36.7047C71.7031 36.0229 72.1577 36.1365 72.4986 36.1365H81.5895C82.3849 36.1365 83.0668 36.1365 83.8622 36.1365C83.9759 36.1365 84.0895 36.1365 84.2031 36.1365C84.3168 36.1365 84.4304 36.25 84.4304 36.25C84.544 36.3637 84.544 36.3637 84.6577 36.4773C84.6577 36.5909 84.6577 36.7046 84.6577 36.8182V36.9318C84.8849 38.8637 84.6577 39.0909 82.7259 39.0909C78.9759 39.2046 75.5668 40.3409 72.7259 42.7273C72.3849 42.9546 72.044 43.1818 71.7031 43.4091ZM72.1577 42.0455C73.294 41.25 74.4304 40.6818 75.6804 40C76.8168 39.4318 78.0668 39.0909 79.3168 38.75C80.5668 38.4091 81.8168 38.2955 83.0668 38.1818C82.2713 37.9546 81.5895 37.841 80.794 37.841C78.0668 37.6138 75.2259 37.9546 72.6122 38.8637C72.4986 38.8637 72.4986 38.9773 72.3849 39.0909C72.2713 39.2046 72.2713 39.3182 72.2713 39.4318C72.1577 40.1137 72.1577 41.0227 72.1577 42.0455Z" fill="white"/>
<path d="M16.5896 42.7273C13.7487 40.3409 10.3396 39.2046 6.5896 39.0909C4.65778 38.9773 4.4305 38.8637 4.65778 36.9318V36.8182C4.65778 36.7046 4.65778 36.5909 4.65778 36.4773C4.65778 36.3637 4.77141 36.25 4.88505 36.25C4.99869 36.1364 4.99869 36.1365 5.11232 36.1365C5.22596 36.1365 5.3396 36.1365 5.45323 36.1365C6.24869 36.1365 6.93051 36.1365 7.72596 36.1365H16.8169C17.2715 36.1365 17.6124 36.0229 17.6124 36.7047C17.6124 38.8638 17.6124 41.0227 17.6124 43.4091C17.2715 43.1818 16.9306 42.9546 16.5896 42.7273ZM17.0442 39.2046C17.0442 39.0909 17.0442 38.9773 16.9306 38.8637C16.8169 38.75 16.8169 38.75 16.7033 38.6364C14.0896 37.8409 11.2487 37.5 8.52141 37.7273C7.72596 37.7273 7.04414 37.8409 6.24869 38.0682C7.49869 38.2955 8.74869 38.4091 9.99869 38.6364C11.2487 38.9773 12.4987 39.3182 13.6351 39.8864C14.7715 40.4546 16.0215 41.1364 17.1578 41.9318C17.0442 41.0227 17.1578 40.1137 17.0442 39.2046Z" fill="white"/>
<path d="M71.2482 70.9089V34.2044C71.2482 33.1816 71.2482 33.1816 70.2255 33.1816H19.3164C18.0664 33.1816 18.0664 33.1816 18.0664 34.4316C18.0664 46.5907 18.0664 58.8635 18.0664 71.0225C18.0664 71.1362 18.0664 71.2498 18.0664 71.3635C18.0664 71.4771 18.0664 71.4771 18.0664 71.4771C18.0664 76.5907 29.9982 80.7953 44.6573 80.7953C59.3164 80.7953 71.2482 76.5907 71.2482 71.4771C71.2482 71.3635 71.2482 71.3633 71.2482 71.2498V70.9089Z" fill="white"/>
<path d="M45.0011 40.6816C42.7283 40.6816 40.9102 42.4998 40.9102 44.7726V66.3635C40.9102 68.6362 42.7283 70.4544 45.0011 70.4544C47.2738 70.4544 49.092 68.6362 49.092 66.3635V44.7726C49.092 42.4998 47.2738 40.6816 45.0011 40.6816Z" fill="#292929"/>
<path d="M45.4556 45.6816H44.6602V50.9089H45.4556V45.6816Z" fill="white"/>
<path fill-rule="evenodd" clip-rule="evenodd" d="M44.6598 50.3408H45.4553V62.3863V64.659L45.7962 64.8863C46.0234 64.9999 46.2507 65.2272 46.478 65.4545C46.5916 65.6817 46.7053 66.0226 46.7053 66.3636C46.7053 66.8181 46.478 67.2726 46.2507 67.4999C45.9098 67.8408 45.5689 67.9545 45.1143 67.9545C44.6598 67.9545 44.3189 67.7272 43.978 67.4999C43.6371 67.159 43.5234 66.8181 43.5234 66.3636C43.5234 66.0226 43.6371 65.7954 43.7507 65.4545C43.8643 65.2272 44.0916 64.9999 44.4325 64.8863L44.7734 64.659V62.6135V50.3408H44.6598Z" fill="white"/>
<path d="M47.1605 60.7954H46.0241C46.0241 60.7954 46.0242 60.7954 45.9105 60.7954C45.7969 60.7954 45.9105 60.7954 45.7969 60.7954C45.7969 60.7954 45.7969 60.7954 45.7969 60.6817C45.7969 60.6817 45.7969 60.6817 45.7969 60.5681C45.7969 60.5681 45.7969 60.5681 45.7969 60.4545C45.7969 60.4545 45.7969 60.4545 45.7969 60.3408C45.7969 60.3408 45.7969 60.3408 45.9105 60.3408C45.9105 60.3408 45.9105 60.3408 46.0241 60.3408H47.1605C47.1605 60.3408 47.1605 60.3408 47.2741 60.3408C47.2741 60.3408 47.2741 60.3408 47.3878 60.3408C47.3878 60.3408 47.3878 60.3408 47.3878 60.4545C47.3878 60.4545 47.3878 60.4545 47.3878 60.5681C47.3878 60.5681 47.3878 60.5681 47.3878 60.6817C47.3878 60.6817 47.3878 60.6817 47.3878 60.7954C47.3878 60.6817 47.2741 60.7954 47.1605 60.7954C47.2741 60.7954 47.2741 60.7954 47.1605 60.7954Z" fill="white"/>
<path d="M46.592 59.2047H46.1374C46.1374 59.2047 46.0238 59.2047 46.0238 59.091C46.0238 59.091 46.0238 58.9774 45.9102 58.9774V58.8638H46.0238H46.592C46.592 58.8638 46.592 58.8638 46.7056 58.8638C46.7056 58.8638 46.7056 58.8638 46.8192 58.8638C46.8192 58.8638 46.8192 58.8638 46.8192 58.9774C46.8192 58.9774 46.8192 58.9774 46.8192 59.091V59.2047C46.7056 59.2047 46.7056 59.2047 46.592 59.2047Z" fill="white"/>
<path d="M46.8192 57.6137H46.1374C46.1374 57.6137 46.1374 57.6137 46.0238 57.6137C45.9102 57.6137 46.0238 57.6137 45.9102 57.6137C45.9102 57.6137 45.9102 57.6137 45.9102 57.5001C45.9102 57.5001 45.9102 57.5001 45.9102 57.3865C45.9102 57.3865 45.9102 57.3865 45.9102 57.2728C45.9102 57.2728 45.9102 57.2728 45.9102 57.1592C45.9102 57.1592 45.9102 57.1592 46.0238 57.1592C46.0238 57.1592 46.0238 57.1592 46.1374 57.1592H46.8192C46.8192 57.1592 46.9329 57.1592 46.9329 57.2728V57.3865V57.5001C46.9329 57.6137 46.8192 57.6137 46.8192 57.6137Z" fill="white"/>
<path d="M46.8192 63.8637H46.1374C46.1374 63.8637 46.1374 63.8637 46.0238 63.8637C46.0238 63.8637 46.0238 63.8637 45.9102 63.8637C45.9102 63.8637 45.9102 63.8637 45.9102 63.7501C45.9102 63.6365 45.9102 63.7501 45.9102 63.6365C45.9102 63.6365 45.9102 63.6365 45.9102 63.5228C45.9102 63.5228 45.9102 63.5228 45.9102 63.4092C45.9102 63.4092 45.9102 63.4092 46.0238 63.4092C46.1374 63.4092 46.0238 63.4092 46.1374 63.4092H46.8192C46.8192 63.4092 46.9329 63.4092 46.9329 63.5228V63.6365V63.7501C46.9329 63.8637 46.8192 63.8637 46.8192 63.8637Z" fill="white"/>
<path d="M46.5916 62.2727H46.1371H46.0234V62.159V62.0454H46.1371H46.5916H46.7053V62.159V62.2727C46.7053 62.2727 46.7053 62.2727 46.5916 62.2727Z" fill="white"/>
<path d="M47.2734 52.9543H46.1371H46.0234V52.8407V52.7271H46.1371H47.2734H47.3871V52.8407V52.9543C47.2734 52.9543 47.2734 52.9543 47.2734 52.9543Z" fill="white"/>
<path d="M47.1605 48.2955H46.0241C46.0241 48.2955 45.9105 48.2955 45.9105 48.1819C45.9105 48.1819 45.9105 48.0682 45.7969 48.0682V47.9546H45.9105H47.0469C47.0469 47.9546 47.0469 47.9546 47.1605 47.9546C47.1605 47.9546 47.1605 47.9546 47.2741 47.9546C47.3878 47.9546 47.2741 47.9546 47.2741 48.0682C47.2741 48.0682 47.2741 48.0682 47.2741 48.1819V48.2955C47.2741 48.2955 47.2741 48.2955 47.1605 48.2955Z" fill="white"/>
<path d="M46.592 51.3637H46.1374C46.1374 51.3637 46.1374 51.3637 46.0238 51.3637C46.0238 51.3637 46.0238 51.3637 45.9102 51.3637C45.9102 51.3637 45.9102 51.3637 45.9102 51.2501C45.9102 51.2501 45.9102 51.2501 45.9102 51.1365C45.9102 51.0228 45.9102 51.1365 45.9102 51.0228C45.9102 51.0228 45.9102 51.0228 45.9102 50.9092C45.9102 50.9092 45.9102 50.9092 46.0238 50.9092C46.0238 50.9092 46.0238 50.9092 46.1374 50.9092H46.592C46.592 50.9092 46.592 50.9092 46.7056 50.9092C46.7056 50.9092 46.7056 50.9092 46.8192 50.9092C46.8192 50.9092 46.8192 50.9092 46.8192 51.0228C46.8192 51.0228 46.8192 51.0228 46.8192 51.1365C46.8192 51.2501 46.8192 51.1365 46.8192 51.2501C46.8192 51.2501 46.8192 51.2501 46.8192 51.3637C46.7056 51.3637 46.7056 51.3637 46.592 51.3637C46.7056 51.3637 46.7056 51.3637 46.592 51.3637Z" fill="white"/>
<path d="M46.8189 49.8865H46.1371H46.0234V49.7728V49.6592H46.1371H46.8189H46.9325V49.7728V49.8865C46.9325 49.7728 46.8189 49.8865 46.8189 49.8865Z" fill="white"/>
<path d="M46.8192 46.7045H46.1374C46.1374 46.7045 46.1374 46.7045 46.0238 46.7045C46.0238 46.7045 46.0238 46.7045 45.9102 46.7045C45.9102 46.7045 45.9102 46.7045 45.9102 46.5909C45.9102 46.5909 45.9102 46.5909 45.9102 46.4773C45.9102 46.4773 45.9102 46.4773 45.9102 46.3636C45.9102 46.3636 45.9102 46.3636 45.9102 46.25C45.9102 46.25 45.9102 46.25 46.0238 46.25C46.0238 46.25 46.0238 46.25 46.1374 46.25H46.8192C46.8192 46.25 46.9329 46.25 46.9329 46.3636V46.4773V46.5909C46.9329 46.7045 46.8192 46.7045 46.8192 46.7045Z" fill="white"/>
<path d="M46.8189 56.1363H46.1371H46.0234V56.0227C46.0234 56.0227 46.0234 55.909 46.1371 55.909C46.1371 55.909 46.2507 55.909 46.2507 55.7954H46.9325C46.9325 55.7954 47.0462 55.7954 47.0462 55.909V56.0227C47.0462 56.0227 47.0462 56.0227 47.0462 56.1363C47.0462 56.1363 47.0462 56.1363 47.0462 56.25C46.9325 56.0227 46.9325 56.0227 46.8189 56.1363C46.8189 56.0227 46.8189 56.1363 46.8189 56.1363Z" fill="white"/>
<path d="M46.592 54.5454H46.1374C46.1374 54.5454 46.1374 54.5454 46.0238 54.5454C46.0238 54.5454 46.0238 54.5454 45.9102 54.5454C45.9102 54.5454 45.9102 54.5454 45.9102 54.4317C45.9102 54.4317 45.9102 54.4317 45.9102 54.3181C45.9102 54.3181 45.9102 54.3181 45.9102 54.2045C45.9102 54.2045 45.9102 54.2045 45.9102 54.0908C45.9102 54.0908 45.9102 54.0908 46.0238 54.0908C46.0238 54.0908 46.0238 54.0908 46.1374 54.0908H46.592C46.592 54.0908 46.592 54.0908 46.7056 54.0908C46.7056 54.0908 46.7056 54.0908 46.8192 54.0908C46.8192 54.0908 46.8192 54.0908 46.8192 54.2045C46.8192 54.2045 46.8192 54.2045 46.8192 54.3181C46.8192 54.3181 46.8192 54.3181 46.8192 54.4317C46.8192 54.5454 46.8192 54.4317 46.8192 54.5454C46.7056 54.5454 46.7056 54.5454 46.592 54.5454C46.7056 54.5454 46.7056 54.5454 46.592 54.5454Z" fill="white"/>
<path d="M43.9769 48.2955H42.8406C42.8406 48.2955 42.7269 48.2955 42.7269 48.1819C42.7269 48.1819 42.7269 48.0682 42.6133 48.0682V47.9546H42.7269H43.8633C43.8633 47.9546 43.8633 47.9546 43.9769 47.9546C43.9769 47.9546 43.9769 47.9546 44.0906 47.9546C44.2042 47.9546 44.0906 47.9546 44.0906 48.0682C44.0906 48.0682 44.0906 48.0682 44.0906 48.1819V48.2955C44.0906 48.2955 44.0906 48.2955 43.9769 48.2955Z" fill="white"/>
<path d="M43.9755 46.7045H43.2937C43.2937 46.7045 43.2937 46.7045 43.18 46.7045C43.18 46.7045 43.18 46.7045 43.0664 46.7045C43.0664 46.7045 43.0664 46.7045 43.0664 46.5909C43.0664 46.5909 43.0664 46.5909 43.0664 46.4773C43.0664 46.4773 43.0664 46.4773 43.0664 46.3636C43.0664 46.3636 43.0664 46.3636 43.0664 46.25C43.0664 46.25 43.0664 46.25 43.18 46.25C43.18 46.25 43.18 46.25 43.2937 46.25H43.9755C43.9755 46.25 43.9755 46.25 44.0891 46.25C44.0891 46.25 44.0891 46.25 44.2028 46.25C44.2028 46.25 44.2028 46.25 44.2028 46.3636C44.2028 46.3636 44.2028 46.3636 44.2028 46.4773C44.2028 46.4773 44.2028 46.4773 44.2028 46.5909C44.2028 46.5909 44.2028 46.5909 44.2028 46.7045C44.0891 46.7045 44.0891 46.7045 43.9755 46.7045C44.0891 46.7045 44.0891 46.7045 43.9755 46.7045Z" fill="white"/>
<path d="M42.7266 60.5682C42.7266 60.5682 42.7266 60.4546 42.8402 60.4546H42.9538H44.0902C44.0902 60.4546 44.0902 60.4546 44.2038 60.4546C44.2038 60.4546 44.2038 60.4546 44.3175 60.4546C44.3175 60.4546 44.3175 60.4546 44.3175 60.5682C44.3175 60.5682 44.3175 60.5682 44.3175 60.6819C44.3175 60.6819 44.3175 60.6819 44.3175 60.7955C44.3175 60.7955 44.3175 60.7955 44.3175 60.9091C44.3175 60.9091 44.3175 60.9091 44.2038 60.9091C44.0902 60.9091 44.2038 60.9091 44.0902 60.9091H42.9538H42.8402C42.7266 60.6819 42.7266 60.5682 42.7266 60.5682Z" fill="white"/>
<path d="M43.2969 58.9774C43.2969 58.8638 43.2969 58.8638 43.2969 58.8638C43.2969 58.8638 43.2969 58.8638 43.4105 58.8638C43.4105 58.8638 43.4105 58.8638 43.5241 58.8638H43.9787C43.9787 58.8638 43.9787 58.8638 44.0923 58.8638C44.0923 58.8638 44.0923 58.8638 44.206 58.8638C44.206 58.8638 44.206 58.8638 44.206 58.9774C44.206 59.091 44.206 58.9774 44.206 59.091V59.2047H44.0923H43.6378H43.5241C43.2969 59.091 43.2969 59.091 43.2969 58.9774Z" fill="white"/>
<path d="M43.1836 57.4999C43.1836 57.3862 43.1836 57.3862 43.1836 57.4999C43.1836 57.3862 43.1836 57.3862 43.2972 57.3862C43.2972 57.3862 43.2972 57.3862 43.4109 57.3862C43.4109 57.3862 43.4109 57.3862 43.5245 57.3862H44.2063C44.2063 57.3862 44.2063 57.3862 44.32 57.3862C44.32 57.3862 44.32 57.3862 44.4336 57.3862C44.4336 57.3862 44.4336 57.3862 44.4336 57.4999C44.4336 57.4999 44.4336 57.4999 44.4336 57.6135C44.4336 57.6135 44.4336 57.6135 44.4336 57.7271C44.4336 57.7271 44.4336 57.7271 44.4336 57.8408C44.4336 57.8408 44.4336 57.8408 44.32 57.8408C44.2063 57.8408 44.32 57.8408 44.2063 57.8408H43.5245C43.5245 57.8408 43.5245 57.8408 43.4109 57.8408C43.4109 57.8408 43.4109 57.8408 43.2972 57.8408C43.1836 57.6135 43.1836 57.4999 43.1836 57.4999Z" fill="white"/>
<path d="M43.1836 63.6361C43.1836 63.5225 43.1836 63.5225 43.1836 63.5225C43.1836 63.5225 43.1836 63.5225 43.2972 63.5225C43.2972 63.5225 43.2972 63.5225 43.4109 63.5225H44.0927C44.0927 63.5225 44.0927 63.5225 44.2063 63.5225C44.32 63.5225 44.2063 63.5225 44.32 63.5225C44.32 63.5225 44.32 63.5225 44.32 63.6361C44.32 63.6361 44.32 63.6361 44.32 63.7497C44.32 63.7497 44.32 63.7497 44.32 63.8634C44.32 63.977 44.32 63.8634 44.32 63.977C44.32 63.977 44.32 63.977 44.2063 63.977C44.2063 63.977 44.2063 63.977 44.0927 63.977H43.4109C43.4109 63.977 43.4109 63.977 43.2972 63.977C43.1836 63.977 43.2972 63.977 43.1836 63.977C43.1836 63.7497 43.1836 63.7497 43.1836 63.6361C43.1836 63.7497 43.1836 63.7497 43.1836 63.6361Z" fill="white"/>
<path d="M43.2969 62.159V62.0454H43.4105H43.8651H43.9787V62.159V62.2727H43.8651H43.4105H43.2969V62.159Z" fill="white"/>
<path d="M42.7266 52.7273C42.7266 52.7273 42.7266 52.6136 42.8402 52.6136L42.9538 52.5H44.0902H44.2038V52.6136V52.7273H44.0902H42.9538C42.9538 52.7273 42.8402 52.7273 42.8402 52.6136C42.7266 52.8409 42.7266 52.8409 42.7266 52.7273Z" fill="white"/>
<path d="M43.2969 51.2499C43.2969 51.1362 43.2969 51.1362 43.2969 51.2499C43.2969 51.1362 43.2969 51.1362 43.2969 51.1362C43.2969 51.1362 43.2969 51.1362 43.4105 51.1362C43.4105 51.1362 43.4105 51.1362 43.5241 51.1362H43.9787C43.9787 51.1362 43.9787 51.1362 44.0923 51.1362C44.0923 51.1362 44.0923 51.1362 44.206 51.1362C44.206 51.1362 44.206 51.1362 44.206 51.2499C44.206 51.2499 44.206 51.2499 44.206 51.3635C44.206 51.4771 44.206 51.3635 44.206 51.4771C44.206 51.4771 44.206 51.4771 44.206 51.5908C44.206 51.5908 44.206 51.5908 44.0923 51.5908C44.0923 51.5908 44.0923 51.5908 43.9787 51.5908H43.5241C43.5241 51.5908 43.5242 51.5908 43.4105 51.5908C43.4105 51.5908 43.4105 51.5908 43.2969 51.5908C43.2969 51.3635 43.2969 51.3635 43.2969 51.2499Z" fill="white"/>
<path d="M43.1836 49.659V49.5454H43.2972H43.979H44.0927V49.659V49.7727H43.979H43.2972H43.1836V49.659Z" fill="white"/>
<path d="M43.1802 55.909V55.7954H43.2938H43.9756H44.0892V55.909C44.0892 55.909 44.0892 55.909 44.0892 56.0227C44.0892 56.0227 44.0892 56.0227 44.0892 56.1363C44.0892 56.1363 44.0892 56.1363 43.9756 56.1363C43.9756 56.1363 43.9756 56.1363 43.862 56.1363H43.1802C43.1802 56.1363 43.1801 56.1363 43.0665 56.1363C43.0665 56.1363 43.0665 56.1363 42.9529 56.1363C42.8392 56.1363 43.1802 56.0227 43.1802 55.909Z" fill="white"/>
<path d="M43.2969 54.3182C43.2969 54.2046 43.2969 54.2046 43.2969 54.2046C43.2969 54.2046 43.2969 54.2046 43.4105 54.2046C43.4105 54.2046 43.4105 54.2046 43.5241 54.2046H43.9787C43.9787 54.2046 43.9787 54.2046 44.0923 54.2046C44.0923 54.2046 44.0923 54.2046 44.206 54.2046C44.206 54.2046 44.206 54.2046 44.206 54.3182C44.206 54.3182 44.206 54.3182 44.206 54.4319C44.206 54.4319 44.206 54.4319 44.206 54.5455C44.206 54.5455 44.206 54.5455 44.206 54.6591C44.206 54.6591 44.206 54.6591 44.0923 54.6591C44.0923 54.6591 44.0923 54.6591 43.9787 54.6591H43.5241C43.5241 54.6591 43.5242 54.6591 43.4105 54.6591C43.2969 54.6591 43.4105 54.6591 43.2969 54.6591C43.2969 54.4319 43.2969 54.4319 43.2969 54.3182C43.2969 54.4319 43.2969 54.3182 43.2969 54.3182Z" fill="white"/>
<path d="M44.6609 14.6591C46.9336 14.6591 48.6381 12.841 48.6381 10.6819C48.6381 8.52277 46.82 6.70459 44.6609 6.70459C42.5018 6.70459 40.6836 8.52277 40.6836 10.6819C40.6836 12.841 42.3881 14.6591 44.6609 14.6591Z" fill="white"/>
<path fill-rule="evenodd" clip-rule="evenodd" d="M44.0913 15.6816C43.2958 15.568 42.614 15.3407 41.9322 14.8862C41.1367 14.318 40.4549 13.5226 40.114 12.6135C39.7731 11.7044 39.6594 10.6816 39.7731 9.77255C39.8867 8.86346 40.4549 7.95437 41.1367 7.15891C41.8185 6.4771 42.7276 6.02255 43.7504 5.79528C44.7731 5.568 45.6822 5.68164 46.5913 6.13619C47.5004 6.4771 48.2958 7.15891 48.864 7.95437C49.4322 8.74982 49.6594 9.77255 49.6594 10.7953C49.6594 12.1589 49.0913 13.4089 48.1822 14.318C47.3867 15.1135 46.364 15.568 45.2276 15.7953C45.4549 15.9089 45.5685 16.2498 45.5685 16.818C45.5685 17.9544 45.2276 18.1816 44.5458 18.1816C43.864 18.1816 43.7504 17.7271 43.7504 16.818C43.7504 16.1362 43.864 15.7953 44.0913 15.6816ZM42.9549 8.18164C43.4094 7.84073 43.9776 7.7271 44.6594 7.7271C45.4549 7.7271 46.2504 8.068 46.8185 8.63619C47.3867 9.20437 47.7276 9.99982 47.7276 10.7953C47.7276 11.3635 47.5004 11.9316 47.2731 12.4998C46.9322 12.9544 46.4776 13.4089 45.9094 13.6362C45.3413 13.8635 44.7731 13.9771 44.2049 13.8635C43.6367 13.7498 43.0685 13.4089 42.614 13.068C42.1594 12.6135 41.9322 12.1589 41.8185 11.4771C41.7049 10.9089 41.8185 10.3407 42.0458 9.77255C42.0458 8.9771 42.5004 8.52255 42.9549 8.18164Z" fill="white"/>
<path d="M44.6594 11.7049C44.4322 11.7049 44.0913 11.5913 43.9776 11.364C43.7504 11.1367 43.6367 10.9094 43.6367 10.6822V9.65945C43.6367 9.43217 43.7504 9.09126 43.9776 8.97763C44.2049 8.75036 44.4322 8.63672 44.6594 8.63672C44.8867 8.63672 45.2276 8.75036 45.3413 8.97763C45.5685 9.2049 45.6822 9.43217 45.6822 9.65945V10.6822C45.6822 10.9094 45.5685 11.2504 45.3413 11.364C45.114 11.5913 44.8867 11.7049 44.6594 11.7049Z" fill="white"/>
<path d="M69.5469 26.0227C64.0923 21.3636 54.8878 18.2954 44.5469 18.2954C34.206 18.2954 25.0014 21.3636 19.5469 26.0227H69.5469Z" fill="white"/>
<path d="M60.2255 18.4089C59.7709 17.6135 58.9755 17.159 58.18 16.9317C57.271 16.7045 56.3619 16.818 55.5664 17.1589L60.2255 18.4089Z" fill="white"/>
<path d="M59.658 19.6593L55.4535 18.5229L55.3398 19.0911L59.5444 20.2275L59.658 19.6593Z" fill="white"/>
<path d="M60.1129 18.6362L55.4538 17.3862L55.2266 18.2953L59.8857 19.5453L60.1129 18.6362Z" fill="white"/>
<path d="M68.9773 86.9318C70.1137 86.5909 71.1364 88.2954 70.6819 89.6591C70.0001 91.4773 67.9546 91.5909 66.1364 92.1591C60.341 94.0909 40.0001 96.25 22.1591 91.4773C21.0228 91.1363 19.8864 90.2273 20.0001 88.9773C20.1137 88.6364 20.2273 88.1818 20.4546 87.9545C20.6819 87.6136 20.9091 87.3863 21.2501 87.1591C21.3637 87.1591 21.4773 87.0454 21.591 87.0454C21.7046 87.0454 21.8182 87.0454 21.9319 87.0454C34.2046 90.5682 52.2728 92.1591 68.9773 86.9318Z" fill="white"/>
<path d="M46.0222 88.75L44.7722 86.3636L43.6359 89.0909C42.954 88.8636 41.8177 88.8636 41.704 88.0682C41.1359 85.7955 43.6359 84.5455 44.6586 82.5C45.1131 82.7273 45.5677 82.9546 45.9086 83.2955C46.704 84.0909 47.3859 85.1136 47.7268 86.25C48.0677 87.5 47.6131 88.0682 46.0222 88.75Z" fill="white"/>
<path d="M52.3881 82.0454C54.2063 82.9545 54.8881 84.2045 54.8881 85.909C54.8881 87.0454 54.7745 88.1818 53.4109 88.6363C53.07 87.8409 52.6154 87.159 52.1609 86.3636C52.0472 87.0454 51.82 87.6136 51.5927 88.6363C50.9109 88.6363 49.5472 89.2045 49.2063 88.2954C48.4109 85.5681 51.9336 84.659 52.3881 82.0454Z" fill="white"/>
<path d="M37.161 82.0454C38.9791 83.8636 40.2291 85.7954 39.4337 88.4091L38.5246 88.5226C38.0701 87.7271 37.6155 86.818 36.9337 85.6817L36.5928 88.4091C35.5701 88.75 34.7746 88.409 34.2064 87.5C33.6382 86.5909 34.0928 85.7953 34.661 85.1135C35.5701 84.2044 36.2519 83.2954 37.161 82.0454Z" fill="white"/>
<path d="M59.658 85.7955C58.6353 86.9319 58.408 88.5228 56.5898 88.5228C56.5898 88.5228 58.5217 83.75 59.658 81.7046C62.4989 84.091 62.4989 85.9091 59.8853 87.7273L59.658 85.7955Z" fill="white"/>
<path d="M32.3874 88.5224L29.8874 85.3407L30.2283 87.7271C28.5238 87.1589 28.0693 86.5907 28.4102 84.0907C28.5238 83.068 29.5465 82.3861 30.1147 81.4771C31.0238 82.3861 31.7056 83.5225 32.0465 84.7725C32.5011 85.9089 32.6147 87.2724 32.3874 88.5224Z" fill="white"/>
<path d="M65.5684 80.4546C67.7275 83.0682 67.7275 84.091 65.5684 86.3637C65.3411 86.25 65.3412 84.4319 65.114 84.4319C64.4322 85 63.523 87.1591 62.6139 87.841C62.3866 86.1364 63.2957 85.2274 63.8639 84.2047C64.432 83.0683 64.8866 81.8182 65.5684 80.4546Z" fill="white"/>
<path d="M69.6594 79.5454C70.9094 80.909 71.1367 82.2727 70.114 83.5227C69.2049 84.5454 68.2958 85.4545 67.3867 86.25C67.3867 84.8863 68.1822 83.9772 68.6367 82.7272C68.9776 81.7045 69.3185 80.5681 69.6594 79.5454Z" fill="white"/>
<path d="M20.5674 79.5454C20.4538 81.9318 20.9083 82.9545 22.272 85.2272C19.3174 84.4318 18.4083 81.8181 20.5674 79.5454Z" fill="white"/>
<path d="M24.6594 80.7954C22.9549 82.0454 22.7276 83.6363 23.0685 85.4545L24.6594 86.8181C24.4322 86.3636 24.3185 86.0227 24.3185 85.5681C24.3185 85.1136 24.4322 84.6591 24.6594 84.3181C25.2276 84.7727 26.1367 86.8181 26.5913 87.1591C26.1367 84.8863 25.7958 82.6136 24.6594 80.7954Z" fill="white"/>
</svg>
