<svg width="200" height="44" viewBox="0 0 200 44" fill="none" xmlns="http://www.w3.org/2000/svg">
<g clip-path="url(#clip0_120_263)">
<path d="M133.459 25.7557C131.291 27.8936 128.586 29.1382 125.342 29.4895C123.261 29.7156 121.299 29.639 119.457 29.2598C118.246 29.0118 117.107 28.6041 116.04 28.0364C112.667 26.2425 110.496 23.3996 109.526 19.5077C108.911 17.0392 108.805 14.502 109.207 11.8961C109.528 9.81645 110.185 7.96109 111.178 6.32997C111.813 5.28591 112.588 4.35671 113.5 3.54237C115.243 1.98539 117.311 0.976582 119.703 0.515932C120.716 0.321462 121.736 0.213896 122.76 0.193234C123.833 0.172571 124.854 0.224835 125.821 0.350025C127.959 0.629575 129.892 1.35215 131.621 2.51776C133.502 3.78789 134.936 5.45364 135.922 7.51502C136.399 8.51654 136.774 9.66938 137.046 10.9735C137.782 14.4995 137.553 17.9483 136.361 21.3199C135.791 22.9316 134.823 24.4102 133.459 25.7557ZM117.446 6.91703C116.45 8.23456 115.794 9.73137 115.477 11.4075C115.269 12.5038 115.165 13.7131 115.165 15.0355C115.166 17.0799 115.567 19.0629 116.366 20.9845C116.899 22.2607 117.661 23.3297 118.653 24.1914C119.739 25.1346 121.027 25.6572 122.516 25.7593C125.228 25.9453 127.386 24.9742 128.992 22.8459C129.792 21.7848 130.349 20.6533 130.664 19.4512C131.441 16.477 131.449 13.4688 130.685 10.4266C130.281 8.80764 129.505 7.40016 128.359 6.20417C127.723 5.54054 127.048 5.04039 126.332 4.70372C125.555 4.3403 124.724 4.12638 123.838 4.06197C121.16 3.86871 119.029 4.8204 117.446 6.91703Z" fill="white"/>
<path d="M157.191 25.3291L157.213 16.3792C157.213 16.338 157.229 16.2984 157.258 16.269C157.288 16.2397 157.328 16.2229 157.369 16.2225L162.91 16.1915C162.926 16.1915 162.943 16.1947 162.958 16.2009C162.973 16.2071 162.987 16.2163 162.999 16.2278C163.011 16.2393 163.02 16.2529 163.026 16.268C163.032 16.283 163.036 16.2992 163.036 16.3154V28.1732C163.036 28.2003 163.027 28.2266 163.01 28.2481C162.994 28.2695 162.971 28.2849 162.945 28.2917C161.907 28.5725 160.876 28.818 159.852 29.0283C157.323 29.5473 154.768 29.7284 152.188 29.5716C150.814 29.4877 149.468 29.2525 148.148 28.866C144.669 27.8487 142.142 25.8171 140.567 22.7712C140.049 21.7709 139.648 20.6278 139.364 19.3419C138.801 16.8077 138.731 14.2042 139.152 11.5315C140.02 6.02312 143.089 2.46797 148.359 0.866026C149.817 0.423607 151.609 0.200574 153.738 0.196928C156.832 0.193282 159.888 0.538466 162.904 1.23248C162.942 1.24079 162.975 1.26158 162.999 1.29142C163.023 1.32126 163.036 1.35835 163.036 1.39656V5.66274C163.036 5.68444 163.031 5.70583 163.021 5.72512C163.011 5.74441 162.996 5.76102 162.979 5.77354C162.961 5.78607 162.94 5.79413 162.919 5.79706C162.897 5.79999 162.876 5.79769 162.855 5.79036C160.946 5.10851 159.004 4.60288 157.03 4.2735C155.615 4.03649 154.264 3.9897 152.976 4.13312C151.682 4.27775 150.534 4.64239 149.532 5.22701C147.549 6.38167 146.247 8.1793 145.625 10.6199C144.95 13.2671 144.9 15.884 145.473 18.4704C146.007 20.8733 147.207 22.7341 149.074 24.0529C150.054 24.7457 151.161 25.2221 152.396 25.4823C153.938 25.8068 155.506 25.7934 157.099 25.4421C157.125 25.4363 157.149 25.4219 157.165 25.4014C157.182 25.3808 157.191 25.3553 157.191 25.3291Z" fill="white"/>
<path d="M185.71 23.9507C187.123 24.9437 188.711 25.4834 190.474 25.5697C193.746 25.7289 196.834 25.0641 199.739 23.5752C199.754 23.5679 199.77 23.5644 199.786 23.5649C199.802 23.5654 199.818 23.5698 199.832 23.5779C199.845 23.5859 199.857 23.5973 199.864 23.6109C199.872 23.6244 199.876 23.6398 199.876 23.6554L199.905 27.6116C199.906 27.6798 199.885 27.7468 199.845 27.8038C199.806 27.8607 199.75 27.905 199.685 27.9307C197.211 28.9213 194.627 29.4798 191.933 29.6062C190.556 29.6706 189.34 29.6596 188.286 29.5733C186.954 29.464 185.655 29.199 184.388 28.7784C183.189 28.3798 182.104 27.8432 181.134 27.1686C178.319 25.2105 176.58 22.4454 175.918 18.8732C175.563 16.9638 175.477 14.9571 175.661 12.8532C175.823 11.0021 176.249 9.2944 176.941 7.73013C178.219 4.83739 180.258 2.78088 183.056 1.56058C184.872 0.76933 186.889 0.327519 189.107 0.235146C192.64 0.0880779 196.113 0.429008 199.524 1.25794C199.556 1.26537 199.584 1.28348 199.604 1.3093C199.625 1.33513 199.636 1.36715 199.635 1.40014V5.66085C199.635 5.68284 199.63 5.70447 199.62 5.72393C199.609 5.74338 199.595 5.76008 199.577 5.7726C199.559 5.78512 199.538 5.79311 199.516 5.79587C199.494 5.79863 199.472 5.79609 199.451 5.78847C198.041 5.27434 196.614 4.86413 195.169 4.55784C193.956 4.30017 192.824 4.13913 191.772 4.07471C190.507 3.9957 189.375 4.07714 188.376 4.31901C186.251 4.83192 184.616 5.99996 183.47 7.82311C182.891 8.74077 182.45 9.86565 182.146 11.1978C181.564 13.7405 181.605 16.2977 182.27 18.8696C182.537 19.9015 182.965 20.8581 183.553 21.7392C184.134 22.6107 184.853 23.3479 185.71 23.9507Z" fill="white"/>
<path d="M172.875 0.77478H167.143C167.115 0.77478 167.092 0.797635 167.092 0.825829V28.7602C167.092 28.7884 167.115 28.8112 167.143 28.8112H172.875C172.903 28.8112 172.926 28.7884 172.926 28.7602V0.825829C172.926 0.797635 172.903 0.77478 172.875 0.77478Z" fill="white"/>
<path d="M18.8112 21.4785L7.43473 21.4676C7.40303 21.4675 7.37195 21.4772 7.34559 21.4954C7.31922 21.5136 7.29882 21.5395 7.28705 21.5697L4.44293 28.8459C4.43333 28.8711 4.4165 28.8929 4.39468 28.9082C4.37286 28.9235 4.34708 28.9316 4.32078 28.9316L0.27338 28.9425C0.26055 28.9426 0.247909 28.9394 0.236568 28.9334C0.225227 28.9274 0.215531 28.9188 0.208331 28.9081C0.201132 28.8975 0.196648 28.8853 0.195275 28.8725C0.193901 28.8598 0.19568 28.8469 0.200453 28.835L11.0555 0.982649C11.0691 0.94824 11.0927 0.918708 11.1232 0.897897C11.1538 0.877085 11.1899 0.865959 11.2269 0.865967H16.8221C16.8506 0.866077 16.8782 0.874505 16.9013 0.890133C16.9244 0.905761 16.9419 0.927852 16.9516 0.953478L27.7811 28.824C27.7851 28.8335 27.7866 28.8439 27.7855 28.8541C27.7845 28.8643 27.7809 28.8741 27.7751 28.8826C27.7693 28.8911 27.7615 28.8981 27.7524 28.9028C27.7432 28.9075 27.7331 28.9099 27.7228 28.9097L21.989 28.9407C21.9497 28.9407 21.9111 28.9284 21.8782 28.9053C21.8454 28.8822 21.8198 28.8494 21.8048 28.8113L18.9388 21.5642C18.9287 21.539 18.9111 21.5174 18.8884 21.5021C18.8656 21.4868 18.8388 21.4786 18.8112 21.4785ZM11.9799 9.51683C10.9212 12.2248 9.87168 14.903 8.83126 17.5515C8.82353 17.5714 8.82071 17.5929 8.82304 17.6141C8.82537 17.6354 8.83279 17.6557 8.84465 17.6733C8.85651 17.6909 8.87246 17.7053 8.89109 17.7152C8.90973 17.7251 8.9305 17.7302 8.95159 17.7301L17.3746 17.7192C17.3883 17.7194 17.4018 17.7161 17.414 17.7097C17.4262 17.7033 17.4366 17.6939 17.4443 17.6824C17.4521 17.6708 17.4569 17.6575 17.4584 17.6436C17.4599 17.6297 17.458 17.6156 17.453 17.6025L13.2287 6.73288C13.1643 6.56758 13.1011 6.56818 13.0391 6.7347C12.6939 7.66815 12.3408 8.59553 11.9799 9.51683Z" fill="white"/>
<path d="M34.742 17.6043L34.7311 28.8404C34.7311 28.8675 34.7203 28.8935 34.7012 28.9126C34.6821 28.9318 34.6561 28.9425 34.629 28.9425H29.3072C29.283 28.9425 29.2599 28.9329 29.2428 28.9158C29.2257 28.8987 29.2161 28.8756 29.2161 28.8514V1.00817C29.2161 0.989735 29.2197 0.97148 29.2267 0.954448C29.2338 0.937416 29.2441 0.921941 29.2572 0.908905C29.2702 0.895869 29.2857 0.885529 29.3027 0.878474C29.3198 0.871419 29.338 0.867788 29.3564 0.867788C32.4303 0.848341 35.4525 0.855026 38.423 0.887842C40.4042 0.90972 41.6172 0.952261 42.062 1.01546C43.45 1.21358 44.6946 1.68395 45.7958 2.42658C47.0173 3.25187 47.7806 4.48493 48.0857 6.12576C48.5755 8.74867 47.9982 11.0841 46.3537 13.1321C45.4592 14.2467 44.3355 15.1249 42.9827 15.7666C42.9639 15.7755 42.9472 15.7885 42.9339 15.8045C42.9207 15.8206 42.9111 15.8394 42.9058 15.8595C42.9006 15.8797 42.8999 15.9008 42.9037 15.9213C42.9076 15.9418 42.9159 15.9612 42.928 15.9781L51.9344 28.8167C51.9939 28.9006 51.9721 28.9425 51.8688 28.9425H45.01C44.9811 28.9425 44.9526 28.9352 44.9274 28.9211C44.9021 28.9071 44.881 28.8868 44.866 28.8623L38.1276 17.7538C38.0085 17.5582 37.8444 17.4621 37.6354 17.4658L34.835 17.5077C34.8104 17.5077 34.7867 17.5179 34.7693 17.536C34.7518 17.5541 34.742 17.5787 34.742 17.6043ZM41.4877 6.09659C40.7973 5.4512 39.9581 5.06104 38.9699 4.92613C37.639 4.7426 36.2577 4.68243 34.8259 4.74564C34.8003 4.74704 34.7762 4.75802 34.7586 4.77634C34.7409 4.79465 34.7311 4.8189 34.7311 4.84409L34.742 13.5259C34.742 13.5505 34.7515 13.574 34.7685 13.5917C34.7855 13.6094 34.8087 13.6198 34.8332 13.6208C36.141 13.6706 37.2009 13.6274 38.0128 13.4913C40.9189 13.0039 42.3841 11.3576 42.4084 8.55238C42.4133 8.02002 42.3549 7.58186 42.2334 7.23789C42.079 6.79668 41.8305 6.41625 41.4877 6.09659Z" fill="white"/>
<path d="M59.65 4.75111L49.805 4.70735C49.7802 4.70687 49.7566 4.69706 49.7392 4.68002C49.7218 4.66297 49.712 4.64006 49.712 4.61619L49.6829 1.0027C49.6829 0.966439 49.6975 0.931659 49.7234 0.906016C49.7494 0.880373 49.7847 0.865967 49.8214 0.865967H75.4313C75.4922 0.865967 75.5506 0.890169 75.5937 0.933249C75.6368 0.97633 75.661 1.03476 75.661 1.09568V4.57426C75.661 4.61826 75.6435 4.66046 75.6124 4.69158C75.5813 4.72269 75.5391 4.74017 75.4951 4.74017H65.6792C65.655 4.74017 65.6319 4.74977 65.6148 4.76687C65.5977 4.78396 65.5881 4.80715 65.5881 4.83133V28.8167C65.5881 28.8501 65.5748 28.8821 65.5512 28.9057C65.5276 28.9293 65.4956 28.9425 65.4623 28.9425H59.8561C59.829 28.9425 59.803 28.9318 59.7839 28.9126C59.7647 28.8935 59.754 28.8675 59.754 28.8404L59.743 4.84227C59.743 4.81809 59.7332 4.7949 59.7158 4.77781C59.6984 4.76071 59.6747 4.75111 59.65 4.75111Z" fill="white"/>
<path d="M109.53 25.061L109.57 28.7839C109.57 28.8047 109.566 28.8252 109.558 28.8445C109.55 28.8637 109.538 28.8812 109.523 28.896C109.508 28.9107 109.49 28.9224 109.47 28.9304C109.45 28.9384 109.429 28.9425 109.408 28.9425H91.2253C91.1832 28.9425 91.1429 28.9258 91.1131 28.8961C91.0834 28.8663 91.0667 28.826 91.0667 28.7839V1.02093C91.0667 1.00058 91.0707 0.980433 91.0784 0.961631C91.0862 0.94283 91.0976 0.925746 91.112 0.911356C91.1264 0.896966 91.1435 0.885551 91.1623 0.877763C91.1811 0.869975 91.2013 0.865967 91.2216 0.865967H96.7421C96.7842 0.865967 96.8245 0.882678 96.8543 0.912424C96.884 0.94217 96.9007 0.982514 96.9007 1.02458V24.8532C96.9007 24.8861 96.914 24.9176 96.9376 24.9409C96.9612 24.9641 96.9932 24.9772 97.0265 24.9772L109.455 24.9881C109.465 24.9881 109.475 24.99 109.484 24.9937C109.493 24.9973 109.501 25.0027 109.508 25.0095C109.515 25.0162 109.52 25.0243 109.524 25.0331C109.528 25.042 109.53 25.0515 109.53 25.061Z" fill="white"/>
<path d="M195.922 35.0884C196.15 34.9839 196.334 35.0094 196.472 35.165C196.663 35.3789 196.765 35.4901 196.777 35.4986C197.24 35.8085 197.649 35.7387 198.006 35.2889C198.177 35.0738 198.373 34.9991 198.593 35.0647C198.617 35.0717 198.639 35.0876 198.653 35.1096C198.667 35.1316 198.674 35.1583 198.671 35.185C198.603 35.7794 198.29 36.1483 197.732 36.2917C196.726 36.5506 196.102 36.1932 195.862 35.2197C195.855 35.1935 195.858 35.1661 195.869 35.1422C195.88 35.1183 195.898 35.0993 195.922 35.0884Z" fill="white"/>
<path d="M111.009 40.3047C111.012 41.0426 110.721 41.7513 110.201 42.2748C109.681 42.7984 108.975 43.094 108.237 43.0966L107.701 43.0984C106.963 43.101 106.254 42.8104 105.731 42.2904C105.207 41.7705 104.912 41.0639 104.909 40.326L104.907 39.5603C104.904 38.8224 105.195 38.1138 105.715 37.5902C106.234 37.0666 106.941 36.7711 107.679 36.7685L108.215 36.7666C108.953 36.764 109.661 37.0547 110.185 37.5746C110.709 38.0945 111.004 38.8012 111.007 39.539L111.009 40.3047ZM106.786 38.1422C106.521 38.4655 106.352 38.8228 106.281 39.2142C106.216 39.5679 106.204 39.952 106.244 40.3664C106.278 40.7226 106.378 41.058 106.543 41.3728C106.712 41.6925 106.948 41.9362 107.251 42.1039C107.765 42.3871 108.257 42.3828 108.727 42.0911C109.088 41.8663 109.355 41.5132 109.528 41.0319C109.794 40.2905 109.788 39.5211 109.509 38.7238C109.308 38.144 108.922 37.7818 108.352 37.6372C107.716 37.4743 107.194 37.6426 106.786 38.1422Z" fill="white"/>
<path d="M1.42394 37.8396L1.42576 42.8879C1.42576 42.9125 1.41597 42.9362 1.39853 42.9536C1.38109 42.9711 1.35744 42.9809 1.33278 42.9809H0.277177C0.252033 42.9809 0.22792 42.9709 0.210141 42.9531C0.192361 42.9353 0.182373 42.9112 0.182373 42.8861V37.0283C0.182373 36.9872 0.198508 36.9477 0.227228 36.9187C0.255948 36.8896 0.294901 36.8733 0.335518 36.8733L3.63725 36.8842C3.65281 36.8842 3.66822 36.8865 3.6826 36.8909C3.69698 36.8953 3.71004 36.9017 3.72105 36.9099C3.73205 36.918 3.74078 36.9276 3.74673 36.9383C3.75269 36.9489 3.75576 36.9602 3.75576 36.9717L3.74664 37.6007C3.74605 37.6379 3.72817 37.6733 3.69683 37.6995C3.66549 37.7258 3.62317 37.7407 3.57891 37.7411L1.51328 37.7484C1.48942 37.7489 1.4667 37.7587 1.44999 37.7757C1.43329 37.7928 1.42394 37.8157 1.42394 37.8396Z" fill="white"/>
<path d="M14.2316 40.7147L14.1897 42.8569C14.1892 42.8841 14.1792 42.91 14.1618 42.9291C14.1444 42.9482 14.121 42.9589 14.0967 42.959H13.0703C13.0456 42.959 13.022 42.948 13.0045 42.9285C12.9871 42.909 12.9773 42.8826 12.9773 42.8551L12.9463 37.0793C12.9463 37.0263 12.9673 36.9753 13.0048 36.9375C13.0423 36.8996 13.0933 36.8779 13.1468 36.8769C13.8032 36.866 14.4249 36.8715 15.0119 36.8933C15.7157 36.9189 16.2024 37.0009 16.4723 37.1395C17.0168 37.419 17.2386 37.938 17.1377 38.6964C16.9931 39.7903 16.369 40.4029 15.2653 40.5342C14.953 40.5719 14.6388 40.5998 14.3228 40.618C14.2986 40.619 14.2756 40.6295 14.2587 40.6475C14.2417 40.6655 14.232 40.6895 14.2316 40.7147ZM15.5206 37.9398C15.1681 37.7551 14.7676 37.6943 14.3191 37.7575C14.2919 37.7614 14.267 37.775 14.2489 37.7958C14.2308 37.8165 14.2208 37.843 14.2207 37.8705V39.5898C14.2207 39.6121 14.2251 39.6342 14.2339 39.6548C14.2426 39.6753 14.2554 39.6938 14.2714 39.7092C14.2875 39.7245 14.3064 39.7364 14.3272 39.7441C14.3479 39.7518 14.37 39.7551 14.3921 39.7539C15.4616 39.7028 15.935 39.2373 15.8123 38.3573C15.8004 38.2699 15.7678 38.1865 15.7171 38.1139C15.6664 38.0413 15.599 37.9817 15.5206 37.9398Z" fill="white"/>
<path d="M29.1632 39.6062C29.2483 39.7618 29.3322 39.7618 29.4148 39.6062L30.8041 36.9936C30.8234 36.9582 30.8515 36.9287 30.8855 36.9082C30.9196 36.8877 30.9582 36.8769 30.9973 36.877L31.8506 36.8824C31.8651 36.8823 31.8793 36.886 31.8919 36.8933C31.9045 36.9006 31.915 36.9112 31.9223 36.924C31.9296 36.9369 31.9336 36.9516 31.9338 36.9666C31.934 36.9817 31.9305 36.9967 31.9235 37.01C31.0277 38.7238 30.1137 40.3835 29.1815 41.9891C29.0684 42.1848 28.9123 42.3738 28.7129 42.5561C28.533 42.7189 28.3216 42.8277 28.0785 42.8824C27.6932 42.9687 27.3012 42.9997 26.9025 42.9754C26.8749 42.9741 26.8488 42.9633 26.8295 42.9454C26.8103 42.9275 26.7992 42.9037 26.7986 42.8788L26.7913 42.5251C26.7889 42.4546 26.7786 42.3969 26.7603 42.3519C26.6862 42.1744 26.7451 42.0954 26.9372 42.1149C27.6652 42.1866 28.2031 41.8657 28.5507 41.1522C28.563 41.1268 28.569 41.0985 28.568 41.0696C28.5671 41.0408 28.5592 41.0122 28.5452 40.9863L26.3975 37.0119C26.3921 37.0018 26.3892 36.9905 26.3889 36.9791C26.3887 36.9677 26.3911 36.9566 26.3961 36.9467C26.401 36.9369 26.4082 36.9286 26.4171 36.9228C26.426 36.917 26.4362 36.9137 26.4467 36.9134L27.5862 36.8952C27.6125 36.8946 27.6394 36.9028 27.6638 36.9189C27.6883 36.9349 27.7094 36.9583 27.7248 36.9863L29.1632 39.6062Z" fill="white"/>
<path d="M42.4449 37.8432L42.4339 42.8387C42.4339 42.8556 42.4309 42.8723 42.425 42.8879C42.4191 42.9035 42.4105 42.9177 42.3996 42.9295C42.3887 42.9414 42.3759 42.9508 42.3617 42.9571C42.3476 42.9634 42.3325 42.9665 42.3173 42.9663L41.2927 42.9499C41.2683 42.9494 41.2451 42.938 41.228 42.9183C41.211 42.8985 41.2014 42.8719 41.2015 42.8441L41.1614 37.0738C41.1611 37.0476 41.1662 37.0216 41.1763 36.9972C41.1863 36.9729 41.2012 36.9508 41.22 36.9322C41.2388 36.9135 41.2612 36.8987 41.2859 36.8886C41.3106 36.8785 41.337 36.8733 41.3638 36.8733H46.0748C46.1125 36.8733 46.1487 36.8883 46.1753 36.9149C46.202 36.9416 46.217 36.9778 46.217 37.0155L46.2061 42.8788C46.2061 42.9034 46.1964 42.9271 46.1794 42.9445C46.1623 42.9619 46.1391 42.9717 46.1149 42.9717L45.0757 42.9809C45.063 42.9809 45.0504 42.9784 45.0387 42.9735C45.027 42.9686 45.0163 42.9615 45.0074 42.9526C44.9984 42.9436 44.9913 42.9329 44.9864 42.9212C44.9816 42.9095 44.9791 42.8969 44.9791 42.8842L44.9718 37.8414C44.9718 37.8167 44.9626 37.7931 44.9461 37.7756C44.9297 37.7582 44.9075 37.7484 44.8843 37.7484H42.536C42.5119 37.7484 42.4887 37.7584 42.4716 37.7762C42.4545 37.794 42.4449 37.8181 42.4449 37.8432Z" fill="white"/>
<path d="M59.1048 37.7484L56.8021 37.7411C56.763 37.7411 56.7254 37.7567 56.6977 37.7844C56.67 37.8121 56.6545 37.8496 56.6545 37.8888V42.8751C56.6545 42.889 56.6517 42.9028 56.6464 42.9156C56.6411 42.9284 56.6333 42.9401 56.6235 42.9499C56.6037 42.9697 56.5768 42.9809 56.5487 42.9809H55.515C55.4908 42.9809 55.4676 42.9713 55.4505 42.9542C55.4334 42.9371 55.4238 42.9139 55.4238 42.8897V36.9936C55.4238 36.9617 55.4365 36.9311 55.4591 36.9085C55.4816 36.886 55.5122 36.8733 55.5442 36.8733H60.3117C60.3572 36.8733 60.4007 36.8912 60.4329 36.923C60.465 36.9547 60.4831 36.9979 60.4831 37.0428L60.4503 42.8551C60.4503 42.8818 60.4406 42.9075 60.4232 42.9266C60.4058 42.9457 60.3821 42.9567 60.3573 42.9572L59.3017 42.9736C59.2893 42.9738 59.277 42.9714 59.2656 42.9666C59.2541 42.9618 59.2436 42.9546 59.2348 42.9454C59.226 42.9362 59.2189 42.9253 59.2142 42.9132C59.2094 42.9012 59.2069 42.8882 59.2069 42.8751L59.1959 37.8396C59.1959 37.8154 59.1863 37.7922 59.1692 37.7751C59.1521 37.758 59.129 37.7484 59.1048 37.7484Z" fill="white"/>
<path d="M73.6427 41.3892L71.3547 41.3491C71.3004 41.3485 71.2464 41.3671 71.2 41.4023C71.1537 41.4376 71.1172 41.4878 71.0958 41.546L70.6363 42.7803C70.6187 42.8284 70.5892 42.87 70.5516 42.8993C70.5141 42.9287 70.4705 42.9444 70.4267 42.9444L69.743 42.9499C69.7322 42.9499 69.7218 42.9466 69.7128 42.9404C69.7037 42.9342 69.6963 42.9252 69.6911 42.9143C69.6858 42.9033 69.683 42.8907 69.6829 42.8775C69.6827 42.8643 69.6852 42.851 69.6901 42.8387L71.9198 37.1048C71.9466 37.0366 71.9931 36.9779 72.0533 36.9366C72.1134 36.8953 72.1845 36.8733 72.2571 36.8733H73.1085C73.1548 36.8734 73.2 36.8874 73.238 36.9134C73.2761 36.9394 73.3053 36.9763 73.3218 37.0191L75.6044 42.8897C75.6083 42.8996 75.6096 42.9102 75.6085 42.9207C75.6073 42.9312 75.6036 42.9413 75.5977 42.9501C75.5918 42.9588 75.5838 42.9661 75.5745 42.9711C75.5652 42.9761 75.5548 42.9789 75.5443 42.979L74.4394 42.9736C74.4129 42.9729 74.3871 42.9641 74.365 42.9482C74.343 42.9323 74.3258 42.9101 74.3155 42.8842L73.7667 41.4822C73.7561 41.4549 73.7385 41.4314 73.7164 41.4148C73.6943 41.3982 73.6686 41.3893 73.6427 41.3892ZM72.3847 38.3045L71.5607 40.4047C71.5541 40.422 71.5517 40.4405 71.5537 40.4588C71.5557 40.4771 71.562 40.4946 71.572 40.5097C71.5821 40.5248 71.5957 40.5371 71.6115 40.5455C71.6273 40.5539 71.6449 40.5581 71.6628 40.5579L73.2544 40.5378C73.2656 40.5377 73.2767 40.5349 73.2866 40.5296C73.2965 40.5242 73.305 40.5166 73.3113 40.5072C73.3175 40.4979 73.3215 40.4872 73.3227 40.476C73.3239 40.4648 73.3223 40.4535 73.3182 40.443L72.5197 38.3026C72.4759 38.1847 72.4309 38.1854 72.3847 38.3045Z" fill="white"/>
<path d="M93.309 39.8506C93.7891 40.0013 94.1659 40.361 94.4394 40.9299C94.753 41.5838 95.0702 42.2365 95.3911 42.8879C95.3958 42.8971 95.3981 42.9073 95.3979 42.9176C95.3976 42.9279 95.3948 42.938 95.3897 42.9468C95.3845 42.9556 95.3773 42.9628 95.3686 42.9678C95.3599 42.9729 95.35 42.9755 95.34 42.9754L94.2005 42.9554C94.1757 42.9549 94.1506 42.9462 94.1278 42.9301C94.105 42.9141 94.0854 42.8913 94.0711 42.8642L92.753 40.3975C92.724 40.3434 92.6798 40.2976 92.6245 40.2644C92.5693 40.2312 92.5049 40.2117 92.4375 40.2079C92.3087 40.1994 92.2534 40.2766 92.2716 40.4394C92.2899 40.595 92.299 40.6801 92.299 40.6947C92.3124 41.4154 92.302 42.1362 92.268 42.8569C92.2666 42.8839 92.2558 42.9094 92.2378 42.928C92.2198 42.9467 92.1961 42.9571 92.1714 42.9572L91.1869 42.97C91.1713 42.97 91.1559 42.9667 91.1415 42.9604C91.1271 42.9541 91.1141 42.9448 91.1031 42.9331C91.0921 42.9214 91.0833 42.9076 91.0774 42.8923C91.0714 42.877 91.0684 42.8607 91.0684 42.8442L91.0993 36.9973C91.0993 36.9707 91.109 36.9452 91.1261 36.9264C91.1431 36.9076 91.1663 36.897 91.1905 36.897L92.1331 36.8825C92.1545 36.8822 92.1758 36.8866 92.1957 36.8952C92.2156 36.9039 92.2337 36.9168 92.2489 36.9331C92.2642 36.9493 92.2763 36.9687 92.2846 36.9901C92.2929 37.0114 92.2971 37.0343 92.2972 37.0575C92.2972 37.6105 92.2972 38.1769 92.2972 38.7567C92.2972 38.8089 92.2905 38.9207 92.2771 39.0921C92.2504 39.4543 92.361 39.5285 92.6089 39.3145C92.6733 39.2574 92.7365 39.1796 92.7985 39.0812C93.0538 38.6679 93.3017 38.2504 93.5424 37.8287C93.7405 37.4835 93.9301 37.2532 94.1112 37.1377C94.3798 36.9663 94.6867 36.891 95.0319 36.9116C95.0592 36.9131 95.0855 36.9228 95.1073 36.9394C95.129 36.9559 95.1453 36.9787 95.154 37.0046C95.2902 37.4093 95.1759 37.6658 94.8113 37.774C94.7511 37.7917 94.701 37.8251 94.6691 37.8688C94.4989 38.0961 94.3124 38.3987 94.1094 38.7767C93.9222 39.1219 93.6487 39.4519 93.289 39.7667C93.2452 39.8044 93.2519 39.8323 93.309 39.8506Z" fill="white"/>
<path d="M121.433 38.6217L121.411 42.8769C121.411 42.9026 121.401 42.9271 121.384 42.9453C121.367 42.9634 121.344 42.9736 121.32 42.9736L120.569 42.9754C120.557 42.9754 120.544 42.9729 120.533 42.968C120.522 42.9632 120.512 42.9561 120.503 42.9471C120.494 42.9381 120.488 42.9275 120.483 42.9157C120.478 42.904 120.476 42.8915 120.476 42.8788L120.465 36.9973C120.465 36.9644 120.478 36.9329 120.501 36.9096C120.524 36.8864 120.556 36.8733 120.589 36.8733L121.987 36.8824C122.027 36.8831 122.065 36.896 122.097 36.9195C122.129 36.943 122.153 36.9759 122.166 37.0137L123.504 40.979C123.558 41.137 123.612 41.1376 123.668 40.9809L125.092 37.0137C125.103 36.9847 125.12 36.9597 125.142 36.9421C125.164 36.9245 125.189 36.9151 125.214 36.9152L126.396 36.8933C126.419 36.8929 126.441 36.8974 126.463 36.9067C126.484 36.916 126.504 36.9299 126.52 36.9476C126.537 36.9652 126.55 36.9863 126.559 37.0095C126.568 37.0328 126.572 37.0577 126.572 37.083L126.561 42.8332C126.562 42.8624 126.552 42.8904 126.536 42.9112C126.519 42.932 126.496 42.9439 126.472 42.9444L125.551 42.959C125.512 42.9598 125.474 42.9431 125.445 42.9123C125.416 42.8815 125.399 42.8393 125.398 42.7949C125.372 41.402 125.382 40.0188 125.431 38.6454C125.432 38.615 125.426 38.5895 125.413 38.5688C125.374 38.5081 125.339 38.5239 125.307 38.6162C124.876 39.9107 124.423 41.1966 123.949 42.474C123.939 42.5015 123.922 42.5253 123.9 42.542C123.878 42.5587 123.852 42.5674 123.827 42.567L123.003 42.5469C122.977 42.5463 122.952 42.5369 122.931 42.5199C122.909 42.5029 122.893 42.4792 122.884 42.4521L121.557 38.6016C121.475 38.3634 121.434 38.3701 121.433 38.6217Z" fill="white"/>
<path d="M139.643 37.7502L137.333 37.7265C137.308 37.7265 137.283 37.7365 137.266 37.7543C137.248 37.7721 137.238 37.7962 137.238 37.8213V42.8605C137.238 42.8924 137.225 42.923 137.203 42.9456C137.18 42.9682 137.149 42.9809 137.118 42.9809H136.104C136.066 42.9809 136.03 42.9659 136.003 42.9392C135.977 42.9125 135.962 42.8764 135.962 42.8387V37.0337C135.962 36.9912 135.979 36.9504 136.009 36.9203C136.039 36.8902 136.08 36.8733 136.122 36.8733H140.899C140.931 36.8733 140.962 36.886 140.985 36.9085C141.008 36.9311 141.021 36.9617 141.021 36.9936L141.01 42.8788C141.01 42.891 141.008 42.9031 141.003 42.9143C140.998 42.9256 140.991 42.9359 140.983 42.9445C140.974 42.9531 140.964 42.96 140.953 42.9647C140.941 42.9693 140.929 42.9717 140.917 42.9717L139.916 42.9809C139.894 42.9811 139.871 42.9767 139.851 42.9681C139.83 42.9594 139.811 42.9465 139.795 42.9302C139.779 42.914 139.766 42.8946 139.758 42.8732C139.749 42.8519 139.745 42.829 139.745 42.8058L139.734 37.8414C139.734 37.8172 139.724 37.794 139.707 37.7769C139.69 37.7598 139.667 37.7502 139.643 37.7502Z" fill="white"/>
<path d="M152.762 36.9918C152.775 36.9601 152.796 36.9329 152.823 36.9137C152.851 36.8945 152.883 36.8842 152.915 36.8842L153.911 36.8733C153.954 36.8728 153.997 36.8858 154.033 36.9106C154.069 36.9353 154.097 36.9707 154.113 37.0119L156.37 42.846C156.376 42.8607 156.378 42.8767 156.376 42.8924C156.374 42.9081 156.369 42.9231 156.36 42.936C156.351 42.949 156.339 42.9595 156.326 42.9667C156.312 42.9739 156.296 42.9775 156.281 42.9772L155.253 42.9736C155.225 42.973 155.197 42.9644 155.174 42.9488C155.151 42.9333 155.134 42.9115 155.123 42.8861L154.558 41.4841C154.541 41.4414 154.512 41.405 154.476 41.3793C154.439 41.3536 154.397 41.34 154.354 41.34H152.137C152.088 41.3399 152.04 41.3561 151.998 41.3863C151.956 41.4165 151.923 41.4595 151.903 41.5096L151.397 42.7876C151.379 42.8311 151.351 42.8685 151.315 42.8954C151.28 42.9222 151.238 42.9374 151.196 42.9389L150.545 42.959C150.534 42.9595 150.523 42.9567 150.514 42.9508C150.504 42.9449 150.496 42.9361 150.491 42.9252C150.485 42.9144 150.482 42.9017 150.482 42.8885C150.481 42.8753 150.484 42.8619 150.489 42.8496L152.762 36.9918ZM153.18 38.3027L152.332 40.4522C152.327 40.4648 152.326 40.4783 152.328 40.4917C152.329 40.505 152.334 40.5178 152.342 40.5288C152.35 40.5399 152.361 40.549 152.373 40.5553C152.385 40.5617 152.398 40.565 152.412 40.5652H154.015C154.035 40.565 154.055 40.5597 154.073 40.5498C154.091 40.5399 154.107 40.5257 154.118 40.5084C154.13 40.491 154.137 40.4711 154.139 40.4502C154.141 40.4293 154.139 40.4081 154.131 40.3883L153.333 38.3063C153.282 38.1738 153.231 38.1726 153.18 38.3027Z" fill="white"/>
<path d="M167.194 39.371L169.464 39.3801C169.486 39.3802 169.507 39.3756 169.528 39.3667C169.548 39.3577 169.566 39.3447 169.581 39.3282C169.597 39.3117 169.609 39.2922 169.617 39.2707C169.625 39.2493 169.629 39.2263 169.628 39.2033L169.604 37.0775C169.604 37.0519 169.608 37.0266 169.618 37.0028C169.627 36.9791 169.642 36.9574 169.66 36.9391C169.677 36.9208 169.699 36.9062 169.723 36.8962C169.746 36.8861 169.772 36.8808 169.798 36.8806L170.72 36.8715C170.761 36.8715 170.801 36.888 170.83 36.9174C170.859 36.9468 170.875 36.9867 170.875 37.0283V42.8405C170.875 42.8589 170.871 42.8772 170.864 42.8942C170.857 42.9112 170.847 42.9267 170.834 42.9397C170.821 42.9528 170.805 42.9631 170.788 42.9702C170.771 42.9772 170.753 42.9808 170.735 42.9808H169.757C169.737 42.9808 169.717 42.9769 169.698 42.9691C169.679 42.9614 169.662 42.9501 169.647 42.9359C169.633 42.9216 169.621 42.9047 169.614 42.8862C169.606 42.8676 169.602 42.8477 169.603 42.8277L169.63 40.35C169.63 40.3305 169.627 40.3111 169.62 40.2929C169.613 40.2748 169.602 40.2583 169.589 40.2444C169.576 40.2305 169.561 40.2195 169.544 40.2119C169.526 40.2044 169.508 40.2005 169.489 40.2005H167.183C167.159 40.2005 167.136 40.2101 167.119 40.2272C167.102 40.2443 167.092 40.2675 167.092 40.2917V42.8569C167.092 42.8721 167.089 42.8872 167.084 42.9013C167.078 42.9153 167.07 42.9281 167.06 42.9387C167.05 42.9494 167.038 42.9579 167.024 42.9635C167.011 42.9692 166.997 42.972 166.983 42.9717L165.942 42.9571C165.917 42.9567 165.893 42.9457 165.876 42.9266C165.858 42.9075 165.849 42.8818 165.849 42.8551L165.818 37.0829C165.817 37.0573 165.822 37.0318 165.831 37.008C165.841 36.9842 165.854 36.9626 165.872 36.9444C165.889 36.9263 165.909 36.9119 165.932 36.9022C165.955 36.8925 165.979 36.8876 166.004 36.8879L166.968 36.8952C166.993 36.8957 167.016 36.907 167.033 36.9268C167.051 36.9465 167.061 36.9731 167.061 37.0009L167.105 39.278C167.105 39.3024 167.114 39.3257 167.131 39.3431C167.148 39.3605 167.17 39.3705 167.194 39.371Z" fill="white"/>
<path d="M181.526 41.2562C181.556 41.2562 181.58 41.2422 181.597 41.2143C182.443 39.8287 183.294 38.4461 184.15 37.0666C184.249 36.9062 184.415 36.8314 184.647 36.8424C184.669 36.8436 184.817 36.8442 185.09 36.8442C185.316 36.8442 185.418 36.9688 185.397 37.2179C185.378 37.4124 185.369 37.5181 185.369 37.5352C185.369 39.3048 185.369 41.0739 185.369 42.8424C185.369 42.8701 185.36 42.8967 185.343 42.9165C185.326 42.9363 185.302 42.9476 185.278 42.9481L184.284 42.9773C184.273 42.9775 184.261 42.9751 184.25 42.9703C184.24 42.9655 184.23 42.9583 184.221 42.9491C184.213 42.9399 184.207 42.929 184.202 42.9169C184.197 42.9049 184.195 42.8919 184.195 42.8788L184.173 38.8241C184.172 38.5968 184.112 38.5798 183.993 38.7731L181.486 42.8478C181.471 42.8726 181.451 42.8939 181.428 42.9105C181.404 42.9272 181.377 42.9387 181.349 42.9445C181.021 43.0125 180.693 43.0125 180.365 42.9445C180.339 42.9394 180.317 42.9257 180.3 42.9058C180.284 42.8858 180.275 42.8608 180.275 42.8351L180.264 37.0575C180.264 37.0348 180.269 37.0124 180.277 36.9915C180.285 36.9706 180.297 36.9516 180.312 36.9357C180.327 36.9197 180.345 36.9071 180.365 36.8986C180.384 36.8901 180.405 36.8859 180.427 36.8861L181.371 36.8952C181.396 36.8957 181.42 36.9069 181.437 36.9263C181.454 36.9457 181.464 36.9719 181.464 36.9991V41.1705C181.464 41.1929 181.47 41.2144 181.482 41.2304C181.494 41.2465 181.509 41.2557 181.526 41.2562Z" fill="white"/>
<path d="M198.611 38.649L198.582 38.6527C198.574 38.6534 198.567 38.6569 198.559 38.6629C198.551 38.669 198.544 38.6774 198.538 38.6873L195.958 42.8696C195.941 42.8978 195.919 42.9212 195.894 42.9372C195.87 42.9532 195.843 42.9614 195.818 42.9608L194.895 42.9517C194.87 42.9512 194.847 42.9397 194.829 42.9195C194.812 42.8994 194.802 42.8723 194.802 42.8441L194.762 37.0757C194.762 37.0492 194.767 37.0229 194.777 36.9984C194.787 36.9738 194.802 36.9515 194.821 36.9327C194.84 36.9139 194.863 36.8989 194.888 36.8887C194.913 36.8785 194.939 36.8733 194.966 36.8733H195.834C195.875 36.8733 195.915 36.8896 195.944 36.9187C195.973 36.9477 195.989 36.9872 195.989 37.0283V41.0501C195.989 41.2884 196.052 41.3054 196.179 41.1012L198.72 36.9954C198.738 36.9676 198.759 36.9445 198.784 36.9282C198.809 36.912 198.835 36.9031 198.861 36.9025L199.745 36.8861C199.765 36.8856 199.785 36.8896 199.803 36.8979C199.822 36.9062 199.839 36.9186 199.853 36.9344C199.867 36.9502 199.878 36.969 199.886 36.9899C199.894 37.0107 199.898 37.033 199.898 37.0556L199.896 42.8332C199.896 42.8614 199.887 42.8885 199.871 42.9086C199.854 42.9287 199.832 42.9403 199.809 42.9407L198.771 42.9699C198.759 42.9702 198.747 42.9677 198.736 42.9627C198.725 42.9577 198.714 42.9502 198.706 42.9407C198.697 42.9312 198.69 42.9198 198.686 42.9073C198.681 42.8948 198.678 42.8814 198.678 42.8678L198.667 38.7201C198.667 38.7104 198.666 38.7007 198.663 38.6917C198.66 38.6827 198.656 38.6746 198.651 38.6679C198.645 38.6612 198.639 38.6561 198.632 38.6528C198.625 38.6496 198.618 38.6483 198.611 38.649Z" fill="white"/>
</g>
<defs>
<clipPath id="clip0_120_263">
<rect width="200" height="43.2088" fill="white"/>
</clipPath>
</defs>
</svg>
