<svg width="127" height="100" viewBox="0 0 127 100" fill="none" xmlns="http://www.w3.org/2000/svg">
<path fill-rule="evenodd" clip-rule="evenodd" d="M61.9354 45.7692C63.3692 44.7817 64.9898 43.4884 66.0002 42.7137L66.5537 43.9871C65.72 44.7053 60.9984 48.3758 59.5212 49.3035L59.3778 47.6843C59.828 47.3751 60.048 47.2288 60.5882 46.7899L61.9354 45.7692ZM64.6097 48.9211C65.3032 48.4124 66.2269 47.8306 66.9938 47.2421C67.0072 46.5472 66.9138 45.7858 66.6904 44.7551C65.7767 45.5697 61.1518 49.0009 59.6379 50.0017L60.1547 52.1495C61.952 50.8827 63.736 49.5827 64.6097 48.9211ZM61.4952 45.317C62.5656 44.4326 64.5096 42.8932 65.69 41.9889C64.1995 38.6142 59.898 39.1196 59.4245 46.9096L61.4952 45.317ZM66.9872 48.0201C66.9672 51.6109 66.3736 52.6415 65.5367 54.3937L74.1497 54.4137L74.2031 56.1259L68.5044 56.3022L68.5077 68.7103C70.9753 69.0062 70.2583 68.2083 74.5932 66.506C76.5806 65.7246 79.4116 64.8768 81.7491 64.6607C80.632 62.3865 74.6666 59.7732 79.3582 53.6423C81.9458 50.2543 84.9602 49.3633 90.022 47.7308C88.3715 45.1607 76.1104 36.9684 75.7703 35.0833C77.2341 34.9037 78.6613 36.6626 79.7584 37.5835C81.1922 38.7904 82.1526 39.5252 83.5998 40.7354L91.009 46.8232C91.7727 45.5897 91.3092 41.8625 97.9915 35.6485C101.746 32.1575 104.28 30.9672 110.293 29.3946C109.349 28.1045 105.728 27.9117 104.157 27.5825L85.7238 23.5994C84.2467 23.237 84.7301 23.6094 84.3133 22.7084C85.4871 21.9337 95.4873 24.6068 96.7878 24.8928C100.829 25.7772 105.671 27.0738 109.639 27.6391C107.765 23.2935 108.492 18.3097 110.476 14.1736C112.737 9.47235 115.048 8.28872 118.019 5.15344C113.42 6.04449 106.935 8.45829 102.223 9.93783C99.5688 10.769 96.9545 11.5969 94.3402 12.3849C93.2965 12.6974 87.3711 15.0148 86.3174 14.3964C86.8176 13.1762 88.5282 13.0532 90.939 12.3217L121.917 2.67979C122.977 2.18439 125.788 0.844499 126.572 0L82.9729 5.44935C82.9895 13.4555 84.9235 17.8508 79.1282 27.8153C76.3472 32.5997 71.0219 38.6142 63.0024 38.6142C54.9195 38.6109 49.731 32.613 46.8934 27.7953C41.278 18.2598 42.9186 13.6982 43.052 5.40945L0 0.03325C5.31856 4.08951 22.4747 8.37185 29.7039 10.646L38.6538 13.3989C40.1876 14.0639 39.2506 13.266 39.6975 14.3964C38.7605 14.9483 37.0232 14.0506 35.9995 13.7314C34.6056 13.2959 33.3452 12.8869 31.9347 12.458C28.4301 11.3908 9.83016 5.39947 8.00285 5.16341C10.9272 8.09589 13.2414 9.48898 15.4422 13.9309C17.3962 17.8808 18.3699 23.4964 16.3792 27.6158C19.4636 27.2567 39.9309 22.3127 40.9546 22.4524C41.8249 22.5721 41.0913 22.3161 41.7215 22.7084C41.318 23.5496 42.6719 23.0808 38.8005 23.9053L22.1179 27.5293C20.7507 27.8219 16.3058 28.1278 15.809 29.358C18.1031 30.3155 20.0538 30.4585 22.3846 31.6122C27.3531 34.0692 34.2922 40.7986 34.8124 46.883C38.1536 44.6587 44.2257 39.1129 47.8704 36.2137C48.6707 35.5754 49.1642 34.9337 50.1312 35.193C50.0478 36.6559 37.6567 45.4733 35.9828 47.7175C40.7912 49.34 44.2591 50.261 46.6633 53.6257C51.2716 60.0758 45.4762 62.2934 44.2858 64.6407C46.4332 64.9001 48.5873 65.4686 50.448 66.1469C52.1752 66.7753 54.336 67.3372 55.3297 68.7768L57.4304 68.7402L57.4771 56.4418L52.4353 56.1891L52.422 54.4502L60.955 54.3804C60.6016 53.2633 60.4448 53.0006 60.3848 52.6748C61.025 52.1993 62.679 51.1653 64.7964 49.6359C65.4533 49.1671 66.5303 48.2894 66.9872 48.0201Z" fill="white"/>
<path fill-rule="evenodd" clip-rule="evenodd" d="M72.4987 13.838C71.0882 14.7224 68.4839 17.8976 67.767 19.0713C66.1164 18.8618 65.3428 18.2367 63.3354 18.2268C61.6148 18.2201 60.341 18.8618 58.8505 19.0846C57.1599 16.694 55.2892 15.0582 54.1188 13.5122C53.8387 16.438 53.7787 26.0932 54.1855 28.8761C54.769 32.8792 58.4603 36.184 62.6552 36.4367C67.4769 36.7293 71.1282 33.584 72.2119 29.8902C72.8588 27.6925 72.522 16.95 72.4987 13.838Z" fill="white"/>
<path fill-rule="evenodd" clip-rule="evenodd" d="M15.7276 76.4536H24.3973L24.5507 81.8797H22.3066L22.2266 77.5807L17.9617 77.6073L17.9384 81.903L15.7143 81.8863L15.7276 76.4536ZM22.6534 85.3541C28.6922 85.1846 28.9923 85.6101 28.8689 77.1851C28.7889 71.6759 24.1373 73.0125 18.9854 72.9992C12.1597 72.9825 11.3661 72.4539 11.3594 79.5357C11.356 85.527 12.5031 85.2311 16.3545 85.3076C18.1018 85.3441 17.4982 85.4439 18.3185 86.4579C23.5637 86.4845 21.6064 86.6408 22.6534 85.3541Z" fill="white"/>
<path fill-rule="evenodd" clip-rule="evenodd" d="M103.832 76.65C104.776 76.4073 109.301 76.0981 110.378 76.8727C109.891 77.8901 110.821 77.2418 109.354 77.5676L104.979 77.5809L105.039 80.8292L110.351 80.9257L110.388 85.3044L114.753 85.2778L114.739 73.1157C112.629 72.9694 102.615 72.75 101.221 73.4249C98.4835 74.7449 99.4672 81.8267 99.5372 85.331L103.809 85.3111L103.832 76.65Z" fill="white"/>
<path fill-rule="evenodd" clip-rule="evenodd" d="M87.1581 76.4901L92.7701 76.5134L92.7768 81.9561L81.6995 82.0093L81.6328 85.3141L98.0587 85.2543L97.7085 82.1489C97.0783 80.9154 97.5185 82.6543 97.1617 81.1249L97.0916 73.0622C83.6769 72.9658 82.3464 71.7888 83.0233 80.8489L87.1014 80.8522L87.1581 76.4901Z" fill="white"/>
<path fill-rule="evenodd" clip-rule="evenodd" d="M54.7378 81.2383C55.5447 79.8186 56.5118 79.26 57.5755 78.0531L57.6455 85.3311L62.0104 85.258L61.8437 73.056C54.9112 72.6437 58.0856 74.2263 54.3276 76.2544C50.9198 73.5514 53.2073 72.8498 46.875 73.0726L46.895 85.3278L51.1332 85.3145L51.1732 78.3092C52.7037 78.635 52.7804 80.4171 54.7378 81.2383Z" fill="white"/>
<path fill-rule="evenodd" clip-rule="evenodd" d="M58.3789 58.6161L58.4222 68.78H62.5637L62.6404 59.9128C62.6338 58.8987 62.6538 58.267 62.6504 57.8215C62.9905 57.8381 63.324 57.8181 63.6574 57.8148C63.6608 59.6701 63.7108 65.5416 63.6608 68.7966L67.5121 68.7867L67.6155 56.302L58.3789 56.2422V58.6161Z" fill="white"/>
<path fill-rule="evenodd" clip-rule="evenodd" d="M35.5152 81.5275C36.4255 80.6996 34.865 81.205 36.6523 80.8393L41.0905 80.8293L40.9938 77.5843L31.207 77.5776L31.2137 85.3277L44.4551 85.3211L44.285 81.9996C42.7445 81.9797 41.2039 81.9896 39.66 81.9963C38.9798 81.9996 37.9361 82.0628 37.3092 82.0229C36.869 81.9963 36.779 81.9963 36.3522 81.8932C35.6486 81.727 35.8987 81.7935 35.5152 81.5275Z" fill="white"/>
<path fill-rule="evenodd" clip-rule="evenodd" d="M70.077 83.8446C71.7943 82.8837 74.0651 78.8673 75.5689 78.2789L75.819 85.354L79.9572 85.3241L79.8405 73.0556C74.4619 72.6965 75.3155 73.3182 72.7046 76.2374C70.147 79.0901 69.8969 78.6246 70.077 83.8446Z" fill="white"/>
<path fill-rule="evenodd" clip-rule="evenodd" d="M64.7948 73.0192C64.438 74.685 64.418 83.7783 64.8248 85.3576L68.9663 85.3476L68.8162 73.0093L64.7948 73.0192Z" fill="white"/>
<path fill-rule="evenodd" clip-rule="evenodd" d="M31.2186 76.4239L44.4166 76.261L44.3732 73.0127L31.1719 73.1191L31.2186 76.4239Z" fill="white"/>
<path fill-rule="evenodd" clip-rule="evenodd" d="M59.3371 90.4912C59.3137 93.0812 58.9569 94.0454 60.154 96.0037C61.011 97.4068 61.6746 98.903 62.6949 99.8871L62.4815 90.5178L59.3371 90.4912Z" fill="white"/>
<path fill-rule="evenodd" clip-rule="evenodd" d="M63.4961 99.9998C63.8662 99.1619 65.3134 96.9077 65.8736 96.0366C67.1607 94.0284 66.7673 93.0343 66.7439 90.4077L63.5728 90.697L63.4961 99.9998Z" fill="white"/>
</svg>
