<svg width="200" height="58" viewBox="0 0 200 58" fill="none" xmlns="http://www.w3.org/2000/svg">
<path d="M20.7237 0.0140374L12.7895 0.000189498C12.7295 8.48411e-05 12.6808 0.0486103 12.6807 0.108574L12.6672 7.82568C12.6671 7.88564 12.7157 7.93434 12.7756 7.93444L20.7099 7.94829C20.7698 7.94839 20.8185 7.89987 20.8186 7.8399L20.8321 0.122801C20.8322 0.0628372 20.7837 0.014142 20.7237 0.0140374Z" fill="white"/>
<path d="M34.2332 0H26.373C26.3121 0 26.2627 0.0514125 26.2627 0.114833V7.96598C26.2627 8.0294 26.3121 8.08081 26.373 8.08081H34.2332C34.2941 8.08081 34.3435 8.0294 34.3435 7.96598V0.114833C34.3435 0.0514125 34.2941 0 34.2332 0Z" fill="white"/>
<path d="M28.5192 17.9865C28.7639 18.0563 28.8808 18.2026 28.8697 18.4257C28.8658 18.5117 28.8706 18.5912 28.8836 18.658C28.8966 18.7248 28.9176 18.777 28.9448 18.8105C29.0811 18.9723 29.2048 18.9388 29.3161 18.7102C29.3578 18.6209 29.3787 18.5122 29.3787 18.3839C29.362 17.2546 29.3453 16.128 29.3286 15.0042C29.3259 14.8704 29.2758 14.8481 29.1784 14.9373C28.9114 15.1855 28.8001 15.4755 28.8446 15.8073C28.9448 16.5602 28.8015 17.2518 28.4148 17.882C27.9447 18.08 27.6582 18.4327 27.5553 18.9402C27.3745 19.8242 27.1367 20.6942 26.8418 21.5503C26.8029 21.6562 26.7973 21.7873 26.8251 21.9434C26.8891 22.2976 26.7208 22.4635 26.3202 22.4412C25.953 22.4189 25.7486 22.4077 25.7069 22.4077C25.0838 22.4272 24.4815 22.3924 23.9002 22.3032C23.7673 22.2817 23.6455 22.2065 23.5557 22.0906C23.4659 21.9746 23.4136 21.825 23.4078 21.6674L23.3702 20.5924C23.3677 20.5346 23.3413 20.4793 23.296 20.437C23.2507 20.3947 23.1896 20.3681 23.1241 20.3624C20.7485 20.1337 18.3159 20.1184 15.8263 20.3163C15.7618 20.3217 15.7017 20.351 15.6583 20.3984C15.6149 20.4458 15.5914 20.5077 15.5926 20.5715L15.6552 27.2305C15.6552 27.2882 15.6776 27.3435 15.7175 27.3843C15.7574 27.4251 15.8116 27.448 15.868 27.448L22.3188 27.5107C22.4186 27.5122 22.5147 27.554 22.5886 27.6281C22.6626 27.7023 22.7091 27.8034 22.7193 27.9123L22.9196 30.0455C22.9225 30.0714 22.9321 30.0959 22.9477 30.1173C22.9634 30.1386 22.9847 30.1562 23.01 30.1687C23.0353 30.1811 23.064 30.1882 23.0939 30.1893C23.1238 30.1905 23.1541 30.1856 23.1825 30.1751C24.0782 29.8433 24.5358 29.202 24.5552 28.2511C24.5577 28.1783 24.5744 28.1096 24.6036 28.0517C24.6329 27.9937 24.6737 27.9486 24.7221 27.9206C24.9502 27.7896 25.2117 27.77 25.5066 27.8621C25.5673 27.8816 25.6315 27.8869 25.6938 27.8775C25.7561 27.868 25.8149 27.8441 25.8654 27.8077C26.3049 27.4982 26.7417 27.4745 27.1756 27.7366C27.2246 27.7677 27.2657 27.8145 27.2955 27.8728C27.3253 27.9311 27.3429 27.9992 27.3467 28.0712C27.3661 28.5425 27.5219 28.8729 27.814 29.0625C28.3842 29.4306 28.3147 29.6216 27.6054 29.6356C27.5787 29.636 27.5523 29.642 27.5281 29.6532C27.5038 29.6644 27.4822 29.6806 27.4645 29.7006C27.4468 29.7207 27.4335 29.7443 27.4254 29.7698C27.4174 29.7953 27.4147 29.8223 27.4176 29.8489L27.693 33.032C27.7041 33.1491 27.7347 33.1561 27.7848 33.0529C27.9712 32.6904 28.2883 32.6778 28.7361 33.0152C29.0811 33.2746 29.2744 33.1881 29.3161 32.7559C29.3523 32.3711 29.2702 32.0658 29.0699 31.8399C28.7862 31.5164 28.6388 31.3463 28.6276 31.3296C28.241 30.6102 28.362 30.171 28.9907 30.012C29.1579 29.9689 29.3041 29.8671 29.4029 29.7251C29.5016 29.5832 29.5463 29.4104 29.5289 29.2382C29.401 28.0113 29.725 27.4382 30.5011 27.5191C31.6722 27.6418 32.8475 27.7185 34.0269 27.7491C34.1768 27.7519 34.3084 27.7984 34.3941 27.8788C34.5443 28.0126 34.6486 28.1827 34.707 28.3891C34.7306 28.4678 34.7614 28.5381 34.7975 28.5951C34.8335 28.6522 34.8738 28.6946 34.9157 28.7195C35.1132 28.8311 35.1438 28.6429 35.0075 28.1549C34.9945 28.1091 34.9914 28.0612 34.9983 28.0142C35.0053 27.9671 35.0222 27.9222 35.0478 27.8822C35.0735 27.8422 35.1073 27.8082 35.1472 27.7824C35.187 27.7565 35.2318 27.7395 35.2787 27.7324C36.6111 27.5316 37.9282 27.494 39.2301 27.6195C39.2896 27.6257 39.3448 27.6526 39.3848 27.6951C39.4249 27.7376 39.4471 27.7926 39.447 27.8495L39.4512 33.4544C39.4511 33.5166 39.4311 33.5765 39.3945 33.6239C39.358 33.6712 39.3072 33.703 39.2509 33.7138C38.7391 33.8169 38.4387 33.5911 38.3497 33.0362C38.1995 32.0853 37.8198 31.2125 37.2106 30.4177C37.1715 30.3663 37.1199 30.3258 37.0607 30.3001C37.0015 30.2744 36.9367 30.2645 36.8726 30.2712C36.8084 30.2779 36.7471 30.3011 36.6945 30.3385C36.6419 30.3759 36.5997 30.4262 36.5722 30.4847C36.1132 31.469 36.1382 32.5747 36.6473 33.8016C36.689 33.8992 36.7655 34.0177 36.8768 34.1571L39.2009 37.0767C39.3984 37.3277 39.3316 37.4532 39.0006 37.4532H29.917C29.8408 37.4532 29.7655 37.4381 29.6953 37.4087C29.6251 37.3793 29.5615 37.3363 29.5083 37.2821C29.455 37.228 29.4132 37.1638 29.3852 37.0933C29.3572 37.0228 29.3437 36.9475 29.3453 36.8718C29.362 36.1161 29.2688 35.4998 29.0658 35.023C28.8071 34.4095 28.6944 34.4179 28.7278 35.0481L28.8238 36.8592C28.8261 36.9067 28.8197 36.9542 28.8049 36.9988C28.7901 37.0435 28.7673 37.0844 28.7377 37.1191C28.7081 37.1538 28.6724 37.1816 28.6327 37.2009C28.5931 37.2202 28.5502 37.2306 28.5066 37.2315C27.4913 37.2566 27.0254 37.6079 27.1088 38.2855C27.2173 39.1611 26.9044 39.5975 26.17 39.5947C25.6109 39.592 25.2993 39.5934 25.2354 39.5989C24.7736 39.6352 24.3118 39.6199 23.8501 39.5529C23.7855 39.5431 23.7261 39.5146 23.6809 39.4715C23.6357 39.4285 23.6072 39.3734 23.5997 39.3145L23.3911 37.6874C23.3831 37.6297 23.3567 37.5767 23.3169 37.5383C23.277 37.4999 23.2263 37.4786 23.1741 37.4783L15.9014 37.4532C15.835 37.4532 15.7713 37.4805 15.7244 37.5291C15.6774 37.5778 15.651 37.6437 15.651 37.7125L15.6135 46.4796C15.6135 46.5027 15.618 46.5255 15.6268 46.5468C15.6356 46.5681 15.6485 46.5875 15.6648 46.6038C15.6811 46.6201 15.7004 46.6331 15.7217 46.6419C15.7429 46.6507 15.7657 46.6553 15.7887 46.6553L21.5302 46.6469C21.5644 46.647 21.5985 46.6529 21.63 46.6641C21.6615 46.6753 21.6898 46.6916 21.7127 46.7119C21.7357 46.7322 21.7529 46.7559 21.7632 46.7815C21.7735 46.8071 21.7765 46.834 21.7722 46.8602C21.7527 46.9857 21.6637 47.1182 21.5051 47.2576C17.4077 50.8631 17.747 50.7279 22.5232 46.8519C22.7554 46.6653 23.0458 46.5648 23.3452 46.5674C29.3064 46.6622 35.0993 46.6915 40.7238 46.6553C41.397 46.6497 41.9019 46.778 42.2385 47.0401C42.2906 47.08 42.3507 47.1052 42.4115 47.1126C42.4723 47.1201 42.5311 47.1094 42.5806 47.0819C44.0994 46.2621 44.8714 44.9696 44.8964 43.2045C45.0077 34.9616 45.0508 24.2342 45.0257 11.0222C45.0257 10.9668 45.0482 10.9136 45.0881 10.8743C45.128 10.8351 45.1821 10.8131 45.2385 10.8131L84.6148 10.788C84.6768 10.788 84.7362 10.8127 84.78 10.8566C84.8239 10.9005 84.8485 10.9601 84.8485 11.0222V57.016C84.8485 57.097 84.8164 57.1747 84.7593 57.2319C84.7021 57.2892 84.6247 57.3214 84.5439 57.3214H70.6618C70.6065 57.3214 70.5534 57.2993 70.5143 57.2601C70.4752 57.2209 70.4532 57.1677 70.4532 57.1122V22.5583C70.4532 22.4884 70.426 22.4214 70.3774 22.372C70.3289 22.3226 70.2631 22.2948 70.1945 22.2948L59.5796 22.3617C59.5238 22.3628 59.4708 22.3862 59.4318 22.4269C59.3927 22.4676 59.3709 22.5223 59.3709 22.5792C59.3876 25.1251 59.3612 30.1528 59.2917 37.6623C59.2666 40.4257 59.1359 43.0372 58.8994 45.4966C58.5879 48.7759 57.994 51.1406 57.1178 52.5906C55.7214 54.8967 53.5169 56.3259 50.5043 56.878C47.4055 57.444 44.1398 57.6657 40.7072 57.543C36.6403 57.398 34.4233 57.3255 34.0561 57.3255C26.3091 57.3311 18.5607 57.3214 10.8109 57.2963C10.7409 57.2962 10.6727 57.2832 10.6104 57.258C10.548 57.2329 10.4927 57.1961 10.4479 57.1499C9.91101 56.6145 9.8971 56.0665 10.4062 55.506C10.4785 55.4279 10.459 55.3973 10.3477 55.414C9.99446 55.4726 9.74967 55.2802 9.61337 54.8368C9.05981 53.0577 8.78443 51.4808 8.78721 50.1061L9.79279 45.321C9.79967 45.2875 9.80084 45.2531 9.79625 45.22C9.79165 45.1869 9.78137 45.1558 9.76607 45.1287C9.75077 45.1015 9.73078 45.079 9.70737 45.0624C9.68396 45.0458 9.65763 45.0356 9.63006 45.0324C9.48263 45.0156 9.39083 45.1397 9.35467 45.4046C9.15161 46.9411 8.92768 48.4734 8.68289 50.0015C8.4381 49.9987 8.26981 49.8244 8.17802 49.4786C7.40749 46.5451 6.64808 43.6088 5.89981 40.6697C5.89425 40.6502 5.7635 40.2779 5.50759 39.5529C5.3991 39.2434 5.33791 38.9241 5.324 38.5951C5.30453 38.1684 5.26697 37.8491 5.21134 37.6372C4.91926 36.5469 4.6397 35.4524 4.37266 34.3537C4.36709 34.3398 4.23218 33.6106 3.96792 32.1661C3.82884 31.3993 3.60074 30.6548 3.28362 29.9325C3.22799 29.8043 3.20435 29.8098 3.21269 29.9493C3.3017 31.1093 3.23494 32.2596 3.01241 33.4001C2.99016 33.5228 2.89419 33.7472 2.7245 34.0735C2.59933 34.3133 2.55899 34.5712 2.6035 34.8473C2.61146 34.897 2.63626 34.9493 2.67602 35C2.71579 35.0507 2.76946 35.0986 2.83299 35.1401C3.06387 35.2935 3.10838 35.5165 2.96651 35.8093C2.89904 35.9417 2.87401 36.079 2.89558 36.1983C3.39906 38.853 4.04164 41.4742 4.82329 44.062C5.14875 45.1383 5.39771 45.0686 5.57018 43.8528C5.57308 43.8294 5.58178 43.807 5.59545 43.7878C5.60912 43.7686 5.62729 43.7532 5.64823 43.7432C5.66917 43.7331 5.69218 43.7286 5.71504 43.7303C5.7379 43.7319 5.75986 43.7395 5.7788 43.7524C6.09035 43.9699 6.17937 44.2711 6.04585 44.6559C6.02684 44.7106 5.98982 44.7602 5.93853 44.7999C5.88724 44.8396 5.82351 44.8678 5.75377 44.8818C5.11954 45.0073 4.89979 45.3628 5.09451 45.9484C5.23359 46.3583 5.30592 46.5744 5.31148 46.5967C6.13486 50.0489 6.99301 53.5541 7.88594 57.1122C7.89157 57.1373 7.8915 57.1633 7.88573 57.1884C7.87997 57.2135 7.86865 57.2369 7.85262 57.257C7.8366 57.2771 7.81627 57.2933 7.79314 57.3044C7.77002 57.3156 7.74469 57.3214 7.71904 57.3214H0.892758C0.322511 57.3214 0.0387776 57.0369 0.0415593 56.4681C0.044341 55.1491 0.0610307 53.8747 0.0916293 52.645C0.12501 51.1922 0.134745 49.9178 0.120837 48.8219C0.0318228 41.5746 0.00539724 34.3272 0.0415593 27.0799C0.0415593 26.9656 0.0304317 26.7704 0.00817816 26.4943C-0.0502374 25.7052 0.204288 25.634 0.771754 26.281L0.700822 27.0715C0.687466 27.214 0.726263 27.3532 0.809307 27.4605C0.937265 27.6278 1.04019 27.6432 1.11808 27.5065C1.13313 27.4805 1.13838 27.4309 1.1332 27.3635C1.12803 27.2961 1.11265 27.2136 1.08887 27.1259L0.859377 26.2642C1.01237 25.7261 1.04436 25.1795 0.955345 24.6246C0.952564 24.6079 0.94422 24.6023 0.930311 24.6079C0.340592 24.8031 0.112493 24.7863 0.246015 24.5577C0.768973 23.6626 0.937265 22.6531 0.750892 21.5293C0.733598 21.433 0.754423 21.3337 0.808951 21.2525C0.863478 21.1713 0.947419 21.1145 1.04297 21.0943C1.59931 20.9689 1.75369 20.7918 1.50612 20.5631C1.44513 20.5067 1.40282 20.4331 1.3849 20.3523C1.36699 20.2715 1.37435 20.1874 1.40598 20.1114C1.97345 18.706 1.80376 18.4662 0.89693 19.3919C0.707775 19.5871 0.592335 19.5495 0.55061 19.279C0.144482 16.6327 0.0179154 13.7661 0.170909 10.6792C0.176205 10.5651 0.223245 10.4573 0.302381 10.3779C0.381518 10.2986 0.486754 10.2537 0.596508 10.2526L7.75659 10.1689C7.82578 10.1684 7.89438 10.182 7.95841 10.2092C8.02243 10.2363 8.08061 10.2763 8.12954 10.3269C8.17846 10.3775 8.21717 10.4377 8.24341 10.5039C8.26964 10.5701 8.28287 10.6411 8.28233 10.7127C8.27955 11.6385 8.52851 11.7193 9.02921 10.9553C9.04914 10.9255 9.07623 10.9012 9.10799 10.8847C9.13975 10.8682 9.17515 10.86 9.21092 10.8608C9.24669 10.8616 9.28168 10.8715 9.31264 10.8895C9.3436 10.9075 9.36954 10.933 9.38805 10.9637C9.5327 11.2063 9.49376 11.4489 9.27122 11.6915C9.15835 11.8127 9.08556 11.9333 9.06677 12.0303C9.00557 12.3537 9.153 12.3496 9.50906 12.0177C9.82617 11.7193 10.0863 11.1937 10.2893 10.4408C10.3066 10.3821 10.3413 10.3304 10.3884 10.2929C10.4356 10.2554 10.4929 10.234 10.5522 10.2317C14.4549 10.1006 18.3521 10.1118 22.2437 10.2651C22.332 10.2685 22.4158 10.3076 22.4779 10.3744C22.5399 10.4413 22.5756 10.5309 22.5775 10.6249L22.6609 14.2388C22.6748 14.8216 22.768 14.8313 22.9405 14.2681C23.2687 13.1833 23.5483 12.0038 23.7792 10.7294C23.8181 10.5119 23.8904 10.3627 23.9961 10.2819C24.2048 10.1229 24.3953 10.2596 24.5678 10.6918C24.7291 11.0961 24.8195 11.5214 24.839 11.9675C24.8401 11.9952 24.8467 12.0224 24.8584 12.0474C24.87 12.0723 24.8864 12.0944 24.9065 12.1122C24.9266 12.1299 24.9499 12.143 24.975 12.1505C25 12.158 25.0262 12.1598 25.0518 12.1557C25.5914 12.0777 25.6624 11.6956 25.2646 11.0097C24.864 10.3125 25.0824 10.0295 25.9197 10.1606C26.2312 10.2108 26.5428 10.2038 26.8543 10.1397C27.5191 9.99744 27.7264 10.2484 27.476 10.8926C27.3787 11.1463 27.4913 11.5911 27.814 12.2269C27.992 12.5726 28.0908 12.4458 28.1102 11.8462C28.1117 11.8073 28.1226 11.7694 28.1421 11.7357C28.1616 11.702 28.1889 11.6736 28.2219 11.653C28.2548 11.6324 28.2923 11.6201 28.331 11.6173C28.3697 11.6146 28.4085 11.6214 28.4441 11.6371C28.75 11.7709 28.9392 12.0038 29.0115 12.3356C29.0699 12.6061 29.1353 12.7218 29.2076 12.6828C29.2966 12.6326 29.3982 12.4262 29.5122 12.0637C29.5451 11.9643 29.5459 11.857 29.5144 11.7571C29.483 11.6573 29.4209 11.5699 29.337 11.5074C28.725 11.0529 28.4816 10.7001 28.6068 10.4492C28.693 10.2763 28.9642 10.1871 29.4204 10.1815C33.0867 10.1536 36.7836 10.1466 40.511 10.1606C41.0702 10.1634 41.3483 10.4422 41.3456 10.9971L41.3247 19.9608C41.3247 20.0174 41.3023 20.0716 41.2624 20.1116C41.2225 20.1517 41.1683 20.1741 41.1119 20.1741L29.5289 20.1992C29.3516 20.1993 29.1792 20.1322 29.0449 20.011C28.2577 19.3027 28.0824 18.6279 28.5192 17.9865ZM7.44782 11.955C7.28092 11.9578 7.14184 12.0275 7.03057 12.1641C5.51176 13.1289 4.46445 14.4605 3.88864 16.1587C3.84516 16.284 3.8408 16.4224 3.87612 16.556L4.14734 17.5599C4.15831 17.6009 4.17945 17.6384 4.2088 17.6689C4.23815 17.6995 4.27474 17.7221 4.31516 17.7346C4.35559 17.7471 4.39852 17.7492 4.43995 17.7406C4.48138 17.732 4.51996 17.713 4.55208 17.6854C5.27532 17.0663 5.78854 16.4054 6.09175 15.7027C6.28925 15.2426 6.53543 14.9484 6.83029 14.8202C6.99997 14.7477 7.11541 14.6766 7.17661 14.6069C7.57995 14.1691 7.87342 13.6629 8.05701 13.0885C8.16272 12.8571 8.21001 12.6131 8.19888 12.3565C8.17106 11.6705 7.92071 11.5367 7.44782 11.955ZM28.9114 13.8832C28.6054 14.19 28.6221 14.3782 28.9614 14.4479C29.0253 14.4614 29.0914 14.4521 29.1463 14.4218C29.2013 14.3916 29.2411 14.3426 29.2577 14.2848C29.2994 14.1426 29.2841 14.0129 29.2118 13.8958C29.1969 13.873 29.1766 13.8543 29.1525 13.841C29.1283 13.8278 29.1009 13.8203 29.0721 13.8191C29.0434 13.8179 29.0141 13.823 28.9863 13.8341C28.9585 13.8452 28.9329 13.862 28.9114 13.8832ZM12.1336 20.2662C12.1864 20.5562 12.3116 20.8015 12.5091 21.0023C12.5308 21.025 12.5567 21.0432 12.585 21.0558C12.6132 21.0684 12.6431 21.0749 12.6724 21.0749C12.7016 21.0749 12.7295 21.0684 12.754 21.0558C12.7785 21.0432 12.7989 21.025 12.8137 21.0023C12.8944 20.8768 12.8527 20.7402 12.6885 20.5924C12.5606 20.4725 12.3812 20.1964 12.1503 19.7642C12.0752 19.622 12.0334 19.6276 12.0251 19.7809C12.0223 19.8507 12.0307 19.9176 12.0501 19.9817C12.1002 20.1407 12.128 20.2355 12.1336 20.2662ZM25.832 20.4962C26.9086 21.8347 26.9531 21.811 25.9656 20.4251C25.9461 20.3972 25.9224 20.3749 25.8946 20.3582C25.6999 20.255 25.679 20.301 25.832 20.4962ZM23.0031 32.2791C22.7972 32.9037 22.8167 33.5144 23.0615 34.1111C23.2172 34.496 23.3021 34.4764 23.316 34.0526L23.3661 32.53C23.3744 32.3293 23.3633 32.1982 23.3327 32.1369C23.2214 31.9082 23.1115 31.9556 23.0031 32.2791ZM2.23214 33.0905C2.09028 33.3053 2.15287 33.4252 2.41991 33.4503C2.45042 33.4532 2.4812 33.4501 2.5103 33.4414C2.5394 33.4327 2.56617 33.4184 2.58893 33.3995C2.61169 33.3807 2.62993 33.3576 2.64249 33.3317C2.65506 33.3059 2.66167 33.2779 2.66192 33.2495C2.66192 33.1491 2.62575 33.071 2.55343 33.0152C2.53101 32.9975 2.50466 32.9853 2.47602 32.9795C2.44738 32.9736 2.41706 32.9743 2.38694 32.9813C2.35682 32.9884 2.32753 33.0017 2.30091 33.0205C2.27428 33.0393 2.25087 33.0631 2.23214 33.0905ZM37.8573 57.0286C39.2064 57.2684 40.4902 57.313 41.7086 57.1624C41.8108 57.1501 41.905 57.1004 41.9735 57.0226C42.0419 56.9447 42.0798 56.8442 42.0799 56.7399V47.7093C42.08 47.6762 42.0731 47.6434 42.0596 47.6129C42.0461 47.5824 42.0263 47.5548 42.0014 47.5318C41.9765 47.5088 41.9469 47.4908 41.9145 47.4789C41.8822 47.467 41.8476 47.4614 41.8129 47.4625L37.8323 47.6257C37.7736 47.6283 37.7182 47.6507 37.6766 47.6886C37.635 47.7264 37.6102 47.777 37.607 47.8306C37.4234 50.8171 37.4178 53.7827 37.5903 56.7274C37.5947 56.8003 37.6234 56.8696 37.6719 56.9242C37.7203 56.9788 37.7856 57.0156 37.8573 57.0286Z" fill="white"/>
<path d="M120.277 33.3032C123.324 34.7435 125.707 36.8855 127.427 39.7293C129.002 42.3303 130.524 45.1854 131.993 48.2946C133.425 51.3333 134.874 54.3183 136.34 57.2496C136.357 57.2838 136.365 57.3218 136.364 57.3601C136.362 57.3983 136.351 57.4356 136.331 57.4683C136.311 57.501 136.284 57.528 136.251 57.5468C136.218 57.5657 136.18 57.5756 136.142 57.5758L120.596 57.5462C120.471 57.5462 120.348 57.5103 120.243 57.4428C120.137 57.3753 120.053 57.2789 120.001 57.1649C118.165 53.1153 116.353 49.1687 114.563 45.3251C113.858 43.8086 113.058 42.3458 112.162 40.9366C111.46 39.8296 110.395 39.18 108.965 38.988C108.897 38.979 108.827 38.9848 108.761 39.0052C108.694 39.0255 108.633 39.0599 108.581 39.106C108.529 39.1521 108.487 39.2089 108.459 39.2725C108.43 39.3362 108.416 39.4053 108.415 39.4752V57.3089C108.415 57.3719 108.391 57.4322 108.347 57.4767C108.303 57.5212 108.243 57.5462 108.181 57.5462L94.1535 57.5758C94.0967 57.5758 94.0423 57.5531 94.0021 57.5125C93.962 57.472 93.9395 57.4171 93.9395 57.3598V10.6319C93.9395 10.5757 93.9616 10.5218 94.0009 10.4821C94.0402 10.4424 94.0936 10.42 94.1493 10.42H108.197C108.255 10.42 108.311 10.4433 108.352 10.4846C108.393 10.5259 108.415 10.5819 108.415 10.6403V28.2242C108.415 28.2609 108.423 28.2973 108.437 28.3309C108.452 28.3646 108.473 28.3947 108.5 28.4195C108.527 28.4443 108.559 28.463 108.594 28.4746C108.628 28.4862 108.665 28.4904 108.701 28.4868C110.161 28.3513 111.246 27.5803 111.957 26.1739C112.505 25.0867 113.886 21.856 116.098 16.4818C117.43 13.2483 119.973 11.3562 123.727 10.8055C127.204 10.2944 130.862 10.0614 134.703 10.1066C134.77 10.1077 134.834 10.1354 134.881 10.1837C134.929 10.2321 134.955 10.2972 134.955 10.365V19.6928C134.955 19.7428 134.945 19.7923 134.926 19.8384C134.906 19.8845 134.878 19.9262 134.842 19.961C134.807 19.9957 134.765 20.0229 134.718 20.0409C134.672 20.0589 134.623 20.0673 134.573 20.0655C130.125 19.913 127.246 21.8517 125.934 25.8816C125.827 26.2121 125.536 26.9336 125.061 28.0463C124.085 30.345 122.489 32.038 120.273 33.1253C120.15 33.1846 120.152 33.2439 120.277 33.3032Z" fill="white"/>
<path d="M154.947 36.3419C154.947 36.6203 155.026 36.6454 155.185 36.4171L172.322 11.2907C172.359 11.2355 172.409 11.1902 172.467 11.1589C172.526 11.1276 172.59 11.1112 172.656 11.1111H185.649C185.705 11.1111 185.758 11.1331 185.797 11.1722C185.836 11.2114 185.859 11.2645 185.859 11.3199V57.4212C185.859 57.4622 185.842 57.5015 185.813 57.5305C185.784 57.5594 185.745 57.5757 185.704 57.5757L172.61 57.5507C172.555 57.5507 172.501 57.5287 172.462 57.4895C172.423 57.4503 172.401 57.3972 172.401 57.3418L172.376 32.5579C172.376 32.285 172.299 32.2614 172.146 32.4869L155.143 57.3669C155.098 57.4314 155.038 57.4841 154.968 57.5205C154.898 57.5568 154.821 57.5758 154.742 57.5757H141.669C141.609 57.5757 141.552 57.552 141.509 57.5097C141.467 57.4674 141.443 57.41 141.443 57.3502L141.414 11.4034C141.414 11.3751 141.419 11.347 141.429 11.3206C141.439 11.2943 141.454 11.2703 141.474 11.2501C141.493 11.2299 141.517 11.2138 141.542 11.2028C141.568 11.1919 141.595 11.1862 141.623 11.1863L154.642 11.1153C154.678 11.1147 154.715 11.1215 154.749 11.1353C154.782 11.1492 154.813 11.1697 154.839 11.1957C154.866 11.2218 154.886 11.2528 154.9 11.287C154.914 11.3213 154.922 11.358 154.922 11.3951L154.947 36.3419Z" fill="white"/>
<path d="M193.411 13.3798C193.566 13.0507 193.846 12.7853 194.197 12.6332C195.531 12.051 196.959 11.9652 198.481 12.3758C198.547 12.3945 198.606 12.4302 198.652 12.4788C198.697 12.5274 198.726 12.5868 198.735 12.65C198.893 13.6428 198.487 14.0435 197.517 13.8523C196.798 13.7117 196.324 13.6709 196.093 13.7299C195.466 13.8874 195.11 14.2826 195.025 14.9153C194.967 15.3315 194.952 15.8054 194.979 16.3369C195.031 17.3072 195.645 17.7698 196.821 17.7248C196.892 17.7221 196.961 17.7025 197.021 17.6678C197.082 17.633 197.132 17.5844 197.166 17.5265C197.554 16.8628 197.344 16.5043 196.534 16.4508C196.465 16.4471 196.4 16.4249 196.348 16.3876C196.297 16.3503 196.261 16.2999 196.248 16.2441C196.184 15.9742 196.184 15.7056 196.248 15.4384C196.262 15.3776 196.299 15.3232 196.352 15.2841C196.405 15.245 196.471 15.2235 196.539 15.2233H198.749C198.812 15.2233 198.872 15.2459 198.916 15.2863C198.96 15.3266 198.985 15.3814 198.985 15.4384L198.99 18.5558C198.99 18.6169 198.968 18.6769 198.927 18.7269C198.886 18.777 198.829 18.8146 198.762 18.8343C196.986 19.363 195.448 19.3053 194.147 18.6613C193.502 18.3407 193.121 17.8092 193.006 17.0667C192.93 16.5943 192.911 15.9882 192.947 15.2486C192.977 14.6046 193.132 13.9816 193.411 13.3798Z" fill="white"/>
<path d="M7.63587 12.1211L8.0809 13.0808L7.53744 13.8068C7.1837 14.2837 7.03107 14.2507 7.07957 13.7076L7.20795 12.2982C7.32206 12.1825 7.4647 12.1235 7.63587 12.1211Z" fill="white"/>
<path d="M195.432 28.1319C195.002 28.3101 194.561 28.3305 194.111 28.1933C194.062 28.1785 194.018 28.1424 193.987 28.0908C193.956 28.0391 193.939 27.975 193.939 27.9085V21.4861C193.939 21.4244 193.959 21.365 193.994 21.3202C194.03 21.2754 194.078 21.2485 194.129 21.2451C194.962 21.1984 195.751 21.2013 196.498 21.2539C197.396 21.3182 198.036 21.6146 198.418 22.1432C198.971 22.9084 198.99 23.8824 198.477 25.0653C198.427 25.1767 198.341 25.2773 198.229 25.3544C197.701 25.7049 197.656 26.1722 198.094 26.7563C198.381 27.1418 198.652 27.5215 198.908 27.8954C199.046 28.0998 199.01 28.202 198.798 28.202L197.382 28.1976C197.332 28.1964 197.28 28.1748 197.231 28.1349C197.183 28.095 197.139 28.0381 197.104 27.9698C196.822 27.412 196.553 26.8454 196.298 26.27C196.159 25.9575 196.003 25.8655 195.83 25.994C195.728 26.0671 195.664 26.2058 195.637 26.4102C195.576 26.8804 195.56 27.3536 195.589 27.8296C195.593 27.8966 195.579 27.9624 195.551 28.017C195.523 28.0716 195.481 28.112 195.432 28.1319ZM197.079 23.4005C196.996 22.9829 196.635 22.7697 195.995 22.7609C195.94 22.7598 195.886 22.782 195.843 22.8237C195.8 22.8653 195.771 22.9238 195.761 22.9887C195.671 23.5524 195.659 23.9847 195.724 24.2855C195.737 24.3486 195.767 24.4061 195.811 24.4506C195.854 24.4951 195.91 24.5246 195.969 24.5352C196.307 24.5907 196.588 24.5002 196.812 24.2636C197.051 24.0124 197.14 23.7247 197.079 23.4005Z" fill="white"/>
<path d="M197.894 37.2519C197.889 37.2789 197.876 37.3031 197.858 37.3205C197.84 37.3379 197.817 37.3474 197.793 37.3476L194.259 37.3737C194.174 37.3737 194.093 37.3324 194.033 37.259C193.973 37.1855 193.939 37.0859 193.939 36.9821V30.5466C193.939 30.482 193.961 30.42 193.998 30.3743C194.036 30.3286 194.087 30.303 194.14 30.303H197.535C197.596 30.3028 197.655 30.3276 197.703 30.3733C197.751 30.419 197.785 30.4831 197.801 30.5553C198.002 31.4923 197.854 31.9303 197.359 31.8694C197.132 31.8404 197.003 31.8259 196.972 31.8259C196.627 31.8259 196.231 31.8259 195.784 31.8259C195.732 31.8261 195.681 31.8485 195.642 31.8892C195.602 31.9299 195.576 31.9862 195.569 32.0478C195.466 32.8107 195.701 33.1516 196.276 33.0703C196.512 33.0384 196.801 33.0225 197.14 33.0225C197.197 33.0225 197.251 33.0449 197.292 33.0851C197.333 33.1253 197.358 33.1806 197.363 33.24L197.449 34.3017C197.451 34.329 197.447 34.3565 197.438 34.3827C197.428 34.4089 197.413 34.4331 197.393 34.4539C197.373 34.4747 197.349 34.4917 197.323 34.5037C197.296 34.5156 197.267 34.5224 197.237 34.5236L195.845 34.5672C195.791 34.5684 195.739 34.5903 195.697 34.6296C195.655 34.6689 195.625 34.7233 195.612 34.7847C195.406 35.7333 195.799 36.0596 196.792 35.7637C197.797 35.4621 198.164 35.9581 197.894 37.2519Z" fill="white"/>
<path d="M195.613 43.7831C195.349 44.7891 195.721 45.1799 196.729 44.9558C197.821 44.7114 198.196 45.1397 197.852 46.2405C197.834 46.2989 197.801 46.3495 197.757 46.3856C197.714 46.4218 197.662 46.4418 197.608 46.4432L194.245 46.4647C194.205 46.4653 194.166 46.4562 194.129 46.4381C194.092 46.4199 194.058 46.393 194.029 46.3589C194.001 46.3248 193.978 46.2843 193.963 46.2395C193.947 46.1948 193.939 46.1467 193.939 46.0983V39.6399C193.939 39.5834 193.959 39.5293 193.993 39.489C194.027 39.4487 194.074 39.4254 194.123 39.4243L197.604 39.3941C197.664 39.3927 197.721 39.4085 197.768 39.4394C197.815 39.4703 197.85 39.5147 197.867 39.5666C197.908 39.7045 197.926 39.8497 197.921 40.002C197.916 40.1486 197.927 40.2866 197.953 40.4159C198.064 40.9333 197.832 41.1488 197.258 41.0626C196.846 40.9994 196.428 40.9678 196.006 40.9678C195.935 40.9678 195.866 40.9874 195.803 41.025C195.74 41.0627 195.685 41.1173 195.643 41.1846C195.601 41.252 195.572 41.3301 195.56 41.4129C195.547 41.4958 195.551 41.581 195.57 41.6619C195.7 42.1936 196.057 42.3632 196.643 42.1706C197.37 41.9321 197.622 42.3273 197.399 43.3562C197.385 43.4166 197.355 43.47 197.313 43.5082C197.271 43.5464 197.219 43.5672 197.165 43.5675H195.851C195.798 43.5685 195.746 43.5899 195.703 43.6286C195.661 43.6673 195.629 43.7214 195.613 43.7831Z" fill="white"/>
<path d="M9.18523 50.5051C9.13236 50.4968 9.10089 50.4621 9.09082 50.401C9.31236 48.8804 9.51502 47.3555 9.6988 45.8265C9.73152 45.5629 9.8146 45.4394 9.94803 45.4561C9.97298 45.4593 9.99681 45.4695 10.018 45.486C10.0392 45.5025 10.0573 45.5249 10.0711 45.5519C10.085 45.5789 10.0943 45.6099 10.0984 45.6428C10.1026 45.6758 10.1015 45.71 10.0953 45.7433L9.18523 50.5051Z" fill="#B0B2B1"/>
<path d="M198.336 52.4453L198.377 49.701C198.378 49.6501 198.4 49.6016 198.44 49.5656C198.479 49.5296 198.531 49.5089 198.587 49.5079L199.692 49.5005C199.732 49.5 199.772 49.5071 199.809 49.5212C199.847 49.5354 199.881 49.5563 199.91 49.5829C199.938 49.6095 199.961 49.6412 199.976 49.6762C199.992 49.7111 200 49.7486 200 49.7865L199.98 55.2268C199.979 55.2825 199.958 55.3362 199.922 55.3797C199.886 55.4233 199.835 55.4543 199.778 55.4681C199.332 55.5721 198.88 55.5833 198.422 55.5016C198.296 55.4803 198.182 55.4122 198.106 55.3122L195.973 52.5419C195.71 52.2027 195.58 52.2374 195.583 52.6459L195.604 55.1859C195.604 55.2488 195.587 55.309 195.555 55.3581C195.523 55.4073 195.479 55.4431 195.427 55.4607C195.164 55.5449 194.76 55.53 194.215 55.4161C194.136 55.3994 194.066 55.359 194.016 55.3017C193.966 55.2444 193.939 55.1735 193.939 55.1005V49.9127C193.939 49.8358 193.969 49.7612 194.023 49.7011C194.076 49.641 194.151 49.5991 194.235 49.5822C194.748 49.4782 195.178 49.4671 195.525 49.5488C195.813 49.6156 196.098 49.8607 196.38 50.2841C196.906 51.0738 197.51 51.8103 198.192 52.4936C198.285 52.5852 198.333 52.5691 198.336 52.4453Z" fill="white"/>
</svg>
