<svg width="162" height="32" viewBox="0 0 162 32" fill="none" xmlns="http://www.w3.org/2000/svg">
<path d="M8.24935 1.97403H11.013C16.0208 1.97403 18.4727 4.32208 18.4727 9.35065C18.4727 14.3169 15.8961 17.6 10.2234 17.6V18.4312C10.3896 18.4727 10.7844 18.5143 11.3455 18.5143C17.7247 18.5143 22.961 15.0234 22.961 8.91429C22.961 3.49091 19.2623 0.561039 11.7818 0.561039H0V1.7039C3.76104 2.18182 3.88571 2.01558 3.88571 5.23636V27.3247C3.88571 30.5662 3.76104 30.3792 0 30.8779V32H12.1351V30.8779C8.37403 30.3792 8.24935 30.5662 8.24935 27.3247V1.97403ZM41.2675 0C37.5065 9.95325 32.2701 24.6234 30.3169 28.5506C29.6104 30.0468 28.3013 30.8156 27.0753 30.8156V32H35.2831V30.8156C33.6623 30.8156 32.8519 29.8597 32.8519 28.5922C32.8519 28.426 32.8935 27.9896 33.0182 27.5948L35.1169 21.5688H46.5454L48.4779 27.3662C48.6857 28.0312 48.8312 28.5091 48.8312 28.987C48.8312 30.0883 48.0831 30.8156 46.1091 30.8156V32H56.6026V30.8156C54.6701 30.8156 53.9221 29.3818 52.9247 26.8468C51.4078 22.8779 46.8156 9.03896 43.761 0H41.2675ZM35.761 19.8649L41.1429 5.23636H41.226L45.9844 19.8649H35.761ZM63.6675 0.561039V1.7039C67.4286 2.18182 67.5532 2.01558 67.5532 5.23636V27.3247C67.5532 30.5662 67.4286 30.3792 63.6675 30.8779V32H85.7766L87.1273 23.9169H85.9844C83.9273 28.7377 84.1974 30.6078 77.6935 30.6078C73.6831 30.6078 71.9377 30.2545 71.9377 27.1169V5.23636C71.9377 2.01558 72.0623 2.18182 75.8234 1.7039V0.561039H63.6675ZM107.616 0C103.855 9.95325 98.6182 24.6234 96.6441 28.5506C95.9584 30.0468 94.6493 30.8156 93.4234 30.8156V32H101.631V30.8156C100.01 30.8156 99.1792 29.8597 99.1792 28.5922C99.1792 28.426 99.2208 27.9896 99.3662 27.5948L101.444 21.5688H112.893L114.805 27.3662C115.034 28.0312 115.158 28.5091 115.158 28.987C115.158 30.0883 114.41 30.8156 112.457 30.8156V32H122.93V30.8156C121.018 30.8156 120.27 29.3818 119.273 26.8468C117.735 22.8779 113.164 9.03896 110.088 0H107.616ZM102.109 19.8649L107.47 5.23636H107.574L112.332 19.8649H102.109ZM132.239 0.561039V1.7039C134.213 1.7039 135.127 2.74286 136.436 4.75844L143.335 15.4597L134.899 27.4286C133.34 29.6935 132.197 30.8779 130.016 30.8779V32H138.888V30.8779C137.745 30.8779 136.831 30.2961 136.831 29.174C136.831 28.5091 137.143 27.7195 137.829 26.7221L144.519 17.1636L151.543 27.1169C152.187 28.0727 152.457 28.8208 152.457 29.3403C152.457 30.5662 151.19 30.8779 150.005 30.8779V32H161.455V30.8779C158.961 30.8779 158.4 30.1299 156.135 26.8468L147.262 14.1506L154.68 3.96883C155.636 2.65974 157.34 1.7039 158.836 1.7039V0.561039H150.317V1.7039C151.356 1.7039 152.416 2.14026 152.416 3.13766C152.416 3.57403 152.249 4.11429 151.751 4.75844L145.953 12.613L141.236 5.19481C140.717 4.40519 140.488 3.71948 140.488 3.24156C140.488 2.0987 141.59 1.7039 142.774 1.7039V0.561039H132.239Z" fill="white"/>
</svg>
