<svg width="205" height="47" viewBox="0 0 205 47" fill="none" xmlns="http://www.w3.org/2000/svg">
<path fill-rule="evenodd" clip-rule="evenodd" d="M0 1.21044H16.8652H22.1407H24.4385H24.4391H31.5717L21.0258 21.1504L13.8837 21.1525L21.2108 7.30949H18.915L10.4084 23.3929H12.6978H19.8395H24.9609H27.2889L29.9369 23.3725L33.0355 18.0137L42.6445 1.08215L58.7588 29.4748C56.3206 29.4748 53.8821 29.4748 51.4439 29.4748C49.4299 25.669 44.6422 16.9437 42.6452 13.1285L42.6445 13.129V13.1285C41.7846 14.7713 40.4071 17.3244 38.9565 20.0036H43.9358L47.1606 26.0949L35.6545 26.1014C34.9464 27.4125 34.3194 28.5795 33.846 29.4748H31.9956H31.9028H31.7885H31.6741H31.5602H31.4459H31.3314H31.2171H31.1031H30.9888H30.8745H30.76H30.6457H30.5312H30.4174H30.3029H30.1886H30.0742H29.9598H29.8454H29.7315H29.6172H29.5028H29.3884H29.3577L27.2891 29.4792V29.4919H21.1976L10.0538 29.5155L10.0665 29.4919H5.0321V29.4748H0.0473022L11.7805 7.30949H3.1814V7.308L0.000164244 1.21027L0 1.21044ZM55.1887 46.0807C54.1702 46.0807 53.3276 45.7545 52.6614 45.1023C51.9953 44.4497 51.6622 43.6085 51.6622 42.5786C51.6622 41.536 51.9995 40.6947 52.6757 40.0549C53.3509 39.4146 54.1978 39.0948 55.2162 39.0948C55.6912 39.0948 56.1524 39.1805 56.6 39.3525C57.0471 39.524 57.4035 39.7629 57.6687 40.0689L56.5952 41.155C56.4533 40.9551 56.2638 40.804 56.026 40.7007C55.7886 40.5978 55.5372 40.5463 55.2718 40.5463C54.7227 40.5463 54.2704 40.7381 53.9156 41.1222C53.5607 41.5059 53.3833 41.9913 53.3833 42.5786C53.3833 43.1776 53.5564 43.6664 53.9018 44.0441C54.2475 44.4218 54.6946 44.6104 55.2437 44.6104C55.8548 44.6104 56.3177 44.3859 56.6324 43.9364L57.7339 44.9849C57.1105 45.7153 56.2621 46.0807 55.1887 46.0807ZM58.4091 45.9029V39.2726H59.9736V43.6368H60.0105L62.5282 39.2726H64.1943V45.9029H62.6299V41.642H62.6024L60.1033 45.9029H58.4091ZM68.7665 46.0807C67.7485 46.0807 66.906 45.7545 66.2398 45.1023C65.5736 44.4497 65.2405 43.6085 65.2405 42.5786C65.2405 41.536 65.5779 40.6947 66.2536 40.0549C66.9293 39.4146 67.7761 39.0948 68.7946 39.0948C69.2696 39.0948 69.7308 39.1805 70.1783 39.3525C70.6253 39.524 70.9818 39.7629 71.2471 40.0689L70.1736 41.155C70.0317 40.9551 69.8421 40.804 69.6043 40.7007C69.3665 40.5978 69.1155 40.5463 68.8501 40.5463C68.301 40.5463 67.8487 40.7381 67.4938 41.1222C67.139 41.5059 66.9616 41.9913 66.9616 42.5786C66.9616 43.1776 67.1348 43.6664 67.4802 44.0441C67.8254 44.4218 68.273 44.6104 68.822 44.6104C69.4332 44.6104 69.896 44.3859 70.2107 43.9364L71.3123 44.9849C70.6888 45.7153 69.8405 46.0807 68.7665 46.0807ZM73.3947 45.9029V40.6398H71.5439V39.2726H76.8287V40.6398H74.9779V45.9029H73.3949H73.3947ZM77.5504 45.9029V39.2726H81.9561V40.6302H79.0777V41.876H81.7988V43.1587H79.0777V44.5353H82.123V45.9027H77.5503L77.5504 45.9029ZM83.169 45.9029V39.2726H85.4182L86.9085 43.5241H86.9455L88.3706 39.2726H90.6569V45.9029H89.111L89.1482 41.2111H89.1206L87.4174 45.9029H86.3069L84.6497 41.2111H84.6223L84.6592 45.9029H83.169ZM92.0081 45.9029V39.2726H93.591V41.7072H94.424C95.1766 41.7072 95.791 41.876 96.266 42.213C96.741 42.55 96.9788 43.0779 96.9788 43.7958C96.9788 44.501 96.7379 45.0288 96.2565 45.3781C95.7756 45.7281 95.1675 45.9027 94.433 45.9027H92.0081V45.9029ZM93.591 44.6292H94.3038C95.0378 44.6292 95.4053 44.3485 95.4053 43.7863C95.4053 43.2306 95.0378 42.9531 94.3038 42.9531H93.591V44.6292ZM97.7466 45.9029V39.2726H99.3201V45.9029H97.7466ZM102.236 45.9029L104.531 42.4008L102.421 39.2727H104.328L105.549 41.333L106.753 39.2727H108.594L106.522 42.4008L108.891 45.9029H106.938L105.503 43.5618L104.124 45.9029H102.236ZM109.493 45.9029V39.2726H111.899C112.677 39.2726 113.299 39.4333 113.764 39.7548C114.23 40.0762 114.463 40.596 114.463 41.314C114.463 41.8011 114.338 42.2067 114.088 42.5314C113.838 42.8561 113.527 43.0821 113.153 43.2102C112.78 43.3383 112.349 43.402 111.862 43.402H111.075V45.9027H109.493V45.9029ZM111.075 42.1291H111.742C112.501 42.1291 112.881 41.8607 112.881 41.3238C112.881 40.818 112.51 40.5651 111.77 40.5651H111.075V42.1291ZM114.056 45.9029L116.805 39.2726H118.341L121.062 45.9029H119.304L118.795 44.6014H116.259L115.777 45.9029H114.056ZM116.712 43.3181H118.36L117.545 41.0425L116.712 43.3181ZM121.608 45.9029V39.2726H123.191V41.7823H125.746V39.2726H127.329V45.9029H125.746V43.1311H123.191V45.9029H121.608ZM128.68 45.9029V39.2726H133.086V40.6302H130.208V41.876H132.929V43.1587H130.208V44.5353H133.253V45.9027H128.68L128.68 45.9029ZM134.299 45.9029V39.2726H135.881V41.7823H138.436V39.2726H140.018V45.9029H138.436V43.1311H135.881V45.9029H134.299ZM141.37 45.9029V39.2726H142.934V43.6368H142.972L145.489 39.2726H147.155V45.9029H145.591V41.642H145.563L143.064 45.9029H141.37ZM147.998 45.9029L149.645 43.1964C149.238 43.0528 148.92 42.8187 148.692 42.494C148.464 42.1693 148.349 41.776 148.349 41.3142C148.349 40.6026 148.588 40.0845 149.066 39.7598C149.544 39.4351 150.166 39.2727 150.932 39.2727H153.338V45.903H151.756V43.4399H151.2L149.821 45.903H147.998V45.9029ZM151.07 42.2223H151.756V40.5463H151.015C150.274 40.5463 149.904 40.8211 149.904 41.3703C149.904 41.664 150.012 41.8793 150.228 42.0166C150.444 42.1537 150.725 42.2223 151.07 42.2223ZM175.961 23.3427L176.102 23.6079L188.886 1.08249L205 29.4752C202.562 29.4752 200.123 29.4752 197.685 29.4752C195.671 25.6693 190.883 16.944 188.886 13.1289V13.1294L188.886 13.1289C188.026 14.7717 186.648 17.3247 185.198 20.004H190.178L193.402 26.0952L181.896 26.1017C181.188 27.4128 180.561 28.5798 180.087 29.4752C177.649 29.4752 175.211 29.4752 172.772 29.4752L172.793 29.4371L171.233 29.4383V29.4414C168.631 29.4414 167.486 29.4414 164.884 29.4414V23.3427V15.4902L157.506 29.4752H156.431H155.356L147.978 15.4902C147.978 20.1406 147.978 24.7909 147.978 29.4414C145.376 29.4414 144.232 29.4414 141.63 29.4414C141.629 20.0276 141.63 10.6132 141.63 1.19881L147.481 1.21592L156.431 17.9341L165.381 1.21592L171.233 1.19881V23.3427H175.962H175.961ZM67.1111 21.6585V27.4412V29.4752H65.1014H62.7733H60.7634V27.4412V3.28843V1.25497H62.7733H65.1014H67.1111V3.28843V9.68245L67.1075 11.9527L68.7369 9.96544L75.8807 1.25497C78.632 1.25497 81.3834 1.25497 84.1351 1.25497L81.3914 4.58292L72.6159 15.2281L81.7012 26.0972L84.4969 29.4413H80.1706H77.056H76.1294L69.1295 21.0588L67.1165 18.6477L67.1113 20.7871V21.6584L67.1111 21.6585ZM103.06 20.1208L108.028 26.0641L110.823 29.4087H106.497H102.5L95.3983 21.0788H93.4377V21.6253V27.4086V29.4414H91.428H89.0913H87.0895L87.089 27.4086V3.2552V1.22124H89.0913H89.2725H91.428H98.8732C101.574 1.22124 104.028 2.33792 105.806 4.13658C107.584 5.93491 108.687 8.41787 108.687 11.1506C108.687 13.7311 107.698 16.0921 106.085 17.8635C105.234 18.7984 104.208 19.5689 103.06 20.1208H103.06ZM93.4375 14.6558H99.6382C100.379 14.6558 101.053 14.2605 101.543 13.6234C102.034 12.9873 102.338 12.1107 102.338 11.1506C102.338 10.1899 102.034 9.31387 101.543 8.67726C101.053 8.04016 100.379 7.64483 99.6382 7.64483H93.4375V14.656V14.6558ZM121.837 0.798828H125.26C126.381 0.798828 127.483 0.967162 128.542 1.28007C129.126 1.45255 129.684 1.65512 130.215 1.88976L127.112 7.62422C127.012 7.58401 126.91 7.54662 126.807 7.51173C126.251 7.32412 125.648 7.22242 125.016 7.22242H122.081C120.544 7.22242 119.143 7.84341 118.125 8.84377C117.08 9.87089 116.431 11.2957 116.431 12.871V17.7256C116.431 19.3009 117.08 20.7261 118.125 21.7528C119.143 22.7531 120.544 23.3746 122.081 23.3746H125.016C126.553 23.3746 127.954 22.7531 128.972 21.7528C130.017 20.7261 130.665 19.3009 130.665 17.7256V12.871C130.665 12.2221 130.559 11.6059 130.362 11.0374L130.36 11.0384C130.148 10.4309 129.845 9.87836 129.47 9.39945L129.018 8.82283L128.967 8.78378L132.071 2.92119C133.726 4.06313 135.043 5.67053 136.025 7.8921C136.683 9.38217 137.049 11.0196 137.049 12.7276V17.8693C137.049 21.1517 135.723 24.1347 133.588 26.2951C131.452 28.456 128.504 29.7977 125.259 29.7977H121.837C118.592 29.7977 115.644 28.456 113.509 26.2951C111.373 24.1347 110.047 21.1517 110.047 17.8693V12.7276C110.047 9.44565 111.373 6.46267 113.509 4.30176C115.644 2.14068 118.592 0.798994 121.837 0.798994L121.837 0.798828Z" fill="white"/>
</svg>
