<svg width="202" height="99" viewBox="0 0 202 99" fill="none" xmlns="http://www.w3.org/2000/svg">
<g clip-path="url(#clip0_3158_174)">
<path d="M42.3526 67.0007H39.868V70.1914H38.8379V63.0371H39.868V66.0713H42.3526V63.0371H43.3837V70.1914H42.3526V67.0007Z" fill="white"/>
<path d="M48.0829 66.93C47.9864 66.9218 47.8911 66.9131 47.801 66.9095C47.7049 66.9038 47.6093 66.9018 47.5131 66.9018C47.2889 66.9018 47.0649 66.9218 46.8478 66.9595C46.6294 66.9971 46.4376 67.0639 46.2645 67.1592C46.0982 67.255 45.964 67.3832 45.8611 67.546C45.7656 67.708 45.7138 67.9125 45.7138 68.1612C45.7138 68.5427 45.8035 68.8385 45.9897 69.0482C46.1749 69.2572 46.4122 69.363 46.7061 69.363C47.104 69.363 47.4113 69.2677 47.6285 69.0767C47.8457 68.8856 47.9997 68.6766 48.0831 68.4467V66.9304L48.0829 66.93ZM44.9972 63.4673C45.2721 63.2958 45.6114 63.1621 46.0082 63.0668C46.4053 62.9717 46.8211 62.9238 47.2633 62.9238C47.667 62.9238 47.9862 62.9831 48.2301 63.1027C48.4794 63.2214 48.6648 63.3842 48.8057 63.5888C48.9475 63.794 49.036 64.0276 49.0817 64.2902C49.1194 64.5528 49.146 64.826 49.146 65.1132C49.146 65.6851 49.1327 66.2435 49.1071 66.7867C49.0817 67.3301 49.0682 67.8452 49.0682 68.3321C49.0682 68.6946 49.0815 69.031 49.1071 69.3406C49.1325 69.6506 49.177 69.9444 49.248 70.2203H48.4341L48.1848 69.3765H48.1272C47.9862 69.6253 47.7755 69.84 47.4995 70.0206C47.2245 70.2015 46.8531 70.2928 46.3861 70.2928C45.8739 70.2928 45.4573 70.114 45.1245 69.7552C44.7985 69.3984 44.6377 68.9047 44.6377 68.2747C44.6377 67.865 44.702 67.5214 44.843 67.2445C44.977 66.9684 45.1755 66.7443 45.4252 66.572C45.6757 66.4005 45.9759 66.279 46.3221 66.2065C46.6679 66.1357 47.0582 66.1 47.4808 66.1H47.7691C47.8652 66.1 47.9608 66.1048 48.0694 66.1141C48.0952 65.8195 48.1083 65.5567 48.1083 65.3269C48.1083 64.7834 48.0317 64.4021 47.8713 64.1827C47.7049 63.9632 47.411 63.8531 46.9875 63.8531C46.7191 63.8531 46.4309 63.8944 46.117 63.9756C45.8033 64.0564 45.5472 64.1593 45.3363 64.2827L44.9972 63.4671V63.4673Z" fill="white"/>
<path d="M56.0804 72.0091H55.363L55.1902 70.1917H50.8105V63.0371H51.8417V69.2611H54.2174V63.0371H55.2478V69.2611H56.0804V72.0091Z" fill="white"/>
<path d="M60.7343 66.0717L60.8173 64.9837H60.7597L60.261 66.1855L57.8338 70.1917H57.1553V63.0371H58.1921V67.2873L58.1034 68.3317H58.161L58.6342 67.1584L61.0936 63.0371H61.7654V70.1917H60.7343V66.0717Z" fill="white"/>
<path d="M64.2239 66.6163C64.2239 67.0362 64.2493 67.4168 64.3003 67.7604C64.3515 68.1042 64.4413 68.4 64.5564 68.6475C64.6783 68.8963 64.8326 69.0893 65.0245 69.2278C65.2163 69.3662 65.4469 69.4349 65.7151 69.4349C66.2152 69.4349 66.5866 69.2125 66.836 68.7691C67.0857 68.3263 67.2076 67.6079 67.2076 66.6161C67.2076 66.2055 67.1822 65.8269 67.131 65.4784C67.0734 65.13 66.9901 64.8324 66.8682 64.5837C66.753 64.336 66.5932 64.143 66.4071 64.0044C66.2154 63.8661 65.9847 63.7973 65.7151 63.7973C65.2294 63.7973 64.8582 64.0215 64.6021 64.4698C64.346 64.918 64.2241 65.634 64.2241 66.6161L64.2239 66.6163ZM63.1416 66.6163C63.1416 65.3279 63.3655 64.3825 63.8137 63.7759C64.2561 63.1705 64.8901 62.8672 65.715 62.8672C66.5932 62.8672 67.246 63.1772 67.662 63.7975C68.0777 64.4173 68.2828 65.3571 68.2828 66.6163C68.2828 67.9131 68.0589 68.8625 67.6108 69.463C67.1618 70.0651 66.5287 70.3654 65.715 70.3654C64.8326 70.3654 64.185 70.0547 63.7693 69.4351C63.3536 68.8153 63.1416 67.8755 63.1416 66.6163Z" fill="white"/>
<path d="M73.1804 67.0007H70.6961V70.1914H69.666V63.0371H70.6961V66.0713H73.1804V63.0371H74.2172V70.1914H73.1804V67.0007Z" fill="white"/>
<path d="M78.9109 66.93C78.8144 66.9218 78.7191 66.9131 78.6294 66.9095C78.5329 66.9038 78.4376 66.9018 78.3411 66.9018C78.1172 66.9018 77.8932 66.9218 77.6757 66.9595C77.4573 66.9971 77.2656 67.0639 77.0928 67.1592C76.9265 67.255 76.7923 67.3832 76.689 67.546C76.5936 67.708 76.5417 67.9125 76.5417 68.1612C76.5417 68.5427 76.6315 68.8385 76.8177 69.0482C77.0031 69.2572 77.2401 69.363 77.5351 69.363C77.9318 69.363 78.2391 69.2677 78.4564 69.0767C78.674 68.8856 78.828 68.6766 78.911 68.4467V66.9304L78.9109 66.93ZM75.8251 63.4673C76.1001 63.2958 76.4393 63.1621 76.8365 63.0668C77.2332 62.9717 77.6494 62.9238 78.0916 62.9238C78.495 62.9238 78.8144 62.9831 79.0582 63.1027C79.3079 63.2214 79.4941 63.3842 79.6347 63.5888C79.7756 63.794 79.8645 64.0276 79.9098 64.2902C79.9542 64.5528 79.9741 64.826 79.9741 65.1132C79.9741 65.6851 79.9608 66.2435 79.9352 66.7867C79.9098 67.3301 79.8967 67.8452 79.8967 68.3321C79.8967 68.6946 79.9098 69.031 79.9352 69.3406C79.9606 69.6506 80.0063 69.9444 80.0762 70.2203H79.2633L79.0127 69.3765H78.9551C78.8142 69.6253 78.6036 69.84 78.3285 70.0206C78.0525 70.2015 77.6809 70.2928 77.2144 70.2928C76.7022 70.2928 76.2853 70.114 75.9526 69.7552C75.6266 69.3984 75.4658 68.9047 75.4658 68.2747C75.4658 67.865 75.5301 67.5214 75.6711 67.2445C75.8053 66.9684 76.0038 66.7443 76.2543 66.572C76.5037 66.4005 76.8044 66.279 77.1502 66.2065C77.4961 66.1357 77.8863 66.1 78.3089 66.1H78.5972C78.6937 66.1 78.789 66.1048 78.8977 66.1141C78.924 65.8195 78.9363 65.5567 78.9363 65.3269C78.9363 64.7834 78.8599 64.4021 78.6992 64.1827C78.5329 63.9632 78.2389 63.8531 77.8165 63.8531C77.5472 63.8531 77.259 63.8944 76.945 63.9756C76.6313 64.0564 76.3752 64.1593 76.1642 64.2827L75.8251 63.4671V63.4673Z" fill="white"/>
<path d="M84.7566 63.9676H83.1877C83.162 64.7786 83.1243 65.5632 83.0722 66.321C83.0278 67.0802 82.9448 67.7498 82.8229 68.3317C82.701 68.9136 82.5346 69.3781 82.3107 69.7265C82.0932 70.0749 81.7985 70.2491 81.4402 70.2491C81.2739 70.2491 81.1329 70.2395 81.0245 70.2209C80.909 70.2019 80.7996 70.169 80.7041 70.1221L80.8637 69.2328C81.0622 69.2894 81.2417 69.2782 81.4013 69.1963C81.5621 69.1152 81.6963 68.8677 81.8115 68.4513C81.927 68.0351 82.0167 67.4003 82.093 66.5441C82.1632 65.6883 82.214 64.5195 82.2406 63.0371H85.7875V70.1918H84.7564V63.9674L84.7566 63.9676Z" fill="white"/>
<path d="M88.5153 69.2611C88.8036 69.3188 89.0664 69.3467 89.3092 69.3467C90.2052 69.3467 90.654 68.875 90.654 67.9314C90.654 67.5022 90.5511 67.1658 90.3403 66.9229C90.1286 66.6789 89.7959 66.5574 89.3349 66.5574C89.213 66.5574 89.0788 66.5641 88.9312 66.5782C88.7906 66.5932 88.6497 66.6196 88.5155 66.6573V69.2613L88.5153 69.2611ZM88.5153 65.7701C88.7071 65.7325 88.8933 65.706 89.0597 65.6919C89.2327 65.6778 89.3991 65.6703 89.5521 65.6703C89.9555 65.6703 90.295 65.7258 90.571 65.8342C90.8461 65.9445 91.07 66.0951 91.2429 66.2853C91.416 66.4764 91.5434 66.7023 91.6209 66.9653C91.6975 67.2268 91.7364 67.5066 91.7364 67.8025C91.7364 68.6706 91.5246 69.2999 91.1023 69.6907C90.6799 70.0825 90.02 70.2774 89.1174 70.2774C88.5542 70.2774 88.0099 70.2491 87.4844 70.1917V63.0371H88.5155V65.7701H88.5153Z" fill="white"/>
<path d="M96.4162 67.0007H93.9313V70.1914H92.8945V63.0371H93.9313V66.0713H96.4162V63.0371H97.447V70.1914H96.4162V67.0007Z" fill="white"/>
<path d="M104.125 63.0391H105.156V70.1937H104.125V63.0391ZM100.162 69.2624C100.45 69.3197 100.712 69.3492 100.949 69.3492C101.41 69.3492 101.731 69.2276 101.916 68.9837C102.095 68.7408 102.185 68.3903 102.185 67.9328C102.185 67.5033 102.095 67.1673 101.922 66.9243C101.743 66.6812 101.429 66.5588 100.981 66.5588C100.852 66.5588 100.718 66.5662 100.577 66.5804C100.437 66.5945 100.296 66.6209 100.162 66.6595V69.2625L100.162 69.2624ZM100.162 65.7714C100.354 65.7335 100.533 65.7081 100.706 65.6931C100.879 65.679 101.046 65.6723 101.193 65.6723C101.59 65.6723 101.916 65.7271 102.185 65.8362C102.454 65.9454 102.665 66.0962 102.825 66.2873C102.985 66.4773 103.095 66.7046 103.165 66.9662C103.229 67.2291 103.261 67.5077 103.261 67.8034C103.261 68.6719 103.068 69.3018 102.684 69.6919C102.294 70.0836 101.648 70.2795 100.751 70.2795C100.194 70.2795 99.6564 70.2504 99.1309 70.1927V63.0391H100.162V65.7714H100.162Z" fill="white"/>
<path d="M108.26 60.1484C108.305 60.5873 108.427 60.8999 108.612 61.0855C108.798 61.2721 109.016 61.3653 109.266 61.3653C109.515 61.3653 109.733 61.2643 109.919 61.0648C110.104 60.8642 110.22 60.564 110.271 60.1627L111.058 60.3916C110.981 60.9642 110.776 61.4001 110.437 61.7015C110.098 62.002 109.695 62.1519 109.234 62.1519C109.016 62.1519 108.805 62.1217 108.6 62.0585C108.395 61.9973 108.203 61.8976 108.037 61.759C107.87 61.6206 107.73 61.4418 107.614 61.2224C107.499 61.0029 107.421 60.7355 107.383 60.4209L108.26 60.1488V60.1484ZM110.431 66.073L110.515 64.9853H110.457L109.957 66.1869L107.531 70.1931H106.853V63.0386H107.889V67.2888L107.8 68.3331H107.857L108.331 67.1595L110.79 63.0386H111.462V70.1931H110.431V66.0728L110.431 66.073Z" fill="white"/>
<path d="M119.644 63.9674H117.237V70.1917H116.199V63.0371H120.681V70.1917H119.644V63.9674Z" fill="white"/>
<path d="M123.409 69.0633C123.543 69.177 123.691 69.2675 123.864 69.3353C124.03 69.4024 124.254 69.4351 124.53 69.4351C125.036 69.4351 125.439 69.177 125.733 68.6628C126.035 68.1468 126.181 67.4122 126.181 66.4592C126.181 66.0578 126.156 65.6955 126.105 65.3715C126.047 65.0474 125.964 64.7678 125.848 64.5341C125.733 64.3008 125.586 64.119 125.413 63.9908C125.234 63.8619 125.016 63.7978 124.76 63.7978C124.062 63.7978 123.608 64.2215 123.409 65.0709V69.0631V69.0633ZM122.372 63.0386H123.109L123.268 63.812H123.326C123.679 63.182 124.235 62.8672 124.99 62.8672C125.746 62.8672 126.31 63.1487 126.688 63.711C127.071 64.2743 127.257 65.1953 127.257 66.4731C127.257 67.074 127.193 67.6153 127.071 68.0968C126.944 68.5789 126.771 68.9887 126.54 69.3278C126.309 69.6657 126.028 69.924 125.701 70.1001C125.368 70.277 125.003 70.3654 124.6 70.3654C124.325 70.3654 124.101 70.3475 123.94 70.3148C123.78 70.2817 123.601 70.2121 123.409 70.1076V73.0553H122.372V63.0386H122.372Z" fill="white"/>
<path d="M129.383 66.6163C129.383 67.0362 129.409 67.4168 129.46 67.7604C129.511 68.1042 129.601 68.4 129.722 68.6475C129.838 68.8963 129.998 69.0893 130.19 69.2278C130.376 69.3662 130.606 69.4349 130.874 69.4349C131.374 69.4349 131.746 69.2125 131.995 68.7691C132.245 68.3263 132.367 67.6079 132.367 66.6161C132.367 66.2055 132.341 65.8269 132.29 65.4784C132.238 65.13 132.149 64.8324 132.034 64.5837C131.912 64.336 131.758 64.143 131.566 64.0044C131.375 63.8661 131.144 63.7973 130.874 63.7973C130.389 63.7973 130.017 64.0215 129.761 64.4698C129.511 64.918 129.383 65.634 129.383 66.6161L129.383 66.6163ZM128.308 66.6163C128.308 65.3279 128.532 64.3825 128.973 63.7759C129.422 63.1705 130.055 62.8672 130.874 62.8672C131.758 62.8672 132.405 63.1772 132.821 63.7975C133.237 64.4173 133.449 65.3571 133.449 66.6163C133.449 67.9131 133.218 68.8625 132.77 69.463C132.321 70.0651 131.688 70.3654 130.874 70.3654C129.997 70.3654 129.344 70.0547 128.929 69.4351C128.513 68.8153 128.308 67.8755 128.308 66.6163Z" fill="white"/>
<path d="M138.314 65.8723C138.333 65.1565 138.231 64.632 138.013 64.2977C137.789 63.9643 137.488 63.7977 137.104 63.7977C136.669 63.7977 136.316 63.9643 136.06 64.2977C135.798 64.632 135.651 65.1565 135.6 65.8723H138.314ZM139.121 69.7074C138.89 69.9164 138.595 70.0782 138.243 70.1933C137.885 70.308 137.513 70.3654 137.123 70.3654C136.675 70.3654 136.284 70.277 135.951 70.1001C135.618 69.9238 135.349 69.6713 135.132 69.3419C134.914 69.0123 134.76 68.6196 134.658 68.1617C134.555 67.7031 134.511 67.1889 134.511 66.6163C134.511 65.395 134.735 64.4654 135.183 63.8261C135.631 63.1875 136.271 62.8672 137.091 62.8672C137.36 62.8672 137.628 62.9011 137.891 62.967C138.154 63.034 138.39 63.1677 138.602 63.3683C138.813 63.568 138.98 63.8495 139.107 64.2121C139.242 64.5746 139.306 65.0474 139.306 65.6284C139.306 65.7913 139.299 65.9646 139.281 66.1511C139.267 66.3373 139.248 66.5296 139.229 66.73H135.586C135.586 67.1406 135.618 67.5127 135.688 67.8462C135.752 68.1805 135.855 68.4648 136.002 68.6976C136.143 68.9313 136.329 69.1127 136.553 69.242C136.777 69.3708 137.058 69.4349 137.391 69.4349C137.654 69.4349 137.91 69.3869 138.159 69.2907C138.416 69.1965 138.608 69.0817 138.742 68.948L139.121 69.7072L139.121 69.7074Z" fill="white"/>
<path d="M142.322 66.9728H141.791V70.1918H140.753V63.0371H141.791V66.2712L142.278 66.0715L144.025 63.0371H145.132L143.423 65.9133L142.924 66.3859L143.538 66.9575L145.376 70.1918H144.14L142.322 66.9728Z" fill="white"/>
<path d="M150.043 63.9674H148.276V70.1917H147.245V63.9674H145.479V63.0371H150.043V63.9674Z" fill="white"/>
<path d="M43.7867 76.9422H41.3796V83.1662H40.3418V76.0117H44.8243V83.1662H43.7867V76.9422Z" fill="white"/>
<path d="M47.2767 79.5891C47.2767 80.0091 47.3025 80.3895 47.3601 80.7333C47.4109 81.0769 47.4942 81.3727 47.6162 81.6203C47.7381 81.8688 47.8913 82.062 48.0839 82.2005C48.2757 82.339 48.5063 82.4076 48.7749 82.4076C49.268 82.4076 49.6464 82.1855 49.8957 81.7418C50.1387 81.2991 50.267 80.5806 50.267 79.5891C50.267 79.1784 50.2416 78.7998 50.184 78.4514C50.1319 78.103 50.0488 77.8054 49.9279 77.5567C49.806 77.309 49.6519 77.116 49.4602 76.9774C49.268 76.8389 49.0377 76.7703 48.7749 76.7703C48.2824 76.7703 47.9112 76.9945 47.6608 77.4428C47.4047 77.891 47.2769 78.6068 47.2769 79.5891H47.2767ZM46.2013 79.5891C46.2013 78.3008 46.4253 77.3553 46.8666 76.7488C47.3156 76.1431 47.9488 75.8398 48.7747 75.8398C49.6517 75.8398 50.299 76.1509 50.715 76.7705C51.1307 77.3912 51.3424 78.3301 51.3424 79.5893C51.3424 80.8859 51.1184 81.8352 50.6694 82.436C50.2148 83.0377 49.5881 83.3384 48.7745 83.3384C47.8909 83.3384 47.2446 83.0274 46.8285 82.4078C46.412 81.7881 46.2012 80.8482 46.2012 79.5893L46.2013 79.5891Z" fill="white"/>
<path d="M59.2105 76.9422H56.7967V83.1662H55.7656V76.0117H60.2416V83.1662H59.2105V76.9422Z" fill="white"/>
<path d="M62.6997 79.5891C62.6997 80.0091 62.7252 80.3895 62.7763 80.7333C62.8284 81.0769 62.9169 81.3727 63.0392 81.6203C63.1543 81.8688 63.3141 82.062 63.5002 82.2005C63.692 82.339 63.9226 82.4076 64.1919 82.4076C64.6909 82.4076 65.0625 82.1855 65.312 81.7418C65.5614 81.2991 65.6833 80.5806 65.6833 79.5891C65.6833 79.1784 65.6579 78.7998 65.6069 78.4514C65.5546 78.103 65.4659 77.8054 65.3504 77.5567C65.2285 77.309 65.0744 77.116 64.8827 76.9774C64.6909 76.8389 64.4602 76.7703 64.1917 76.7703C63.7053 76.7703 63.3337 76.9945 63.0776 77.4428C62.8282 77.891 62.6996 78.6068 62.6996 79.5891H62.6997ZM61.6242 79.5891C61.6242 78.3008 61.8417 77.3553 62.2896 76.7488C62.7387 76.1431 63.3717 75.8398 64.1919 75.8398C65.0746 75.8398 65.722 76.1509 66.1379 76.7705C66.5536 77.3912 66.7656 78.3301 66.7656 79.5893C66.7656 80.8859 66.5349 81.8352 66.087 82.436C65.6388 83.0377 65.0048 83.3384 64.1919 83.3384C63.314 83.3384 62.6608 83.0274 62.245 82.4078C61.8293 81.7881 61.624 80.8482 61.624 79.5893L61.6242 79.5891Z" fill="white"/>
<path d="M71.4847 82.2357V76.942H69.8649C69.8462 77.3526 69.8204 77.7999 69.7883 78.2869C69.7497 78.7728 69.7053 79.2579 69.6342 79.7391C69.5699 80.2212 69.4869 80.6817 69.3914 81.1198C69.2949 81.5584 69.1862 81.9305 69.0577 82.2357H71.4847ZM73.3673 84.9837H72.6499L72.4771 83.166H68.2261L68.0399 84.9837H67.3359V82.2357H68.0145C68.072 82.1311 68.1486 81.9381 68.2515 81.6564C68.348 81.375 68.45 80.9851 68.5465 80.4831C68.642 79.9821 68.7252 79.3643 68.7959 78.6308C68.8657 77.8961 68.9114 77.0232 68.9178 76.0117H72.5224V82.2357H73.3673V84.9837Z" fill="white"/>
<path d="M77.7904 82.2357V76.942H76.1705C76.1515 77.3526 76.1193 77.7999 76.0875 78.2869C76.0554 78.7728 76.0042 79.2579 75.9399 79.7391C75.87 80.2212 75.7925 80.6817 75.6971 81.1198C75.6006 81.5584 75.4852 81.9305 75.3633 82.2357H77.7904ZM79.673 84.9837H78.9555L78.7828 83.166H74.5318L74.3455 84.9837H73.6416V82.2357H74.3136C74.3711 82.1311 74.4545 81.9381 74.5506 81.6564C74.6537 81.375 74.7491 80.9851 74.8456 80.4831C74.9411 79.9821 75.0243 79.3643 75.1017 78.6308C75.1716 77.8961 75.2105 77.0232 75.2228 76.0117H78.8213V82.2357H79.673V84.9837Z" fill="white"/>
<path d="M84.2385 78.8451C84.2575 78.1293 84.1555 77.6048 83.9382 77.2705C83.7198 76.9371 83.4125 76.7703 83.0345 76.7703C82.5932 76.7703 82.2406 76.9371 81.9845 77.2705C81.7285 77.6048 81.5752 78.1293 81.5242 78.8451H84.2384H84.2385ZM85.0457 82.6798C84.815 82.8889 84.5204 83.0508 84.1678 83.1658C83.8097 83.2809 83.4381 83.3382 83.0476 83.3382C82.5998 83.3382 82.2086 83.2497 81.8758 83.0725C81.5498 82.8963 81.2739 82.644 81.0563 82.3144C80.8447 81.9858 80.6851 81.5921 80.5829 81.1344C80.4864 80.6757 80.4355 80.1615 80.4355 79.589C80.4355 78.3675 80.6595 77.4378 81.1075 76.7984C81.5554 76.1598 82.1962 75.8398 83.0155 75.8398C83.2851 75.8398 83.5534 75.8728 83.8163 75.9405C84.0787 76.0065 84.3151 76.1402 84.5268 76.3409C84.7376 76.5415 84.9051 76.823 85.0326 77.1845C85.1668 77.5473 85.2311 78.0201 85.2311 78.6009C85.2311 78.7641 85.2243 78.9373 85.2053 79.1236C85.1922 79.3102 85.1799 79.5021 85.161 79.7028H81.5109C81.5109 80.1135 81.5431 80.4853 81.6129 80.8187C81.6773 81.1532 81.7793 81.4375 81.9266 81.6701C82.0675 81.9038 82.2538 82.0855 82.4777 82.2144C82.7016 82.3437 82.9835 82.4078 83.316 82.4078C83.5788 82.4078 83.8349 82.3597 84.0843 82.2644C84.3404 82.1693 84.5333 82.0545 84.6675 81.9208L85.0455 82.6798H85.0457Z" fill="white"/>
<path d="M87.7143 82.0347C87.8484 82.1495 87.9961 82.2399 88.1625 82.3068C88.3352 82.3738 88.5536 82.4078 88.8351 82.4078C89.3409 82.4078 89.7443 82.1496 90.0383 81.6344C90.3333 81.1194 90.4861 80.3848 90.4861 79.4308C90.4861 79.0307 90.455 78.6681 90.4031 78.3432C90.352 78.0201 90.269 77.7404 90.1538 77.5059C90.0383 77.2731 89.891 77.0913 89.7179 76.9624C89.5392 76.8342 89.3212 76.7703 89.059 76.7703C88.3606 76.7703 87.9128 77.1942 87.7143 78.0437V82.0349V82.0347ZM86.6768 76.0111H87.4141L87.5671 76.7843H87.6247C87.984 76.1543 88.5339 75.8398 89.2899 75.8398C90.045 75.8398 90.615 76.1214 90.993 76.6836C91.3701 77.2466 91.5627 78.1669 91.5627 79.4447C91.5627 80.0456 91.4987 80.5882 91.3765 81.0694C91.2491 81.5516 91.0696 81.9611 90.8455 82.3001C90.6148 82.6383 90.3333 82.8964 90.0006 83.0724C89.6734 83.2486 89.3089 83.3372 88.9052 83.3372C88.6236 83.3372 88.4063 83.3201 88.2456 83.2872C88.0793 83.2541 87.9062 83.1845 87.7144 83.0798V86.0275H86.6769V76.0111H86.6768Z" fill="white"/>
<path d="M94.7769 80.0038L93.1703 83.1662H92.0049L93.7714 79.8899L94.1625 79.4607L93.5729 78.9163L92.1392 76.0117H93.2279L94.7193 79.1026H95.3081V76.0117H96.3456V79.2456L96.8768 79.0452L98.3691 76.0117H99.4447L97.9403 78.9163L97.4789 79.3738L98.0677 79.9474L99.7198 83.1662H98.5223L96.9157 79.9474H96.3456V83.1662H95.3081V79.8034L94.7769 80.0038Z" fill="white"/>
<path d="M102.127 79.9471H101.596V83.166H100.564V76.0117H101.596V79.2456L102.088 79.0451L103.836 76.0117H104.944L103.234 78.8879L102.735 79.3607L103.35 79.9323L105.187 83.166H103.952L102.127 79.9471Z" fill="white"/>
<path d="M109.496 78.8451C109.515 78.1293 109.413 77.6048 109.196 77.2705C108.972 76.9371 108.67 76.7703 108.287 76.7703C107.851 76.7703 107.499 76.9371 107.243 77.2705C106.981 77.6048 106.833 78.1293 106.782 78.8451H109.496ZM110.303 82.6798C110.073 82.8889 109.778 83.0508 109.426 83.1658C109.067 83.2809 108.696 83.3382 108.305 83.3382C107.858 83.3382 107.467 83.2497 107.134 83.0725C106.801 82.8963 106.532 82.644 106.314 82.3144C106.102 81.9858 105.943 81.5921 105.841 81.1344C105.738 80.6757 105.693 80.1615 105.693 79.589C105.693 78.3675 105.917 77.4378 106.365 76.7984C106.813 76.1598 107.454 75.8398 108.273 75.8398C108.543 75.8398 108.811 75.8728 109.074 75.9405C109.337 76.0065 109.573 76.1402 109.784 76.3409C109.995 76.5415 110.162 76.823 110.29 77.1845C110.424 77.5473 110.489 78.0201 110.489 78.6009C110.489 78.7641 110.482 78.9373 110.463 79.1236C110.45 79.3102 110.431 79.5021 110.412 79.7028H106.769C106.769 80.1135 106.801 80.4853 106.871 80.8187C106.935 81.1532 107.038 81.4375 107.184 81.6701C107.325 81.9038 107.512 82.0855 107.736 82.2144C107.959 82.3437 108.241 82.4078 108.575 82.4078C108.837 82.4078 109.093 82.3597 109.342 82.2644C109.598 82.1693 109.791 82.0545 109.925 81.9208L110.303 82.6798H110.303Z" fill="white"/>
<path d="M119.747 78.9163L119.849 77.5572H119.791L119.362 78.773L118.024 81.5201H117.653L116.257 78.773L115.873 77.5572H115.796L115.911 78.902V83.1662H114.983V76.0117H116.013L117.582 79.1167L117.896 80.0463H117.922L118.267 79.0885L119.721 76.0117H120.783V83.1662H119.747V78.9163Z" fill="white"/>
<path d="M125.49 79.9037C125.393 79.8944 125.305 79.8868 125.208 79.8821C125.112 79.8773 125.016 79.8747 124.927 79.8747C124.696 79.8747 124.472 79.8945 124.255 79.9331C124.036 79.9707 123.844 80.0375 123.678 80.1325C123.505 80.2278 123.371 80.3567 123.268 80.5195C123.173 80.6815 123.121 80.886 123.121 81.1346C123.121 81.5161 123.217 81.8116 123.397 82.0217C123.582 82.2307 123.819 82.3362 124.114 82.3362C124.511 82.3362 124.818 82.241 125.035 82.0499C125.253 81.8589 125.407 81.6486 125.49 81.42V79.9037ZM122.404 76.4409C122.679 76.2693 123.019 76.1358 123.415 76.0405C123.812 75.9454 124.235 75.8975 124.671 75.8975C125.074 75.8975 125.4 75.9567 125.644 76.0763C125.887 76.1959 126.079 76.3579 126.214 76.5624C126.355 76.7676 126.443 77.0013 126.489 77.2639C126.533 77.5265 126.553 77.7996 126.553 78.0868C126.553 78.6584 126.54 79.2168 126.514 79.7603C126.489 80.3036 126.482 80.8188 126.482 81.3057C126.482 81.6683 126.489 82.0046 126.514 82.3143C126.54 82.6243 126.585 82.918 126.655 83.1939H125.842L125.592 82.3501H125.534C125.393 82.5989 125.182 82.8136 124.908 82.9942C124.631 83.1751 124.26 83.2664 123.8 83.2664C123.288 83.2664 122.864 83.0866 122.538 82.7288C122.211 82.3717 122.045 81.8783 122.045 81.2484C122.045 80.8386 122.116 80.495 122.25 80.2179C122.391 79.9423 122.583 79.7179 122.833 79.5458C123.089 79.3743 123.383 79.2527 123.736 79.1803C124.082 79.1095 124.465 79.0738 124.894 79.0738H125.176C125.272 79.0738 125.374 79.0786 125.476 79.0879C125.503 78.7921 125.522 78.5295 125.522 78.3007C125.522 77.7572 125.439 77.3759 125.278 77.1565C125.118 76.937 124.824 76.8269 124.395 76.8269C124.133 76.8269 123.838 76.8683 123.531 76.9494C123.217 77.0302 122.954 77.1327 122.743 77.2565L122.404 76.4409H122.404Z" fill="white"/>
<path d="M131.335 76.9422H129.766C129.74 77.7529 129.702 78.5374 129.657 79.2956C129.606 80.0546 129.523 80.7244 129.401 81.3063C129.286 81.8882 129.113 82.3525 128.895 82.7008C128.671 83.0493 128.383 83.2234 128.018 83.2234C127.852 83.2234 127.717 83.2141 127.603 83.1951C127.487 83.1765 127.378 83.1433 127.282 83.0964L127.442 82.2074C127.647 82.264 127.827 82.2526 127.98 82.1706C128.14 82.0898 128.274 81.842 128.39 81.4259C128.505 81.0097 128.601 80.3737 128.671 79.5187C128.741 78.6625 128.793 77.4939 128.825 76.0117H132.366V83.1662H131.335V76.9422Z" fill="white"/>
<path d="M134.825 79.5891C134.825 80.0091 134.85 80.3895 134.901 80.7333C134.952 81.0769 135.042 81.3727 135.164 81.6203C135.279 81.8688 135.439 82.062 135.632 82.2005C135.817 82.339 136.048 82.4076 136.316 82.4076C136.816 82.4076 137.187 82.1855 137.437 81.7418C137.686 81.2991 137.808 80.5806 137.808 79.5891C137.808 79.1784 137.783 78.7998 137.732 78.4514C137.68 78.103 137.591 77.8054 137.476 77.5567C137.354 77.309 137.2 77.116 137.008 76.9774C136.816 76.8389 136.585 76.7703 136.316 76.7703C135.829 76.7703 135.459 76.9945 135.203 77.4428C134.952 77.891 134.825 78.6068 134.825 79.5891H134.825ZM133.749 79.5891C133.749 78.3008 133.973 77.3553 134.414 76.7488C134.863 76.1431 135.497 75.8398 136.316 75.8398C137.199 75.8398 137.847 76.1509 138.263 76.7705C138.678 77.3912 138.89 78.3301 138.89 79.5893C138.89 80.8859 138.659 81.8352 138.212 82.436C137.762 83.0377 137.129 83.3384 136.316 83.3384C135.439 83.3384 134.786 83.0274 134.37 82.4078C133.954 81.7881 133.749 80.8482 133.749 79.5893V79.5891Z" fill="white"/>
<path d="M143.686 76.9422H141.298V83.1662H140.267V76.0117H143.686V76.9422Z" fill="white"/>
<path d="M145.107 79.5891C145.107 80.0091 145.133 80.3895 145.183 80.7333C145.235 81.0769 145.324 81.3727 145.44 81.6203C145.561 81.8688 145.715 82.062 145.907 82.2005C146.099 82.339 146.33 82.4076 146.599 82.4076C147.098 82.4076 147.47 82.1855 147.719 81.7418C147.969 81.2991 148.091 80.5806 148.091 79.5891C148.091 79.1784 148.065 78.7998 148.014 78.4514C147.963 78.103 147.873 77.8054 147.751 77.5567C147.636 77.309 147.476 77.116 147.29 76.9774C147.098 76.8389 146.868 76.7703 146.599 76.7703C146.113 76.7703 145.741 76.9945 145.485 77.4428C145.235 77.891 145.107 78.6068 145.107 79.5891ZM144.031 79.5891C144.031 78.3008 144.249 77.3553 144.698 76.7488C145.139 76.1431 145.773 75.8398 146.599 75.8398C147.476 75.8398 148.129 76.1509 148.545 76.7705C148.961 77.3912 149.166 78.3301 149.166 79.5893C149.166 80.8859 148.942 81.8352 148.494 82.436C148.046 83.0377 147.412 83.3384 146.599 83.3384C145.715 83.3384 145.069 83.0274 144.652 82.4078C144.236 81.7881 144.031 80.8482 144.031 79.5893L144.031 79.5891Z" fill="white"/>
<path d="M55.4777 92.0177L55.5607 90.9309H55.5031L55.004 92.1326L52.5771 96.139H51.8984V88.9844H52.9353V93.2345L52.8531 94.2789H52.9041L53.3776 93.1057L55.8358 88.9844H56.5088V96.139H55.4777V92.0177Z" fill="white"/>
<path d="M65.2099 95.7805C64.9728 95.9613 64.6977 96.095 64.397 96.1806C64.0889 96.2663 63.7697 96.3095 63.4302 96.3095C62.9748 96.3095 62.5845 96.2211 62.2708 96.045C61.9513 95.8688 61.6952 95.6155 61.5026 95.2869C61.304 94.9574 61.1631 94.5618 61.0678 94.0995C60.9781 93.6372 60.9326 93.1237 60.9326 92.5616C60.9326 91.3401 61.151 90.4096 61.5857 89.7704C62.0213 89.1318 62.649 88.8125 63.4619 88.8125C63.8331 88.8125 64.1536 88.8454 64.4231 88.9123C64.6913 88.979 64.922 89.0648 65.1138 89.1702L64.8255 90.0714C64.4418 89.8512 64.0261 89.7428 63.577 89.7428C63.0592 89.7428 62.6678 89.9689 62.406 90.4219C62.1436 90.8749 62.0094 91.5888 62.0094 92.5614C62.0094 92.9522 62.0415 93.3186 62.0981 93.6632C62.1557 94.0059 62.2522 94.3037 62.3863 94.557C62.515 94.8096 62.6879 95.01 62.8985 95.1578C63.1102 95.3057 63.373 95.3803 63.6926 95.3803C63.9428 95.3803 64.1726 95.3367 64.3842 95.251C64.6014 95.1654 64.7745 95.0648 64.9096 94.9507L65.2101 95.7804L65.2099 95.7805Z" fill="white"/>
<path d="M67.3934 95.0076C67.5276 95.1223 67.6817 95.2128 67.848 95.2796C68.0144 95.3467 68.2383 95.3806 68.5143 95.3806C69.0201 95.3806 69.4224 95.1225 69.7242 94.6073C70.0188 94.0922 70.1655 93.3577 70.1655 92.4036C70.1655 92.0035 70.14 91.641 70.089 91.316C70.0378 90.9929 69.9548 90.7133 69.8393 90.4786C69.7242 90.2453 69.5765 90.0643 69.397 89.9353C69.2243 89.8071 69.0067 89.7431 68.7441 89.7431C68.0465 89.7431 67.5985 90.167 67.3934 91.0165V95.0077V95.0076ZM66.3625 88.984H67.0927L67.2527 89.7562H67.3102C67.6628 89.127 68.2194 88.8125 68.9744 88.8125C69.7307 88.8125 70.3005 89.0941 70.6775 89.6563C71.0555 90.2192 71.2417 91.1395 71.2417 92.4174C71.2417 93.0182 71.1833 93.5596 71.0555 94.0421C70.9336 94.5232 70.7551 94.9338 70.5244 95.2727C70.2938 95.611 70.0187 95.8689 69.6851 96.045C69.3524 96.2213 68.9877 96.3095 68.5907 96.3095C68.3092 96.3095 68.0908 96.2926 67.9244 96.2596C67.7648 96.2266 67.585 96.157 67.3932 96.0524V98.9993H66.3623V88.9836L66.3625 88.984Z" fill="white"/>
<path d="M76.094 91.8169C76.1127 91.102 76.0174 90.5775 75.7935 90.2432C75.5751 89.9089 75.2745 89.7431 74.8898 89.7431C74.4485 89.7431 74.1025 89.9089 73.8398 90.2432C73.5837 90.5775 73.4305 91.102 73.3852 91.8169H76.094ZM76.9001 95.6516C76.6703 95.8617 76.3821 96.0238 76.0231 96.1386C75.6715 96.2527 75.3001 96.31 74.9033 96.31C74.4551 96.31 74.0639 96.2215 73.738 96.0455C73.4053 95.8693 73.1293 95.616 72.9185 95.2874C72.7001 94.9578 72.5405 94.5651 72.444 94.1074C72.342 93.6487 72.291 93.1335 72.291 92.562C72.291 91.3405 72.5149 90.41 72.9695 89.7704C73.4174 89.1318 74.0517 88.8125 74.8775 88.8125C75.1459 88.8125 75.4087 88.8456 75.6716 88.9123C75.934 88.9793 76.1704 89.113 76.3821 89.3136C76.5929 89.5133 76.766 89.7948 76.8946 90.1574C77.022 90.5199 77.0864 90.9927 77.0864 91.5738C77.0864 91.7366 77.0796 91.9099 77.0673 92.0964C77.0542 92.2826 77.0352 92.4749 77.0165 92.6753H73.3664C73.3664 93.0851 73.4053 93.4569 73.4684 93.7916C73.5327 94.1258 73.6415 94.4093 73.7824 94.6429C73.9298 94.8766 74.116 95.0584 74.3399 95.1862C74.5638 95.3155 74.8454 95.3803 75.1782 95.3803C75.4343 95.3803 75.6904 95.3322 75.9465 95.236C76.1962 95.1409 76.3943 95.027 76.5297 94.8933L76.9003 95.6515L76.9001 95.6516Z" fill="white"/>
<path d="M81.6518 95.2084V89.9147H80.0319C80.0132 90.3253 79.9874 90.7726 79.9554 91.2595C79.9165 91.7455 79.8653 92.2305 79.8014 92.7118C79.737 93.1939 79.6537 93.6543 79.5584 94.0921C79.4619 94.531 79.3532 94.9032 79.2248 95.2084H81.6518ZM83.5343 97.9564H82.8172L82.6441 96.1387H78.3931L78.2069 97.9564H77.5029V95.2084H78.1815C78.239 95.1038 78.3156 94.9108 78.4185 94.6291C78.5141 94.3475 78.617 93.9565 78.7135 93.4558C78.809 92.9547 78.8922 92.337 78.9629 91.6035C79.0327 90.8688 79.0716 89.9958 79.0839 88.9844H82.6886V95.2084H83.5343V97.9564Z" fill="white"/>
<path d="M88.1309 92.9473H85.646V96.138H84.6094V88.9844H85.646V92.017H88.1309V88.9844H89.162V96.138H88.1309V92.9473Z" fill="white"/>
<path d="M94.3349 91.8169C94.354 91.102 94.2519 90.5775 94.028 90.2432C93.8096 89.9089 93.5091 89.7431 93.1254 89.7431C92.683 89.7431 92.3372 89.9089 92.0754 90.2432C91.8183 90.5775 91.6651 91.102 91.6208 91.8169H94.3349ZM95.1354 95.6516C94.905 95.8617 94.6168 96.0238 94.2585 96.1386C93.9059 96.2527 93.5343 96.31 93.1377 96.31C92.6898 96.31 92.2994 96.2215 91.9724 96.0455C91.6397 95.8693 91.3647 95.616 91.1529 95.2874C90.9357 94.9578 90.7817 94.5651 90.6795 94.1074C90.5764 93.6487 90.5254 93.1335 90.5254 92.562C90.5254 91.3405 90.7493 90.41 91.2039 89.7704C91.6518 89.1318 92.286 88.8125 93.1121 88.8125C93.3813 88.8125 93.6431 88.8456 93.9059 88.9123C94.1752 88.9793 94.4114 89.113 94.6166 89.3136C94.8272 89.5133 95.0003 89.7948 95.1288 90.1574C95.2562 90.5199 95.3206 90.9927 95.3206 91.5738C95.3206 91.7366 95.3138 91.9099 95.3015 92.0964C95.2884 92.2826 95.2694 92.4749 95.2507 92.6753H91.6009C91.6009 93.0851 91.6395 93.4569 91.7038 93.7916C91.7737 94.1258 91.8759 94.4093 92.0175 94.6429C92.164 94.8766 92.3502 95.0584 92.5741 95.1862C92.798 95.3155 93.0799 95.3803 93.4124 95.3803C93.6685 95.3803 93.9246 95.3322 94.1807 95.236C94.4368 95.1409 94.6298 95.027 94.7639 94.8933L95.1352 95.6515L95.1354 95.6516Z" fill="white"/>
<path d="M100.194 89.915H97.8054V96.139H96.7744V88.9844H100.194V89.915Z" fill="white"/>
<path d="M101.615 92.5616C101.615 92.9815 101.641 93.3622 101.692 93.7058C101.743 94.0495 101.833 94.3454 101.948 94.5931C102.07 94.8416 102.223 95.0348 102.416 95.1733C102.608 95.3117 102.838 95.3804 103.107 95.3804C103.607 95.3804 103.978 95.158 104.228 94.7146C104.477 94.272 104.599 93.5541 104.599 92.5616C104.599 92.151 104.573 91.7724 104.522 91.4242C104.47 91.0756 104.382 90.7779 104.26 90.5294C104.144 90.2816 103.985 90.0886 103.798 89.9504C103.607 89.8119 103.376 89.743 103.107 89.743C102.62 89.743 102.249 89.9671 101.993 90.4155C101.737 90.864 101.615 91.5796 101.615 92.5618V92.5616ZM100.533 92.5616C100.533 91.2732 100.757 90.3278 101.205 89.7213C101.647 89.1158 102.281 88.8125 103.107 88.8125C103.985 88.8125 104.638 89.1232 105.054 89.7428C105.469 90.3635 105.675 91.3024 105.675 92.5616C105.675 93.8584 105.451 94.8078 105.002 95.4087C104.554 96.0104 103.92 96.3099 103.107 96.3099C102.223 96.3099 101.577 96.0009 101.161 95.3803C100.745 94.7605 100.533 93.8207 100.533 92.5614L100.533 92.5616Z" fill="white"/>
<path d="M110.86 92.5762C110.86 92.967 110.885 93.3324 110.943 93.6703C111 94.0094 111.097 94.3051 111.218 94.5574C111.34 94.81 111.5 95.0104 111.685 95.1582C111.871 95.3061 112.096 95.3807 112.351 95.3807C112.851 95.3807 113.222 95.147 113.471 94.6799C113.721 94.2119 113.843 93.4866 113.843 92.5045C113.843 91.7229 113.741 91.0993 113.529 90.6368C113.319 90.1745 112.973 89.9438 112.498 89.9438C111.929 89.9438 111.519 90.1718 111.256 90.6304C110.988 91.0872 110.86 91.737 110.86 92.576L110.86 92.5762ZM110.719 90.201C110.962 89.7529 111.243 89.442 111.551 89.2707C111.852 89.0991 112.236 89.0133 112.697 89.0133C113.407 89.0133 113.952 89.2904 114.342 89.843C114.727 90.397 114.925 91.2501 114.925 92.4047C114.925 93.7306 114.695 94.7131 114.247 95.3524C113.799 95.991 113.171 96.3103 112.371 96.3103C111.935 96.3103 111.557 96.2272 111.238 96.0606C110.917 95.8938 110.649 95.631 110.437 95.2733C110.22 94.9153 110.059 94.45 109.951 93.8785C109.835 93.3059 109.784 92.6148 109.784 91.8037C109.784 90.9825 109.816 90.2819 109.893 89.6998C109.964 89.1189 110.066 88.6263 110.193 88.2259C110.322 87.8258 110.476 87.5065 110.661 87.2673C110.841 87.0288 111.045 86.8407 111.275 86.7021C111.506 86.5638 111.756 86.4668 112.031 86.4092C112.3 86.3518 112.595 86.3037 112.895 86.2662C113.299 86.2181 113.619 86.1607 113.862 86.0937C114.099 86.0277 114.291 85.9129 114.432 85.751L114.509 86.738C114.432 86.8191 114.342 86.8868 114.247 86.9425C114.15 86.999 114.035 87.0461 113.901 87.0867C113.767 87.127 113.613 87.1601 113.439 87.1844C113.26 87.2108 113.049 87.2325 112.812 87.2533C112.486 87.2816 112.205 87.3438 111.961 87.44C111.711 87.5351 111.506 87.6893 111.327 87.905C111.148 88.1189 111.007 88.4128 110.904 88.7847C110.796 89.1568 110.726 89.6285 110.687 90.201H110.719H110.719Z" fill="white"/>
<path d="M119.874 92.0177L119.964 90.9309H119.906L119.401 92.1326L116.974 96.139H116.302V88.9844H117.332V93.2345L117.249 94.2789H117.306L117.781 93.1057L120.232 88.9844H120.912V96.139H119.874V92.0177Z" fill="white"/>
<path d="M123.153 92.9048V92.046H123.94C124.075 92.046 124.21 92.0159 124.337 91.9528C124.466 91.8915 124.581 91.8075 124.676 91.7031C124.779 91.5985 124.862 91.4762 124.927 91.3377C124.983 91.2002 125.015 91.0542 125.015 90.9017C125.015 90.5295 124.92 90.2576 124.722 90.0862C124.529 89.9147 124.228 89.8281 123.825 89.8281C123.531 89.8281 123.255 89.8713 123.012 89.9569C122.769 90.0426 122.583 90.1342 122.448 90.2292L122.147 89.4126C122.384 89.261 122.666 89.1369 122.986 89.0408C123.307 88.9457 123.671 88.8984 124.081 88.8984C124.715 88.8984 125.202 89.0433 125.541 89.3335C125.88 89.6237 126.053 90.0596 126.053 90.6398C126.053 91.0015 125.957 91.3349 125.778 91.639C125.598 91.9431 125.349 92.1616 125.028 92.2955V92.3529C125.47 92.4584 125.79 92.6591 125.977 92.9546C126.168 93.2515 126.264 93.6432 126.264 94.1299C126.264 94.7335 126.065 95.2375 125.663 95.6433C125.259 96.0501 124.644 96.2528 123.812 96.2528C123.427 96.2528 123.108 96.2169 122.839 96.1453C122.576 96.0738 122.34 95.9816 122.128 95.8666L122.403 94.9796C122.583 95.0937 122.8 95.1802 123.051 95.2367C123.3 95.2941 123.556 95.3235 123.825 95.3235C124.292 95.3235 124.644 95.2122 124.881 94.9901C125.118 94.7676 125.234 94.4496 125.234 94.0341C125.234 93.6876 125.124 93.4126 124.9 93.2093C124.683 93.0066 124.311 92.905 123.799 92.905H123.153V92.9048Z" fill="white"/>
<path d="M131.162 92.9473H128.678V96.138H127.647V88.9844H128.678V92.017H131.162V88.9844H132.199V96.138H131.162V92.9473Z" fill="white"/>
<path d="M137.367 91.8169C137.385 91.102 137.283 90.5775 137.066 90.2432C136.841 89.9089 136.541 89.7431 136.162 89.7431C135.721 89.7431 135.369 89.9089 135.112 90.2432C134.856 90.5775 134.703 91.102 134.652 91.8169H137.366H137.367ZM138.174 95.6516C137.943 95.8617 137.648 96.0238 137.296 96.1386C136.937 96.2527 136.566 96.31 136.176 96.31C135.728 96.31 135.336 96.2215 135.004 96.0455C134.671 95.8693 134.402 95.616 134.184 95.2874C133.973 94.9578 133.813 94.5651 133.711 94.1074C133.608 93.6487 133.563 93.1335 133.563 92.562C133.563 91.3405 133.787 90.41 134.235 89.7704C134.684 89.1318 135.324 88.8125 136.144 88.8125C136.413 88.8125 136.681 88.8456 136.944 88.9123C137.207 88.9793 137.443 89.113 137.655 89.3136C137.865 89.5133 138.033 89.7948 138.16 90.1574C138.294 90.5199 138.359 90.9927 138.359 91.5738C138.359 91.7366 138.352 91.9099 138.333 92.0964C138.32 92.2826 138.301 92.4749 138.282 92.6753H134.639C134.639 93.0851 134.671 93.4569 134.741 93.7916C134.805 94.1258 134.908 94.4093 135.055 94.6429C135.195 94.8766 135.382 95.0584 135.606 95.1862C135.83 95.3155 136.111 95.3803 136.444 95.3803C136.706 95.3803 136.963 95.3322 137.212 95.236C137.468 95.1409 137.661 95.027 137.795 94.8933L138.173 95.6515L138.174 95.6516Z" fill="white"/>
<path d="M143.654 95.7805C143.416 95.9613 143.141 96.095 142.834 96.1806C142.533 96.2663 142.207 96.3095 141.874 96.3095C141.413 96.3095 141.028 96.2211 140.715 96.045C140.395 95.8688 140.139 95.6155 139.947 95.2869C139.747 94.9574 139.601 94.5618 139.511 94.0995C139.421 93.6372 139.377 93.1237 139.377 92.5616C139.377 91.3401 139.594 90.4096 140.03 89.7704C140.465 89.1318 141.092 88.8125 141.906 88.8125C142.277 88.8125 142.597 88.8454 142.866 88.9123C143.135 88.979 143.365 89.0648 143.557 89.1702L143.27 90.0714C142.885 89.8512 142.47 89.7428 142.022 89.7428C141.503 89.7428 141.111 89.9689 140.85 90.4219C140.587 90.8749 140.453 91.5888 140.453 92.5614C140.453 92.9522 140.485 93.3186 140.543 93.6632C140.6 94.0059 140.696 94.3037 140.824 94.557C140.958 94.8096 141.131 95.01 141.342 95.1578C141.554 95.3057 141.816 95.3803 142.136 95.3803C142.38 95.3803 142.617 95.3367 142.828 95.251C143.045 95.1654 143.218 95.0648 143.353 94.9507L143.654 95.7804L143.654 95.7805Z" fill="white"/>
<path d="M147.822 92.8761C147.725 92.8665 147.63 92.8591 147.533 92.8546C147.438 92.8498 147.348 92.8469 147.252 92.8469C147.021 92.8469 146.804 92.8667 146.587 92.9053C146.368 92.9428 146.17 93.0099 146.004 93.105C145.831 93.2001 145.696 93.3291 145.6 93.492C145.498 93.6539 145.453 93.8583 145.453 94.1071C145.453 94.4883 145.542 94.7841 145.729 94.9942C145.914 95.2032 146.151 95.3086 146.445 95.3086C146.843 95.3086 147.15 95.2135 147.367 95.0224C147.584 94.831 147.732 94.6211 147.822 94.3921V92.8761H147.822ZM144.729 89.4132C145.011 89.2418 145.344 89.1081 145.741 89.0131C146.144 88.9179 146.56 88.8701 147.002 88.8701C147.406 88.8701 147.725 88.9294 147.969 89.049C148.212 89.1686 148.405 89.3305 148.546 89.5349C148.68 89.7401 148.775 89.9738 148.814 90.2364C148.858 90.4993 148.885 90.7724 148.885 91.0597C148.885 91.6312 148.872 92.1897 148.846 92.7331C148.821 93.2764 148.807 93.7916 148.807 94.2786C148.807 94.6411 148.821 94.9771 148.846 95.2871C148.872 95.5967 148.917 95.8907 148.98 96.1667H148.174L147.924 95.3229H147.866C147.72 95.5714 147.514 95.7865 147.239 95.967C146.963 96.1478 146.592 96.2391 146.125 96.2391C145.613 96.2391 145.191 96.0594 144.864 95.7015C144.538 95.3447 144.371 94.851 144.371 94.221C144.371 93.8104 144.441 93.4677 144.582 93.1908C144.716 92.9147 144.915 92.6907 145.165 92.5183C145.414 92.3468 145.715 92.2253 146.061 92.1528C146.407 92.0823 146.79 92.0465 147.22 92.0465H147.508C147.604 92.0465 147.7 92.051 147.802 92.0606C147.834 91.7647 147.847 91.5021 147.847 91.2731C147.847 90.7299 147.764 90.3484 147.604 90.129C147.443 89.9095 147.15 89.7994 146.727 89.7994C146.458 89.7994 146.169 89.8411 145.856 89.9219C145.542 90.0027 145.279 90.1056 145.075 90.229L144.729 89.4134L144.729 89.4132Z" fill="white"/>
<path d="M185.629 59.2549L180.161 53.8154L174.693 59.2549L180.161 70.6277L185.629 59.2549Z" fill="white"/>
<path d="M180.135 22.5293C178.036 22.5293 176.339 24.2234 176.339 26.3142C176.339 28.404 178.036 30.0992 180.135 30.0992C182.229 30.0992 183.932 28.404 183.932 26.3142C183.932 24.2234 182.229 22.5293 180.135 22.5293Z" fill="white"/>
<path d="M185.033 41.8711L180.16 37.008L175.288 41.8711C175.039 41.196 171.78 32.3943 171.78 26.6505C171.78 18.9038 179.571 14.563 180.16 14.2449C180.743 14.5631 188.541 18.9038 188.541 26.6505C188.541 32.3943 185.283 41.196 185.033 41.8711ZM180.16 5.54395C179.002 6.13445 163.886 14.0962 163.886 26.8181C163.886 37.7004 172.785 54.2045 172.785 54.2045L180.16 46.84L187.537 54.2045C187.537 54.2045 196.436 37.7004 196.436 26.8181C196.436 14.0962 181.32 6.13445 180.16 5.54395Z" fill="white"/>
<path d="M196.437 11.0873L190.873 5.54406L196.437 0L202 5.54406L196.437 11.0873Z" fill="white"/>
<path d="M92.209 32.3423V16.0303H97.1195L102.03 21.5762L106.583 16.0303H111.346V32.3423H105.891V24.3308L101.922 28.8625H101.813L97.6706 24.3308V32.3423H92.209Z" fill="white"/>
<path d="M122.73 27.7022C124.625 27.7022 126.009 26.361 126.009 24.1864C126.009 22.1203 124.587 20.6701 122.73 20.6701C120.873 20.6701 119.459 22.0479 119.459 24.1864C119.459 26.2161 120.841 27.7022 122.73 27.7022ZM113.639 24.1864C113.639 21.6854 114.471 19.6549 116.11 18.0238C117.788 16.3923 120.003 15.5947 122.73 15.5947C125.458 15.5947 127.68 16.3923 129.319 18.0238C130.989 19.6549 131.829 21.6854 131.829 24.1864C131.829 26.687 130.989 28.7175 129.319 30.3486C127.68 31.9796 125.458 32.7773 122.73 32.7773C120.003 32.7773 117.788 31.9796 116.11 30.3486C114.471 28.7175 113.639 26.687 113.639 24.1864Z" fill="white"/>
<path d="M141.1 8.05566C141.1 9.46946 141.612 10.1577 142.63 10.1577C143.539 10.1577 144.012 9.46946 144.012 8.05566H148.744C148.744 11.6449 146.561 14.2187 142.63 14.2187C138.372 14.2187 136.374 11.7172 136.374 8.05566H141.1ZM139.576 32.3427H134.121V16.0307H139.576V24.5486L145.396 16.0307H150.851V32.3427H145.396V23.8247L139.576 32.3427Z" fill="white"/>
<path d="M8.58589 51.7351C10.1482 51.7351 11.461 51.1918 12.4401 50.1409C13.4578 49.0888 13.97 47.7846 13.97 46.226C13.97 42.927 12.043 40.6801 8.73339 40.6801C7.2731 40.6801 6.03812 41.0785 5.01998 41.9118C4.00114 42.7462 3.34838 43.7246 3.09194 44.8482C3.09194 49.0164 5.3461 51.7351 8.58571 51.7351H8.58589ZM15.3859 30.6391C14.8026 31.4357 14.1177 31.98 13.279 32.2702C12.4401 32.5602 11.4219 32.8135 10.2248 32.9944C9.02164 33.176 7.96511 33.5018 7.05591 33.9013C4.58457 35.0245 3.20192 37.6343 2.91367 41.7668H2.98352C4.04005 39.483 6.69088 37.9612 9.45653 37.9612C14.1177 37.9612 17.0623 41.151 17.0623 46.0811C17.0623 48.4004 16.2629 50.3944 14.6939 52.0255C13.1317 53.6565 11.096 54.4542 8.65678 54.4542C6.00595 54.4542 3.89273 53.5482 2.33041 51.7353C0.76153 49.9235 0 47.4579 0 44.3041C0 37.2361 2.03663 32.8503 6.07599 31.1457C7.05591 30.7108 8.15031 30.4206 9.2779 30.2398C11.5698 29.8415 12.8436 29.624 13.8236 28.3555L15.3859 30.6393V30.6391Z" fill="white"/>
<path d="M22.5886 54.0923H19.6816V37.7803H22.5886V49.9233L32.0451 37.7803H34.9588V54.0923H32.0451V41.9484L22.5886 54.0923Z" fill="white"/>
<path d="M40.1565 53.8382C38.8117 53.4031 37.8647 52.8598 37.3203 52.243L38.8117 50.0684C40.1243 51.1193 42.1601 51.8448 43.6526 51.8448C46.1625 51.8448 47.9421 50.757 47.9421 49.1626C47.9421 47.8213 46.7447 47.0595 44.7413 47.0595H41.9749V44.7034H44.5614C46.1938 44.7034 47.3976 43.689 47.3976 42.3838C47.3976 40.9334 46.0528 40.0274 43.9085 40.0274C42.1599 40.0274 40.5212 40.6433 38.9976 41.8403L37.8645 39.5923C39.1774 38.2514 41.7252 37.418 44.3441 37.418C48.2679 37.418 50.4899 39.0849 50.4899 41.8038C50.4899 43.689 49.5428 44.9575 47.6151 45.6461V45.7186C49.7991 45.9728 51.0343 47.5673 51.0343 49.561C51.0343 52.5698 48.1981 54.4542 44.088 54.4542C42.813 54.4542 41.5079 54.2366 40.1563 53.8384L40.1565 53.8382Z" fill="white"/>
<path d="M65.9146 54.0923V47.2054H56.8164V54.0923H53.9102V37.7803H56.8164V44.4864H65.9146V37.7803H68.8217V54.0923H65.9146Z" fill="white"/>
<path d="M74.5317 44.4847H84.4616C84.3206 41.7658 82.5346 40.1347 79.7373 40.1347C76.8236 40.1347 74.8577 41.9111 74.5317 44.4847ZM86.3576 52.3144C84.7953 53.7279 82.721 54.4533 80.2107 54.4533C77.5542 54.4533 75.4408 53.6922 73.8399 52.1337C72.2401 50.5741 71.4395 48.5086 71.4395 45.934C71.4395 43.4694 72.2077 41.44 73.6991 39.8447C75.1913 38.2136 77.2592 37.416 79.8846 37.416C82.0291 37.416 83.8474 38.1053 85.3009 39.5189C86.7543 40.8958 87.484 42.6718 87.484 44.8831C87.484 45.645 87.4129 46.2977 87.3045 46.8412H74.7168C74.9673 49.8857 77.1892 51.7344 80.4281 51.7344C82.5735 51.7344 84.2442 51.1543 85.4482 50.0308L86.3574 52.3146L86.3576 52.3144Z" fill="white"/>
<path d="M103.638 51.7344C102.287 53.4749 99.9246 54.4533 97.3445 54.4533C94.7255 54.4533 92.6124 53.6926 90.9737 52.133C89.3728 50.5743 88.5732 48.5079 88.5732 45.9343C88.5732 43.5421 89.3726 41.5127 90.9415 39.8816C92.5038 38.2505 94.5016 37.416 96.87 37.416C99.7451 37.416 101.89 38.1411 103.305 39.5549L101.96 41.8385C100.725 40.7152 99.1627 40.1351 97.267 40.1351C95.7435 40.1351 94.4308 40.6794 93.3043 41.802C92.2156 42.8896 91.6655 44.2676 91.6655 45.9345C91.6655 47.6748 92.2156 49.0883 93.3428 50.1404C94.4694 51.1913 95.8844 51.7346 97.5617 51.7346C99.4508 51.7346 101.012 51.0461 102.255 49.6326L103.638 51.7346V51.7344Z" fill="white"/>
<path d="M108.017 50.2383C109.067 50.2383 109.944 51.1812 109.944 52.1595C109.944 53.2832 109.144 54.2257 108.017 54.2257C106.813 54.2257 105.942 53.2832 105.942 52.1595C105.942 51.1443 106.813 50.2383 108.017 50.2383Z" fill="white"/>
<path d="M115.149 42.4082V50.4924C116.423 51.3259 117.883 51.761 119.516 51.761C122.973 51.761 125.195 49.2954 125.195 45.8156C125.195 42.445 123.191 40.1613 119.881 40.1613C117.953 40.1613 116.353 40.9223 115.15 42.4082H115.149ZM112.242 60.2462V37.8051H115.149V39.7262C116.315 38.3842 118.498 37.4424 120.72 37.4424C123.012 37.4424 124.862 38.2035 126.213 39.762C127.596 41.2851 128.281 43.2787 128.281 45.7074C128.281 48.2088 127.481 50.3108 125.919 51.9788C124.356 53.6457 122.282 54.4791 119.772 54.4791C117.845 54.4791 116.283 54.1166 115.15 53.3555V60.2463H112.242L112.242 60.2462Z" fill="white"/>
<path d="M141.996 40.1609V51.7606H142.328C146.074 51.7606 148.18 49.4399 148.18 45.9601C148.18 44.3659 147.675 42.9878 146.657 41.8645C145.639 40.7409 144.256 40.1609 142.469 40.1609H141.995H141.996ZM138.795 51.7606H139.089V40.1609H138.615C135.017 40.1609 132.904 42.6254 132.904 45.9601C132.904 49.4399 135.126 51.7606 138.795 51.7606H138.795ZM139.089 60.2465V54.4791H138.686C135.959 54.4791 133.775 53.6815 132.174 52.0861C130.612 50.4919 129.812 48.4614 129.812 45.96C129.812 43.6038 130.612 41.61 132.213 39.9431C133.813 38.2751 135.958 37.4417 138.654 37.4417H139.089V34.8086H141.995V37.4417H142.469C145.127 37.4417 147.271 38.2393 148.872 39.8704C150.473 41.5018 151.273 43.5311 151.273 45.96C151.273 48.4614 150.511 50.5275 148.948 52.1229C147.419 53.6815 145.274 54.4791 142.469 54.4791H141.995V60.2465H139.089H139.089Z" fill="white"/>
</g>
<defs>
<clipPath id="clip0_3158_174">
<rect width="202" height="99" fill="white"/>
</clipPath>
</defs>
</svg>
