<svg width="1202" height="238" viewBox="0 0 1202 238" fill="none" xmlns="http://www.w3.org/2000/svg">
<path d="M61.8091 14.6818H82.3636C119.609 14.6818 137.845 32.1455 137.845 69.5455C137.845 106.482 118.682 130.9 76.4909 130.9V137.082C77.7273 137.391 80.6637 137.7 84.8364 137.7C132.282 137.7 171.227 111.736 171.227 66.3C171.227 25.9636 143.718 4.17273 88.0818 4.17273H0.454559V12.6727C28.4273 16.2273 29.3546 14.9909 29.3546 38.9455V203.227C29.3546 227.336 28.4273 225.945 0.454559 229.655V238H90.7091V229.655C62.7364 225.945 61.8091 227.336 61.8091 203.227V14.6818ZM307.382 0C279.409 74.0273 240.464 183.136 225.936 212.345C220.682 223.473 210.945 229.191 201.827 229.191V238H262.873V229.191C250.818 229.191 244.791 222.082 244.791 212.655C244.791 211.418 245.1 208.173 246.027 205.236L261.636 160.418H346.636L361.009 203.536C362.555 208.482 363.636 212.036 363.636 215.591C363.636 223.782 358.073 229.191 343.391 229.191V238H421.436V229.191C407.064 229.191 401.5 218.527 394.082 199.673C382.8 170.155 348.645 67.2273 325.927 0H307.382ZM266.427 147.745L306.455 38.9455H307.073L342.464 147.745H266.427ZM473.982 4.17273V12.6727C501.955 16.2273 502.882 14.9909 502.882 38.9455V203.227C502.882 227.336 501.955 225.945 473.982 229.655V238H638.418L648.464 177.882H639.964C624.664 213.736 626.673 227.645 578.3 227.645C548.473 227.645 535.491 225.018 535.491 201.682V38.9455C535.491 14.9909 536.418 16.2273 564.391 12.6727V4.17273H473.982ZM800.845 0C772.873 74.0273 733.927 183.136 719.245 212.345C714.145 223.473 704.409 229.191 695.291 229.191V238H756.336V229.191C744.282 229.191 738.1 222.082 738.1 212.655C738.1 211.418 738.409 208.173 739.491 205.236L754.945 160.418H840.1L854.318 203.536C856.018 208.482 856.945 212.036 856.945 215.591C856.945 223.782 851.382 229.191 836.855 229.191V238H914.745V229.191C900.527 229.191 894.964 218.527 887.546 199.673C876.109 170.155 842.109 67.2273 819.236 0H800.845ZM759.891 147.745L799.764 38.9455H800.536L835.927 147.745H759.891ZM983.982 4.17273V12.6727C998.664 12.6727 1005.46 20.4 1015.2 35.3909L1066.51 114.982L1003.76 204C992.173 220.845 983.673 229.655 967.445 229.655V238H1033.44V229.655C1024.94 229.655 1018.14 225.327 1018.14 216.982C1018.14 212.036 1020.45 206.164 1025.55 198.745L1075.32 127.655L1127.55 201.682C1132.35 208.791 1134.35 214.355 1134.35 218.218C1134.35 227.336 1124.93 229.655 1116.12 229.655V238H1201.27V229.655C1182.73 229.655 1178.55 224.091 1161.71 199.673L1095.72 105.245L1150.89 29.5182C1158 19.7818 1170.67 12.6727 1181.8 12.6727V4.17273H1118.44V12.6727C1126.16 12.6727 1134.05 15.9182 1134.05 23.3364C1134.05 26.5818 1132.81 30.6 1129.1 35.3909L1085.98 93.8091L1050.9 38.6364C1047.04 32.7636 1045.34 27.6636 1045.34 24.1091C1045.34 15.6091 1053.53 12.6727 1062.34 12.6727V4.17273H983.982Z" fill="black"/>
</svg>
