<svg width="258" height="100" viewBox="0 0 258 100" fill="none" xmlns="http://www.w3.org/2000/svg">
<path fill-rule="evenodd" clip-rule="evenodd" d="M39.9784 45.8275L39.8061 45.7144C38.2365 46.1668 36.3094 47.2002 35.0435 47.9072C33.3505 48.8506 32.7535 49.663 31.5185 50.5139C24.8725 57.5884 34.0657 68.5756 38.8515 72.1077C52.7172 82.3313 65.2142 81.6013 78.4753 70.028C81.8664 67.0666 86.4515 62.0717 86.1942 56.555C85.9369 53.9843 84.779 52.1848 84.1358 51.2851C83.7498 50.8995 83.3974 50.3185 82.592 49.6141C79.9907 47.3391 78.0636 46.9483 75.3594 45.5781C75.5163 47.8583 77.0678 48.154 75.416 53.4007C77.513 55.046 83.4051 54.8609 77.8758 64.2131C76.1699 67.1 71.9116 71.3108 68.6568 72.7555C64.733 74.4984 61.7123 73.591 61.8255 69.0588C60.521 69.3905 59.5305 70.5576 57.7731 70.6244C56.9626 70.6552 56.2422 70.3519 55.5604 70.028C54.6392 69.591 54.4257 69.3262 53.5534 69.0126C53.6383 73.2902 50.6357 74.5678 46.838 72.8275C45.3662 72.1514 44.3216 71.4187 43.2152 70.5344L37.5573 64.3596C36.1833 62.1822 34.0529 57.6835 36.1524 55.4367C36.9964 54.5318 38.8232 54.2953 39.9939 53.4007C39.1396 50.2362 39.083 49.0357 39.9784 45.8275Z" fill="white"/>
<path fill-rule="evenodd" clip-rule="evenodd" d="M46.7447 43.7787L51.4764 43.8147L53.3701 57.6399L50.069 57.4985C49.8863 56.6888 50.1179 56.7016 49.7551 55.5294L49.5544 55.1001C48.4377 55.2466 48.659 54.2877 48.5458 57.6091H45.152L46.7447 43.7787ZM63.0496 43.7453C65.126 43.7993 68.7076 43.2954 69.7702 44.7736C70.6579 46.0101 71.0979 49.4265 68.9881 49.969L69.3303 50.2569C70.1896 50.9535 70.5241 50.9664 70.6245 52.6219C71.0027 58.8944 69.0447 57.4548 63.0831 57.6373L63.0496 43.7453ZM54.4456 43.7607L60.8343 43.8301L60.7803 46.1412L57.7133 46.1566L57.739 48.5139C61.7091 48.5345 62.3601 48.8841 62.0385 54.699C61.8583 57.9895 60.2966 57.915 54.4816 57.5756L54.4456 43.7607ZM40.0884 49.8019C40.8732 56.8404 50.1822 65.4985 55.0039 68.0101C57.8831 69.5088 58.83 68.9432 61.3489 67.4959C65.8181 64.9278 70.9229 59.262 73.465 54.9355C79.4395 44.7736 70.7325 39.0229 61.0839 37.8173C51.8701 36.6656 39.0335 40.3674 40.0884 49.8019Z" fill="#FDFEFF"/>
<path fill-rule="evenodd" clip-rule="evenodd" d="M53.8755 6.71957C78.9362 4.73243 98.5423 22.9998 100.49 45.4702C101.46 56.6579 98.0766 67.3391 91.3354 75.8687C89.5343 78.1489 88.5025 78.7967 87.4734 79.9844C85.4433 82.3263 81.2493 85.2389 78.3393 86.789C73.7028 89.2543 67.9805 91.2337 61.9623 91.7684C37.0225 93.9741 17.347 75.4908 15.3298 53.1617C13.1221 28.7556 31.6527 8.4805 53.8755 6.71957ZM13.5312 46.9741C13.5312 55.0898 14.0433 60.9252 17.6454 68.0563C20.9954 74.6836 25.5007 80.8584 31.6939 85.1257C32.8028 85.8892 33.6185 86.5011 34.7711 87.1926L38.2318 89.1335C47.5974 93.2594 50.6824 93.5036 60.6167 93.5036C75.8049 93.5036 91.9735 81.9689 98.1769 68.0512C103.462 56.2003 104.01 42.0718 98.0946 30.3494C93.139 20.5268 86.668 13.7787 76.3993 8.8404C67.8004 4.70158 57.2409 3.78641 47.6463 5.99464C46.1823 6.3314 44.8418 6.75299 43.4704 7.22343C36.176 9.72472 32.4683 12.5962 26.9107 17.4137C23.9286 19.9998 20.9234 24.4728 18.9191 27.9381C18.564 28.5576 18.2269 29.0255 17.9053 29.753C15.6642 34.8327 13.5312 40.9612 13.5312 46.9741Z" fill="white"/>
<path fill-rule="evenodd" clip-rule="evenodd" d="M29.4704 46.5886L29.6505 45.1413C29.087 44.0128 28.7988 44.4678 28.31 43.2185C27.8082 43.1285 24.592 41.5629 24.1726 40.6375C25.3536 40.0359 27.5278 41.748 28.4592 42.6555C29.5913 43.2365 31.714 45.6863 33.4122 45.0077C35.8102 44.0514 33.4044 41.0231 32.859 39.8457C30.2628 36.4344 26.2078 34.9742 25.9814 33.4447C27.008 33.2339 27.7671 33.856 28.4463 34.3881L33.5562 39.6323C34.7372 40.3419 35.5066 41.8946 37.8017 41.5732C39.0444 40.4215 39.0444 39.5295 38.4552 37.455C37.4466 35.0411 34.7784 31.5886 32.8564 29.9897C31.9893 29.2673 31.2251 28.9203 30.8392 27.7197C32.1385 27.1311 32.8744 28.5706 33.5948 29.2467C34.7501 30.3264 37.022 33.4755 37.7914 34.82L39.5178 37.4601L41.3729 37.7634C43.933 34.7789 41.4347 31.4832 40.7426 29.2776C40.1199 28.2802 39.5538 27.3933 38.9826 26.6812C38.1902 25.6889 37.7991 25.4241 37.2562 24.7634C37.0298 24.4524 37.0632 24.2904 36.7879 23.946C42.4562 21.1773 40.2717 15.2493 37.4569 16.3033C36.7776 16.5578 36.2785 17.6349 35.7999 18.5784C32.4267 25.2185 32.1643 20.6118 29.4781 23.3136C27.5561 25.2467 29.0613 25.3161 25.4437 26.7455C24.2164 27.2313 23.8587 27.2108 23.6194 28.5038C23.3956 29.7043 23.6966 30.6118 23.0971 31.5861C22.0705 33.2622 19.7059 32.9691 19.9941 35.8688C20.115 37.0694 20.591 37.7917 20.4418 39.239C20.3132 40.4807 19.6468 40.784 20.025 42.2596C20.5576 44.3264 26.4909 47.8071 29.4704 46.5886Z" fill="white"/>
<path fill-rule="evenodd" clip-rule="evenodd" d="M76.4605 22.7297C77.4331 23.1127 77.7084 23.7091 78.6193 24.1795L78.2539 24.5394C77.7419 25.2669 76.9365 26.1384 76.2907 26.9148C75.6166 27.722 75.2332 28.3004 74.5488 29.1358C73.4013 31.889 72.156 34.7374 73.6148 37.5446C74.8499 37.8094 75.5934 37.4263 76.4708 37.0304C76.6355 36.1795 77.4691 34.9816 78.0429 34.0587C78.3851 33.5112 78.6167 33.1564 78.9615 32.6628C79.3346 32.1281 79.5095 32.0253 79.8749 31.5189C80.5824 30.5369 82.8055 27.2387 84.3235 27.6166C84.5371 28.1693 84.3956 28.47 83.827 29.0279C81.9744 30.8453 82.0696 30.2284 79.3011 33.506C77.8525 35.2181 77.217 36.9996 76.8388 37.4855C76.4991 39.5806 76.2135 40.3106 77.6029 41.5112C80.0009 42.0793 81.2746 39.7117 82.6434 38.8299C83.2017 37.2618 87.6144 33.2875 89.4103 33.3569C89.2765 34.5883 88.9112 34.3878 88.0286 35.0356C86.2327 36.3518 84.411 37.6783 82.947 39.2875C82.4221 40.2001 79.9469 43.0407 81.4701 44.6474C83.0834 46.3466 85.5045 43.4392 86.6521 42.9173C87.1255 42.3184 89.7885 40.123 91.2371 40.5292C90.7894 41.8633 89.7551 41.6577 88.0518 42.7734C87.2001 43.3312 87.7636 43.2798 86.7704 43.4752C86.3922 44.123 86.1401 44.2978 85.7078 45.1641L86.0654 46.5292C88.376 47.1538 91.3658 45.8402 92.9507 44.8325C97.0495 42.2181 95.0425 41.2669 94.8985 38.9816C94.6798 35.542 97.0417 35.3466 93.4833 32.6525C90.2903 30.2387 93.2209 28.4212 90.6016 27.0381C89.5827 26.4983 88.5355 26.1821 87.7044 25.5754C86.6649 24.8171 86.5878 23.8762 85.7747 23.123C83.6288 21.1281 82.682 24.1718 80.3792 20.0227C79.4864 18.4135 78.2925 14.9842 76.0592 16.6397C73.8258 18.2952 75.8739 21.4752 76.4605 22.7297Z" fill="white"/>
<path fill-rule="evenodd" clip-rule="evenodd" d="M29.8244 46.6552L29.333 48.1436C27.3054 48.5421 26.6442 47.7529 25.2496 47.8274C25.1158 53.4033 25.6587 57.3827 27.6245 62.2053C30.7738 69.92 36.4755 75.6501 44.1044 79.4033C54.5867 84.5652 67.6883 82.7503 76.9047 76.0974C81.801 72.5601 85.3054 67.9868 87.8218 62.0819C89.646 57.8095 90.4076 52.8429 90.1657 47.7298C89.2832 47.9328 88.2926 48.3159 87.3586 48.3133C86.067 48.2002 85.6811 47.5575 85.5524 46.9148L85.2951 45.501C84.5309 45.8737 84.7779 45.8069 84.1424 46.1719L84.2659 49.9997C84.9092 50.8994 86.8334 53.9354 86.9675 56.812C87.2248 62.3287 82.416 67.7992 79.0248 70.7606C65.7637 82.3339 52.1038 83.0331 38.2097 72.7503C31.3913 66.8377 24.3851 57.0742 31.0311 49.9997L31.237 46.2028C30.9565 45.9971 30.7687 45.866 30.5165 45.6938C29.845 45.2285 30.7121 45.722 30.0354 45.375L29.8244 46.6552Z" fill="#FDFEFF"/>
<path fill-rule="evenodd" clip-rule="evenodd" d="M37.6094 24.2954C38.0494 25.4085 38.5434 25.4882 39.3358 26.4805C39.907 27.1925 40.6558 28.1463 41.3119 28.7581C48.7992 23.3596 57.5988 21.0589 67.2603 24.8969C68.6523 25.4522 69.8822 25.9946 71.0915 26.735C71.7579 27.1437 72.2879 27.4805 72.8154 27.8404L73.9732 28.663C74.6576 27.8275 75.2288 27.4136 75.9029 26.6064C76.5487 25.8301 77.4493 25.0203 77.9613 24.2928C77.6886 24.0846 77.7195 24.1566 77.3258 23.8481C77.1225 23.6913 76.8395 23.4882 76.7546 23.4085C76.5462 23.2645 76.5256 23.2954 76.4175 23.136L72.0718 20.6193C70.474 19.8326 69.2544 19.3416 67.5047 18.7684C56.8398 15.2774 46.1902 17.4702 37.6094 24.2954Z" fill="#FDFEFF"/>
<path fill-rule="evenodd" clip-rule="evenodd" d="M57.7214 55.2236C58.9307 54.9383 58.7711 54.712 58.7711 53.401C58.7711 50.1491 58.8123 51.0128 58.0456 50.7095C57.4461 51.6195 57.7162 54.1362 57.7214 55.2236Z" fill="#FDFEFF"/>
<path fill-rule="evenodd" clip-rule="evenodd" d="M66.375 55.1413C67.6744 55.149 67.4222 54.8457 67.4325 53.4061C67.4428 51.9639 67.7207 51.4601 66.4007 51.4575L66.375 55.1413Z" fill="#FAFBFE"/>
<path fill-rule="evenodd" clip-rule="evenodd" d="M49.5289 49.3496L49.0864 47.874C48.968 49.7918 48.4045 51.892 49.0375 52.6864C50.4218 52.4036 49.4492 52.8149 49.5289 49.3496Z" fill="#F7FAFC"/>
<path fill-rule="evenodd" clip-rule="evenodd" d="M66.3789 49.1462C67.4493 49.1874 67.3438 49.118 67.4313 48.0254C67.5496 46.5704 67.5573 46.3339 66.5359 46.1899L66.3789 49.1462Z" fill="#FAFBFE"/>
<path fill-rule="evenodd" clip-rule="evenodd" d="M39.9771 45.8274C40.3913 45.6706 40.4402 46.1796 40.291 45.4341L39.8047 45.7143L39.9771 45.8274Z" fill="#5B7D5B"/>
<path d="M125.409 29.5858L124.508 26.8866H118.526L117.625 29.5858H114.43L119.684 14.5884H123.35L128.625 29.5858H125.409ZM119.47 24.1231H123.587L121.529 17.9945L119.47 24.1231ZM139.838 29.5858H136.622L132.721 24.7221V29.5858H129.955V18.8737H132.721V23.5858L136.408 18.8737H139.709L135.399 24.1642L139.838 29.5858ZM148.586 18.8737H151.352V29.5858H148.586V28.321C147.757 29.3622 146.592 29.884 145.092 29.884C143.664 29.884 142.436 29.339 141.415 28.2465C140.394 27.1539 139.882 25.8146 139.882 24.2285C139.882 22.6449 140.394 21.3056 141.415 20.2131C142.436 19.1205 143.664 18.573 145.092 18.573C146.592 18.573 147.757 19.0948 148.586 20.1385V18.8737ZM143.484 26.4033C144.042 26.9663 144.75 27.249 145.606 27.249C146.463 27.249 147.176 26.9663 147.739 26.4033C148.305 25.8403 148.586 25.1154 148.586 24.2285C148.586 23.3442 148.305 22.6192 147.739 22.0537C147.176 21.4907 146.463 21.2079 145.606 21.2079C144.75 21.2079 144.042 21.4907 143.484 22.0537C142.925 22.6192 142.647 23.3442 142.647 24.2285C142.647 25.1154 142.925 25.8403 143.484 26.4033ZM163.509 26.992H164.924V32.4547H162.223V29.5858H155.577V32.4547H152.875V26.992H154.182C154.797 26.0794 155.106 24.8146 155.106 23.2002V18.8737H163.509V26.992ZM157.141 26.992H160.808V21.3596H157.807V23.2002C157.807 24.7143 157.586 25.9791 157.141 26.992ZM168.591 25.3647C168.964 26.7066 169.972 27.3776 171.614 27.3776C172.674 27.3776 173.474 27.0203 174.017 26.3082L176.245 27.5935C175.188 29.1205 173.631 29.884 171.573 29.884C169.8 29.884 168.377 29.3493 167.304 28.2773C166.234 27.2079 165.696 25.8583 165.696 24.2285C165.696 22.6141 166.226 21.2696 167.284 20.1899C168.341 19.1128 169.7 18.573 171.357 18.573C172.931 18.573 174.228 19.1154 175.25 20.2028C176.271 21.2876 176.783 22.6295 176.783 24.2285C176.783 24.5858 176.747 24.9637 176.675 25.3647H168.591ZM168.55 23.2233H174.017C173.86 22.4933 173.533 21.9508 173.042 21.5935C172.548 21.2362 171.987 21.0588 171.357 21.0588C170.616 21.0588 170.001 21.249 169.514 21.6269C169.028 22.0048 168.707 22.537 168.55 23.2233ZM189.862 18.8737V29.5858H187.18V23.3287L184.458 27.6141H184.116L181.371 23.2876V29.5858H178.713V18.8737H181.435L184.286 23.3724L187.139 18.8737H189.862ZM200.133 18.8737H202.191V29.5858H199.49V23.501L194.449 29.5858H192.393V18.8737H195.095V24.9586L200.133 18.8737ZM213.319 18.8737V29.5858H210.618V26.2439H209.653L207.188 29.5858H203.992L206.673 25.9226C205.986 25.6347 205.438 25.1822 205.032 24.5601C204.625 23.9406 204.422 23.2722 204.422 22.5575C204.422 21.5575 204.777 20.6938 205.492 19.9663C206.208 19.2388 207.144 18.8737 208.302 18.8737H213.319ZM208.516 21.3365C208.117 21.3365 207.785 21.4547 207.52 21.6912C207.255 21.9251 207.124 22.2439 207.124 22.6449C207.124 23.0305 207.255 23.3365 207.52 23.5652C207.785 23.794 208.117 23.9071 208.516 23.9071H210.618V21.3365H208.516Z" fill="white"/>
<path d="M121.503 48.9173C122.962 48.9173 124.156 49.3492 125.085 50.2155C126.014 51.0793 126.479 52.1949 126.479 53.5677C126.479 54.9533 126.014 56.0767 125.085 56.9404C124.156 57.8042 122.962 58.2361 121.503 58.2361H115.758V43.2412H125.193V46.069H118.717V48.9173H121.503ZM121.503 55.4726C122.09 55.4726 122.576 55.3055 122.962 54.9713C123.348 54.6345 123.541 54.1667 123.541 53.5677C123.541 52.9661 123.348 52.5034 122.962 52.1744C122.576 51.8453 122.09 51.6808 121.503 51.6808H118.717V55.4726H121.503ZM130.509 54.0176C130.882 55.3595 131.89 56.0304 133.532 56.0304C134.592 56.0304 135.392 55.6731 135.935 54.9584L138.163 56.2438C137.106 57.7733 135.549 58.5368 133.491 58.5368C131.718 58.5368 130.295 58.0021 129.222 56.9302C128.152 55.8582 127.614 54.5086 127.614 52.8813C127.614 51.2669 128.144 49.9224 129.202 48.8428C130.259 47.7656 131.618 47.2258 133.275 47.2258C134.847 47.2258 136.146 47.7682 137.168 48.853C138.189 49.9404 138.701 51.2823 138.701 52.8813C138.701 53.2386 138.665 53.6165 138.593 54.0176H130.509ZM130.468 51.8736H135.935C135.778 51.1461 135.451 50.6037 134.96 50.2464C134.466 49.889 133.905 49.7116 133.275 49.7116C132.531 49.7116 131.919 49.8993 131.432 50.2798C130.946 50.6577 130.624 51.1898 130.468 51.8736ZM146.677 52.7733C147.763 53.3029 148.306 54.1512 148.306 55.3235C148.306 56.2386 147.928 57.0021 147.169 57.6165C146.412 58.2309 145.347 58.5368 143.976 58.5368C141.801 58.5368 140.322 57.6808 139.537 55.9661L141.789 54.6371C142.131 55.6088 142.867 56.0947 143.996 56.0947C144.511 56.0947 144.907 55.9944 145.187 55.7939C145.465 55.596 145.604 55.3235 145.604 54.9816C145.604 54.3235 145.182 53.9944 144.338 53.9944H142.818V51.6397H143.976C144.804 51.6397 145.218 51.3106 145.218 50.6525C145.218 50.3389 145.097 50.0895 144.853 49.9044C144.611 49.7168 144.29 49.6242 143.888 49.6242C142.959 49.6242 142.295 50.0741 141.894 50.9739L139.666 49.6885C140.479 48.0484 141.873 47.2258 143.847 47.2258C145.077 47.2258 146.052 47.5368 146.772 48.1589C147.495 48.7785 147.856 49.5317 147.856 50.4186C147.856 51.4597 147.462 52.2463 146.677 52.7733ZM159.177 56.8993C158.076 57.9919 156.732 58.5368 155.145 58.5368C153.56 58.5368 152.219 57.9919 151.126 56.8993C150.032 55.8068 149.484 54.4674 149.484 52.8813C149.484 51.2952 150.032 49.9584 151.126 48.8659C152.219 47.7733 153.56 47.2258 155.145 47.2258C156.732 47.2258 158.076 47.7733 159.177 48.8659C160.278 49.9584 160.829 51.2952 160.829 52.8813C160.829 54.4674 160.278 55.8068 159.177 56.8993ZM153.076 55.0021C153.627 55.56 154.316 55.8376 155.145 55.8376C155.976 55.8376 156.668 55.56 157.226 55.0021C157.782 54.4443 158.063 53.7374 158.063 52.8813C158.063 52.0253 157.782 51.3183 157.226 50.7605C156.668 50.2027 155.976 49.925 155.145 49.925C154.316 49.925 153.627 50.2027 153.076 50.7605C152.526 51.3183 152.25 52.0253 152.25 52.8813C152.25 53.7374 152.526 54.4443 153.076 55.0021ZM172.577 47.5266V58.2361H169.811V50.1178H165.545V58.2361H162.779V47.5266H172.577ZM183.255 47.5266H186.023V58.2361H183.255V56.9739C182.426 58.015 181.261 58.5368 179.761 58.5368C178.333 58.5368 177.105 57.9919 176.084 56.8993C175.062 55.8068 174.55 54.4674 174.55 52.8813C174.55 51.2952 175.062 49.9584 176.084 48.8659C177.105 47.7733 178.333 47.2258 179.761 47.2258C181.261 47.2258 182.426 47.7476 183.255 48.7888V47.5266ZM178.152 55.0561C178.711 55.6191 179.418 55.9019 180.275 55.9019C181.132 55.9019 181.845 55.6191 182.408 55.0561C182.974 54.4906 183.255 53.7656 183.255 52.8813C183.255 51.997 182.974 51.2721 182.408 50.7065C181.845 50.1435 181.132 49.8607 180.275 49.8607C179.418 49.8607 178.711 50.1435 178.152 50.7065C177.594 51.2721 177.316 51.997 177.316 52.8813C177.316 53.7656 177.594 54.4906 178.152 55.0561ZM193.634 58.5368C192.018 58.5368 190.67 57.9944 189.592 56.9096C188.514 55.8248 187.973 54.4803 187.973 52.8813C187.973 51.2823 188.514 49.9404 189.592 48.853C190.67 47.7682 192.018 47.2258 193.634 47.2258C194.676 47.2258 195.628 47.4751 196.485 47.9764C197.342 48.4751 197.993 49.1461 198.438 49.9893L196.058 51.3826C195.842 50.9404 195.517 50.5883 195.08 50.3312C194.645 50.0741 194.156 49.9456 193.613 49.9456C192.782 49.9456 192.098 50.2206 191.552 50.7708C191.01 51.3209 190.739 52.0253 190.739 52.8813C190.739 53.7245 191.01 54.4212 191.552 54.9713C192.098 55.5188 192.782 55.7939 193.613 55.7939C194.169 55.7939 194.666 55.6705 195.103 55.4212C195.538 55.1692 195.865 54.8248 196.078 54.38L198.479 55.7528C198.008 56.596 197.342 57.2695 196.485 57.7759C195.628 58.2849 194.676 58.5368 193.634 58.5368ZM207.057 47.5266H209.823V58.2361H207.057V54.1667H202.789V58.2361H200.023V47.5266H202.789V51.5754H207.057V47.5266ZM221.486 56.8993C220.385 57.9919 219.042 58.5368 217.455 58.5368C215.87 58.5368 214.529 57.9919 213.436 56.8993C212.342 55.8068 211.794 54.4674 211.794 52.8813C211.794 51.2952 212.342 49.9584 213.436 48.8659C214.529 47.7733 215.87 47.2258 217.455 47.2258C219.042 47.2258 220.385 47.7733 221.486 48.8659C222.588 49.9584 223.138 51.2952 223.138 52.8813C223.138 54.4674 222.588 55.8068 221.486 56.8993ZM215.386 55.0021C215.937 55.56 216.626 55.8376 217.455 55.8376C218.283 55.8376 218.978 55.56 219.536 55.0021C220.092 54.4443 220.372 53.7374 220.372 52.8813C220.372 52.0253 220.092 51.3183 219.536 50.7605C218.978 50.2027 218.283 49.925 217.455 49.925C216.626 49.925 215.937 50.2027 215.386 50.7605C214.835 51.3183 214.56 52.0253 214.56 52.8813C214.56 53.7374 214.835 54.4443 215.386 55.0021ZM232.422 47.5266V50.1821H227.855V58.2361H225.089V47.5266H232.422ZM242.605 56.8993C241.507 57.9919 240.161 58.5368 238.576 58.5368C236.989 58.5368 235.648 57.9919 234.555 56.8993C233.461 55.8068 232.916 54.4674 232.916 52.8813C232.916 51.2952 233.461 49.9584 234.555 48.8659C235.648 47.7733 236.989 47.2258 238.576 47.2258C240.161 47.2258 241.507 47.7733 242.605 48.8659C243.707 49.9584 244.257 51.2952 244.257 52.8813C244.257 54.4674 243.707 55.8068 242.605 56.8993ZM236.505 55.0021C237.055 55.56 237.745 55.8376 238.576 55.8376C239.405 55.8376 240.097 55.56 240.655 55.0021C241.213 54.4443 241.491 53.7374 241.491 52.8813C241.491 52.0253 241.213 51.3183 240.655 50.7605C240.097 50.2027 239.405 49.925 238.576 49.925C237.745 49.925 237.055 50.2027 236.505 50.7605C235.957 51.3183 235.682 52.0253 235.682 52.8813C235.682 53.7374 235.957 54.4443 236.505 55.0021Z" fill="white"/>
<path d="M124.828 79.3801C126.142 80.1385 126.801 81.2799 126.801 82.8094C126.801 84.0794 126.351 85.1231 125.45 85.9354C124.55 86.7503 123.441 87.1565 122.126 87.1565H115.758V72.1616H121.676C122.962 72.1616 124.045 72.5575 124.925 73.3519C125.803 74.1436 126.243 75.1539 126.243 76.3827C126.243 77.6243 125.772 78.6244 124.828 79.3801ZM121.676 74.9251H118.717V78.2233H121.676C122.134 78.2233 122.514 78.0665 122.823 77.7529C123.129 77.4393 123.284 77.0459 123.284 76.5755C123.284 76.1025 123.135 75.7118 122.833 75.3956C122.532 75.0819 122.147 74.9251 121.676 74.9251ZM122.126 84.393C122.628 84.393 123.042 84.2259 123.369 83.8917C123.698 83.5549 123.863 83.1308 123.863 82.6166C123.863 82.1154 123.698 81.6989 123.369 81.3621C123.042 81.0279 122.628 80.8583 122.126 80.8583H118.717V84.393H122.126ZM137.906 85.8197C136.807 86.9123 135.462 87.4573 133.877 87.4573C132.289 87.4573 130.949 86.9123 129.855 85.8197C128.762 84.7272 128.216 83.3878 128.216 81.8017C128.216 80.2156 128.762 78.8788 129.855 77.7863C130.949 76.6938 132.289 76.1462 133.877 76.1462C135.462 76.1462 136.807 76.6938 137.906 77.7863C139.007 78.8788 139.558 80.2156 139.558 81.8017C139.558 83.3878 139.007 84.7272 137.906 85.8197ZM131.808 83.9225C132.356 84.4804 133.048 84.758 133.877 84.758C134.705 84.758 135.397 84.4804 135.956 83.9225C136.514 83.3647 136.792 82.6578 136.792 81.8017C136.792 80.9457 136.514 80.2387 135.956 79.6809C135.397 79.1231 134.705 78.8454 133.877 78.8454C133.048 78.8454 132.356 79.1231 131.808 79.6809C131.257 80.2387 130.982 80.9457 130.982 81.8017C130.982 82.6578 131.257 83.3647 131.808 83.9225ZM155.124 87.1565H152.016L148.736 82.3596V87.1565H146.034V82.3596L142.753 87.1565H139.666L143.525 81.7375L139.879 76.447H142.967L146.034 81.0948V76.447H148.736V81.0948L151.8 76.447H154.911L151.244 81.7375L155.124 87.1565ZM166.296 84.5652H167.711V90.0279H165.01V87.1565H158.361V90.0279H155.659V84.5652H156.969C157.584 83.6526 157.89 82.3878 157.89 80.7734V76.447H166.296V84.5652ZM159.928 84.5652H163.595V78.9303H160.592V80.7734C160.592 82.2876 160.371 83.5524 159.928 84.5652ZM171.378 82.938C171.748 84.2799 172.757 84.9508 174.401 84.9508C175.459 84.9508 176.259 84.5935 176.802 83.8788L179.032 85.1642C177.975 86.6938 176.416 87.4573 174.357 87.4573C172.585 87.4573 171.164 86.9225 170.091 85.8506C169.018 84.7786 168.483 83.429 168.483 81.8017C168.483 80.1873 169.011 78.8429 170.068 77.7632C171.128 76.686 172.484 76.1462 174.144 76.1462C175.716 76.1462 177.013 76.6886 178.034 77.7735C179.058 78.8609 179.568 80.2028 179.568 81.8017C179.568 82.159 179.532 82.5369 179.462 82.938H171.378ZM171.334 80.794H176.802C176.645 80.0665 176.32 79.5241 175.826 79.1668C175.332 78.8094 174.772 78.6321 174.144 78.6321C173.4 78.6321 172.785 78.8197 172.299 79.2002C171.813 79.5781 171.491 80.1102 171.334 80.794ZM188.532 76.447H191.298V87.1565H188.532V83.0871H184.263V87.1565H181.497V76.447H184.263V80.4958H188.532V76.447ZM201.566 76.447H203.625V87.1565H200.923V81.0742L195.885 87.1565H193.827V76.447H196.529V82.5292L201.566 76.447ZM214.753 76.447V87.1565H212.051V83.8146H211.086L208.622 87.1565H205.426L208.107 83.4932C207.42 83.2079 206.875 82.7555 206.468 82.1333C206.059 81.5138 205.856 80.8454 205.856 80.1308C205.856 79.1308 206.213 78.267 206.929 77.5395C207.641 76.8094 208.578 76.447 209.736 76.447H214.753ZM209.952 78.9097C209.55 78.9097 209.218 79.0279 208.953 79.2645C208.688 79.4984 208.557 79.8172 208.557 80.2156C208.557 80.6012 208.688 80.9097 208.953 81.1385C209.218 81.3673 209.55 81.4804 209.952 81.4804H212.051V78.9097H209.952Z" fill="white"/>
<path d="M44.4416 12.7017L46.5849 16.4112L45.5352 16.8251L45.2007 16.1387L44.8302 16.2852L45.054 17.0127L43.9939 17.4317L42.957 13.2852L44.4416 12.7017ZM44.8996 15.4523C44.6732 15.023 44.403 14.4909 44.0891 13.8533C44.2847 14.6503 44.4391 15.2287 44.5497 15.5886L44.8996 15.4523ZM45.6818 12.2518L46.7393 11.9536C47.0712 11.8585 47.3311 11.8122 47.5189 11.8148C47.7042 11.8173 47.874 11.8842 48.0232 12.0127C48.175 12.1413 48.3011 12.3829 48.3989 12.7351C48.4683 12.9716 48.4786 13.149 48.4297 13.2621C48.3809 13.3778 48.2548 13.4909 48.0489 13.604C48.3114 13.5911 48.5018 13.6348 48.6279 13.7377C48.7514 13.8431 48.8517 14.0256 48.9263 14.2929L49.0344 14.6708C49.1116 14.9459 49.1373 15.1592 49.1142 15.3109C49.0884 15.46 49.0138 15.5783 48.8903 15.6682C48.7668 15.7557 48.4915 15.8585 48.0644 15.9793L46.8422 16.3263L45.6818 12.2518ZM46.9426 12.6451L47.1999 13.5526C47.2462 13.5371 47.2796 13.5269 47.3028 13.5217C47.4057 13.4934 47.4623 13.4472 47.4752 13.3906C47.4906 13.3289 47.4623 13.1798 47.3928 12.9382C47.3568 12.8096 47.3208 12.7248 47.2822 12.6785C47.2462 12.6348 47.205 12.6117 47.1638 12.6066C47.1252 12.604 47.0506 12.6168 46.9426 12.6451ZM47.38 14.1875L47.7067 15.3315C47.8508 15.2826 47.9383 15.2338 47.9666 15.1798C47.9949 15.1284 47.9846 15.0179 47.9383 14.8533L47.8302 14.4703C47.7788 14.2955 47.7325 14.1952 47.6836 14.167C47.6373 14.1413 47.5369 14.149 47.38 14.1875ZM51.2034 10.9253L51.3526 11.7582L50.712 11.8713L51.3089 15.2081L50.2231 15.4035L49.6262 12.0667L48.9829 12.1824L48.8337 11.3469L51.2034 10.9253ZM54.5483 12.9767C54.5997 13.3983 54.628 13.6991 54.6306 13.8765C54.6332 14.0539 54.592 14.2235 54.5071 14.3829C54.4196 14.5397 54.291 14.6708 54.1237 14.7711C53.9565 14.8713 53.7532 14.9356 53.5165 14.9664C53.2901 14.9947 53.0868 14.9819 52.8964 14.933C52.7086 14.8816 52.5517 14.7891 52.423 14.6554C52.2969 14.5243 52.212 14.3726 52.1683 14.2004C52.1245 14.0307 52.0756 13.7299 52.0216 13.2955L51.929 12.5783C51.875 12.1541 51.8492 11.8559 51.8467 11.6785C51.8441 11.4986 51.8852 11.3315 51.9702 11.1721C52.0576 11.0127 52.1837 10.8842 52.3535 10.7839C52.5208 10.6837 52.724 10.6168 52.9608 10.5886C53.1846 10.5603 53.3904 10.5706 53.5808 10.622C53.7687 10.6734 53.9256 10.7634 54.0543 10.897C54.1803 11.0307 54.2653 11.1824 54.309 11.3521C54.3527 11.5243 54.4016 11.8251 54.4556 12.2569L54.5483 12.9767ZM53.2772 11.7351C53.2515 11.5397 53.2258 11.4163 53.1975 11.3649C53.1692 11.3135 53.1228 11.2904 53.056 11.3006C52.9993 11.3058 52.9608 11.3341 52.935 11.3829C52.9119 11.4292 52.9144 11.5603 52.9402 11.7762L53.1897 13.7377C53.2206 13.9819 53.2489 14.131 53.2772 14.185C53.303 14.2415 53.3518 14.2646 53.4239 14.2544C53.4959 14.2441 53.5397 14.2055 53.55 14.1387C53.5628 14.0693 53.5525 13.9125 53.5217 13.6657L53.2772 11.7351ZM59.2337 14.586L55.2636 14.6888L55.1555 10.4523L56.2593 10.424L56.3442 13.8122L56.671 13.8045L56.5861 10.4163L57.6899 10.388L57.7748 13.7762L58.1016 13.7685L58.0166 10.3803L59.1256 10.3521L59.2337 14.586ZM60.0724 10.4883L61.1737 10.5706L61.0425 12.3546C61.2483 12.3649 61.3615 12.2595 61.3872 12.0359L61.4696 11.2132C61.5004 10.9099 61.5751 10.7068 61.6934 10.6117L62.7072 10.6888C62.6017 10.7839 62.5374 10.9922 62.5142 11.3135L62.4653 12.0384C62.437 12.4754 62.1694 12.7068 61.6677 12.7299C62.1617 12.8276 62.3881 13.1001 62.3521 13.5449L62.2955 14.2184C62.2672 14.5371 62.2981 14.7685 62.3881 14.9125L61.3718 14.8353C61.2612 14.7197 61.2174 14.5089 61.2406 14.2055L61.3049 13.3829C61.3126 13.2775 61.2869 13.1901 61.2303 13.1233C61.1711 13.0564 61.0939 13.0153 60.9936 13.0076L60.8521 14.7942L59.7508 14.7119L60.0724 10.4883ZM65.4705 13.7402C65.3959 14.1592 65.3342 14.4523 65.2827 14.6245C65.2313 14.7942 65.1412 14.9433 65.0126 15.0693C64.8813 15.1952 64.7218 15.2801 64.5314 15.3263C64.341 15.37 64.1275 15.3726 63.8933 15.3315C63.6695 15.2904 63.4765 15.2184 63.3118 15.113C63.1472 15.0101 63.0236 14.8739 62.9413 14.7094C62.859 14.5449 62.8255 14.3752 62.8332 14.1978C62.8435 14.023 62.8873 13.7197 62.9645 13.2929L63.0931 12.5783C63.1677 12.1592 63.2295 11.8662 63.2809 11.694C63.3324 11.5243 63.4225 11.3752 63.5511 11.2492C63.6798 11.1233 63.8419 11.0384 64.0323 10.9922C64.2227 10.9485 64.4362 10.9459 64.6704 10.987C64.8942 11.0256 65.0872 11.1001 65.2518 11.203C65.4165 11.3084 65.54 11.4446 65.6198 11.6091C65.7021 11.7736 65.7381 11.9433 65.7278 12.1181C65.7176 12.2955 65.6764 12.5963 65.5992 13.0256L65.4705 13.7402ZM64.6292 12.1747C64.6626 11.9819 64.6755 11.8559 64.6626 11.7994C64.6523 11.7402 64.6137 11.7068 64.5494 11.694C64.4928 11.6837 64.4465 11.6991 64.4105 11.7377C64.3719 11.7762 64.3359 11.9022 64.2973 12.1155L63.9473 14.0616C63.9062 14.3032 63.8882 14.4549 63.8985 14.514C63.9062 14.5757 63.9473 14.6117 64.0168 14.6245C64.0889 14.6374 64.1403 14.6117 64.1738 14.5526C64.2046 14.4909 64.2432 14.3366 64.287 14.0924L64.6292 12.1747ZM68.2288 16.3366L67.1661 16.0359L68.0924 12.7736L67.7836 12.6862L67.1275 14.9947C67.0401 15.2981 66.9397 15.5037 66.8239 15.6143C66.7081 15.7248 66.5641 15.7736 66.3968 15.7634C66.227 15.7505 65.9697 15.6965 65.6198 15.5963L65.4525 15.55L65.6532 14.8482C65.7819 14.8868 65.8771 14.8945 65.9337 14.8765C65.9929 14.8585 66.0469 14.7557 66.1009 14.5706L66.9526 11.5706L69.3866 12.2621L68.2288 16.3366ZM72.0419 13.2698L71.0719 17.442L70.0247 17.0307L70.2486 16.3006L69.878 16.1541L69.5436 16.8405L68.4809 16.4215L70.5573 12.6862L72.0419 13.2698ZM70.4956 15.5911C70.6242 15.1258 70.7915 14.5526 70.9947 13.8713C70.5959 14.5886 70.3129 15.1155 70.1482 15.4549L70.4956 15.5911Z" fill="#FDFEFF"/>
<path d="M23.9267 50.3749L17.8828 51.1564L17.9137 49.5574L18.9969 49.4906L19.0072 48.9276L17.9266 48.8222L17.9574 47.2026L23.9705 48.1075L23.9267 50.3749ZM20.0647 49.47C20.7491 49.4083 21.5956 49.344 22.6068 49.2798C21.4515 49.105 20.6076 48.9893 20.075 48.9379L20.0647 49.47ZM23.937 51.6088L24.0554 53.1718L21.5184 53.3723C21.5467 53.6628 21.7217 53.799 22.0433 53.7836L23.2166 53.7245C23.6514 53.7014 23.9499 53.7631 24.112 53.9096L24.2226 55.3517C24.0657 55.2232 23.7569 55.1769 23.3015 55.2155L22.2697 55.3003C21.6471 55.3543 21.2637 55.0304 21.1248 54.3286C21.0913 55.0433 20.7568 55.4211 20.1239 55.4649L19.1667 55.5291C18.7113 55.56 18.3923 55.6551 18.2096 55.8068L18.1015 54.3646C18.2379 54.1872 18.5261 54.0818 18.9583 54.0484L20.129 53.9584C20.2782 53.9481 20.394 53.8942 20.4789 53.799C20.5613 53.7014 20.5999 53.5831 20.5922 53.4417L18.0449 53.6294L17.9266 52.0638L23.937 51.6088ZM24.8427 58.0484L19.1719 60.2772L18.8117 58.7168L19.846 58.3903L19.7199 57.8402L18.6444 58.0021L18.2816 56.4212L24.3333 55.8402L24.8427 58.0484ZM20.8778 58.1101C21.5261 57.8839 22.3315 57.6165 23.2963 57.308C22.1334 57.4186 21.2869 57.5137 20.7568 57.5908L20.8778 58.1101ZM19.7971 65.7322L19.4652 64.7039L20.4506 64.3852L19.671 61.9816L18.6856 62.3003L18.3511 61.272L20.533 60.5651L20.6307 60.8684C21.1531 60.8787 21.8143 60.8093 22.6145 60.6654C23.4147 60.5188 24.2689 60.3003 25.1746 60.0073L25.3496 59.9507L26.4199 63.2541L21.8889 64.7194L21.9867 65.0253L19.7971 65.7322ZM21.4052 63.2283L24.8067 62.1281L24.6626 61.6859L24.6189 61.6988C23.5202 62.0535 22.3649 62.2977 21.1479 62.4314L21.4052 63.2283ZM26.6129 63.6319L27.8299 65.943L26.7621 66.5034L26.2784 65.5805L25.2595 66.1152L25.7124 66.979L24.7012 67.5111L24.2458 66.6474L23.0725 67.2643L23.6102 68.2823L22.5425 68.8427L21.2766 66.4366L26.6129 63.6319ZM30.6962 70.6114L25.6326 73.8813L24.8864 72.7296L28.3034 70.5188L24.5906 72.2695L24.0682 71.4648L27.0966 68.8222L23.7543 70.9764L23.0107 69.8273L28.0718 66.5574L29.173 68.2566C28.8977 68.5034 28.5709 68.7888 28.1953 69.1101L27.0297 70.1281L29.5873 68.8993L30.6962 70.6114ZM28.7253 77.5034L27.8634 76.5163L29.9243 74.7116L27.3256 75.9044L26.4251 74.8787L30.9612 70.9096L31.8258 71.8967L29.7777 73.6859L32.4021 72.5548L33.2615 73.5343L28.7253 77.5034ZM32.1577 80.8016L31.0178 79.7219L32.8858 77.7553C32.7417 77.6191 32.6259 77.5548 32.5385 77.5625C32.451 77.5702 32.3301 77.6551 32.1757 77.817L30.6756 79.398L29.6181 78.398L30.8557 77.0947C31.0667 76.8736 31.2365 76.7168 31.3703 76.6242C31.5041 76.5317 31.6508 76.488 31.8129 76.4983C31.9724 76.506 32.1705 76.5754 32.4124 76.7065C32.1705 76.4366 32.0728 76.2001 32.1114 76.0021C32.1525 75.8042 32.3275 75.542 32.6362 75.2181C32.9115 74.9276 33.1637 74.7322 33.3927 74.6371C33.6191 74.5394 33.8378 74.5214 34.0411 74.578C34.2469 74.6345 34.445 74.7399 34.638 74.8967C34.831 75.0484 35.1192 75.3055 35.4974 75.6654L36.3053 76.4289L32.1577 80.8016ZM33.5368 77.069L34.4528 76.1024L34.3987 76.051C34.3035 75.961 34.2109 75.9147 34.1234 75.9096C34.0334 75.907 33.9227 75.9738 33.7915 76.1127L33.5651 76.3543C33.4107 76.5163 33.3309 76.6397 33.3232 76.7271C33.3181 76.817 33.3875 76.9301 33.5368 77.069ZM38.0421 83.1744C37.8002 83.5548 37.5789 83.7939 37.3757 83.8967C37.1724 84.0021 36.9563 84.0098 36.7298 83.925C36.5034 83.8402 36.1715 83.6602 35.7341 83.3826L34.2032 82.4134L37.4297 77.326L40.0232 78.9687L39.4649 79.8479L38.1964 79.0458L37.651 79.907L37.8542 80.0381C38.2633 80.2952 38.5567 80.5163 38.7368 80.6962C38.9143 80.8762 39.0043 81.0818 39.0043 81.3132C39.0043 81.542 38.8911 81.835 38.6673 82.1872L38.0421 83.1744ZM36.8122 82.1821L37.2779 81.4468C37.4143 81.2335 37.4734 81.0895 37.4606 81.0175C37.4477 80.943 37.3422 80.8402 37.1441 80.7065L36.084 82.3774C36.2513 82.4854 36.3799 82.5368 36.4648 82.5291C36.5523 82.524 36.6681 82.4083 36.8122 82.1821ZM41.0987 79.6217L43.4196 80.8247L42.8638 81.8916L41.9375 81.4109L41.4049 82.4314L42.272 82.8813L41.7446 83.8942L40.88 83.4443L40.2677 84.6217L41.2891 85.1512L40.7334 86.2181L38.3199 84.9661L41.0987 79.6217ZM45.5346 84.5111C45.7172 84.6654 45.8304 84.8427 45.8716 85.0458C45.9102 85.2489 45.815 85.6499 45.5834 86.2515C45.4111 86.6988 45.2258 87.0253 45.0277 87.2309C44.8296 87.4391 44.5826 87.5574 44.2841 87.5908C43.983 87.6217 43.6383 87.5625 43.2472 87.4109C42.8046 87.2412 42.483 87.0304 42.29 86.7836C42.0945 86.5368 41.9967 86.29 42.0019 86.0407C42.007 85.7965 42.1099 85.4032 42.3183 84.8685L42.4907 84.4237L43.8904 84.9661L43.5379 85.8787C43.4427 86.1229 43.3964 86.2849 43.4016 86.3595C43.4041 86.4391 43.4556 86.4957 43.5559 86.5343C43.664 86.5754 43.7541 86.5625 43.821 86.4931C43.8853 86.4237 43.9882 86.2129 44.1246 85.8607L44.2764 85.47C44.3587 85.2541 44.3973 85.0895 44.387 84.9713C44.3767 84.853 44.3278 84.7579 44.2455 84.6911C44.1632 84.6242 43.9856 84.5343 43.7155 84.4237L44.0319 83.6062C44.3639 83.7373 44.5748 83.8016 44.6649 83.8093C44.7524 83.8119 44.8296 83.781 44.899 83.7065C44.9659 83.6345 45.0354 83.5086 45.1049 83.326L45.2258 83.015C45.303 82.817 45.3313 82.6808 45.3159 82.6037C45.2978 82.524 45.249 82.47 45.1615 82.4366C45.0637 82.398 44.9839 82.4057 44.9248 82.4571C44.8604 82.5086 44.791 82.6422 44.7061 82.8582L44.5285 83.3183L43.1288 82.7759L43.3141 82.2978C43.5199 81.7631 43.7824 81.4494 44.1014 81.3543C44.4205 81.2618 44.845 81.3183 45.3802 81.524C46.0491 81.7836 46.4505 82.087 46.5895 82.4417C46.7258 82.7939 46.7053 83.2052 46.5251 83.6679C46.4042 83.9841 46.273 84.1949 46.1341 84.3003C45.9925 84.4083 45.7918 84.4777 45.5346 84.5111ZM50.1273 86.7451C49.9909 87.3337 49.8829 87.7476 49.798 87.9867C49.7156 88.2258 49.5767 88.4314 49.3837 88.6011C49.1907 88.7708 48.9592 88.8813 48.6839 88.9327C48.4111 88.9841 48.1075 88.9738 47.7782 88.8967C47.4643 88.8247 47.1941 88.7091 46.9677 88.5497C46.7413 88.3903 46.574 88.1898 46.4685 87.9507C46.3631 87.7116 46.3245 87.4648 46.3502 87.2181C46.3785 86.9687 46.4583 86.542 46.5972 85.9379L46.8262 84.9353C46.9626 84.344 47.0706 83.9301 47.1555 83.6911C47.2379 83.452 47.3768 83.2463 47.5698 83.0767C47.7627 82.907 47.9969 82.7965 48.2696 82.7451C48.5424 82.6936 48.846 82.7065 49.1753 82.781C49.4918 82.853 49.7594 82.9687 49.9858 83.1281C50.2122 83.2875 50.3795 83.488 50.485 83.7271C50.5904 83.9687 50.629 84.2129 50.6033 84.4597C50.575 84.7091 50.4952 85.1358 50.3563 85.7399L50.1273 86.7451ZM49.0364 84.4649C49.0981 84.1949 49.1239 84.015 49.1136 83.9327C49.1007 83.8505 49.0467 83.799 48.9566 83.7759C48.8768 83.7605 48.8125 83.7759 48.7559 83.8299C48.6993 83.8813 48.6376 84.0561 48.5681 84.3595L47.9429 87.0998C47.8657 87.4391 47.8296 87.6525 47.8399 87.7399C47.8477 87.8247 47.9017 87.8787 48.002 87.9019C48.1024 87.925 48.1796 87.8941 48.2285 87.8093C48.2773 87.7245 48.3417 87.5086 48.4214 87.1641L49.0364 84.4649ZM54.3393 89.8993L52.7852 89.6911L53.4233 84.9121L52.9704 84.853L52.3298 89.6294L50.7757 89.4212L51.5733 83.452L55.1395 83.9276L54.3393 89.8993ZM58.4277 83.9867L59.2125 90.0253L57.6121 89.997L57.5478 88.9147L56.9817 88.9044L56.8762 89.9841L55.2552 89.9533L56.1609 83.9456L58.4277 83.9867ZM57.5246 87.8479C57.4629 87.1641 57.3985 86.3183 57.3342 85.3055C57.1567 86.4597 57.0435 87.3055 56.992 87.8376L57.5246 87.8479ZM63.3061 86.1846L61.7494 86.3929L61.6105 85.3569C61.5693 85.0535 61.5282 84.8684 61.487 84.799C61.4432 84.7296 61.3661 84.7014 61.2528 84.7142C61.1268 84.7322 61.0522 84.7888 61.0316 84.8839C61.0084 84.979 61.0187 85.1769 61.0573 85.4803L61.4304 88.2515C61.469 88.542 61.5101 88.7271 61.5565 88.8119C61.6028 88.8967 61.6851 88.9301 61.8035 88.9121C61.9193 88.8993 61.9887 88.8453 62.0119 88.7502C62.035 88.6576 62.0247 88.4469 61.981 88.1178L61.8807 87.3672L63.4373 87.1589L63.4682 87.3903C63.5505 88.0098 63.5659 88.4546 63.5119 88.7245C63.4605 88.9944 63.2984 89.2489 63.0256 89.4828C62.7503 89.7168 62.3978 89.8633 61.9578 89.9224C61.505 89.9841 61.1165 89.9507 60.8 89.8273C60.4835 89.7014 60.2571 89.4983 60.1207 89.2206C59.9869 88.9404 59.8814 88.5111 59.8017 87.925L59.5676 86.1821C59.5109 85.7502 59.4826 85.4263 59.4826 85.2078C59.4852 84.9893 59.5444 84.7708 59.6628 84.5523C59.7837 84.3337 59.9638 84.1487 60.2082 83.9996C60.4527 83.8505 60.7434 83.7553 61.0805 83.7091C61.5384 83.6474 61.927 83.6859 62.2486 83.8222C62.5702 83.9584 62.7941 84.1538 62.9253 84.4057C63.0539 84.6576 63.1543 85.0612 63.2289 85.6165L63.3061 86.1846ZM67.0986 82.7219L68.4546 88.5908L66.9262 88.943L66.355 86.4803L65.9099 86.5831L66.4786 89.0458L64.9502 89.4006L63.5943 83.5317L65.1226 83.1769L65.6089 85.2772L66.054 85.1744L65.5677 83.0741L67.0986 82.7219ZM72.2986 84.7245C72.4839 85.3003 72.6022 85.7116 72.6537 85.9584C72.7051 86.2078 72.6897 86.4546 72.6125 86.6988C72.5328 86.9404 72.3887 87.1564 72.1828 87.3415C71.9718 87.5265 71.7068 87.6705 71.3852 87.7759C71.079 87.8762 70.7883 87.9121 70.5104 87.8916C70.2351 87.871 69.9881 87.7836 69.7771 87.6319C69.5635 87.4803 69.404 87.29 69.2985 87.0638C69.193 86.835 69.0438 86.4289 68.8534 85.8376L68.5369 84.8582C68.3491 84.2823 68.2307 83.871 68.1793 83.6242C68.1304 83.3749 68.1433 83.1281 68.2205 82.8839C68.3002 82.6397 68.4443 82.4263 68.6527 82.2412C68.8611 82.0561 69.1261 81.9122 69.4478 81.8068C69.7565 81.7065 70.0473 81.6679 70.3226 81.6911C70.6005 81.7116 70.8449 81.7965 71.0584 81.9507C71.272 82.1024 71.429 82.2926 71.5344 82.5188C71.6399 82.7451 71.7892 83.1538 71.9796 83.7425L72.2986 84.7245ZM70.1939 83.326C70.1064 83.0587 70.037 82.8942 69.9829 82.8273C69.9315 82.7631 69.8594 82.7451 69.7694 82.7759C69.6948 82.799 69.6459 82.8479 69.6253 82.9224C69.6047 82.9944 69.6407 83.1795 69.7359 83.4726L70.6056 86.1461C70.7111 86.4803 70.7909 86.6808 70.8423 86.7476C70.8963 86.8196 70.9684 86.8376 71.0662 86.8067C71.1665 86.7733 71.2154 86.7091 71.2128 86.6088C71.2128 86.5111 71.1562 86.2926 71.0482 85.9558L70.1939 83.326ZM74.3364 81.0098L73.3201 81.5471L75.5663 85.8119L74.1769 86.542L71.3698 81.2129L73.7755 79.9456L74.3364 81.0098ZM79.1865 80.7785C79.5158 81.2875 79.7371 81.6551 79.8477 81.8813C79.9609 82.1075 80.0124 82.3492 79.9995 82.6037C79.9867 82.8607 79.9018 83.105 79.7499 83.3389C79.5956 83.5702 79.3769 83.7785 79.0913 83.9636C78.8211 84.1384 78.5484 84.2489 78.2756 84.3003C78.0029 84.3517 77.743 84.3312 77.4986 84.2386C77.2542 84.1461 77.0509 84.0021 76.8914 83.8119C76.7319 83.6191 76.4823 83.2618 76.1452 82.7425L75.5869 81.8762C75.2575 81.3697 75.0363 81.0021 74.9256 80.7759C74.8098 80.5471 74.761 80.3055 74.7738 80.051C74.7867 79.7939 74.869 79.5497 75.0234 79.3183C75.1778 79.0844 75.3965 78.8762 75.6821 78.6936C75.9522 78.5188 76.2224 78.4057 76.4977 78.3569C76.7679 78.3055 77.0277 78.326 77.2722 78.4186C77.5192 78.5111 77.7224 78.6525 77.882 78.8427C78.0415 79.0355 78.2911 79.3929 78.6256 79.9121L79.1865 80.7785ZM76.7936 79.9687C76.6418 79.7348 76.5312 79.5934 76.4617 79.542C76.3948 79.4931 76.3227 79.4957 76.243 79.5471C76.1761 79.5882 76.1401 79.6499 76.1401 79.7245C76.1375 79.8016 76.2224 79.9687 76.3896 80.2283L77.918 82.5908C78.1058 82.8839 78.237 83.0561 78.3039 83.1101C78.3708 83.1641 78.448 83.1615 78.5329 83.1075C78.6204 83.051 78.6513 82.9738 78.6256 82.8813C78.5998 82.7862 78.4892 82.5882 78.2962 82.2926L76.7936 79.9687ZM78.6436 76.8196L79.8168 75.7913C80.1874 75.4674 80.4935 75.2489 80.7354 75.1409C80.9773 75.0304 81.2346 75.0124 81.5047 75.087C81.7775 75.1615 82.0836 75.3929 82.4284 75.7836C82.66 76.0484 82.7809 76.2695 82.7886 76.4469C82.7963 76.6242 82.7037 76.8479 82.5082 77.1178C82.8349 76.9404 83.1103 76.8813 83.3315 76.9379C83.5554 76.9944 83.7947 77.1718 84.0545 77.4674L84.4225 77.8864C84.6926 78.1924 84.8547 78.4494 84.9139 78.6602C84.9731 78.8684 84.9525 79.0664 84.847 79.254C84.7415 79.4417 84.4508 79.7425 83.9773 80.1589L82.6162 81.3492L78.6436 76.8196ZM80.5038 76.5574L81.3864 77.5651C81.4352 77.5214 81.4713 77.488 81.4996 77.4623C81.6128 77.3646 81.6591 77.272 81.6411 77.1872C81.6231 77.1024 81.4944 76.9276 81.2603 76.6577C81.1342 76.5163 81.0364 76.4289 80.9592 76.3929C80.8846 76.3595 80.8177 76.3517 80.7637 76.3723C80.7122 76.3954 80.6222 76.4571 80.5038 76.5574ZM82.0039 78.2695L83.1205 79.542C83.2775 79.3954 83.3573 79.2772 83.3624 79.1924C83.365 79.105 83.2878 78.9713 83.1257 78.7862L82.7552 78.3646C82.5828 78.1692 82.4593 78.069 82.3847 78.0613C82.3075 78.0561 82.1814 78.1255 82.0039 78.2695ZM86.661 73.799C87.1241 74.1924 87.4406 74.4777 87.613 74.6628C87.7879 74.8479 87.9063 75.0638 87.968 75.3132C88.0298 75.5625 88.0195 75.8196 87.9397 76.087C87.86 76.3543 87.7107 76.6165 87.492 76.8762C87.2836 77.1204 87.0546 77.3055 86.8102 77.434C86.5632 77.56 86.3085 77.6165 86.0486 77.5985C85.7861 77.5805 85.5494 77.5034 85.341 77.3646C85.1326 77.2258 84.793 76.9584 84.3195 76.5574L83.5322 75.889C83.0717 75.4983 82.7526 75.2104 82.5802 75.0253C82.4053 74.8402 82.2895 74.6242 82.2277 74.3749C82.1634 74.1281 82.1737 73.8685 82.2534 73.6037C82.3332 73.3363 82.485 73.0741 82.7037 72.8145C82.9121 72.5677 83.1385 72.3826 83.3856 72.2566C83.6326 72.1281 83.8873 72.0741 84.1472 72.0921C84.4096 72.1101 84.6437 72.1872 84.8522 72.3235C85.0606 72.4623 85.4028 72.7322 85.8762 73.1332L86.661 73.799ZM84.1369 73.7142C83.9233 73.5343 83.7766 73.4314 83.6969 73.4032C83.6171 73.3749 83.5477 73.398 83.4859 73.47C83.4344 73.5291 83.419 73.596 83.4396 73.6705C83.4602 73.7425 83.5888 73.8813 83.8255 74.0818L85.9714 75.8993C86.2364 76.1255 86.4114 76.2541 86.4911 76.2849C86.5709 76.3183 86.6455 76.2952 86.7098 76.2181C86.7767 76.1384 86.7845 76.0561 86.733 75.9738C86.679 75.8916 86.5169 75.7348 86.2467 75.506L84.1369 73.7142ZM88.2099 71.7065C88.0401 71.9893 88.0709 72.2052 88.3025 72.3517L89.643 73.2001C89.8206 73.3132 89.9363 73.4109 89.9852 73.4983C90.0341 73.5831 90.0521 73.6371 90.0418 73.6525L89.3497 74.7451C89.2751 74.5651 89.1001 74.3903 88.8325 74.2206L87.6876 73.4957C87.4457 73.3415 87.3016 73.1564 87.2605 72.9404C87.2193 72.7245 87.2759 72.434 87.4277 72.0715L87.4226 72.0664C87.0135 72.6422 86.5477 72.763 86.0254 72.434L84.9474 71.7502C84.6823 71.5831 84.4533 71.5034 84.2629 71.5163L84.9551 70.4237C84.9885 70.4006 85.0528 70.3954 85.1506 70.4134C85.251 70.4314 85.377 70.4906 85.5288 70.5857L86.7947 71.3877C87.0289 71.5343 87.2347 71.4751 87.4174 71.2052L85.305 69.8685L86.1464 68.5445L88.2588 69.8787C88.4234 69.6011 88.39 69.3877 88.1584 69.2386L86.8925 68.4366C86.715 68.326 86.6043 68.2283 86.5529 68.1435C86.504 68.0587 86.486 68.0073 86.4989 67.9893L87.191 66.8967C87.263 67.0741 87.4303 67.2463 87.6979 67.416L88.7759 68.0998C89.2983 68.4289 89.3857 68.9019 89.0384 69.5188L89.0435 69.524C89.3085 69.2283 89.5453 69.0535 89.7614 68.997C89.9749 68.943 90.2039 68.9918 90.4458 69.1461L91.5908 69.871C91.8584 70.0407 92.0925 70.1229 92.288 70.1127L91.5959 71.2052C91.5573 71.2309 91.4904 71.2335 91.3926 71.2129C91.2923 71.1949 91.1662 71.1358 91.0144 71.0381L89.6739 70.1898C89.4398 70.0433 89.2339 70.1075 89.0487 70.3826L91.2383 71.7682L90.3995 73.0921L88.2099 71.7065ZM95.6586 65.6114L95.2084 66.596L94.2667 66.1641L93.2143 68.4648L94.156 68.8942L93.7058 69.8787L91.6216 68.925L91.7529 68.6345C91.3746 68.2746 90.842 67.8787 90.1551 67.4469C89.4681 67.0124 88.6885 66.5985 87.8214 66.2001L87.6567 66.1255L89.1027 62.9661L93.433 64.9456L93.5668 64.6551L95.6586 65.6114ZM92.7795 66.3723L89.5298 64.889L89.3368 65.3106L89.3754 65.3286C90.4278 65.8093 91.4441 66.4109 92.4321 67.1358L92.7795 66.3723ZM89.3986 62.1692L90.2477 59.6988L91.3875 60.0895L91.0479 61.0767L92.1362 61.4494L92.4527 60.5265L93.5334 60.8967L93.2169 61.8196L94.4725 62.2489L94.8456 61.1615L95.9854 61.5523L95.1003 64.1229L89.3986 62.1692ZM91.2048 55.6628L97.0815 57.0047L96.7316 58.5343L94.2641 57.9713L94.1637 58.416L96.6286 58.979L96.2813 60.5086L90.4021 59.1666L90.752 57.6371L92.8567 58.1178L92.957 57.6731L90.8549 57.1924L91.2048 55.6628ZM97.5575 52.2669L97.4597 53.5728L94.7247 53.3646L97.398 54.3852L97.2951 55.7451L91.282 55.2875L91.3824 53.9816L94.0943 54.1872L91.4493 53.1101L91.547 51.8119L97.5575 52.2669ZM97.5472 47.5085L97.5781 49.0792L94.8636 49.1281C94.8687 49.326 94.9022 49.4546 94.9691 49.5111C95.036 49.5677 95.1801 49.5934 95.4039 49.5908L97.5858 49.5497L97.6115 51.0047L95.8156 51.0381C95.5094 51.0433 95.2778 51.0304 95.1183 50.9996C94.9588 50.9687 94.825 50.8942 94.7195 50.7733C94.614 50.6551 94.524 50.4623 94.4468 50.2001C94.4236 50.5625 94.3233 50.7965 94.1535 50.907C93.9836 51.0175 93.6749 51.0767 93.2298 51.0844C92.8258 51.0921 92.5119 51.0484 92.2829 50.9533C92.0539 50.8582 91.8892 50.7168 91.7863 50.5317C91.6834 50.3466 91.6191 50.1307 91.5933 49.8839C91.5676 49.6397 91.5496 49.2541 91.5419 48.7322L91.5213 47.6217L97.5472 47.5085ZM93.9193 49.1461L92.5865 49.1692V49.2438C92.5891 49.3749 92.62 49.4751 92.6791 49.5394C92.7409 49.6062 92.8644 49.6371 93.0574 49.6345L93.3893 49.6268C93.6106 49.6242 93.7572 49.5934 93.8241 49.5368C93.891 49.4777 93.9219 49.3492 93.9193 49.1461Z" fill="#FDFEFF"/>
</svg>
