<svg width="416" height="102" viewBox="0 0 416 102" fill="none" xmlns="http://www.w3.org/2000/svg">
<path fill-rule="evenodd" clip-rule="evenodd" d="M46.4966 42.0396C44.4722 42.9632 42.3012 43.5211 40.0834 43.6881V32.8322C44.1443 31.9393 47.0387 29.9254 48.7664 26.7909H58.1288V69.9751H46.4989L46.4966 42.0396ZM43.9908 80.3888C51.5725 82.2693 59.5745 81.3837 66.5646 77.8911C73.555 74.3982 79.0773 68.5259 82.1438 61.3251C85.2103 54.1241 85.6207 46.0642 83.3017 38.5876C80.9826 31.1109 76.0854 24.7055 69.4865 20.5172C62.8872 16.329 55.0169 14.6313 47.2834 15.7279C39.5499 16.8245 32.458 20.6439 27.2766 26.5025C22.0953 32.3614 19.1623 39.8772 19.003 47.7051C18.8436 55.5332 21.4677 63.1627 26.4063 69.2287C30.9073 74.7599 37.0781 78.6764 43.9908 80.3888Z" fill="white"/>
<path fill-rule="evenodd" clip-rule="evenodd" d="M58.583 101C58.583 101 56.5066 98.4429 51.8906 95.9893C47.2835 98.4429 45.1982 101 45.1982 101L43.6056 99.5703C43.6056 99.5703 45.4368 97.383 49.9266 95.0173C46.8647 93.6508 43.6404 92.6838 40.3327 92.1398C37.9084 91.5569 35.5533 90.7155 33.3074 89.6299C32.0444 91.0548 30.4614 92.1579 28.6891 92.848C25.9426 93.9259 22.7279 92.2774 22.7279 92.2774C22.7279 92.2774 24.9774 88.9444 27.9693 88.3018C28.8061 88.1236 29.8815 88.2048 30.8756 88.3718C29.3964 87.5419 27.965 86.6294 26.5881 85.6386C25.1079 86.836 23.3604 87.6561 21.4952 88.0289C18.6586 88.6018 15.8378 86.4617 15.8378 86.4617C15.8378 86.4617 18.5845 83.6294 21.5718 83.5302C22.503 83.4942 23.6683 83.8233 24.6784 84.2066C23.2556 83.0718 21.8985 81.8566 20.6134 80.567C18.9779 81.4825 17.1437 81.982 15.2708 82.0216C12.4343 82.0891 10.0746 79.5409 10.0746 79.5409C10.0746 79.5409 13.2036 77.286 16.1076 77.6784C17.0076 77.8046 18.0896 78.3256 19.0051 78.869C17.7731 77.5046 16.6246 76.067 15.5655 74.5642C13.8322 75.1647 11.9787 75.3302 10.1668 75.0467C7.42005 74.6294 5.57335 71.7678 5.57335 71.7678C5.57335 71.7678 8.98122 70.115 11.7122 71.001C12.5421 71.2673 13.4533 71.9167 14.2249 72.5797C13.2675 71.0576 12.4079 69.4759 11.6515 67.8442C9.90051 68.1096 8.11168 67.9502 6.43477 67.3794C3.85914 66.5069 2.56117 63.4332 2.56117 63.4332C2.56117 63.4332 6.12893 62.4206 8.61903 63.7376C9.33883 64.1211 10.0746 64.8538 10.6909 65.5891C10.0543 63.9538 9.52817 62.2777 9.11624 60.5716C7.3566 60.5376 5.63198 60.0721 4.09315 59.2162C1.75355 57.9398 1.02259 54.749 1.02259 54.749C1.02259 54.749 4.63756 54.3838 6.81498 56.0772C7.48985 56.6005 8.10406 57.5046 8.58985 58.364C8.19924 56.5749 7.93097 54.7614 7.7868 52.936C6.10965 52.6018 4.53782 51.8667 3.20457 50.7937C1.1665 49.1609 1 45.9566 1 45.9566C1 45.9566 4.55432 46.2137 6.36726 48.2251C6.91396 48.8294 7.34823 49.7812 7.6698 50.6741C7.62259 48.8003 7.69771 46.9254 7.89467 45.0614C6.30584 44.4576 4.88959 43.4708 3.77132 42.1883C2.07741 40.2627 2.46447 37.1416 2.46447 37.1416C2.46447 37.1416 5.83858 38.0008 7.25812 40.249C7.72386 40.9954 7.99137 42.1208 8.14442 43.1107C8.43934 41.1421 8.86168 39.1949 9.40863 37.2815C7.94416 36.4282 6.71726 35.219 5.84086 33.7657C4.54289 31.6168 5.44289 28.6716 5.44289 28.6716C5.44289 28.6716 8.56294 30.0766 9.54137 32.4893C9.89898 33.369 9.94188 34.6543 9.90127 35.6962C10.5419 33.7117 11.3127 31.7718 12.2094 29.8893C10.9393 28.816 9.96041 27.4383 9.36371 25.8845C8.46396 23.5933 9.83832 20.903 9.83832 20.903C9.83832 20.903 12.6074 22.7928 13.1452 25.2823C13.3363 26.1843 13.1698 27.3975 12.9584 28.3876C13.9241 26.5371 15.0208 24.7586 16.2404 23.0656C15.2256 21.8253 14.5305 20.3539 14.2157 18.781C13.7368 16.411 15.5183 14.0454 15.5183 14.0454C15.5183 14.0454 17.869 16.3366 17.9612 18.8397C17.9906 19.674 17.6756 20.7294 17.3315 21.6134C18.5619 20.0499 19.9284 18.5988 21.4142 17.2769C20.6127 15.8837 20.1769 14.3094 20.1477 12.7014C20.0893 10.3359 22.2061 8.36046 22.2061 8.36046C22.2061 8.36046 24.0911 10.9741 23.7538 13.4027C23.6233 14.3634 22.9688 15.5383 22.4152 16.3929C24.0145 14.9955 25.7053 13.7073 27.4766 12.5368C26.9104 11.0266 26.7447 9.39492 26.9952 7.80122C27.3439 5.51233 29.7195 3.96764 29.7195 3.96764C29.7195 3.96764 31.0939 6.81576 30.3561 9.09787C30.0365 10.0946 29.0627 11.2357 28.3541 11.9686C30.202 10.8062 32.1353 9.78627 34.1376 8.91746C33.835 7.35693 33.9467 5.74416 34.4614 4.24051C35.1858 2.08468 37.7434 1 37.7434 1C37.7434 1 38.5848 3.98117 37.4871 6.06259C36.9787 7.02774 35.7279 8.01546 34.9114 8.59726C36.1124 8.10566 37.1472 7.75386 37.964 7.50129C38.3373 7.05028 39.6084 5.62284 41.1424 5.36127C42.4449 5.13576 44.6338 5.97688 44.6338 5.97688C43.801 6.98274 42.7025 7.73302 41.4642 8.14173C39.9368 8.66716 38.2383 7.84406 37.9099 7.67269C36.4893 8.17282 35.0957 8.74713 33.7348 9.39327C34.5221 9.2467 36.6368 8.91294 37.9099 9.33013C40.1368 10.0653 41.597 12.7984 41.597 12.7984C41.597 12.7984 39.001 13.7951 36.9921 12.7465C35.5495 12.0113 34.3327 10.8976 33.4716 9.52406C31.4048 10.5267 29.418 11.687 27.5284 12.9946C28.4574 12.6699 30.1896 12.1489 31.3728 12.3181C33.7393 12.6563 35.6919 15.1414 35.6919 15.1414C35.6919 15.1414 33.2624 16.6049 31.0556 15.9081C29.5076 15.4303 28.1114 14.5541 27.0066 13.3667C25.2553 14.6143 23.5901 15.9787 22.0216 17.4506C21.8911 17.5656 21.7629 17.6761 21.6348 17.8001C22.5119 17.3062 24.1383 16.4922 25.3464 16.4471C27.7893 16.3659 30.1896 18.5194 30.1896 18.5194C30.1896 18.5194 28.0099 20.4205 25.6657 20.1115C24.0185 19.9091 22.4541 19.2734 21.1307 18.2691C19.4541 19.899 17.9419 21.6906 16.616 23.6181C17.4147 22.9641 18.8949 21.8659 20.0939 21.6156C22.5368 21.0992 25.3261 22.8379 25.3261 22.8379C25.3261 22.8379 23.468 25.1403 21.052 25.244C19.3731 25.3328 17.7003 24.9766 16.2023 24.2112C14.9934 26.0277 13.9213 27.9315 12.9944 29.9074C13.7188 29.116 14.7939 28.083 15.768 27.6906C18.1277 26.7437 21.2411 27.9906 21.2411 27.9906C21.2411 27.9906 19.7832 30.6289 17.3832 31.168C15.7645 31.5386 14.0787 31.4944 12.4815 31.0393C11.6431 32.9553 10.9338 34.9254 10.3579 36.9363C10.9429 36.0343 11.7662 34.97 12.6074 34.4558C14.8096 33.0848 18.1591 33.7794 18.1591 33.7794C18.1591 33.7794 17.1604 36.6906 14.8434 37.6581C13.3041 38.3061 11.6289 38.5634 9.9665 38.4066C9.45279 40.4508 9.08223 42.5282 8.85761 44.6239C9.28706 43.6203 9.93274 42.3688 10.6977 41.6764C12.6637 39.9041 16.1548 40.0168 16.1548 40.0168C16.1548 40.0168 15.6645 43.1198 13.5051 44.5043C12.0688 45.4338 10.4246 45.9909 8.7203 46.1256C8.57005 48.2046 8.57386 50.2916 8.73147 52.37C8.98579 51.2784 9.40635 49.8893 10.0678 49.0505C11.7348 46.9241 15.2596 46.4145 15.2596 46.4145C15.2596 46.4145 15.318 49.6211 13.3904 51.3914C12.114 52.5797 10.5634 53.432 8.87766 53.8718C9.09391 55.7751 9.45203 57.6596 9.94848 59.5094C10.0251 58.4226 10.2185 57.1236 10.6797 56.2576C11.9799 53.82 15.4327 52.6855 15.4327 52.6855C15.4327 52.6855 16.0581 55.8969 14.4409 58.0211C13.3807 59.419 11.9972 60.5373 10.4096 61.2797C10.9315 63.1305 11.5911 64.9396 12.3825 66.6916C12.2609 65.5642 12.2183 64.1977 12.5355 63.2256C13.4084 60.5421 16.6792 58.7924 16.6792 58.7924C16.6792 58.7924 17.8736 61.9089 16.6206 64.3261C15.8051 65.917 14.6173 67.2858 13.1586 68.3155C13.9789 69.9353 14.9041 71.5 15.9277 72.999C15.6487 71.9574 15.4261 70.7442 15.5612 69.8038C15.9637 66.9556 18.9353 64.617 18.9353 64.617C18.9353 64.617 20.6876 67.5373 19.8553 70.1893C19.3269 71.8959 18.4018 73.4525 17.1558 74.731C18.217 76.131 19.3579 77.4683 20.5728 78.736C20.1434 77.7843 19.7563 76.6929 19.7272 75.8043C19.635 72.8728 22.2015 69.984 22.2015 69.984C22.2015 69.984 24.4782 72.6068 24.1114 75.4233C23.8853 77.2089 23.2449 78.9162 22.2421 80.4091C23.4947 81.5896 24.8119 82.6995 26.1878 83.733C25.6028 82.8673 25.0472 81.8683 24.865 80.9931C24.253 78.0617 26.334 74.7084 26.334 74.7084C26.334 74.7084 29.085 76.9386 29.2132 79.832C29.3 81.6523 28.966 83.4683 28.2371 85.1381C29.7119 86.1261 31.2459 87.0223 32.8305 87.8216C32.0409 87.0233 31.2244 86.0513 30.8622 85.1447C29.7376 82.3033 31.2244 78.5645 31.2244 78.5645C31.2244 78.5645 34.3736 80.3145 35.0261 83.201C35.4411 85.0497 35.4142 86.9706 34.9472 88.8069C36.5028 89.482 38.1068 90.0391 39.7454 90.4733C38.8568 89.8307 37.9459 89.0414 37.4442 88.2386C35.7997 85.5891 36.6457 81.566 36.6457 81.566C36.6457 81.566 40.1279 82.7657 41.2843 85.553C41.9985 87.2632 42.3178 89.1134 42.2178 90.965C44.3254 91.365 46.3987 91.9282 48.4195 92.6495C49.6929 93.1005 50.8467 93.5741 51.8906 94.05C52.9365 93.5741 54.0906 93.1028 55.3637 92.6495C57.383 91.9279 59.4551 91.3647 61.5612 90.965C61.4634 89.1137 61.7825 87.264 62.4947 85.553C63.651 82.7657 67.1332 81.566 67.1332 81.566C67.1332 81.566 67.9789 85.5891 66.3325 88.2431C65.8376 89.0459 64.9198 89.8353 64.0312 90.4802C65.6698 90.0457 67.2738 89.4886 68.8294 88.8137C68.366 86.9761 68.3396 85.0551 68.7528 83.2053C69.3962 80.319 72.5568 78.569 72.5568 78.569C72.5568 78.569 74.0505 82.3079 72.9145 85.1492C72.5546 86.0513 71.7358 87.0299 70.9462 87.8282C72.5325 87.0272 74.068 86.1287 75.5442 85.1381C74.8028 83.4589 74.4617 81.6299 74.5477 79.7957C74.6759 76.9025 77.4269 74.6723 77.4269 74.6723C77.4269 74.6723 79.5079 78.0302 78.8914 80.9571C78.7068 81.8343 78.1513 82.8355 77.5688 83.7015C78.9454 82.6665 80.2642 81.5561 81.5188 80.3754C80.515 78.882 79.8741 77.1736 79.6472 75.3873C79.2805 72.5706 81.5571 69.948 81.5571 69.948C81.5571 69.948 84.1327 72.8299 84.0315 75.7683C84.0023 76.6703 83.6132 77.764 83.1835 78.718C84.4 77.4492 85.5416 76.1104 86.6028 74.7084C85.3579 73.4284 84.433 71.8713 83.9033 70.1645C83.0711 67.5127 84.8233 64.5924 84.8233 64.5924C84.8233 64.5924 87.7972 66.9376 88.1977 69.7789C88.3325 70.717 88.1076 71.9436 87.8264 72.9901C88.8528 71.4868 89.7807 69.9185 90.6046 68.2952C89.1449 67.2632 87.9558 65.8931 87.1381 64.3013C85.8873 61.884 87.082 58.7675 87.082 58.7675C87.082 58.7675 90.3505 60.5175 91.2299 63.201C91.5449 64.1751 91.4977 65.5574 91.3761 66.6782C92.1708 64.9266 92.8325 63.1175 93.3558 61.266C91.7777 60.5216 90.403 59.4051 89.3492 58.0122C87.7251 55.8878 88.3505 52.6766 88.3505 52.6766C88.3505 52.6766 91.8036 53.8041 93.1061 56.2487C93.5695 57.1145 93.7629 58.418 93.8416 59.5048C94.3358 57.6546 94.6937 55.7703 94.9124 53.8673C93.2249 53.4266 91.6723 52.5746 90.3932 51.3868C88.4675 49.6165 88.5261 46.4099 88.5261 46.4099C88.5261 46.4099 92.0487 46.9241 93.7112 49.0574C94.368 49.8939 94.7977 51.2964 95.0609 52.3881C95.2173 50.3058 95.2173 48.2147 95.0609 46.1325C93.3566 45.998 91.7124 45.4406 90.2761 44.5112C88.1122 43.1264 87.6241 40.0236 87.6241 40.0236C87.6241 40.0236 91.1152 39.9109 93.0835 41.6833C93.8505 42.3734 94.4985 43.636 94.9282 44.6419C94.7038 42.5421 94.3322 40.4609 93.8167 38.4134C92.1546 38.5711 90.4792 38.3137 88.9398 37.6647C86.6228 36.6975 85.6241 33.786 85.6241 33.786C85.6241 33.786 88.9693 33.0871 91.1736 34.4627C92.015 34.9858 92.8383 36.066 93.4231 36.9566C92.8485 34.9431 92.1391 32.9708 91.2997 31.053C89.702 31.5091 88.0155 31.5541 86.3957 31.1838C83.9934 30.6449 82.5378 28.0063 82.5378 28.0063C82.5378 28.0063 85.649 26.7594 88.0041 27.7066C88.9893 28.101 90.067 29.1406 90.7914 29.9345C89.8622 27.9548 88.7878 26.0472 87.5766 24.227C86.0784 24.9919 84.4058 25.3481 82.7269 25.2598C80.3198 25.156 78.4528 22.8537 78.4528 22.8537C78.4528 22.8537 81.251 21.0947 83.6942 21.6201C84.8954 21.8705 86.3777 22.9732 87.1764 23.6271C85.8497 21.6975 84.3368 19.9036 82.6594 18.2714C81.3371 19.2776 79.7721 19.9142 78.1244 20.116C75.7825 20.4182 73.6028 18.524 73.6028 18.524C73.6028 18.524 76.003 16.3704 78.4416 16.4516C79.6563 16.4922 81.2893 17.313 82.1667 17.8046C82.0363 17.6851 81.9058 17.5656 81.7731 17.4506C80.2038 15.9779 78.5378 14.6128 76.7858 13.3644C75.6825 14.5542 74.286 15.4315 72.7368 15.9081C70.5277 16.6049 68.0959 15.1414 68.0959 15.1414C68.0959 15.1414 70.0485 12.6608 72.415 12.3181C73.6028 12.1467 75.3393 12.6699 76.264 12.9946C74.3734 11.6847 72.385 10.5229 70.3162 9.51957C69.4508 10.8975 68.2287 12.0143 66.7799 12.751C64.769 13.7996 62.1731 12.8029 62.1731 12.8029C62.1731 12.8029 63.6398 10.0698 65.8645 9.33464C67.1421 8.9152 69.2612 9.25122 70.0442 9.40005C68.6825 8.75307 67.2883 8.17799 65.8668 7.67718C65.5383 7.84858 63.8421 8.67167 62.3058 8.14624C61.0678 7.73878 59.9695 6.9901 59.1363 5.98591C59.1363 5.98591 61.3294 5.14477 62.632 5.37028C64.1594 5.63185 65.4348 7.0548 65.8104 7.51033C66.6249 7.76289 67.6596 8.11467 68.8609 8.60401C68.0487 8.02898 66.798 7.03675 66.2919 6.0716C65.1942 3.99018 66.0332 1.00902 66.0332 1.00902C66.0332 1.00902 68.5977 2.0937 69.3152 4.24952C69.8289 5.75015 69.9421 7.35939 69.6437 8.91746C71.6409 9.78477 73.5698 10.8024 75.4137 11.9618C74.7051 11.2266 73.7332 10.0901 73.416 9.09561C72.6805 6.82028 74.0528 3.97216 74.0528 3.97216C74.0528 3.97216 76.4327 5.52137 76.7769 7.80574C77.0272 9.39371 76.8637 11.0196 76.3023 12.5255C78.0711 13.6939 79.7599 14.9799 81.3568 16.3749C80.8058 15.5225 80.1579 14.3454 80.0251 13.3937C79.6878 10.965 81.5728 8.35145 81.5728 8.35145C81.5728 8.35145 83.6919 10.3269 83.6332 12.6924C83.6023 14.2997 83.1657 15.873 82.3647 17.2656C83.8533 18.586 85.2218 20.0364 86.4543 21.5998C86.1102 20.7159 85.7929 19.6605 85.8221 18.8284C85.9188 16.3275 88.2741 14.0342 88.2741 14.0342C88.2741 14.0342 90.0513 16.3952 89.5766 18.7698C89.2607 20.3422 88.5655 21.8131 87.552 23.0543C88.765 24.7439 89.8566 26.5178 90.8183 28.3627C90.6068 27.3728 90.4449 26.1574 90.636 25.2643C91.1716 22.7837 93.9406 20.885 93.9406 20.885C93.9406 20.885 95.3127 23.5753 94.4152 25.8665C93.8185 27.4254 92.8398 28.8089 91.5695 29.8893C92.4683 31.7721 93.2409 33.7127 93.8822 35.6985C93.8416 34.6589 93.8822 33.3756 94.2444 32.4985C95.2206 30.0766 98.3475 28.6716 98.3475 28.6716C98.3475 28.6716 99.2472 31.6168 97.9381 33.7657C97.0607 35.2175 95.834 36.4256 94.3703 37.2792C94.8175 38.8487 95.1822 40.4409 95.4634 42.0485C95.6188 41.0901 95.882 40.019 96.3297 39.3132C97.7401 37.0581 101.123 36.2058 101.123 36.2058C101.123 36.2058 101.506 39.3266 99.8162 41.248C98.7129 42.5076 97.3244 43.4835 95.7673 44.0939C96.0475 46.2754 96.1619 48.4751 96.1091 50.6741C96.4307 49.7721 96.865 48.8294 97.4094 48.2251C99.2223 46.2137 102.777 45.9566 102.777 45.9566C102.777 45.9566 102.615 49.1609 100.572 50.7937C99.2396 51.8662 97.6685 52.6003 95.9921 52.9338C95.8492 54.7541 95.5817 56.5624 95.1914 58.3457C95.6772 57.4888 96.2936 56.5891 96.9594 56.0683C99.137 54.3746 102.756 54.7401 102.756 54.7401C102.756 54.7401 102.025 57.931 99.6812 59.2074C98.1431 60.0576 96.4211 60.518 94.665 60.549C94.253 62.2536 93.7269 63.9284 93.0904 65.5619C93.7066 64.8292 94.4401 64.0985 95.1622 63.715C97.6523 62.3982 101.218 63.4107 101.218 63.4107C101.218 63.4107 99.9221 66.4843 97.3396 67.3571C95.6652 67.9279 93.8784 68.0871 92.1297 67.8216C91.3721 69.453 90.5117 71.0348 89.5541 72.5571C90.3279 71.901 91.2388 71.2515 92.0645 70.9787C94.8023 70.0924 98.2056 71.7452 98.2056 71.7452C98.2056 71.7452 96.3589 74.6068 93.6122 75.0241C91.8058 75.3132 89.9563 75.1553 88.2246 74.5642C87.1655 76.0629 86.0185 77.4975 84.7896 78.8599C85.7051 78.3165 86.7759 77.7957 87.687 77.6693C90.5865 77.268 93.72 79.532 93.72 79.532C93.72 79.532 91.3558 82.0779 88.5239 82.0124C86.6508 81.9713 84.8162 81.4728 83.1789 80.5602C81.8926 81.8492 80.5348 83.0645 79.1119 84.2C80.1241 83.8188 81.2916 83.4873 82.2251 83.5233C85.2081 83.6317 87.9546 86.4551 87.9546 86.4551C87.9546 86.4551 85.1292 88.5949 82.2972 88.0223C80.4312 87.6533 78.6827 86.8353 77.202 85.6386C75.8206 86.63 74.3853 87.5439 72.9033 88.3761C73.8975 88.2094 74.9728 88.1282 75.8096 88.3063C78.7901 88.949 81.0487 92.282 81.0487 92.282C81.0487 92.282 77.832 93.9305 75.0853 92.8525C73.3147 92.1604 71.7327 91.0576 70.4693 89.6345C68.2251 90.7198 65.8713 91.5612 63.4485 92.1444C60.1409 92.6881 56.9165 93.6553 53.8543 95.0218C58.3421 97.3873 60.1756 99.5749 60.1756 99.5749L58.583 101Z" fill="white"/>
<path fill-rule="evenodd" clip-rule="evenodd" d="M46.4966 42.0396C44.4722 42.9632 42.3012 43.5211 40.0834 43.6881V32.8322C44.1443 31.9393 47.0387 29.9254 48.7664 26.7909H58.1288V69.9751H46.4989L46.4966 42.0396ZM43.9908 80.3888C51.5725 82.2693 59.5745 81.3837 66.5646 77.8911C73.555 74.3982 79.0773 68.5259 82.1438 61.3251C85.2103 54.1241 85.6207 46.0642 83.3017 38.5876C80.9826 31.1109 76.0854 24.7055 69.4864 20.5172C62.8872 16.329 55.0169 14.6313 47.2834 15.7279C39.5499 16.8245 32.458 20.6439 27.2766 26.5025C22.0953 32.3614 19.1623 39.8772 19.003 47.7051C18.8436 55.5332 21.4677 63.1627 26.4063 69.2287C30.9073 74.7599 37.0781 78.6764 43.9908 80.3888Z" stroke="white"/>
<path fill-rule="evenodd" clip-rule="evenodd" d="M58.583 101C58.583 101 56.5066 98.4429 51.8906 95.9893C47.2835 98.4429 45.1982 101 45.1982 101L43.6056 99.5703C43.6056 99.5703 45.4368 97.383 49.9266 95.0173C46.8647 93.6508 43.6404 92.6838 40.3327 92.1398C37.9084 91.5569 35.5533 90.7155 33.3074 89.6299C32.0444 91.0548 30.4614 92.1579 28.6891 92.848C25.9426 93.9259 22.7279 92.2774 22.7279 92.2774C22.7279 92.2774 24.9774 88.9444 27.9693 88.3018C28.8061 88.1236 29.8815 88.2048 30.8756 88.3718C29.3964 87.5419 27.965 86.6294 26.5881 85.6386C25.1079 86.836 23.3604 87.6561 21.4952 88.0289C18.6586 88.6018 15.8378 86.4617 15.8378 86.4617C15.8378 86.4617 18.5845 83.6294 21.5718 83.5302C22.503 83.4942 23.6683 83.8234 24.6784 84.2066C23.2556 83.0718 21.8985 81.8566 20.6134 80.567C18.9779 81.4825 17.1437 81.982 15.2708 82.0216C12.4343 82.0891 10.0746 79.5409 10.0746 79.5409C10.0746 79.5409 13.2036 77.286 16.1076 77.6784C17.0076 77.8046 18.0896 78.3256 19.0051 78.869C17.7731 77.5046 16.6246 76.067 15.5655 74.5642C13.8322 75.1647 11.9787 75.3302 10.1668 75.0467C7.42005 74.6294 5.57335 71.7678 5.57335 71.7678C5.57335 71.7678 8.98122 70.115 11.7122 71.001C12.5421 71.2673 13.4533 71.9167 14.2249 72.5797C13.2675 71.0576 12.4079 69.4759 11.6515 67.8442C9.90051 68.1096 8.11168 67.9503 6.43477 67.3794C3.85914 66.5069 2.56117 63.4332 2.56117 63.4332C2.56117 63.4332 6.12893 62.4206 8.61903 63.7376C9.33883 64.1211 10.0746 64.8538 10.6909 65.5891C10.0543 63.9538 9.52817 62.2777 9.11624 60.5716C7.3566 60.5376 5.63198 60.0721 4.09315 59.2162C1.75355 57.9398 1.02259 54.749 1.02259 54.749C1.02259 54.749 4.63756 54.3838 6.81498 56.0772C7.48985 56.6005 8.10406 57.5046 8.58985 58.364C8.19924 56.5749 7.93097 54.7614 7.7868 52.936C6.10965 52.6018 4.53782 51.8667 3.20457 50.7937C1.1665 49.1609 1 45.9566 1 45.9566C1 45.9566 4.55432 46.2137 6.36726 48.2251C6.91396 48.8294 7.34822 49.7812 7.6698 50.6741C7.62259 48.8003 7.69771 46.9254 7.89467 45.0614C6.30584 44.4576 4.88959 43.4708 3.77132 42.1883C2.07741 40.2627 2.46447 37.1416 2.46447 37.1416C2.46447 37.1416 5.83858 38.0008 7.25812 40.249C7.72386 40.9954 7.99137 42.1208 8.14442 43.1107C8.43934 41.1421 8.86168 39.1949 9.40863 37.2815C7.94416 36.4282 6.71726 35.219 5.84086 33.7657C4.54289 31.6168 5.44289 28.6716 5.44289 28.6716C5.44289 28.6716 8.56294 30.0766 9.54137 32.4893C9.89898 33.369 9.94188 34.6543 9.90127 35.6962C10.5419 33.7117 11.3127 31.7718 12.2094 29.8893C10.9393 28.816 9.96041 27.4383 9.36371 25.8845C8.46396 23.5933 9.83832 20.903 9.83832 20.903C9.83832 20.903 12.6074 22.7928 13.1452 25.2823C13.3363 26.1843 13.1698 27.3975 12.9584 28.3876C13.9241 26.5371 15.0208 24.7586 16.2404 23.0656C15.2256 21.8253 14.5305 20.3539 14.2157 18.781C13.7368 16.411 15.5183 14.0454 15.5183 14.0454C15.5183 14.0454 17.869 16.3366 17.9612 18.8397C17.9906 19.674 17.6756 20.7294 17.3315 21.6134C18.5619 20.0499 19.9284 18.5988 21.4142 17.2769C20.6127 15.8837 20.1769 14.3094 20.1477 12.7014C20.0893 10.3359 22.2061 8.36046 22.2061 8.36046C22.2061 8.36046 24.0911 10.9741 23.7538 13.4027C23.6233 14.3634 22.9688 15.5383 22.4152 16.3929C24.0145 14.9955 25.7053 13.7073 27.4766 12.5368C26.9104 11.0266 26.7447 9.39492 26.9952 7.80122C27.3439 5.51234 29.7195 3.96764 29.7195 3.96764C29.7195 3.96764 31.0939 6.81576 30.3561 9.09787C30.0365 10.0946 29.0627 11.2357 28.3541 11.9686C30.202 10.8062 32.1353 9.78627 34.1376 8.91746C33.835 7.35693 33.9467 5.74416 34.4614 4.24051C35.1858 2.08468 37.7434 1 37.7434 1C37.7434 1 38.5848 3.98117 37.4871 6.06259C36.9787 7.02774 35.7279 8.01546 34.9114 8.59726C36.1124 8.10566 37.1472 7.75386 37.964 7.50129C38.3373 7.05028 39.6084 5.62284 41.1424 5.36127C42.4449 5.13576 44.6338 5.97688 44.6338 5.97688C43.801 6.98274 42.7025 7.73302 41.4642 8.14173C39.9368 8.66716 38.2383 7.84406 37.9099 7.67269C36.4893 8.17282 35.0957 8.74713 33.7348 9.39327C34.5221 9.2467 36.6368 8.91294 37.9099 9.33013C40.1368 10.0653 41.597 12.7984 41.597 12.7984C41.597 12.7984 39.001 13.7951 36.9921 12.7465C35.5495 12.0113 34.3327 10.8976 33.4716 9.52406C31.4048 10.5267 29.418 11.687 27.5284 12.9946C28.4574 12.6699 30.1896 12.1489 31.3728 12.3181C33.7393 12.6563 35.6919 15.1414 35.6919 15.1414C35.6919 15.1414 33.2624 16.6049 31.0556 15.9081C29.5076 15.4303 28.1114 14.5541 27.0066 13.3667C25.2553 14.6143 23.5901 15.9787 22.0216 17.4506C21.8911 17.5656 21.7629 17.6761 21.6348 17.8001C22.5119 17.3062 24.1383 16.4922 25.3464 16.4471C27.7893 16.3659 30.1896 18.5194 30.1896 18.5194C30.1896 18.5194 28.0099 20.4205 25.6657 20.1115C24.0185 19.9091 22.4541 19.2734 21.1307 18.2691C19.4541 19.899 17.9419 21.6906 16.616 23.6181C17.4147 22.9641 18.8949 21.8659 20.0939 21.6156C22.5368 21.0992 25.3261 22.8379 25.3261 22.8379C25.3261 22.8379 23.468 25.1403 21.052 25.244C19.3731 25.3328 17.7003 24.9766 16.2023 24.2112C14.9934 26.0277 13.9213 27.9315 12.9944 29.9074C13.7188 29.116 14.7939 28.083 15.768 27.6906C18.1277 26.7437 21.2411 27.9906 21.2411 27.9906C21.2411 27.9906 19.7832 30.6289 17.3832 31.168C15.7645 31.5386 14.0787 31.4944 12.4815 31.0393C11.6431 32.9553 10.9338 34.9254 10.3579 36.9363C10.9429 36.0343 11.7662 34.97 12.6074 34.4558C14.8096 33.0848 18.1591 33.7794 18.1591 33.7794C18.1591 33.7794 17.1604 36.6906 14.8434 37.6581C13.3041 38.3061 11.6289 38.5635 9.9665 38.4066C9.45279 40.4508 9.08223 42.5282 8.85761 44.6239C9.28706 43.6203 9.93274 42.3688 10.6977 41.6764C12.6637 39.9041 16.1548 40.0167 16.1548 40.0167C16.1548 40.0167 15.6645 43.1198 13.5051 44.5043C12.0688 45.4338 10.4246 45.9909 8.7203 46.1256C8.57005 48.2046 8.57386 50.2916 8.73147 52.37C8.98579 51.2784 9.40635 49.8893 10.0678 49.0505C11.7348 46.9241 15.2596 46.4145 15.2596 46.4145C15.2596 46.4145 15.318 49.6211 13.3904 51.3914C12.114 52.5797 10.5635 53.432 8.87766 53.8718C9.09391 55.7751 9.45203 57.6596 9.94848 59.5094C10.0251 58.4226 10.2185 57.1236 10.6797 56.2576C11.9799 53.82 15.4327 52.6855 15.4327 52.6855C15.4327 52.6855 16.0581 55.897 14.4409 58.0211C13.3807 59.419 11.9972 60.5373 10.4096 61.2797C10.9315 63.1305 11.5911 64.9396 12.3825 66.6916C12.2609 65.5642 12.2183 64.1977 12.5355 63.2256C13.4084 60.5421 16.6792 58.7924 16.6792 58.7924C16.6792 58.7924 17.8736 61.9089 16.6206 64.3261C15.8051 65.917 14.6173 67.2858 13.1586 68.3155C13.9789 69.9353 14.9041 71.5 15.9277 72.999C15.6487 71.9574 15.4261 70.7442 15.5612 69.8038C15.9637 66.9556 18.9353 64.617 18.9353 64.617C18.9353 64.617 20.6876 67.5373 19.8553 70.1893C19.3269 71.8959 18.4018 73.4525 17.1558 74.731C18.217 76.131 19.3579 77.4683 20.5728 78.736C20.1434 77.7843 19.7563 76.6929 19.7272 75.8043C19.635 72.8728 22.2015 69.984 22.2015 69.984C22.2015 69.984 24.4782 72.6068 24.1114 75.4233C23.8853 77.2089 23.2449 78.9162 22.2421 80.4091C23.4947 81.5896 24.8119 82.6995 26.1878 83.733C25.6028 82.8673 25.0472 81.8683 24.865 80.9931C24.253 78.0617 26.334 74.7084 26.334 74.7084C26.334 74.7084 29.085 76.9386 29.2132 79.832C29.3 81.6523 28.966 83.4683 28.2371 85.1381C29.7119 86.1261 31.2459 87.0223 32.8305 87.8216C32.0409 87.0233 31.2244 86.0513 30.8622 85.1447C29.7376 82.3033 31.2244 78.5645 31.2244 78.5645C31.2244 78.5645 34.3736 80.3145 35.0261 83.201C35.4411 85.0497 35.4142 86.9706 34.9472 88.8069C36.5028 89.482 38.1069 90.0391 39.7454 90.4733C38.8569 89.8307 37.9459 89.0414 37.4442 88.2386C35.7997 85.5891 36.6457 81.566 36.6457 81.566C36.6457 81.566 40.1279 82.7657 41.2843 85.553C41.9985 87.2632 42.3178 89.1135 42.2178 90.965C44.3254 91.365 46.3987 91.9282 48.4195 92.6495C49.6929 93.1005 50.8467 93.5741 51.8906 94.05C52.9365 93.5741 54.0906 93.1028 55.3637 92.6495C57.383 91.9279 59.4551 91.3647 61.5612 90.965C61.4634 89.1137 61.7825 87.264 62.4947 85.553C63.651 82.7657 67.1332 81.566 67.1332 81.566C67.1332 81.566 67.9789 85.5891 66.3325 88.2431C65.8376 89.0459 64.9198 89.8353 64.0312 90.4802C65.6698 90.0457 67.2739 89.4886 68.8294 88.8137C68.366 86.9761 68.3396 85.0551 68.7528 83.2053C69.3962 80.319 72.5568 78.569 72.5568 78.569C72.5568 78.569 74.0505 82.3079 72.9145 85.1492C72.5546 86.0513 71.7358 87.0299 70.9462 87.8282C72.5325 87.0272 74.068 86.1287 75.5442 85.1381C74.8028 83.4589 74.4617 81.6299 74.5477 79.7957C74.6759 76.9025 77.4269 74.6723 77.4269 74.6723C77.4269 74.6723 79.5079 78.0302 78.8914 80.9571C78.7068 81.8343 78.1513 82.8355 77.5688 83.7015C78.9454 82.6665 80.2642 81.5561 81.5188 80.3754C80.515 78.882 79.8741 77.1736 79.6472 75.3873C79.2805 72.5706 81.5571 69.948 81.5571 69.948C81.5571 69.948 84.1327 72.8299 84.0315 75.7683C84.0023 76.6703 83.6132 77.764 83.1835 78.718C84.4 77.4492 85.5416 76.1104 86.6028 74.7084C85.3579 73.4284 84.433 71.8713 83.9033 70.1645C83.0711 67.5127 84.8233 64.5924 84.8233 64.5924C84.8233 64.5924 87.7972 66.9376 88.1977 69.7789C88.3325 70.717 88.1076 71.9437 87.8264 72.9901C88.8528 71.4868 89.7807 69.9185 90.6046 68.2952C89.1449 67.2632 87.9558 65.8931 87.1381 64.3013C85.8873 61.884 87.082 58.7675 87.082 58.7675C87.082 58.7675 90.3505 60.5175 91.2299 63.201C91.5449 64.1751 91.4977 65.5574 91.3761 66.6782C92.1708 64.9266 92.8325 63.1175 93.3558 61.266C91.7777 60.5216 90.403 59.4051 89.3492 58.0122C87.7251 55.8878 88.3505 52.6766 88.3505 52.6766C88.3505 52.6766 91.8036 53.8041 93.1061 56.2487C93.5695 57.1145 93.7629 58.418 93.8416 59.5048C94.3358 57.6546 94.6937 55.7703 94.9124 53.8673C93.2249 53.4266 91.6723 52.5746 90.3931 51.3868C88.4675 49.6165 88.5261 46.4099 88.5261 46.4099C88.5261 46.4099 92.0487 46.9241 93.7112 49.0574C94.368 49.8939 94.7977 51.2964 95.0609 52.3881C95.2173 50.3058 95.2173 48.2147 95.0609 46.1325C93.3566 45.998 91.7124 45.4406 90.2761 44.5112C88.1122 43.1264 87.6241 40.0236 87.6241 40.0236C87.6241 40.0236 91.1152 39.9109 93.0835 41.6832C93.8505 42.3734 94.4985 43.636 94.9282 44.6419C94.7038 42.5421 94.3322 40.4609 93.8167 38.4134C92.1546 38.5711 90.4792 38.3137 88.9398 37.6647C86.6228 36.6975 85.6241 33.786 85.6241 33.786C85.6241 33.786 88.9693 33.0871 91.1736 34.4627C92.015 34.9858 92.8383 36.066 93.4231 36.9566C92.8485 34.9431 92.1391 32.9708 91.2997 31.053C89.702 31.5091 88.0155 31.5541 86.3957 31.1838C83.9934 30.6449 82.5378 28.0063 82.5378 28.0063C82.5378 28.0063 85.649 26.7594 88.0041 27.7066C88.9893 28.101 90.067 29.1406 90.7914 29.9345C89.8622 27.9548 88.7878 26.0472 87.5766 24.227C86.0784 24.9919 84.4058 25.3481 82.7269 25.2598C80.3198 25.156 78.4528 22.8537 78.4528 22.8537C78.4528 22.8537 81.251 21.0947 83.6942 21.6201C84.8954 21.8705 86.3777 22.9732 87.1764 23.6271C85.8497 21.6975 84.3368 19.9036 82.6594 18.2714C81.3371 19.2776 79.7721 19.9142 78.1244 20.116C75.7825 20.4182 73.6028 18.524 73.6028 18.524C73.6028 18.524 76.003 16.3704 78.4416 16.4516C79.6563 16.4922 81.2893 17.313 82.1667 17.8046C82.0363 17.6851 81.9058 17.5656 81.7731 17.4506C80.2038 15.9779 78.5378 14.6128 76.7858 13.3644C75.6825 14.5542 74.286 15.4315 72.7368 15.9081C70.5277 16.6049 68.0959 15.1414 68.0959 15.1414C68.0959 15.1414 70.0485 12.6608 72.415 12.3181C73.6028 12.1467 75.3393 12.6699 76.264 12.9946C74.3733 11.6847 72.385 10.5229 70.3162 9.51957C69.4508 10.8975 68.2287 12.0143 66.7799 12.751C64.769 13.7996 62.1731 12.8029 62.1731 12.8029C62.1731 12.8029 63.6398 10.0698 65.8645 9.33464C67.1421 8.9152 69.2612 9.25122 70.0442 9.40005C68.6825 8.75307 67.2883 8.17799 65.8668 7.67718C65.5383 7.84858 63.8421 8.67167 62.3058 8.14624C61.0678 7.73878 59.9695 6.9901 59.1363 5.98591C59.1363 5.98591 61.3294 5.14477 62.632 5.37028C64.1594 5.63185 65.4348 7.0548 65.8104 7.51033C66.6249 7.76289 67.6596 8.11467 68.8609 8.60401C68.0487 8.02898 66.798 7.03675 66.2919 6.0716C65.1942 3.99018 66.0332 1.00902 66.0332 1.00902C66.0332 1.00902 68.5977 2.0937 69.3152 4.24952C69.8289 5.75015 69.9421 7.35939 69.6437 8.91746C71.6409 9.78477 73.5698 10.8024 75.4137 11.9618C74.7051 11.2266 73.7332 10.0901 73.416 9.09561C72.6805 6.82028 74.0528 3.97216 74.0528 3.97216C74.0528 3.97216 76.4327 5.52137 76.7769 7.80574C77.0272 9.39371 76.8637 11.0196 76.3023 12.5255C78.0711 13.6939 79.7599 14.9799 81.3568 16.3749C80.8058 15.5225 80.1579 14.3454 80.0251 13.3937C79.6878 10.9651 81.5728 8.35145 81.5728 8.35145C81.5728 8.35145 83.6919 10.3269 83.6332 12.6924C83.6023 14.2997 83.1657 15.873 82.3647 17.2656C83.8533 18.586 85.2218 20.0364 86.4543 21.5998C86.1101 20.7159 85.7929 19.6605 85.8221 18.8284C85.9188 16.3275 88.2741 14.0342 88.2741 14.0342C88.2741 14.0342 90.0513 16.3952 89.5766 18.7698C89.2607 20.3422 88.5655 21.8131 87.552 23.0543C88.765 24.7439 89.8566 26.5178 90.8183 28.3627C90.6069 27.3728 90.4449 26.1574 90.636 25.2643C91.1716 22.7837 93.9406 20.885 93.9406 20.885C93.9406 20.885 95.3127 23.5753 94.4152 25.8665C93.8185 27.4254 92.8398 28.8089 91.5695 29.8893C92.4683 31.7721 93.2409 33.7127 93.8822 35.6985C93.8416 34.6589 93.8822 33.3756 94.2444 32.4985C95.2206 30.0766 98.3475 28.6716 98.3475 28.6716C98.3475 28.6716 99.2472 31.6168 97.9381 33.7657C97.0607 35.2175 95.834 36.4256 94.3703 37.2792C94.8175 38.8487 95.1822 40.4409 95.4634 42.0485C95.6188 41.0901 95.882 40.019 96.3297 39.3132C97.7401 37.0581 101.123 36.2058 101.123 36.2058C101.123 36.2058 101.506 39.3266 99.8162 41.248C98.7129 42.5076 97.3244 43.4835 95.7673 44.0939C96.0475 46.2754 96.1619 48.4751 96.1091 50.6741C96.4307 49.7721 96.865 48.8294 97.4094 48.2251C99.2223 46.2137 102.777 45.9566 102.777 45.9566C102.777 45.9566 102.615 49.1609 100.572 50.7937C99.2396 51.8662 97.6685 52.6003 95.9921 52.9338C95.8492 54.7541 95.5817 56.5624 95.1914 58.3457C95.6772 57.4888 96.2936 56.5891 96.9594 56.0683C99.137 54.3746 102.756 54.7401 102.756 54.7401C102.756 54.7401 102.025 57.931 99.6812 59.2074C98.1431 60.0576 96.4211 60.518 94.665 60.549C94.253 62.2536 93.7269 63.9284 93.0904 65.5619C93.7066 64.8292 94.4401 64.0985 95.1622 63.715C97.6523 62.3982 101.218 63.4107 101.218 63.4107C101.218 63.4107 99.9221 66.4843 97.3396 67.3571C95.6652 67.9279 93.8784 68.0871 92.1297 67.8216C91.3721 69.453 90.5117 71.0348 89.5541 72.5571C90.3279 71.901 91.2388 71.2515 92.0645 70.9787C94.8023 70.0924 98.2056 71.7452 98.2056 71.7452C98.2056 71.7452 96.3589 74.6068 93.6122 75.0241C91.8058 75.3132 89.9563 75.1553 88.2246 74.5642C87.1655 76.0629 86.0185 77.4975 84.7896 78.8599C85.7051 78.3165 86.7759 77.7957 87.6871 77.6693C90.5865 77.268 93.72 79.532 93.72 79.532C93.72 79.532 91.3558 82.0779 88.5239 82.0124C86.6508 81.9713 84.8162 81.4728 83.1789 80.5602C81.8926 81.8492 80.5348 83.0645 79.1119 84.2C80.1241 83.8188 81.2916 83.4873 82.2251 83.5233C85.2081 83.6317 87.9546 86.4551 87.9546 86.4551C87.9546 86.4551 85.1292 88.5949 82.2972 88.0223C80.4312 87.6533 78.6827 86.8353 77.202 85.6386C75.8206 86.6299 74.3853 87.5439 72.9033 88.3761C73.8975 88.2094 74.9728 88.1282 75.8096 88.3063C78.7901 88.949 81.0487 92.282 81.0487 92.282C81.0487 92.282 77.832 93.9305 75.0853 92.8525C73.3147 92.1604 71.7327 91.0576 70.4693 89.6345C68.2251 90.7198 65.8713 91.5612 63.4485 92.1444C60.1409 92.6881 56.9165 93.6553 53.8543 95.0218C58.3421 97.3873 60.1756 99.5749 60.1756 99.5749L58.583 101Z" stroke="white"/>
<path fill-rule="evenodd" clip-rule="evenodd" d="M132.597 15.9848C132.597 15.7846 132.597 15.5704 132.597 15.347C132.597 15.1526 132.662 14.964 132.783 14.8116C132.86 14.7221 132.955 14.6492 133.061 14.5972C133.167 14.5452 133.282 14.5152 133.4 14.509C133.655 14.509 133.906 14.4765 134.152 14.4765H146.166V8.63409H128.749C128.202 8.62711 127.66 8.74158 127.161 8.96929C126.722 9.168 126.32 9.44036 125.973 9.77465C125.559 10.2046 125.28 10.7468 125.17 11.3341C125.083 11.862 125.038 12.3959 125.035 12.9309V32.1245H132.597V15.9848Z" fill="white"/>
<path fill-rule="evenodd" clip-rule="evenodd" d="M148.406 30.635C148.809 31.1901 149.35 31.6297 149.975 31.9106C150.857 32.2736 151.808 32.4403 152.76 32.3994C153.452 32.4093 154.143 32.3345 154.817 32.1758C155.317 32.0566 155.799 31.872 156.251 31.6266C156.612 31.4258 156.935 31.1644 157.207 30.8538C157.431 30.5896 157.633 30.3078 157.811 30.0111L164.444 18.6011C164.69 18.2194 164.871 17.9354 164.983 17.7446C165.094 17.5537 165.206 17.4606 165.317 17.4606C165.354 17.4574 165.392 17.462 165.428 17.474C165.463 17.4861 165.496 17.5054 165.524 17.5308C165.552 17.5561 165.574 17.5869 165.59 17.6213C165.605 17.6557 165.613 17.6929 165.614 17.7306C165.641 17.9311 165.654 18.1334 165.651 18.3358L165.317 32.1246H173.013V14.174C173.005 13.6028 172.967 13.0325 172.897 12.4655C172.813 11.7886 172.589 11.1368 172.238 10.5522C171.836 9.89741 171.265 9.36348 170.586 9.00663C169.611 8.53247 168.534 8.31305 167.452 8.36886C167.123 8.36886 166.737 8.39681 166.306 8.43871C165.485 8.52551 164.699 8.81612 164.018 9.28429C163.337 9.75247 162.783 10.3834 162.406 11.1201L155.945 22.4324L155.583 23.0469C155.555 23.1071 155.512 23.1591 155.459 23.1975C155.405 23.2359 155.342 23.2594 155.276 23.2657C155.235 23.2702 155.193 23.2664 155.153 23.2545C155.113 23.2427 155.076 23.223 155.043 23.1966C155.011 23.1702 154.984 23.1376 154.964 23.1007C154.944 23.0638 154.932 23.0234 154.928 22.9817C154.894 22.8116 154.877 22.6385 154.877 22.465V22.0926L155.211 8.63889H147.52V26.7571C147.518 27.4543 147.574 28.1502 147.687 28.838C147.787 29.4842 148.033 30.0989 148.406 30.635Z" fill="white"/>
<path fill-rule="evenodd" clip-rule="evenodd" d="M211.691 26.417C211.567 26.4165 211.444 26.3911 211.33 26.3424C211.216 26.2936 211.113 26.2226 211.027 26.1332C210.925 26.0528 210.844 25.949 210.79 25.8304C210.714 25.6513 210.681 25.4569 210.693 25.2626V22.6929H223.472V17.5721H210.693V15.7938C210.694 15.6018 210.711 15.4103 210.744 15.2212C210.778 15 210.889 14.7984 211.059 14.6532C211.213 14.5337 211.39 14.4495 211.579 14.4065C211.794 14.3466 212.016 14.3168 212.238 14.3181H223.811V8.63867H206.979C206.51 8.64481 206.043 8.70098 205.586 8.80623C205.046 8.93146 204.548 9.19809 204.143 9.57903C203.736 9.91796 203.444 10.375 203.307 10.8871C203.198 11.3445 203.143 11.8134 203.145 12.2837V28.3909C203.141 28.9137 203.184 29.4355 203.275 29.9505C203.411 30.5109 203.74 31.0051 204.203 31.3469C204.596 31.7005 205.077 31.9388 205.596 32.036C206.077 32.1147 206.565 32.1538 207.053 32.1523H223.908V26.417H212.461C212.215 26.417 211.96 26.417 211.691 26.417Z" fill="white"/>
<path fill-rule="evenodd" clip-rule="evenodd" d="M233.814 25.3511H243.679C244.395 25.3414 245.111 25.2445 245.804 25.0624C246.535 24.8908 247.215 24.5531 247.796 24.0755C248.304 23.6238 248.7 23.0595 248.951 22.4275C249.23 21.7579 249.441 21.0625 249.583 20.3513C249.725 19.67 249.816 18.9792 249.857 18.2844C249.89 17.6233 249.903 17.0926 249.903 16.6923C249.943 15.3269 249.786 13.9631 249.438 12.6422C249.205 11.7651 248.766 10.9563 248.159 10.282C247.57 9.60291 246.783 9.12718 245.91 8.92264C245.032 8.72738 244.136 8.63058 243.238 8.63401H230.286C229.608 8.6104 228.933 8.74424 228.313 9.02507C227.882 9.21835 227.493 9.49703 227.171 9.84441C226.775 10.2887 226.509 10.8352 226.406 11.4225C226.298 11.9637 226.242 12.514 226.238 13.0658V32.1244H233.804L233.814 25.3511ZM233.847 15.4167C233.865 15.2511 233.921 15.0919 234.009 14.9512C234.113 14.8124 234.245 14.6954 234.395 14.6067C234.616 14.4926 234.862 14.4395 235.108 14.4531H239.286C239.717 14.453 240.149 14.4747 240.578 14.5183C240.979 14.5556 241.357 14.7184 241.659 14.9838C241.948 15.1942 242.151 15.5014 242.235 15.8497C242.294 16.1721 242.327 16.4993 242.327 16.8273C242.385 17.5607 242.172 18.29 241.728 18.8756C241.436 19.1992 241.027 19.396 240.591 19.4249C240.126 19.4575 239.692 19.4761 239.2 19.4761H233.814V15.8497C233.814 15.7047 233.824 15.56 233.847 15.4167Z" fill="white"/>
<path fill-rule="evenodd" clip-rule="evenodd" d="M273.322 29.2434L276.939 17.8984C277.013 17.675 277.104 17.4572 277.208 17.2467C277.274 17.121 277.343 17.0605 277.404 17.0605C277.465 17.0605 277.543 17.1117 277.607 17.2095C277.693 17.4057 277.729 17.62 277.711 17.8333L277.442 32.1248H285.071V12.4937C285.064 12.0703 285.01 11.6489 284.914 11.2368C284.802 10.7257 284.551 10.2563 284.185 9.8821C283.698 9.39517 283.109 9.02578 282.46 8.80207C281.442 8.47433 280.378 8.32781 279.312 8.36913C278.769 8.37086 278.229 8.40352 277.69 8.4669C277.104 8.53824 276.531 8.70492 275.998 8.96037C275.414 9.24377 274.891 9.63918 274.46 10.1242C273.927 10.7463 273.533 11.4791 273.315 12.2702L269.536 23.6803C269.508 23.7454 269.475 23.8339 269.434 23.9503C269.391 24.0667 269.33 24.1784 269.262 24.3041C269.201 24.4167 269.13 24.5227 269.048 24.6207C269.02 24.6561 268.987 24.6859 268.949 24.7082C268.911 24.7306 268.868 24.7451 268.825 24.751C268.782 24.745 268.741 24.7305 268.703 24.7081C268.665 24.6857 268.632 24.6559 268.607 24.6207C268.526 24.5227 268.454 24.4167 268.394 24.3041C268.322 24.1784 268.272 24.062 268.221 23.9503L268.124 23.6803L264.34 12.2702C264.102 11.482 263.703 10.7515 263.17 10.1242C262.744 9.63616 262.221 9.24291 261.635 8.96966C261.099 8.7136 260.528 8.54692 259.939 8.47621C259.414 8.41342 258.883 8.38078 258.353 8.37845C258.046 8.37845 257.569 8.37845 256.932 8.44829C256.277 8.50088 255.632 8.65804 255.026 8.91383C254.373 9.18253 253.795 9.60207 253.335 10.1382C252.807 10.8137 252.543 11.6601 252.597 12.517V32.1482H260.196L259.96 17.8565C259.96 17.7448 259.96 17.5865 259.96 17.391C259.96 17.1955 260.046 17.0931 260.201 17.0931C260.353 17.0931 260.376 17.1769 260.454 17.3445C260.543 17.5343 260.617 17.7303 260.673 17.931L264.284 29.2759C264.411 29.6878 264.569 30.0906 264.749 30.4817C264.929 30.8649 265.185 31.2071 265.5 31.487C265.871 31.8043 266.302 32.0378 266.769 32.1715C268.099 32.5127 269.493 32.5127 270.82 32.1715C271.287 32.0378 271.721 31.8043 272.089 31.487C272.406 31.2061 272.663 30.8642 272.845 30.4817C273.026 30.0906 273.183 29.6878 273.31 29.2759" fill="white"/>
<path fill-rule="evenodd" clip-rule="evenodd" d="M295.879 27.2928H304.31L306.165 32.1247H314.132L305.47 11.2227C305.244 10.6464 304.906 10.121 304.475 9.67719C304.107 9.31546 303.678 9.02508 303.203 8.82064C302.734 8.62965 302.242 8.50582 301.736 8.45285C301.198 8.39622 300.655 8.36825 300.112 8.36904C299.356 8.35292 298.599 8.42006 297.856 8.56922C297.33 8.67876 296.825 8.87211 296.361 9.14183C295.978 9.3797 295.648 9.69714 295.396 10.0729C295.143 10.4396 294.929 10.833 294.759 11.246L286.066 32.1247H294.026L295.879 27.2928ZM299.792 15.9851C299.833 15.8966 299.889 15.7895 299.939 15.6685C299.993 15.5475 300.049 15.487 300.094 15.4823C300.14 15.4776 300.186 15.5475 300.242 15.6685C300.297 15.7895 300.348 15.8966 300.396 15.9851L302.503 21.9252H297.67L299.792 15.9851Z" fill="white"/>
<path fill-rule="evenodd" clip-rule="evenodd" d="M332.546 25.3465C333.264 25.3379 333.977 25.2426 334.673 25.0625C335.401 24.897 336.084 24.564 336.663 24.0895C337.173 23.6391 337.569 23.0745 337.82 22.4416C338.094 21.7712 338.307 21.076 338.449 20.3653C338.594 19.6843 338.683 18.9933 338.721 18.2984C338.752 17.6374 338.774 17.1066 338.774 16.7063C338.81 15.3412 338.653 13.9779 338.312 12.6562C338.071 11.7791 337.63 10.9707 337.021 10.296C336.437 9.61738 335.653 9.14154 334.785 8.93669C333.901 8.74169 333.003 8.64489 332.099 8.64806H319.163C318.485 8.62497 317.81 8.75872 317.191 9.03908C316.759 9.23223 316.373 9.51098 316.054 9.85842C315.655 10.3024 315.389 10.8489 315.282 11.4365C315.175 11.9765 315.12 12.5249 315.109 13.0752V32.1617H322.678V25.3465H332.546ZM322.678 15.8497C322.678 15.7048 322.688 15.5601 322.708 15.4168C322.729 15.25 322.787 15.0903 322.881 14.9513C322.985 14.8086 323.117 14.6882 323.267 14.5975C323.49 14.49 323.734 14.4403 323.982 14.4531H328.16C328.592 14.4531 329.023 14.4749 329.455 14.5183C329.856 14.5534 330.236 14.7165 330.541 14.9838C330.828 15.1935 331.031 15.5015 331.107 15.8497C331.175 16.1712 331.208 16.4988 331.208 16.8274C331.269 17.5616 331.054 18.2917 330.607 18.8756C330.312 19.1981 329.906 19.3949 329.472 19.4249C329.008 19.4575 328.543 19.4762 328.081 19.4762H322.678V15.8497Z" fill="white"/>
<path d="M349.676 8.63428H342.117V32.12H349.676V8.63428Z" fill="white"/>
<path fill-rule="evenodd" clip-rule="evenodd" d="M351.783 23.033L358.882 32.1246H367.983L358.882 22.195C358.635 21.925 358.366 21.6038 358.077 21.2221C357.859 21.0013 357.714 20.7178 357.663 20.4109C357.613 20.1039 357.658 19.7886 357.795 19.5089C358.006 19.079 358.283 18.6836 358.613 18.3359L366.745 8.63428H357.78L351.486 17.4793C351.217 17.875 350.978 18.2905 350.77 18.7222C350.521 19.175 350.402 19.6874 350.42 20.2042C350.44 20.7209 350.6 21.2225 350.882 21.655C351.199 22.1764 351.496 22.6327 351.783 23.0144" fill="white"/>
<path fill-rule="evenodd" clip-rule="evenodd" d="M369.717 31.319C370.11 31.6736 370.592 31.9122 371.11 32.0081C371.59 32.0865 372.077 32.1256 372.562 32.1244H389.427V26.417H377.975C377.729 26.417 377.47 26.417 377.204 26.417C377.08 26.4172 376.958 26.3921 376.841 26.3434C376.727 26.2944 376.623 26.2231 376.536 26.1332C376.435 26.0528 376.354 25.949 376.3 25.8304C376.222 25.6518 376.186 25.4573 376.196 25.2626V22.6929H388.981V17.5721H376.206V15.7938C376.209 15.6017 376.229 15.4103 376.262 15.2212C376.293 14.9998 376.404 14.7981 376.577 14.6579C376.729 14.5351 376.907 14.4491 377.097 14.4065C377.31 14.3463 377.529 14.3166 377.747 14.3181H389.321V8.63867H372.498C372.029 8.64588 371.562 8.70202 371.105 8.80623C370.567 8.93367 370.069 9.20007 369.666 9.57903C369.262 9.92075 368.97 10.3767 368.831 10.8871C368.722 11.3445 368.666 11.8134 368.668 12.2837V28.3909C368.663 28.9139 368.709 29.436 368.803 29.9505C368.935 30.5127 369.265 31.0084 369.732 31.3469" fill="white"/>
<path fill-rule="evenodd" clip-rule="evenodd" d="M391.684 8.63867V14.4763H400.044V32.1244H407.61V14.4763H415.975V8.63867H391.684Z" fill="white"/>
<path fill-rule="evenodd" clip-rule="evenodd" d="M184.06 15.808C184.06 15.5799 184.06 15.3425 184.093 15.1702C184.128 14.9491 184.236 14.746 184.399 14.593C184.548 14.4314 184.748 14.3262 184.965 14.2951C185.166 14.2727 185.367 14.2618 185.569 14.2625H190.856C191.065 14.261 191.275 14.2719 191.483 14.2951C191.694 14.3281 191.888 14.4333 192.031 14.593C192.197 14.7489 192.303 14.958 192.332 15.1842C192.356 15.3913 192.368 15.5996 192.369 15.808V32.1015H199.931V12.0093C199.927 11.6083 199.873 11.2094 199.769 10.8222C199.633 10.3661 199.378 9.9547 199.031 9.63046C198.612 9.17592 198.059 8.86897 197.452 8.75529C196.838 8.66211 196.217 8.61699 195.596 8.62029H180.927C180.336 8.62201 179.746 8.65463 179.158 8.71803C178.485 8.81234 177.867 9.14211 177.413 9.64907C177.068 9.97473 176.815 10.3858 176.68 10.8408C176.568 11.2267 176.51 11.6262 176.508 12.0279V32.1434H184.074L184.06 15.808Z" fill="white"/>
<path fill-rule="evenodd" clip-rule="evenodd" d="M221.484 72.9698C220.816 72.3698 220.065 71.8681 219.256 71.4802C218.303 71.0165 217.268 70.7444 216.211 70.6795V70.4236C217.061 70.3663 217.892 70.1401 218.655 69.7579C219.417 69.3759 220.096 68.8457 220.653 68.1983C221.569 67.2655 222.211 66.0977 222.51 64.8231C222.747 63.6498 222.864 62.4549 222.858 61.2574C222.858 60.5358 222.825 59.7536 222.76 58.9018C222.695 58.045 222.568 57.1939 222.38 56.3554C222.191 55.5018 221.914 54.6703 221.554 53.8741C221.194 53.0675 220.691 52.3338 220.068 51.7094C219.461 51.0543 218.741 50.5148 217.942 50.1173C217.161 49.7394 216.341 49.4505 215.496 49.2561C214.649 49.0675 213.789 48.9417 212.924 48.879C212.061 48.8137 211.221 48.7812 210.418 48.7812H186.279C185.303 48.782 184.339 48.9998 183.457 49.4191C182.62 49.7868 181.871 50.3295 181.261 51.0112C180.261 52.1655 179.762 53.8244 179.762 55.9876V86.2932C179.769 87.1886 179.909 88.078 180.175 88.9328C180.38 89.6927 180.737 90.4028 181.225 91.0198C181.713 91.6368 182.32 92.148 183.011 92.5221C183.551 92.8153 184.129 93.03 184.728 93.1597C185.293 93.283 185.869 93.347 186.446 93.3505H211.262C212.191 93.3505 213.119 93.3505 214.048 93.2901C214.924 93.2485 215.795 93.1302 216.652 92.9363C218.425 92.5315 220.03 91.5868 221.247 90.2315C221.891 89.5599 222.417 88.784 222.802 87.9366C223.152 87.1615 223.42 86.3518 223.601 85.5206C223.765 84.7343 223.859 83.9351 223.884 83.1323C223.907 82.3457 223.916 81.5962 223.916 80.8698C223.914 79.4952 223.809 78.1226 223.601 76.764C223.341 75.3031 222.604 73.9703 221.507 72.9747L221.484 72.9698ZM194.143 62.2675C194.143 61.9231 194.143 61.5972 194.175 61.2805C194.2 61.097 194.26 60.9201 194.353 60.7604C194.446 60.6005 194.571 60.4609 194.718 60.3495C194.961 60.1094 195.27 59.9472 195.605 59.884C195.92 59.8422 196.238 59.8203 196.556 59.8188H204.745C205.286 59.8231 205.827 59.8559 206.365 59.9165C206.981 59.9818 207.553 60.2637 207.981 60.7127C208.204 60.9394 208.378 61.2104 208.491 61.5087C208.624 61.8642 208.689 62.2417 208.681 62.6214C208.677 62.9632 208.645 63.3043 208.584 63.6409C208.529 63.9988 208.411 64.3439 208.236 64.6602C208.07 64.9399 207.844 65.179 207.576 65.3609C207.307 65.5427 207.001 65.6627 206.681 65.7125C206.067 65.8135 205.446 65.8648 204.824 65.866H194.147L194.143 62.2675ZM209.317 80.2135C209.198 80.6285 209.005 81.0181 208.746 81.3635C208.466 81.6272 208.13 81.8231 207.762 81.9361C206.845 82.1962 205.892 82.3031 204.94 82.2526H197.29C196.956 82.2526 196.501 82.2526 195.93 82.1873C195.686 82.1833 195.445 82.131 195.221 82.0335C194.997 81.9361 194.795 81.7955 194.625 81.6193C194.429 81.3429 194.3 81.0239 194.249 80.6884C194.145 80.1109 194.102 79.5244 194.119 78.9381V75.563H205.293C205.941 75.5706 206.588 75.6252 207.228 75.7259C207.58 75.7797 207.917 75.9066 208.218 76.098C208.518 76.2896 208.776 76.5417 208.974 76.8384C209.371 77.3929 209.572 78.0648 209.545 78.747C209.543 79.2556 209.458 79.7604 209.294 80.2414L209.317 80.2135Z" fill="white"/>
<path fill-rule="evenodd" clip-rule="evenodd" d="M245.216 82.504C244.739 82.4919 244.285 82.299 243.945 81.9642C243.754 81.8109 243.602 81.6147 243.503 81.3916C243.358 81.0495 243.292 80.6781 243.313 80.3068V75.47H267.564V65.7919H243.323V62.4167C243.325 62.0533 243.358 61.6908 243.414 61.332C243.478 60.9111 243.691 60.5282 244.018 60.2566C244.308 60.0282 244.643 59.869 245.003 59.7911C245.407 59.6842 245.823 59.6309 246.242 59.6327H268.204V48.7954H236.275C235.379 48.8061 234.485 48.9137 233.612 49.1167C232.587 49.3512 231.643 49.8558 230.876 50.5784C230.105 51.221 229.551 52.0878 229.29 53.0596C229.082 53.9144 228.975 54.7913 228.973 55.6713V86.2236C228.97 87.2175 229.054 88.2101 229.224 89.1891C229.493 90.252 230.122 91.1875 231.008 91.8332C231.747 92.504 232.658 92.9553 233.64 93.1368C234.551 93.2845 235.475 93.3576 236.402 93.3556H268.394V82.5368H246.683C246.219 82.5368 245.754 82.5368 245.227 82.504" fill="white"/>
<path fill-rule="evenodd" clip-rule="evenodd" d="M314.42 51.9187C313.311 50.6269 311.818 49.7233 310.163 49.3398C308.501 48.9705 306.8 48.7878 305.097 48.7951H280.524C279.234 48.7459 277.95 48.9962 276.772 49.5261C275.958 49.8974 275.224 50.4274 274.615 51.0855C273.856 51.9269 273.354 52.9665 273.161 54.0835C272.958 55.1094 272.849 56.152 272.836 57.1979V93.3599H287.189V80.4974H305.915C307.275 80.4814 308.628 80.3 309.945 79.9573C311.328 79.6375 312.62 79 313.719 78.0954C314.684 77.2406 315.432 76.1708 315.91 74.9715C316.44 73.6997 316.846 72.3792 317.12 71.0286C317.384 69.7378 317.552 68.4292 317.623 67.1137C317.689 65.8723 317.719 64.8619 317.719 64.083C317.719 60.8616 317.435 58.3073 316.861 56.4205C316.415 54.751 315.577 53.2124 314.42 51.9327V51.9187ZM302.229 68.2868C301.673 68.9058 300.899 69.2832 300.072 69.3388C299.227 69.404 298.359 69.4365 297.468 69.4365H287.189V62.4769C287.189 62.2012 287.207 61.9259 287.245 61.653C287.29 61.3578 287.399 61.0761 287.564 60.8289C287.755 60.5523 288.006 60.3228 288.298 60.1586C288.722 59.9444 289.191 59.8464 289.663 59.8746H297.597C298.412 59.8728 299.227 59.9149 300.039 60.0002C300.803 60.0786 301.526 60.3906 302.11 60.8941C302.656 61.2959 303.036 61.8835 303.181 62.5467C303.311 63.1591 303.374 63.7832 303.377 64.4088C303.377 66.136 302.996 67.4253 302.229 68.2728V68.2868Z" fill="white"/>
<path fill-rule="evenodd" clip-rule="evenodd" d="M339.049 82.504C338.574 82.4936 338.12 82.3002 337.782 81.9642C337.584 81.8132 337.424 81.6167 337.318 81.3916C337.178 81.0477 337.115 80.6776 337.132 80.3068V75.47H361.381V65.7919H337.127V62.4167C337.135 62.0533 337.165 61.6906 337.226 61.332C337.282 60.9119 337.495 60.5287 337.82 60.2566C338.11 60.0299 338.447 59.871 338.807 59.7911C339.214 59.6847 339.63 59.6314 340.049 59.6327H362.013V48.7954H330.099C329.201 48.8061 328.307 48.9139 327.429 49.1167C326.406 49.3525 325.465 49.8571 324.701 50.5784C323.929 51.2213 323.376 52.0883 323.117 53.0596C322.909 53.9144 322.802 54.7911 322.797 55.6713V86.2236C322.79 87.218 322.876 88.2106 323.054 89.1891C323.318 90.2528 323.947 91.1893 324.83 91.8332C325.571 92.504 326.483 92.9553 327.462 93.1368C328.384 93.2853 329.315 93.3586 330.249 93.3556H362.242V82.5368H340.508C340.044 82.5368 339.579 82.5368 339.049 82.504Z" fill="white"/>
<path fill-rule="evenodd" clip-rule="evenodd" d="M385.404 39.9457C384.886 39.5107 384.426 39.0079 384.041 38.4515C383.673 37.9454 383.36 37.4008 383.112 36.8267H374.152C374.416 37.5881 374.726 38.3325 375.081 39.0566C375.475 39.8437 375.911 40.6097 376.386 41.3518C376.866 42.1056 377.396 42.8272 377.972 43.5117C378.503 44.1548 379.109 44.7317 379.779 45.2295C381.274 46.3383 382.98 47.1305 384.792 47.5571C388.627 48.5368 392.645 48.5368 396.48 47.5571C398.289 47.1302 399.995 46.3383 401.49 45.2295C402.16 44.7307 402.769 44.1541 403.305 43.5117C403.878 42.8284 404.409 42.1066 404.886 41.3518C405.376 40.582 405.812 39.817 406.195 39.0566C406.546 38.331 406.855 37.5866 407.124 36.8267H398.216C397.947 37.3901 397.637 37.933 397.287 38.4515C396.932 39.0135 396.492 39.5175 395.982 39.9457C395.249 40.502 394.411 40.9028 393.518 41.1236C392.586 41.3866 391.622 41.5259 390.655 41.5378C389.711 41.5274 388.774 41.3881 387.868 41.1236C386.98 40.8863 386.14 40.4871 385.396 39.9457" fill="white"/>
<path fill-rule="evenodd" clip-rule="evenodd" d="M413.575 52.4264C412.806 51.1888 411.72 50.1784 410.433 49.4984C409.04 48.6928 407.04 48.2832 404.497 48.2832C403.86 48.2832 403.136 48.3299 402.309 48.4137C401.438 48.5119 400.58 48.7264 399.766 49.0515C398.829 49.435 397.961 49.9659 397.195 50.6248C396.258 51.4362 395.484 52.419 394.915 53.5205L382.659 74.9766C382.367 75.484 382.131 75.8751 381.959 76.1497C381.91 76.2637 381.832 76.3624 381.73 76.4352C381.629 76.5081 381.512 76.5525 381.387 76.5639C380.966 76.5639 380.728 76.3312 380.692 75.8657C380.654 75.4002 380.626 74.8928 380.626 74.3388L381.263 48.8093H366.664V83.1837C366.662 84.5076 366.766 85.8294 366.979 87.136C367.179 88.3616 367.656 89.5256 368.372 90.539C369.139 91.5944 370.167 92.4291 371.357 92.9599C372.641 93.5743 374.393 93.8908 376.588 93.8908C377.903 93.9154 379.212 93.7763 380.492 93.4766C381.446 93.2525 382.362 92.9002 383.222 92.4291C383.905 92.0494 384.517 91.555 385.032 90.9672C385.459 90.4697 385.842 89.9373 386.179 89.3753L398.804 67.7284C399.268 67.002 399.613 66.4621 399.821 66.1035C400.03 65.7451 400.243 65.5588 400.459 65.5588C400.53 65.552 400.601 65.5599 400.669 65.5822C400.738 65.6045 400.801 65.6411 400.854 65.6893C400.908 65.7373 400.951 65.7961 400.981 65.8619C401.012 65.9276 401.027 65.9987 401.027 66.071C401.073 66.451 401.096 66.8335 401.093 67.2162L400.459 93.3786H415.058V59.3022C415.045 58.2126 414.969 57.1246 414.834 56.0436C414.684 54.7604 414.263 53.5241 413.598 52.4172" fill="white"/>
<path fill-rule="evenodd" clip-rule="evenodd" d="M169.153 82.1312V54.7117C169.146 54.0099 169.056 53.3112 168.884 52.631C168.665 51.8472 168.253 51.1315 167.686 50.55C167.031 49.7724 166.136 49.2366 165.142 49.0277C164.139 48.867 163.123 48.7906 162.106 48.7995H138.358C137.399 48.8005 136.441 48.8566 135.489 48.9673C134.39 49.1343 133.388 49.697 132.672 50.55C132.102 51.1292 131.691 51.846 131.478 52.631C131.302 53.3107 131.21 54.0094 131.205 54.7117V82.1312H124.098V92.9873H176.26V82.1312H169.153ZM143.511 60.2188C143.557 59.8447 143.719 59.4944 143.975 59.2181C144.212 58.9386 144.542 58.7536 144.903 58.6967C145.225 58.6531 145.549 58.633 145.873 58.6361H154.438C154.773 58.6313 155.108 58.6516 155.441 58.6967C155.79 58.7612 156.107 58.9455 156.336 59.2181C156.608 59.4962 156.781 59.8561 156.828 60.2422C156.861 60.6193 156.875 60.9777 156.875 61.3315V82.1312H143.413V61.3315C143.455 60.9404 143.478 60.5635 143.511 60.2188Z" fill="white"/>
</svg>
