<svg width="200" height="83" viewBox="0 0 200 83" fill="none" xmlns="http://www.w3.org/2000/svg">
<path d="M77.2358 30.2555C75.5285 30.7586 73.8348 30.6693 72.1545 29.9878" stroke="white" stroke-width="2"/>
<path d="M73.9675 41.3225C73.8483 42.8154 73.3306 43.9432 72.4146 44.7059C71.748 45.2684 70.935 45.4604 69.9756 45.2819C69.0922 45.1197 68.271 44.7654 67.5122 44.2191" stroke="white" stroke-width="2"/>
<path d="M18.2928 59.8702C17.9297 59.9243 17.6478 59.8458 17.4473 59.6349" stroke="white" stroke-width="2"/>
<path d="M57.5935 56.0405C62.0976 57.4036 66.4851 59.4077 70.7561 62.0527C70.8297 62.0989 70.9139 62.1244 71.0009 62.1268C71.0879 62.1291 71.1749 62.1082 71.2537 62.0661C71.3325 62.0239 71.4005 61.9619 71.4514 61.8858C71.5023 61.8096 71.5344 61.7219 71.5447 61.6308L72.8699 49.7444" stroke="white" stroke-width="2"/>
<path d="M65.8212 36.9168C64.6179 37.0682 63.477 36.9222 62.3984 36.4786" stroke="white" stroke-width="2"/>
<path d="M165.415 37.931C165.29 38.1149 165.22 38.3178 165.203 38.5395C165.197 38.6535 165.156 38.7609 165.089 38.8415C165.021 38.9221 164.932 38.9705 164.838 38.9777C156.794 39.551 150.629 40.284 146.342 41.1765C141.48 42.188 137.09 42.4124 133.171 41.8499" stroke="white" stroke-width="2"/>
<path d="M165.439 39.7646C163.287 39.7809 161.184 40.027 159.13 40.503C156.041 41.217 153.989 41.647 152.976 41.793C149.789 42.2636 146.629 42.8695 143.496 43.6105C142.548 43.8323 141.886 44.1298 141.512 44.503C141.299 44.7114 141.065 44.8367 140.862 44.8519C139.854 44.9276 140.393 45.0439 142.48 45.2008" stroke="white" stroke-width="2"/>
<path d="M154.439 48.073L144.342 49.29" stroke="white" stroke-width="2"/>
<path d="M154.301 50.1014L154.065 55.5213C154.061 55.6299 154.01 55.7324 153.924 55.8068C153.837 55.8812 153.721 55.9215 153.602 55.9189C150.55 55.8648 147.531 56.1569 144.545 56.7952" stroke="white" stroke-width="2"/>
<path d="M105.049 46.856C102.48 46.2123 100.22 46.7126 98.2683 48.357" stroke="white" stroke-width="2"/>
<path d="M97.3253 48.6815L89.309 49.7931C89.1795 49.8118 89.0558 49.8593 88.9458 49.9324C88.8358 50.0056 88.7418 50.1029 88.67 50.2181C88.5981 50.3334 88.5498 50.464 88.5283 50.6017C88.5067 50.7395 88.5124 50.8813 88.5448 51.0183C88.7399 51.8296 88.6288 52.3922 88.2115 52.7059C87.973 52.8844 87.8538 52.8141 87.8538 52.4949L87.7725 41.5822" stroke="white" stroke-width="2"/>
<path d="M97.5285 52.3327C94.8185 51.8729 92.1437 51.954 89.5041 52.5761C88.8375 52.7329 88.3686 53.0169 88.0976 53.428C87.7724 53.9202 87.618 54.5017 87.6342 55.1724" stroke="white" stroke-width="2"/>
<path d="M107.285 53.5496C106.824 53.4144 106.523 53.1412 106.382 52.7301C106.342 52.6103 106.274 52.5057 106.188 52.4303C106.102 52.3549 106.003 52.3123 105.903 52.3082C103.61 52.2379 101.721 53.0574 100.236 54.7667" stroke="white" stroke-width="2"/>
<path d="M97.5611 55.7484C95.6695 55.2075 93.7644 55.1507 91.8457 55.5781C91.7535 55.5997 91.2196 55.67 90.244 55.789C89.1763 55.9188 88.7264 56.5787 88.8944 57.7687C88.9309 58.0086 88.8669 58.2643 88.7156 58.4827L87.6343 60.0405" stroke="white" stroke-width="2"/>
<path d="M108.163 56.1865L101.252 58.0121" stroke="white" stroke-width="2"/>
<path d="M97.7317 59.2291L87.6748 62.8316" stroke="white" stroke-width="2"/>
<path d="M131.065 49.0872C130.648 48.6923 130.1 48.6085 129.423 48.8356C128.984 48.9763 128.51 48.9249 128 48.6815C127.88 48.6225 127.752 48.5871 127.625 48.5774C127.498 48.5676 127.374 48.5837 127.26 48.6247C125.586 49.2251 123.865 49.4442 122.098 49.2819C121.961 49.27 121.828 49.2903 121.713 49.3406C121.598 49.3908 121.506 49.4689 121.447 49.5659C121.279 49.8363 121.187 50.15 121.171 50.507" stroke="white" stroke-width="2"/>
<path d="M119.512 50.9453C118.065 50.4314 116.596 50.3827 115.106 50.7992C113.1 51.3672 112.13 52.7005 112.195 54.7992" stroke="white" stroke-width="2"/>
<path d="M112.195 54.7992C111.707 55.4266 111.258 55.4591 110.846 54.8966" stroke="white" stroke-width="2"/>
<path d="M118.667 53.7524L112.195 54.7991" stroke="white" stroke-width="2"/>
<path d="M131.065 44.7708L113.992 46.004" stroke="white" stroke-width="2"/>
<path d="M131.13 50.4666C127.889 51.6187 124.558 52.4327 121.138 52.9087" stroke="white" stroke-width="2"/>
<path d="M187.366 41.3793C184.493 41.5307 182.743 41.666 182.114 41.785C177.729 42.5963 174.211 43.0317 171.561 43.0912" stroke="white" stroke-width="2"/>
<path d="M190.073 47.8539L179.878 47.6997" stroke="white" stroke-width="2"/>
<path d="M179.878 47.6997C176.425 47.3319 172.97 47.3103 169.512 47.6348" stroke="white" stroke-width="2"/>
<path d="M193.089 54.9371C191.848 55.7052 190.509 56.0947 189.073 56.1055C187.718 56.1109 186.737 56.1434 186.13 56.2029C185.144 56.3002 184.154 56.2948 183.163 56.1866" stroke="white" stroke-width="2"/>
<path d="M179.878 47.6997L180.049 48.2758" stroke="white" stroke-width="2"/>
<path d="M176.39 56.1865C172.938 56.603 169.55 56.319 166.228 55.3346" stroke="white" stroke-width="2"/>
<path d="M198.407 60.2434C198.038 60.6815 197.862 61.2035 197.878 61.8093C197.883 61.9276 197.851 62.0429 197.787 62.1349C197.723 62.2269 197.631 62.2898 197.529 62.3124C196.136 62.6423 194.737 62.7748 193.333 62.7099C190.981 62.6018 189.594 62.5531 189.171 62.5639C187.55 62.6018 185.932 62.572 184.317 62.4746C182.35 62.3502 180.737 62.3043 179.48 62.3367C172.119 62.5152 167.51 62.4936 165.65 62.2718C164.458 62.1258 163.455 62.142 162.642 62.3205C162.51 62.3499 162.376 62.348 162.254 62.3152C162.133 62.2824 162.028 62.2197 161.951 62.1339C161.572 61.7228 161.325 61.2279 161.211 60.6491" stroke="white" stroke-width="2"/>
<path d="M77.2358 30.2555C75.5285 30.7586 73.8348 30.6693 72.1545 29.9878C77.5312 17.9905 85.8375 8.56521 97.0732 1.71193C97.2846 1.58212 97.4499 1.53073 97.5692 1.55778C97.7751 1.60105 97.6017 1.86068 97.0489 2.33668C88.0895 9.97968 81.4852 19.286 77.2358 30.2555Z" fill="white"/>
<path d="M18.2928 59.8702C17.9297 59.9243 17.6478 59.8458 17.4473 59.6349C30.4012 54.9074 43.7833 53.7093 57.5936 56.0406C62.0977 57.4036 66.4852 59.4077 70.7562 62.0527C70.8298 62.099 70.914 62.1245 71.001 62.1268C71.088 62.1291 71.175 62.1083 71.2538 62.0661C71.3326 62.024 71.4006 61.9619 71.4515 61.8858C71.5024 61.8097 71.5345 61.7219 71.5448 61.6308L72.87 49.7444C73.9974 46.9317 75.0624 44.2164 76.0652 41.5984C80.3362 30.4287 87.431 21.5172 97.3497 14.8641C97.4689 14.783 97.5882 14.7343 97.7074 14.718C98.1302 14.6585 98.0597 14.8668 97.496 15.3428C92.0814 19.9459 87.6126 25.2522 84.0895 31.2617C81.9107 34.9831 80.1437 39.194 78.7887 43.8945C77.515 48.3137 76.5882 52.8168 76.0082 57.4036C75.6072 60.5788 75.1681 64.0216 74.6912 67.7322C74.6807 67.8229 74.6482 67.9096 74.5965 67.9848C74.5448 68.0601 74.4755 68.1216 74.3945 68.1639C74.3136 68.2063 74.2235 68.2283 74.1321 68.2281C74.0407 68.2278 73.9507 68.2052 73.87 68.1623C57.9242 59.5186 41.2332 56.5139 23.7969 59.1481C21.9703 59.4239 20.1356 59.6646 18.2928 59.8702Z" fill="white"/>
<path d="M65.8212 36.9168C64.6179 37.0683 63.477 36.9222 62.3984 36.4787C65.0272 27.6835 70.0841 20.6491 77.5692 15.3752C77.7968 15.213 77.8808 15.2454 77.8212 15.4726C77.8104 15.5321 77.7778 15.5862 77.7236 15.6349C71.7995 21.6335 67.832 28.7275 65.8212 36.9168Z" fill="white"/>
<path d="M72.1545 29.9878C73.8347 30.6693 75.5285 30.7586 77.2358 30.2555L73.9675 41.3225C73.8483 42.8154 73.3306 43.9432 72.4146 44.7058C71.748 45.2684 70.935 45.4604 69.9756 45.2819C69.0922 45.1196 68.271 44.7653 67.5122 44.219C68.5583 39.313 70.1057 34.5693 72.1545 29.9878Z" fill="white"/>
<path d="M62.3984 36.4788C63.477 36.9223 64.6179 37.0683 65.8212 36.9169C64.9594 40.568 64.4824 44.1488 64.3903 47.6593C64.3878 47.7557 64.3621 47.8502 64.3153 47.9346C64.2685 48.019 64.202 48.091 64.1214 48.1443C64.0409 48.1976 63.9486 48.2308 63.8525 48.241C63.7563 48.2512 63.6591 48.2381 63.5691 48.2029C51.2981 43.47 38.7941 42.5667 26.0569 45.493C25.7805 45.5579 25.7643 45.52 26.0082 45.3794C27.8022 44.33 30.1762 43.47 33.1301 42.7992C41.8239 40.8249 50.7561 40.7492 59.9269 42.5721C60.0892 42.6035 60.259 42.5686 60.4032 42.4741C60.5474 42.3797 60.6558 42.2324 60.7074 42.0609L62.3984 36.4788Z" fill="white"/>
<path d="M165.415 37.9311C165.29 38.115 165.22 38.3178 165.203 38.5396C165.197 38.6536 165.156 38.7609 165.089 38.8415C165.021 38.9221 164.932 38.9705 164.838 38.9777C156.794 39.5511 150.629 40.284 146.342 41.1765C141.48 42.188 137.09 42.4125 133.171 41.8499L133.13 37.1846C133.129 37.1157 133.142 37.0474 133.168 36.9834C133.194 36.9195 133.233 36.8613 133.282 36.8122C133.331 36.7631 133.39 36.7242 133.455 36.6975C133.519 36.6709 133.589 36.6572 133.659 36.6572L164.838 36.714C164.976 36.7138 165.109 36.7484 165.216 36.8126C165.323 36.8769 165.398 36.9675 165.431 37.071C165.518 37.3307 165.512 37.6173 165.415 37.9311Z" fill="white"/>
<path d="M105.049 46.856C102.48 46.2124 100.22 46.7127 98.2684 48.357C97.9269 48.1623 97.6126 48.2705 97.3253 48.6816L89.309 49.7932C89.1795 49.8119 89.0558 49.8593 88.9458 49.9325C88.8358 50.0056 88.7418 50.1029 88.67 50.2182C88.5981 50.3334 88.5498 50.464 88.5283 50.6018C88.5067 50.7395 88.5124 50.8814 88.5448 51.0183C88.7399 51.8297 88.6288 52.3922 88.2115 52.7059C87.973 52.8844 87.8538 52.8141 87.8538 52.495L87.7725 41.5822C88.0868 39.5159 89.0462 38.1312 90.6505 37.428C91.7454 36.952 93.2494 36.6654 95.1627 36.568C97.3253 36.4544 99.2277 37.0359 100.87 38.3124C101.916 39.1184 102.778 40.4409 103.455 42.28C104.019 43.7945 104.55 45.3199 105.049 46.856Z" fill="white"/>
<path d="M131.065 44.7708L113.992 46.0041C114.615 43.4672 115.32 41.4686 116.106 40.0081C116.875 38.591 118.146 37.6308 119.919 37.1278C123.61 36.0893 126.675 36.4084 129.114 38.0852C130.745 39.1995 131.396 41.428 131.065 44.7708Z" fill="white"/>
<path d="M187.366 41.3793C184.493 41.5307 182.743 41.666 182.114 41.785C177.729 42.5963 174.211 43.0317 171.561 43.0912C172.445 39.3374 174.613 37.3198 178.065 37.0385C180.146 36.8654 181.892 36.9736 183.301 37.363C185.214 37.8931 186.569 39.2319 187.366 41.3793Z" fill="white"/>
<path d="M165.415 37.931L165.439 39.7647C163.287 39.7809 161.184 40.027 159.13 40.503C156.041 41.217 153.989 41.6471 152.976 41.7931C149.789 42.2637 146.629 42.8695 143.496 43.6105C142.547 43.8323 141.886 44.1298 141.512 44.503C141.298 44.7114 141.065 44.8367 140.862 44.8519C139.854 44.9276 140.393 45.0439 142.48 45.2008L133.691 45.1034C133.562 45.1034 133.438 45.059 133.346 44.9799C133.255 44.9007 133.203 44.7934 133.203 44.6815L133.171 41.8499C137.089 42.4124 141.48 42.188 146.341 41.1765C150.629 40.284 156.794 39.551 164.837 38.9777C164.932 38.9705 165.021 38.9221 165.088 38.8415C165.156 38.7609 165.197 38.6535 165.203 38.5395C165.219 38.3178 165.29 38.1149 165.415 37.931Z" fill="white"/>
<path d="M165.439 39.7646L165.447 44.8275C165.447 44.9351 165.404 45.0383 165.328 45.1144C165.252 45.1905 165.148 45.2332 165.041 45.2332L154.935 45.2819C154.816 45.2817 154.701 45.3241 154.616 45.4C154.531 45.4758 154.482 45.5791 154.48 45.6876L154.439 48.073L144.341 49.29C144.276 48.0621 144.266 47.3184 144.309 47.0588C144.558 45.528 143.948 44.9087 142.48 45.2008C140.393 45.0439 139.854 44.9276 140.862 44.8519C141.065 44.8367 141.298 44.7114 141.512 44.503C141.886 44.1298 142.547 43.8323 143.496 43.6105C146.629 42.8695 149.789 42.2636 152.976 41.793C153.989 41.647 156.041 41.217 159.13 40.503C161.184 40.027 163.287 39.7809 165.439 39.7646Z" fill="white"/>
<path d="M73.9675 41.3225L72.8699 49.7444L71.5447 61.6308C71.5344 61.7219 71.5023 61.8097 71.4514 61.8858C71.4005 61.9619 71.3325 62.024 71.2537 62.0661C71.1749 62.1083 71.0879 62.1291 71.0009 62.1268C70.9139 62.1245 70.8297 62.099 70.7561 62.0527C66.4851 59.4077 62.0976 57.4036 57.5935 56.0406C38.6558 49.7336 19.8781 50.0879 1.26018 57.1034C1.21307 57.1223 1.16402 57.1353 1.11603 57.1419C1.06803 57.1484 1.0221 57.1482 0.981024 57.1414C0.939949 57.1346 0.904593 57.1212 0.877109 57.1021C0.849625 57.083 0.830589 57.0586 0.82116 57.0304C0.78322 56.9276 0.869941 56.8086 1.08132 56.6734C5.66127 53.7958 10.5827 51.7106 15.8455 50.4178C32.5339 46.3286 49.0488 46.8262 65.3903 51.9107C65.4804 51.939 65.5758 51.9467 65.6699 51.9336C65.7641 51.9205 65.8549 51.8867 65.9364 51.8345C66.0179 51.7823 66.0882 51.713 66.1426 51.631C66.197 51.549 66.2343 51.4563 66.252 51.359L67.5122 44.2191C68.271 44.7654 69.0922 45.1197 69.9756 45.2819C70.935 45.4604 71.748 45.2684 72.4146 44.7059C73.3306 43.9432 73.8483 42.8154 73.9675 41.3225Z" fill="white"/>
<path d="M187.366 41.3793L190.073 47.8539L179.878 47.6998C176.425 47.3319 172.97 47.3103 169.512 47.6349L171.561 43.0912C174.211 43.0317 177.729 42.5963 182.114 41.785C182.743 41.666 184.493 41.5307 187.366 41.3793Z" fill="white"/>
<path d="M87.7724 41.5822L87.8537 52.4949C87.8537 52.8141 87.973 52.8844 88.2115 52.7059C88.6288 52.3922 88.7399 51.8296 88.5448 51.0183C88.5123 50.8813 88.5067 50.7395 88.5283 50.6017C88.5498 50.464 88.5981 50.3334 88.6699 50.2181C88.7418 50.1029 88.8357 50.0056 88.9458 49.9324C89.0558 49.8593 89.1795 49.8118 89.309 49.7931L97.3253 48.6815L97.5285 52.3327C94.8185 51.8729 92.1437 51.954 89.5041 52.5761C88.8375 52.7329 88.3686 53.0169 88.0976 53.428C87.7724 53.9202 87.618 54.5017 87.6342 55.1724L87.7724 41.5822Z" fill="white"/>
<path d="M131.065 44.7708V49.0872C130.648 48.6923 130.1 48.6085 129.423 48.8357C128.984 48.9763 128.509 48.9249 128 48.6815C127.88 48.6226 127.752 48.5871 127.625 48.5774C127.498 48.5676 127.373 48.5837 127.26 48.6247C125.585 49.2251 123.864 49.4442 122.097 49.2819C121.961 49.27 121.828 49.2904 121.713 49.3406C121.598 49.3909 121.506 49.469 121.447 49.5659C121.279 49.8363 121.187 50.1501 121.171 50.5071C121.133 49.9662 121.111 49.4252 121.106 48.8843C121.106 48.1812 120.902 48.0459 120.496 48.4787C120.387 48.5923 120.309 48.7464 120.26 48.9411C120.07 49.6281 119.821 50.2961 119.512 50.9452C118.065 50.4313 116.596 50.3827 115.106 50.7991C113.1 51.3671 112.13 52.7004 112.195 54.7992C111.707 55.4266 111.257 55.4591 110.845 54.8965L113.992 46.004L131.065 44.7708Z" fill="white"/>
<path d="M105.049 46.856L107.285 53.5497C106.824 53.4145 106.523 53.1413 106.382 52.7302C106.342 52.6104 106.274 52.5057 106.188 52.4303C106.102 52.3549 106.003 52.3124 105.902 52.3083C103.61 52.238 101.721 53.0575 100.236 54.7667L98.2683 48.357C100.22 46.7126 102.48 46.2123 105.049 46.856Z" fill="white"/>
<path d="M179.878 47.6998L180.049 48.2759C179.658 48.3138 179.415 48.4652 179.317 48.7303C178.412 51.2455 177.436 53.7309 176.39 56.1867C172.938 56.6032 169.55 56.3192 166.228 55.3347L169.512 47.6349C172.97 47.3104 176.425 47.332 179.878 47.6998Z" fill="white"/>
<path d="M190.073 47.854L193.089 54.9372C191.848 55.7052 190.509 56.0947 189.073 56.1055C187.718 56.1109 186.737 56.1434 186.13 56.2029C185.144 56.3002 184.154 56.2948 183.162 56.1866L180.049 48.2759L179.878 47.6998L190.073 47.854Z" fill="white"/>
<path d="M154.439 48.073L154.301 50.1014L154.065 55.5213C154.061 55.6298 154.01 55.7324 153.924 55.8068C153.837 55.8812 153.721 55.9214 153.602 55.9188C150.55 55.8647 147.531 56.1568 144.545 56.7951L144.342 49.29L154.439 48.073Z" fill="white"/>
<path d="M131.065 49.0873L131.13 50.4666C127.889 51.6187 124.558 52.4328 121.138 52.9088L121.171 50.5072C121.187 50.1502 121.279 49.8364 121.447 49.566C121.506 49.4691 121.598 49.391 121.713 49.3407C121.828 49.2905 121.961 49.2701 122.098 49.282C123.864 49.4443 125.585 49.2252 127.26 48.6248C127.374 48.5838 127.498 48.5677 127.625 48.5775C127.752 48.5872 127.88 48.6227 128 48.6816C128.509 48.925 128.984 48.9764 129.423 48.8358C130.1 48.6086 130.648 48.6924 131.065 49.0873Z" fill="white"/>
<path d="M154.301 50.1014L154.626 67.9919C154.627 68.0661 154.613 68.1398 154.585 68.2086C154.557 68.2775 154.515 68.3401 154.462 68.393C154.409 68.4458 154.346 68.4878 154.277 68.5164C154.207 68.5451 154.132 68.5599 154.057 68.5599H145.203C145.02 68.5599 144.844 68.4872 144.715 68.3579C144.585 68.2285 144.512 68.0531 144.512 67.8702L144.545 56.7952C147.531 56.1569 150.55 55.8648 153.602 55.9189C153.721 55.9215 153.837 55.8812 153.923 55.8068C154.01 55.7324 154.061 55.6299 154.065 55.5213L154.301 50.1014Z" fill="white"/>
<path d="M131.13 50.4666L131.049 67.3834C131.049 67.5878 130.967 67.7839 130.823 67.9284C130.678 68.073 130.481 68.1542 130.276 68.1542H121.333C121.26 68.1542 121.188 68.1395 121.121 68.1108C121.054 68.082 120.993 68.0399 120.942 67.987C120.891 67.934 120.852 67.8712 120.825 67.8024C120.799 67.7336 120.786 67.6601 120.789 67.5862L121.138 52.9087C124.558 52.4327 127.889 51.6187 131.13 50.4666Z" fill="white"/>
<path d="M119.512 50.9453L118.667 53.7526L112.195 54.7992C112.13 52.7005 113.1 51.3672 115.106 50.7992C116.596 50.3827 118.065 50.4314 119.512 50.9453Z" fill="white"/>
<path d="M97.5285 52.3327L97.561 55.7485C95.6694 55.2076 93.7643 55.1508 91.8456 55.5781C91.7535 55.5997 91.2196 55.67 90.244 55.789C89.1762 55.9189 88.7264 56.5788 88.8944 57.7688C88.9309 58.0087 88.8668 58.2643 88.7155 58.4828L87.6342 60.0406V55.1724C87.618 54.5017 87.7724 53.9202 88.0976 53.428C88.3686 53.0169 88.8375 52.7329 89.5041 52.5761C92.1437 51.954 94.8185 51.8729 97.5285 52.3327Z" fill="white"/>
<path d="M107.285 53.5497L108.163 56.1867L101.252 58.0122L100.236 54.7668C101.721 53.0575 103.61 52.238 105.903 52.3084C106.003 52.3124 106.102 52.355 106.188 52.4304C106.274 52.5058 106.342 52.6104 106.382 52.7303C106.523 53.1414 106.824 53.4145 107.285 53.5497Z" fill="white"/>
<path d="M118.667 53.7526C116.764 60.4219 115.404 64.5301 114.585 66.0771C113.832 67.4997 112.626 68.2894 110.967 68.4463C109.542 68.5761 108.195 68.4787 106.927 68.1542C105.041 67.6674 103.816 66.3151 103.252 64.0974C102.9 62.7127 102.233 60.6843 101.252 58.0122L108.163 56.1866C109.382 59.0102 110.276 58.5802 110.845 54.8966C111.257 55.4591 111.707 55.4267 112.195 54.7992L118.667 53.7526Z" fill="white"/>
<path d="M193.089 54.9371L195.211 59.4239C195.259 59.5265 195.338 59.6123 195.44 59.6702C195.541 59.7281 195.66 59.7554 195.781 59.7485C196.707 59.6782 197.583 59.8432 198.407 60.2434C198.038 60.6816 197.862 61.2035 197.878 61.8093C197.883 61.9276 197.851 62.0429 197.787 62.1349C197.723 62.2269 197.631 62.2898 197.529 62.3124C196.136 62.6423 194.737 62.7749 193.333 62.71C190.981 62.6018 189.594 62.5531 189.171 62.5639C187.55 62.6018 185.932 62.572 184.317 62.4747C182.35 62.3503 180.737 62.3043 179.48 62.3367C172.119 62.5152 167.51 62.4936 165.65 62.2718C164.458 62.1258 163.455 62.142 162.642 62.3205C162.51 62.3499 162.376 62.348 162.254 62.3152C162.133 62.2824 162.028 62.2198 161.951 62.1339C161.572 61.7228 161.325 61.2279 161.211 60.6491C161.179 59.854 161.789 59.6241 163.041 59.9594C163.339 60.0387 163.659 59.9986 163.943 59.8465C164.227 59.6944 164.455 59.4405 164.585 59.1319L166.228 55.3347C169.55 56.3191 172.938 56.6031 176.39 56.1866L175.301 59.4402C175.285 59.4867 175.282 59.5363 175.291 59.5848C175.299 59.6332 175.32 59.6792 175.351 59.7189C175.382 59.7585 175.422 59.7907 175.469 59.8128C175.515 59.8349 175.566 59.8462 175.618 59.8459L183.984 59.7079C184.037 59.7069 184.089 59.6942 184.136 59.6709C184.183 59.6476 184.224 59.6143 184.255 59.5739C184.286 59.5335 184.306 59.487 184.314 59.4384C184.322 59.3897 184.318 59.3403 184.301 59.2941L183.163 56.1866C184.155 56.2948 185.144 56.3002 186.13 56.2029C186.737 56.1434 187.718 56.1109 189.073 56.1055C190.51 56.0947 191.848 55.7052 193.089 54.9371Z" fill="white"/>
<path d="M97.5609 55.7484L97.7316 59.2292L87.6747 62.8316L87.634 60.0405L88.7153 58.4827C88.8666 58.2643 88.9307 58.0086 88.8942 57.7687C88.7262 56.5787 89.176 55.9188 90.2438 55.789C91.2194 55.67 91.7533 55.5997 91.8454 55.5781C93.7641 55.1507 95.6693 55.2075 97.5609 55.7484Z" fill="white"/>
<path d="M97.7316 59.2292L97.634 67.5944C97.6339 67.706 97.5895 67.8137 97.5098 67.8963C97.43 67.9789 97.3206 68.0304 97.2031 68.0406C94.1516 68.2894 91.1056 68.257 88.0649 67.9432C87.9475 67.933 87.838 67.8816 87.7583 67.7989C87.6785 67.7163 87.6342 67.6086 87.634 67.497L87.6747 62.8317L97.7316 59.2292Z" fill="white"/>
<path d="M17.4473 59.6349C17.6478 59.8458 17.9297 59.9243 18.2928 59.8702C15.637 60.5409 15.3551 60.4625 17.4473 59.6349Z" fill="white"/>
<path d="M198.407 60.2434C198.764 62.8452 198.726 65.4334 198.293 68.0081C198.272 68.1215 198.213 68.2241 198.127 68.2981C198.041 68.3722 197.933 68.4131 197.821 68.4138L161.992 68.5598C161.886 68.5598 161.78 68.5388 161.682 68.4979C161.584 68.4571 161.495 68.3972 161.42 68.3217C161.345 68.2463 161.286 68.1568 161.246 68.0584C161.206 67.96 161.186 67.8546 161.187 67.7485L161.211 60.6491C161.325 61.2279 161.572 61.7228 161.951 62.1339C162.028 62.2197 162.133 62.2824 162.254 62.3152C162.376 62.348 162.51 62.3499 162.642 62.3205C163.455 62.142 164.458 62.1258 165.65 62.2718C167.51 62.4936 172.119 62.5152 179.48 62.3367C180.737 62.3043 182.35 62.3502 184.317 62.4746C185.932 62.572 187.55 62.6018 189.171 62.5639C189.594 62.5531 190.981 62.6018 193.333 62.7099C194.737 62.7748 196.136 62.6423 197.529 62.3124C197.631 62.2898 197.723 62.2269 197.787 62.1349C197.851 62.0429 197.883 61.9276 197.878 61.8093C197.862 61.2035 198.038 60.6815 198.407 60.2434Z" fill="white"/>
</svg>
