<svg width="375" height="100" viewBox="0 0 375 100" fill="none" xmlns="http://www.w3.org/2000/svg">
<g clip-path="url(#clip0_1346_4544)">
<path d="M134.153 98.2857L123.34 1.71436H137.142L143.823 73.5384L149.23 1.71436H163.472L153.01 98.2857H134.153ZM169.098 98.2857V1.71436H201.142V10.5495H182.768V43.6044H201.142V52.4396H182.768V89.3186H201.406V98.2857H169.098ZM210.197 98.2857V1.71436H223.911V43.2088L230.768 1.71436H244.351L235.823 47.3407L245.713 98.2857H232.527L223.911 52.3077V98.2857H210.197ZM254.592 98.2857V1.71436H268.263V43.2088L275.12 1.71436H288.702L280.175 47.3407L290.065 98.2857H276.878L268.263 52.3077V98.2857H254.592ZM296.526 98.2857V1.71436H328.57V10.5495H310.197V43.6044H328.57V52.4396H310.197V89.3186H328.79V98.2857H296.526ZM337.625 98.2857V1.71436H359.12C364.395 1.71436 367.735 2.94512 369.142 5.3627C370.592 7.78028 371.296 11.1649 371.296 15.5165V47.4725C371.296 50.7253 370.944 53.4506 370.241 55.6044C369.493 57.7582 367.735 59.4286 365.01 60.7033L374.065 98.2857H359.471L352.219 62.6374H351.296V98.2857H337.625ZM351.296 53.9341H353.274C354.548 53.9341 355.603 53.3626 356.438 52.3077C357.23 51.2088 357.625 49.7143 357.625 47.8242V15.5165C357.625 12.2198 356.263 10.5935 353.493 10.5935H351.296V53.9341Z" fill="white"/>
<path fill-rule="evenodd" clip-rule="evenodd" d="M0 0H99.9999V99.9999H0V0Z" fill="white"/>
<path d="M49.8014 74.4614L43.208 56.4834L27.3398 50.6812L41.8453 89.8021L49.8014 74.4614ZM73.4936 49.2307V10.1978L60.6585 19.6922V41.2746L73.4936 49.2307ZM39.9552 41.2746V19.6922L27.3398 10.1978V49.2307L39.9552 41.2746ZM73.4936 50.6812L57.9332 56.3515L51.4717 74.2416L59.0761 89.8021L73.4936 50.6812ZM56.6145 89.8021L50.5926 77.1427L44.0871 89.8021H56.6145Z" fill="#292929"/>
</g>
<defs>
<clipPath id="clip0_1346_4544">
<rect width="374.065" height="100" fill="white"/>
</clipPath>
</defs>
</svg>
