<svg width="224" height="25" viewBox="0 0 224 25" fill="none" xmlns="http://www.w3.org/2000/svg">
<g clip-path="url(#clip0_3158_157)">
<path d="M25.4709 18.1631V24.9982H0V18.1631C22.5805 18.1631 2.89042 18.1631 25.4709 18.1631Z" fill="white"/>
<path d="M83.0152 15.702V24.9833H74.8135V0.00292969H83.3087L88.4733 9.29862V0.00292969H96.675V24.9833H88.1798L83.0152 15.702Z" fill="white"/>
<path d="M169.288 15.702V24.9833H161.086V0.00292969H169.581L174.746 9.29862V0.00292969H182.933V24.9833H174.438L169.288 15.702Z" fill="white"/>
<path d="M150.023 12.0617V7.29872H148.541L147 12.0617H150.038H150.023ZM158.474 24.998H150.023V18.8392H144.8L142.819 24.998H134.074L142.217 0.0175781H158.489V24.998H158.474Z" fill="white"/>
<path d="M215.549 12.0617V7.29872H214.067L212.527 12.0617H215.564H215.549ZM224 24.998H215.549V18.8392H210.326L208.345 24.998H199.601L207.744 0.0175781H224.015V24.998H224Z" fill="white"/>
<path d="M124.787 7.29872H120.224V0.0175781H139.562L137.141 7.29872H133.282V24.998H124.787V7.29872Z" fill="white"/>
<path d="M190.107 7.29872H185.544V0.0175781H204.882L202.446 7.29872H198.588V24.998H190.107V7.29872Z" fill="white"/>
<path d="M99.2715 17.76V24.998H115.47L117.92 17.76L109.381 7.29872H117.876V0.0175781H101.648L99.2715 7.26995L107.737 17.76H99.2715Z" fill="white"/>
<path d="M63.8977 17.7888V7.11166H62.2398H60.5818V17.7888H62.2398H63.8977ZM62.2398 0.0175781H72.2022V17.8031L69.8546 24.998H62.2398H52.2773V7.29872L54.7129 0.0463574L54.6836 0.0175781H62.2251H62.2398Z" fill="white"/>
<path d="M46.5695 12.5078L50.0321 24.998H41.537L39.4829 16.0044H36.6951V24.998H28.3467V12.5078V0.0175781H36.6951V9.01109H39.4829L41.537 0.0175781H50.0321L46.5695 12.5078Z" fill="white"/>
<path d="M25.4709 9.09668V15.9317H0V9.09668C22.5805 9.09668 2.89042 9.09668 25.4709 9.09668Z" fill="white"/>
<path d="M25.4709 0.0175781V6.85265H0V0.0175781C22.5805 0.0175781 2.89042 0.0175781 25.4709 0.0175781Z" fill="white"/>
</g>
<defs>
<clipPath id="clip0_3158_157">
<rect width="224" height="25" fill="white"/>
</clipPath>
</defs>
</svg>
