<svg width="200" height="100" viewBox="0 0 200 100" fill="none" xmlns="http://www.w3.org/2000/svg">
<g clip-path="url(#clip0_116_11)">
<mask id="mask0_116_11" style="mask-type:luminance" maskUnits="userSpaceOnUse" x="25" y="15" width="150" height="70">
<path d="M175 15H25V84.3467H175V15Z" fill="white"/>
</mask>
<g mask="url(#mask0_116_11)">
<path fill-rule="evenodd" clip-rule="evenodd" d="M79.4119 54.8375H91.9686V52.5227H79.4119V54.8375ZM91.9686 51.5963V48.3536H79.4119V51.5963H91.9686ZM91.9686 47.4271V44.1843H79.4119V47.4271H91.9686ZM91.9686 43.2581V40.015H79.4119V43.2581H91.9686ZM91.9686 39.0889V35.8459H79.4119V39.0889H91.9686ZM91.9686 34.9196V31.6767H79.4119V34.9196H91.9686ZM91.9686 30.7504V29.5687L92.1024 29.5676L92.3747 30.7504H103.704L103.04 27.5076H79.4119V30.7504H91.9686ZM102.85 26.5812L102.187 23.3383H79.4119V26.5812H102.85ZM101.997 22.4121L101.333 19.1691H79.4119V22.4121H101.997ZM101.143 18.2428L100.479 15C93.4572 15 86.434 15 79.4119 15V18.2428H101.143ZM92.5891 31.6767L93.3365 34.9196H104.557L103.893 31.6767H92.5891ZM93.5502 35.8459L94.2979 39.0889H114.416L115.141 35.8459H93.5502ZM115.349 34.9196L116.074 31.6767H105.37L104.644 34.9196H115.349ZM116.281 30.7504L116.509 29.7327L116.855 29.7304V30.7504H129.412V27.5076H106.303L105.577 30.7504H116.281ZM129.412 26.5812V23.3383H107.235L106.51 26.5812H129.412ZM129.412 22.4121V19.1691H108.168L107.442 22.4121H129.412ZM129.412 18.2428V15C122.642 15 115.87 15 109.1 15L108.375 18.2428H129.412ZM116.855 31.6767V34.9196H129.412V31.6767H116.855ZM116.855 35.8459V39.0889H129.412V35.8459H116.855ZM94.512 40.015L95.2595 43.2581H113.484L114.209 40.015H94.512ZM116.855 40.015V43.2581H129.412V40.015H116.855ZM95.473 44.1843L96.2212 47.4271H112.551L113.277 44.1843H95.473ZM116.855 44.1843V47.4271H129.412V44.1843H116.855ZM96.4348 48.3536L97.1828 51.5963H111.619L112.344 48.3536H96.4348ZM116.855 48.3536V51.5963H129.412V48.3536H116.855ZM97.3966 52.5227L97.9305 54.8375C102.251 54.8375 106.573 54.8375 110.894 54.8375L111.412 52.5227H97.3966ZM116.855 52.5227V54.8375H129.412V52.5227H116.855Z" fill="white"/>
<path fill-rule="evenodd" clip-rule="evenodd" d="M133.824 54.8375H145.823V29.227L158.722 54.8375H163.001H170.721H175V15H163.001V39.5087L150.657 15H145.823H138.658H133.824V54.8375Z" fill="white"/>
<path fill-rule="evenodd" clip-rule="evenodd" d="M61.2866 36.7717H58.3121L50.9015 46.9631H61.2866V54.8375H73.5295V15H73.0163H61.2866H56.9865L25 54.8375H41.03L61.2866 29.6086V36.7717Z" fill="white"/>
<path d="M25 84.1283V71.2862H33.5732V72.8018H26.5682V76.7341H33.129V78.2409H26.5682V82.6121H33.8495V84.1283H25ZM39.6368 84.1283V71.2862H41.2463L47.4758 81.3683V71.2862H48.9805V84.1283H47.3712L41.1417 74.0371V84.1283H39.6368ZM60.803 79.0903V77.5865L65.8264 77.5772V82.3401C65.0558 83.0071 64.2609 83.5062 63.4407 83.844C62.6206 84.1795 61.7784 84.3469 60.9169 84.3469C59.7517 84.3469 58.6909 84.0773 57.7415 83.5364C56.7885 82.9978 56.0709 82.2145 55.5849 81.1948C55.0987 80.1727 54.8555 79.0301 54.8555 77.7684C54.8555 76.5187 55.0988 75.3527 55.5821 74.2703C56.0621 73.1847 56.7582 72.3804 57.6642 71.8543C58.5693 71.3305 59.6135 71.0677 60.7953 71.0677C61.6512 71.0677 62.4267 71.2173 63.1203 71.5195C63.8134 71.8178 64.3574 72.2371 64.7491 72.7748C65.1443 73.3134 65.4422 74.013 65.6497 74.8768L64.2328 75.2985C64.0534 74.6439 63.8327 74.13 63.5702 73.7558C63.3052 73.3822 62.9272 73.0831 62.4355 72.8585C61.9467 72.6345 61.4001 72.5206 60.803 72.5206C60.0857 72.5206 59.4644 72.6406 58.942 72.877C58.418 73.1128 57.9986 73.4241 57.6749 73.8098C57.3546 74.1951 57.1062 74.6174 56.9268 75.0806C56.6258 75.8728 56.4739 76.7341 56.4739 77.6639C56.4739 78.809 56.6561 79.766 57.0204 80.537C57.3853 81.3087 57.9153 81.8798 58.6113 82.2532C59.3069 82.6274 60.044 82.8158 60.8256 82.8158C61.5075 82.8158 62.1703 82.6723 62.8164 82.388C63.465 82.1069 63.9537 81.8054 64.2877 81.4823V79.0903H60.803ZM72.0438 84.1283V71.2862H73.6124V84.1283H72.0438ZM79.9987 84.1283V71.2862H81.6077L87.8369 81.3683V71.2862H89.3418V84.1283H87.7323L81.503 74.0371V84.1283H79.9987ZM95.6483 84.1283V71.2862H104.221V72.8018H97.2165V76.7341H103.777V78.2409H97.2165V82.6121H104.498V84.1283H95.6483ZM110.335 84.1283V71.2862H118.908V72.8018H111.903V76.7341H118.464V78.2409H111.903V82.6121H119.184V84.1283H110.335ZM125.012 84.1283V71.2862H130.27C131.327 71.2862 132.131 71.4026 132.68 71.6328C133.23 71.8631 133.669 72.2696 134 72.853C134.329 73.4388 134.492 74.0849 134.492 74.7902C134.492 75.7021 134.221 76.4678 133.674 77.093C133.131 77.7175 132.289 78.1155 131.151 78.2862C131.568 78.5009 131.883 78.7131 132.098 78.9255C132.556 79.3804 132.99 79.9512 133.401 80.633L135.464 84.1283H133.49L131.921 81.4553C131.463 80.6866 131.084 80.0947 130.786 79.6878C130.491 79.2787 130.225 78.9913 129.991 78.83C129.757 78.6658 129.519 78.5518 129.276 78.486C129.096 78.4472 128.807 78.4264 128.4 78.4264H126.581V84.1283H125.012ZM126.581 76.9551H129.955C130.671 76.9551 131.234 76.8744 131.637 76.7133C132.042 76.5513 132.35 76.2942 132.559 75.9415C132.768 75.589 132.874 75.2062 132.874 74.7902C132.874 74.1834 132.672 73.6843 132.264 73.2925C131.858 72.9004 131.215 72.7065 130.334 72.7065H126.581V76.9551ZM140.856 84.1283V71.2862H142.424V84.1283H140.856ZM148.81 84.1283V71.2862H150.42L156.649 81.3683V71.2862H158.154V84.1283H156.545L150.315 74.0371V84.1283H148.81ZM169.976 79.0903V77.5865L175 77.5772V82.3401C174.23 83.0071 173.434 83.5062 172.614 83.844C171.794 84.1795 170.951 84.3469 170.09 84.3469C168.925 84.3469 167.865 84.0773 166.915 83.5364C165.962 82.9978 165.244 82.2145 164.758 81.1948C164.273 80.1727 164.029 79.0301 164.029 77.7684C164.029 76.5187 164.273 75.3527 164.756 74.2703C165.236 73.1847 165.932 72.3804 166.838 71.8543C167.743 71.3305 168.787 71.0677 169.969 71.0677C170.825 71.0677 171.6 71.2173 172.294 71.5195C172.987 71.8178 173.53 72.2371 173.924 72.7748C174.318 73.3134 174.616 74.013 174.823 74.8768L173.406 75.2985C173.226 74.6439 173.005 74.13 172.744 73.7558C172.479 73.3822 172.1 73.0831 171.609 72.8585C171.12 72.6345 170.574 72.5206 169.976 72.5206C169.258 72.5206 168.638 72.6406 168.116 72.877C167.591 73.1128 167.172 73.4241 166.849 73.8098C166.528 74.1951 166.28 74.6174 166.1 75.0806C165.799 75.8728 165.647 76.7341 165.647 77.6639C165.647 78.809 165.83 79.766 166.194 80.537C166.558 81.3087 167.089 81.8798 167.784 82.2532C168.481 82.6274 169.218 82.8158 169.998 82.8158C170.68 82.8158 171.344 82.6723 171.99 82.388C172.639 82.1069 173.128 81.8054 173.462 81.4823V79.0903H169.976Z" fill="white"/>
</g>
</g>
<defs>
<clipPath id="clip0_116_11">
<rect width="150" height="69.3467" fill="white" transform="translate(25 15)"/>
</clipPath>
</defs>
</svg>
