<svg width="156" height="100" viewBox="0 0 156 100" fill="none" xmlns="http://www.w3.org/2000/svg">
<path d="M17.2344 45.399V17.4152L17.8251 17.3373C17.8868 17.3276 39.0432 14.3535 39.0432 31.701C39.0432 49.0516 17.8868 46.0743 17.8251 46.0678L17.2344 45.9932V45.399ZM18.5879 18.6068V44.7984C21.8597 45.1068 37.6897 45.886 37.6897 31.701C37.6897 17.5191 21.8597 18.2951 18.5879 18.6068Z" fill="white"/>
<path d="M57.8051 18.1753C58.1783 18.1753 58.4835 18.4772 58.4835 18.8506C58.4835 19.224 58.1783 19.5259 57.8051 19.5259H45.2956V44.3863H57.6363C58.0096 44.3863 58.3147 44.6883 58.3147 45.0617C58.3147 45.435 58.0096 45.737 57.6363 45.737H43.9453V18.1753H57.8051Z" fill="white"/>
<path d="M55.2295 40.4966C55.6028 40.4966 55.9047 40.7985 55.9047 41.1719C55.9047 41.5453 55.6028 41.8505 55.2295 41.8505H44.7487C44.3754 41.8505 44.0703 41.5453 44.0703 41.1719C44.0703 40.7985 44.3754 40.4966 44.7487 40.4966H55.2295Z" fill="white"/>
<path d="M90.0954 23.3311C90.4687 23.3311 90.7738 23.6363 90.7738 24.0096C90.7738 24.383 90.4687 24.685 90.0954 24.685H65.573C65.2322 24.7791 63.8073 25.2564 63.8073 26.7142C63.8073 28.1687 64.9953 28.883 65.388 29.0811H90.0954C90.4687 29.0811 90.7738 29.3863 90.7738 29.7596C90.7738 30.133 90.4687 30.435 90.0954 30.435H65.1089L64.9758 30.3765C64.9693 30.3733 62.457 29.37 62.457 26.7142C62.457 23.9739 65.3458 23.3538 65.3523 23.3505L65.4367 23.3311H90.0954Z" fill="white"/>
<path d="M65.5845 33.5649H88.0263C88.9124 33.5649 89.7141 33.9253 90.2951 34.5065C90.8794 35.0909 91.2397 35.8929 91.2397 36.776C91.2397 37.6623 90.8794 38.4643 90.2951 39.0455C89.7141 39.6299 88.9124 39.9903 88.0263 39.9903H65.5845C64.7016 39.9903 63.8966 39.6299 63.3156 39.0455C62.7346 38.4643 62.3711 37.6623 62.3711 36.776C62.3711 35.8929 62.7346 35.0909 63.3156 34.5065C63.8966 33.9253 64.7016 33.5649 65.5845 33.5649ZM88.0263 34.9156H65.5845C65.0749 34.9156 64.6075 35.1266 64.2732 35.4643C63.9356 35.802 63.7246 36.2662 63.7246 36.776C63.7246 37.289 63.9356 37.7533 64.2732 38.0909C64.6075 38.4286 65.0749 38.6364 65.5845 38.6364H88.0263C88.5391 38.6364 89.0033 38.4286 89.3408 38.0909C89.6784 37.7533 89.8861 37.289 89.8861 36.776C89.8861 36.2662 89.6784 35.802 89.3408 35.4643C89.0033 35.1266 88.5391 34.9156 88.0263 34.9156Z" fill="white"/>
<path d="M99.0176 45.4024C99.0176 45.7758 98.7125 46.0777 98.3392 46.0777C97.9659 46.0777 97.6641 45.7758 97.6641 45.4024V17.6914L98.2288 17.594C98.284 17.5875 118.119 14.0712 118.119 27.3082C118.119 39.7595 101.157 36.8082 99.0176 36.3829V45.4024ZM99.0176 18.8407V35.0095L99.0695 35.0193C99.1182 35.029 116.766 38.8927 116.766 27.3082C116.766 16.8927 102.098 18.4089 99.0176 18.8407Z" fill="white"/>
<path d="M116.168 45.1523C116.353 45.4738 116.239 45.8861 115.918 46.0712C115.597 46.2562 115.184 46.1458 114.999 45.8212L109.429 36.1751C109.244 35.8504 109.355 35.438 109.679 35.253C110.001 35.0679 110.413 35.1815 110.598 35.503L116.168 45.1523Z" fill="white"/>
<path d="M17.5618 53.3828C17.4514 53.0257 17.6494 52.6458 18.0065 52.5354C18.3603 52.425 18.74 52.6231 18.8504 52.9802L26.582 77.6653L34.5538 52.8049C34.6674 52.451 35.0472 52.2562 35.401 52.3698C35.758 52.4834 35.9528 52.8633 35.8392 53.2172L26.5658 82.1328L17.5618 53.3828Z" fill="white"/>
<path d="M39.7611 54.0259C39.3878 54.0259 39.0859 53.724 39.0859 53.3506C39.0859 52.9772 39.3878 52.6753 39.7611 52.6753H50.9203C51.2936 52.6753 51.5954 52.9772 51.5954 53.3506C51.5954 53.724 51.2936 54.0259 50.9203 54.0259H39.7611Z" fill="white"/>
<path d="M39.7611 80.2369C39.3878 80.2369 39.0859 79.9349 39.0859 79.5616C39.0859 79.1882 39.3878 78.8862 39.7611 78.8862H50.9203C51.2936 78.8862 51.5954 79.1882 51.5954 79.5616C51.5954 79.9349 51.2936 80.2369 50.9203 80.2369H39.7611Z" fill="white"/>
<path d="M44.832 53.8535C44.832 53.4802 45.1339 53.1782 45.5072 53.1782C45.8804 53.1782 46.1823 53.4802 46.1823 53.8535V79.2269C46.1823 79.6003 45.8804 79.9022 45.5072 79.9022C45.1339 79.9022 44.832 79.6003 44.832 79.2269V53.8535Z" fill="white"/>
<path d="M63.5117 53.7886C63.5117 53.4152 63.8136 53.1133 64.1869 53.1133C64.5601 53.1133 64.8652 53.4152 64.8652 53.7886V79.2918C64.8652 79.6652 64.5601 79.9672 64.1869 79.9672C63.8136 79.9672 63.5117 79.6652 63.5117 79.2918V53.7886Z" fill="white"/>
<path d="M54.8073 54.0259C54.434 54.0259 54.1289 53.724 54.1289 53.3506C54.1289 52.9772 54.434 52.6753 54.8073 52.6753H74.4155C74.7887 52.6753 75.0938 52.9772 75.0938 53.3506C75.0938 53.724 74.7887 54.0259 74.4155 54.0259H54.8073Z" fill="white"/>
<path d="M80.7598 80.237C80.7598 80.6103 80.4547 80.9123 80.0814 80.9123C79.7081 80.9123 79.4062 80.6103 79.4062 80.237V52.5259L79.971 52.4318C80.0262 52.422 99.8616 48.9058 99.8616 62.1428C99.8616 74.5941 82.8988 71.6428 80.7598 71.2207V80.237ZM80.7598 53.6753V69.8441L80.8117 69.8538C80.8604 69.8636 98.5081 73.7272 98.5081 62.1428C98.5081 51.7272 83.8401 53.2435 80.7598 53.6753Z" fill="white"/>
<path d="M97.91 79.9868C98.095 80.3082 97.9814 80.7206 97.6601 80.9056C97.3387 81.0907 96.9265 80.9803 96.7415 80.6556L91.1716 71.0095C90.9866 70.6849 91.097 70.2758 91.4216 70.0907C91.7429 69.9056 92.1551 70.016 92.3401 70.3375L97.91 79.9868Z" fill="white"/>
<path d="M103.495 54.0259C103.122 54.0259 102.816 53.724 102.816 53.3506C102.816 52.9772 103.122 52.6753 103.495 52.6753H114.651C115.024 52.6753 115.326 52.9772 115.326 53.3506C115.326 53.724 115.024 54.0259 114.651 54.0259H103.495Z" fill="white"/>
<path d="M103.495 80.2369C103.122 80.2369 102.816 79.9349 102.816 79.5616C102.816 79.1882 103.122 78.8862 103.495 78.8862H114.651C115.024 78.8862 115.326 79.1882 115.326 79.5616C115.326 79.9349 115.024 80.2369 114.651 80.2369H103.495Z" fill="white"/>
<path d="M108.566 53.9058C108.566 53.5324 108.868 53.2305 109.242 53.2305C109.618 53.2305 109.92 53.5324 109.92 53.9058V79.1753C109.92 79.5486 109.618 79.8506 109.242 79.8506C108.868 79.8506 108.566 79.5486 108.566 79.1753V53.9058Z" fill="white"/>
<path d="M121.248 79.3085C121.248 79.6818 120.943 79.987 120.57 79.987C120.196 79.987 119.895 79.6818 119.895 79.3085V51.7598L134.154 76.4643V53.4383C134.154 53.065 134.455 52.7598 134.829 52.7598C135.202 52.7598 135.507 53.065 135.507 53.4383V81.5065L121.248 56.8052V79.3085Z" fill="white"/>
<path d="M6.29166 9.38623H148.298V91.5713H5.61328V9.38623H6.29166ZM146.944 10.7401H6.96679V90.2174H146.944V10.7401Z" fill="white"/>
</svg>
